<?xml version="1.0" encoding="UTF-8"?>
<svg width="77px" height="76px" viewBox="0 0 77 76" version="1.1" xmlns="http://www.w3.org/2000/svg" xmlns:xlink="http://www.w3.org/1999/xlink">
    <title>AC_Master_Logo</title>
    <defs>
        <polygon id="path-1" points="0.0166987952 0.0191853659 16.581347 0.0191853659 16.581347 20.4040537 0.0166987952 20.4040537"></polygon>
        <path d="M3.94536867,28.3584732 C3.94536867,28.3584732 0.114386747,29.4876293 0.114386747,33.0002195 C0.114386747,36.5133659 3.81901446,38.394922 8.21413735,38.959361 C12.6095386,39.524078 23.9739036,39.5869171 28.5574446,46.4869756 C33.1409855,39.5869171 44.5056289,39.524078 48.9007518,38.959361 C50.5631169,38.7458195 52.1241759,38.3423707 53.4261253,37.7348341 L3.94509036,0.106492683 L3.94536867,28.3584732 L3.94536867,28.3584732 Z" id="path-3"></path>
        <path d="M0.951831325,0.15042439 C2.73943735,1.55540488 7.65138795,5.08356585 13.2889012,6.29752683 C15.3592735,6.74323902 17.4686096,6.96929268 19.5587422,6.96929268 C22.0435229,6.96929268 23.8982024,6.65176098 24.8308301,6.44878537 L25.1378096,7.19423415 C24.5288602,7.78925854 23.5110687,9.01322927 23.4314711,10.6014439 C23.349647,12.2385951 24.477094,13.8268098 25.1055253,14.5783756 L25.0838169,14.614522 C22.6599867,13.1141707 14.1834,8.29530732 5.29073494,8.29502927 C4.09649277,8.29502927 2.92924699,8.38483902 1.81321084,8.56167805 C1.64316145,8.32505854 1.3901747,8.04534146 1.01389518,7.74282439 C1.25519277,7.08134634 1.54964819,5.93161463 1.45196024,4.4237561 C1.35315904,2.90394146 0.630379518,1.68191707 0.0693,0.948702439 C0.363477108,0.74322439 0.683537349,0.47657561 0.951831325,0.15042439" id="path-5"></path>
        <path d="M24.1923795,0.15042439 C24.4603952,0.47657561 24.7807337,0.74322439 25.0749108,0.948702439 C24.513553,1.68191707 23.7910518,2.90394146 23.6922506,4.4237561 C23.5942843,5.93161463 23.8890181,7.08134634 24.1300373,7.74282439 C23.7537578,8.04534146 23.5007711,8.32505854 23.3307217,8.56167805 C22.2149639,8.38483902 21.0474398,8.29502927 19.8531976,8.29502927 C10.9608108,8.29530732 2.48394578,13.1141707 0.0603939759,14.614522 L0.0384072289,14.5783756 C0.666838554,13.8268098 1.79428554,12.2385951 1.71273976,10.6014439 C1.63314217,9.01322927 0.615350602,7.78925854 0.00612289157,7.19423415 L0.31310241,6.44878537 C1.24600843,6.65176098 3.10068795,6.96929268 5.58519036,6.96929268 C7.6756012,6.96929268 9.78465904,6.74323902 11.8550313,6.29752683 C17.4925446,5.08356585 22.4047735,1.55540488 24.1923795,0.15042439" id="path-7"></path>
    </defs>
    <g id="Page-1" stroke="none" stroke-width="1" fill="none" fill-rule="evenodd">
        <g id="Home" transform="translate(-144.000000, -3563.000000)">
            <g id="AC_Master_Logo" transform="translate(144.000000, 3563.000000)">
                <g id="Group-4" transform="translate(0.278313, 45.321951)">
                    <mask id="mask-2" fill="white">
                        <use xlink:href="#path-1"></use>
                    </mask>
                    <g id="Clip-2"></g>
                    <path d="M4.96427349,20.2071951 C3.92727831,20.2071951 3.43577711,19.5084585 3.28047831,19.0349415 L1.29276506,18.9331756 L1.39490602,18.6773707 C1.40548193,18.6512341 2.42911807,16.0726098 2.47531807,14.136 C2.51873494,12.3161707 1.83853735,11.6405122 0.39353494,10.8939512 L0.24213253,10.8155415 L1.6798988,6.6587122 L1.83436265,6.67289268 C1.83881566,6.67344878 1.91201205,6.6798439 2.03391325,6.6798439 C2.71550241,6.6798439 4.3742494,6.50105854 5.0589,4.8455561 C5.89829277,2.81440976 5.2353506,1.9146439 5.22839277,1.90602439 L5.08422651,1.71778537 L5.2940747,1.6085122 L7.94361687,0.260253659 L10.0234518,2.35813171 L9.87928554,2.4971561 C9.86258675,2.51272683 8.22805301,4.1268 8.78161807,7.03741463 C9.29983735,9.76145854 11.2967349,10.9248146 13.6582229,12.0620341 L13.7759494,12.1187561 L13.7695482,12.2497171 C13.7645386,12.3492585 13.6821578,14.7076683 16.4972964,16.0317366 L16.3422759,16.3940341 C16.1474566,16.318961 11.5605759,14.5319415 10.6187639,12.1562927 C10.3223602,11.4083415 9.63214337,10.1543415 8.34021325,10.1543415 C8.17767831,10.1543415 8.00818554,10.1779756 7.83368313,10.2249659 C7.96977831,10.6373122 8.12925181,11.5640488 7.22946506,12.3851268 C6.58127349,12.9762585 7.29653855,15.1100049 7.81865422,16.6676341 C8.0975241,17.5001122 8.33854337,18.2188683 8.38669157,18.6823756 L8.40895663,18.9000878 L6.76969157,18.9000878 C6.59685904,19.4147561 6.07001205,20.1880098 5.00685542,20.2069171 L4.96427349,20.2071951" id="Fill-1" fill="#25477B" mask="url(#mask-2)"></path>
                    <path d="M7.98258072,0.0191853659 L7.7259759,0.149868293 L5.20473614,1.43306341 L4.77307229,1.65272195 L5.0755988,2.03059024 C5.07671205,2.03225854 5.66311807,2.86751707 4.87632651,4.77020488 C4.23731928,6.31587805 2.67570361,6.48270732 2.03391325,6.48270732 C1.91980482,6.48270732 1.85189639,6.47686829 1.85133976,6.47686829 L1.54463855,6.45017561 L1.44305422,6.74073659 L0,10.9120244 L0.303083133,11.0685659 C1.6737759,11.7773122 2.31890602,12.4162683 2.27799398,14.1309951 C2.23262892,16.034239 1.22207349,18.5786634 1.21205422,18.6042439 L1.00693735,19.1158537 L1.55799759,19.1439366 L3.14132169,19.2251268 C3.35812771,19.7439659 3.90584819,20.4040537 4.96399518,20.4040537 L5.01297831,20.4037756 C6.09339036,20.3845902 6.67228193,19.6566585 6.90578675,19.0972244 L8.62771084,19.0972244 L8.5826241,18.6623561 C8.5322494,18.1766049 8.28816867,17.4483951 8.00540241,16.6047951 C7.5578747,15.2698829 6.80893373,13.0354829 7.36222048,12.5308244 C8.15652651,11.8062293 8.21803373,10.9537317 8.08583494,10.3717756 C8.17266867,10.3581512 8.25755422,10.3512 8.33993494,10.3512 C9.51525181,10.3512 10.1573205,11.5276244 10.4353554,12.2288634 C11.4088952,14.6840341 16.0734253,16.501639 16.2715843,16.5778244 L16.581347,15.8535073 C13.8950675,14.5897756 13.9624193,12.3537073 13.966594,12.2588927 L13.9780048,11.9994732 L13.7439434,11.884639 C11.4314386,10.7707756 9.47628795,9.63439024 8.9753241,7.00043415 C8.44346747,4.20437561 9.9519253,2.70096585 10.016494,2.63840488 L10.3017651,2.36119024 L10.0228952,2.07730244 L8.18519277,0.223829268 L7.98258072,0.0191853659 Z M7.90493133,0.501043902 L9.74263373,2.35451707 C9.74263373,2.35451707 8.00568072,4.01363415 8.58763373,7.07383902 C9.1161506,9.85126829 11.1060904,11.0516049 13.5725024,12.2397073 C13.5725024,12.2397073 13.4347373,14.808878 16.4132458,16.2102439 C16.4132458,16.2102439 11.7231108,14.4065415 10.801894,12.083722 C10.3827542,11.0263024 9.58510843,9.95720488 8.33993494,9.95720488 C8.10225542,9.95720488 7.84648554,10.0016927 7.57206867,10.1012341 C7.57206867,10.1012341 8.19020241,11.2415122 7.09643133,12.2397073 C6.00210361,13.2376244 8.04770602,17.3246634 8.19020241,18.7029512 L6.62051566,18.7029512 C6.62051566,18.7029512 6.33524458,19.9861463 5.00323735,20.0097805 C4.99015663,20.0100585 4.97679759,20.0100585 4.96399518,20.0100585 C3.6664988,20.0100585 3.4335506,18.8455902 3.4335506,18.8455902 L1.57831446,18.7504976 C1.57831446,18.7504976 2.62477229,16.136561 2.67236386,14.1404488 C2.71995542,12.1443366 1.86358554,11.4314195 0.48426506,10.7187805 L1.81599398,6.86947317 C1.81599398,6.86947317 1.89642651,6.87670244 2.03391325,6.87670244 C2.66512771,6.87670244 4.49865542,6.71654634 5.24091687,4.92062927 C6.14487831,2.73460976 5.38369157,1.78423902 5.38369157,1.78423902 L7.90493133,0.501043902 L7.90493133,0.501043902 Z" id="Fill-3" fill="#FFFFFE" mask="url(#mask-2)"></path>
                </g>
                <path d="M34.3121277,73.2830927 C26.9988904,69.5750341 21.3240831,68.7689707 17.7764241,68.7689707 C15.0464494,68.7689707 13.2340735,69.2258049 12.413606,69.4899512 C12.371859,69.0851122 12.2769542,68.5000976 12.0598699,67.9189756 L12.0467892,67.8878341 L11.6304325,67.0153171 L22.5756578,66.3894293 L32.8379024,71.1713122 L34.3121277,73.2830927" id="Fill-5" fill="#FFFFFE"></path>
                <path d="M22.5019048,66.7748049 L32.5840807,71.472439 L33.1579627,72.2940732 C26.4144325,69.1059659 21.1481892,68.388878 17.7764241,68.388878 C15.4113181,68.388878 13.7097108,68.7294878 12.7314398,69.0000293 C12.6718807,68.6349512 12.5744711,68.2095366 12.4166675,67.7857902 L12.4049783,67.7546488 L12.390506,67.7243415 L12.2176735,67.362322 L22.5019048,66.7748049" id="Fill-6" fill="#25477B"></path>
                <path d="M17.7764241,68.1917415 C20.9388976,68.1917415 26.0367614,68.8290293 32.5774012,71.8074878 L32.4527169,71.6287024 L22.4637759,66.9741659 L12.5221482,67.5424976 L12.6011892,67.716 C12.7205855,68.0363122 12.8168819,68.3844293 12.8881301,68.7542341 C13.9256819,68.485361 15.5660602,68.1917415 17.7764241,68.1917415 Z M33.7440904,72.789278 L33.0733554,72.4723024 C26.2791723,69.2602829 21.0045795,68.5860146 17.7764241,68.5860146 C15.4555699,68.5860146 13.7804024,68.9143902 12.784041,69.1896585 L12.5725229,69.2483268 L12.5368988,69.0317268 C12.4675988,68.6074244 12.3649012,68.2112049 12.2318675,67.8544683 L12.2123855,67.8085902 L11.9131988,67.1824244 L22.540312,66.5751659 L32.7157229,71.3164537 L33.7440904,72.789278 L33.7440904,72.789278 Z" id="Fill-7" fill="#FFFFFE"></path>
                <path d="M26.4982048,60.9766537 L27.5883578,60.0552 L27.9638024,60.4516976 C29.0893012,61.6398 32.0461012,62.6026829 33.4142892,62.6477268 L33.490547,62.648561 C34.7017663,62.648561 36.0123434,61.8013463 36.0254241,61.7927268 L36.1890723,61.6859561 L36.8291928,62.6452244 L36.6647096,62.7542195 C36.503288,62.8618244 35.0421434,63.8032976 33.5036277,63.8032976 C33.4610458,63.8032976 33.4184639,63.8027415 33.3758819,63.8010732 C32.1741253,63.7618683 30.112659,63.1760195 28.5758133,62.3190732 L30.2615566,65.3242244 L29.2532277,65.8883854 L26.4982048,60.9766537" id="Fill-8" fill="#25477B"></path>
                <path d="M27.6033867,59.7843805 L26.2463313,60.9310537 L29.1775265,66.1564244 L30.1855771,65.5925415 L30.5298506,65.3998537 L29.0684277,62.7942585 C30.5398699,63.498278 32.2924084,63.9628976 33.369759,63.9979317 C33.4137325,63.9996 33.458541,64.0004341 33.5036277,64.0004341 C35.1000325,64.0004341 36.6073771,63.0292098 36.7740867,62.9182683 L37.1027747,62.7 L36.2447349,61.4140244 L35.9174386,61.6278439 C35.9049145,61.6361854 34.6435988,62.4517024 33.4902687,62.4517024 C33.466612,62.4517024 33.4429554,62.4511463 33.4195771,62.4505902 C32.0792205,62.4066585 29.1652807,61.4329317 28.1071337,60.3162878 L27.6033867,59.7843805 Z M27.5733289,60.3260195 L27.8204711,60.5871073 C28.9779759,61.8085756 32.007694,62.7984293 33.4076096,62.8443073 C33.4351627,62.8451415 33.4627157,62.8456976 33.4902687,62.8456976 C34.7763542,62.8456976 36.119494,61.9665073 36.1334096,61.9576098 L36.5556108,62.5901707 C36.4918771,62.6327122 35.0168169,63.606161 33.5036277,63.606161 C33.4632723,63.606161 33.4229169,63.6056049 33.3825614,63.6042146 C32.0839518,63.5619512 29.5899867,62.8306829 28.0303193,61.7499073 L29.9929843,65.2485951 L29.3289289,65.6200683 L26.7495217,61.0219756 L27.5733289,60.3260195 L27.5733289,60.3260195 Z" id="Fill-9" fill="#FFFFFE"></path>
                <path d="M71.3464373,65.5288683 C70.283559,65.509961 69.7569904,64.7367073 69.5838795,64.222039 L67.9451711,64.222039 L67.9674361,64.0043268 C68.015306,63.5405415 68.2563253,62.8215073 68.5354735,61.9887512 C69.0575892,60.4314 69.7725759,58.2982098 69.1246627,57.707078 C68.2245976,56.886 68.3840711,55.9592634 68.519888,55.5469171 C68.3456639,55.4999268 68.1761711,55.4762927 68.0139145,55.4762927 C66.721706,55.4762927 66.0317675,56.7302927 65.7350855,57.4782439 C64.7927169,59.8538927 60.2061145,61.6409122 60.0115735,61.7159854 L59.856553,61.3536878 C62.6822675,60.0243366 62.5854145,57.5966927 62.5840229,57.5722244 L62.5767867,57.4409854 L62.6953482,57.3839854 C65.0571145,56.2467659 67.0537337,55.0836878 67.5722313,52.3593659 C68.1257964,49.4487512 66.4909843,47.834678 66.4745639,47.8191073 L66.3306759,47.680361 L68.4096759,45.5822049 L71.2751892,47.0405707 L71.1240651,47.2290878 C71.1184988,47.2365951 70.4555566,48.136361 71.2952277,50.1675073 C71.9796,51.8230098 73.6386253,52.0017951 74.3199361,52.0017951 C74.4418373,52.0017951 74.5147554,51.9954 74.5197651,51.9948439 L74.673394,51.9806634 L76.1114386,56.1374927 L75.9597578,56.2159024 C74.5150337,56.9624634 73.8351145,57.638122 73.878253,59.4579512 C73.924453,61.394561 74.9483675,63.9731854 74.9586651,63.999322 L75.0610843,64.2551268 L73.0733711,64.3568927 C72.9180723,64.8304098 72.4265711,65.5291463 71.3895759,65.5291463 L71.3464373,65.5288683" id="Fill-10" fill="#25477B"></path>
                <path d="M68.3712687,45.3411366 L66.0484663,47.6842537 L66.3384687,47.9614683 C66.4019241,48.0229171 67.9103819,49.5263268 67.3785253,52.3223854 C66.8772831,54.9563415 64.9224108,56.0927268 62.609906,57.2065902 L62.3730614,57.3205902 L62.3872554,57.5827902 C62.3914301,57.6756585 62.4587819,59.9117268 59.7725024,61.1754585 L60.0822651,61.8997756 C60.2804241,61.8235902 64.9449542,60.0059854 65.918494,57.5508146 C66.1965289,56.8495756 66.8383193,55.6731512 68.0136361,55.6731512 C68.0962952,55.6731512 68.1811807,55.6801024 68.2680145,55.6937268 C68.1358157,56.2756829 68.1973229,57.1279024 68.9913506,57.8527756 C69.5449157,58.3574341 68.7956964,60.5918341 68.3481687,61.9267463 C68.0654024,62.7703463 67.8213217,63.4985561 67.7712253,63.9843073 L67.7261386,64.4191756 L69.4480627,64.4191756 C69.6815675,64.9786098 70.2607373,65.7065415 71.3433759,65.7257268 L71.3895759,65.7260049 C72.4480012,65.7260049 72.9957217,65.0659171 73.2122494,64.547078 L74.7958518,64.4658878 L75.3463554,64.4378049 L75.1417952,63.9261951 C75.1314976,63.9006146 74.1209422,61.3534098 74.0755771,59.4529463 C74.0346651,57.7382195 74.6800735,57.0992634 76.0507663,56.3905171 L76.3538494,56.2339756 L76.2422458,55.9119951 L74.8094892,51.7704585 L74.5013964,51.7988195 C74.5013964,51.7988195 74.4337663,51.8046585 74.3199361,51.8046585 C73.6781458,51.8046585 72.1162518,51.6378293 71.4772446,50.0921561 C70.6907313,48.1894683 71.2771373,47.3542098 71.2832602,47.3458683 L71.5857867,46.968278 L71.1491133,46.7550146 L68.6278735,45.4718195 L68.3712687,45.3411366 Z M68.4486398,45.8229951 L70.9701578,47.1061902 C70.9701578,47.1061902 70.2089711,48.056561 71.1126542,50.2425805 C71.855194,52.0384976 73.6887217,52.1986537 74.3199361,52.1986537 C74.4574229,52.1986537 74.5378554,52.1914244 74.5378554,52.1914244 L75.8695843,56.0407317 C74.4902639,56.7533707 73.6336157,57.4662878 73.6812072,59.4624 C73.7287988,61.4585122 74.7755349,64.0724488 74.7755349,64.0724488 L72.9202988,64.1675415 C72.9202988,64.1675415 72.6870723,65.3320098 71.3895759,65.3320098 C71.3767735,65.3320098 71.3634145,65.3320098 71.350612,65.3317317 C70.0186048,65.3080976 69.7333337,64.0249024 69.7333337,64.0249024 L68.1633687,64.0249024 C68.3061434,62.6466146 70.3517458,58.5595756 69.2574181,57.5616585 C68.1633687,56.5634634 68.7815024,55.4231854 68.7815024,55.4231854 C68.5070855,55.3236439 68.2513157,55.2791561 68.0136361,55.2791561 C66.768741,55.2791561 65.9710952,56.3482537 65.5516771,57.4056732 C64.6307386,59.7284927 59.9406036,61.5321951 59.9406036,61.5321951 C62.919112,60.1308293 62.7810687,57.5616585 62.7810687,57.5616585 C65.247759,56.3735561 67.2376988,55.1732195 67.7659373,52.3957902 C68.3481687,49.3355854 66.6112157,47.6764683 66.6112157,47.6764683 L68.4486398,45.8229951 L68.4486398,45.8229951 Z" id="Fill-11" fill="#FFFFFE"></path>
                <path d="M46.370606,65.3242244 L48.0563494,62.3190732 C46.5192253,63.1760195 44.4580373,63.7618683 43.2560024,63.8010732 C43.2136988,63.8027415 43.1711169,63.8032976 43.1285349,63.8032976 C41.5930807,63.8032976 40.129153,62.8618244 39.967453,62.7544976 L39.8026916,62.6452244 L40.442812,61.6859561 L40.6064602,61.7927268 C40.6598964,61.827761 41.9303964,62.648561 43.1416157,62.648561 L43.2184301,62.6477268 C44.5860614,62.6026829 47.5428614,61.6398 48.6683602,60.4516976 L49.0438048,60.0552 L50.1339578,60.9766537 L47.3786566,65.8883854 L46.370606,65.3242244" id="Fill-12" fill="#25477B"></path>
                <path d="M49.0284976,59.7843805 L48.5250289,60.3162878 C47.4668819,61.4329317 44.5526639,62.4066585 43.2114723,62.4505902 C43.1889289,62.4511463 43.1652723,62.4517024 43.1416157,62.4517024 C41.9885639,62.4517024 40.7272482,61.6361854 40.7147241,61.6278439 L40.3874277,61.4140244 L40.1703434,61.7390634 L39.529388,62.7 L39.8580759,62.9182683 C40.0245072,63.0292098 41.5321301,64.0004341 43.1285349,64.0004341 C43.1733434,64.0004341 43.2184301,63.9996 43.2632386,63.9979317 C44.3397542,63.9628976 46.0920145,63.498278 47.5637349,62.7942585 L46.2951831,65.0559073 L46.1020337,65.3998537 L46.4463072,65.5925415 L47.4543578,66.1564244 L50.2266361,61.2146634 L50.385553,60.9310537 L50.1372976,60.7211268 L49.0284976,59.7843805 Z M49.0588337,60.3260195 L49.8823627,61.0219756 L47.3032337,65.6200683 L46.6391783,65.2485951 L48.6015651,61.7499073 C47.0418976,62.8306829 44.5479325,63.5619512 43.2493229,63.6042146 C43.2089675,63.6056049 43.1688904,63.606161 43.1285349,63.606161 C41.6153458,63.606161 40.1402855,62.6327122 40.0765518,62.5901707 L40.4984747,61.9576098 C40.5123904,61.9665073 41.8558084,62.8456976 43.1416157,62.8456976 C43.1691687,62.8456976 43.197,62.8451415 43.2242747,62.8443073 C44.6244687,62.7984293 47.6541867,61.8085756 48.8114133,60.5871073 L49.0588337,60.3260195 L49.0588337,60.3260195 Z" id="Fill-13" fill="#FFFFFE"></path>
                <path d="M13.6863325,46.4316439 C13.6863325,46.4316439 9.8553506,47.5608 9.8553506,51.0736683 C9.8553506,54.5862585 13.5599783,56.4680927 17.9551012,57.0325317 C22.3502241,57.5972488 33.7145892,57.6600878 38.2984084,64.5601463 C42.8822277,57.6600878 54.2465928,57.5972488 58.641994,57.0325317 C60.304359,56.8192683 61.8651398,56.4155415 63.1670892,55.8082829 L13.6857759,18.1796634 L13.6863325,46.4316439" id="Fill-14" fill="#009DCD"></path>
                <g id="Group-26" transform="translate(9.740964, 18.073171)">
                    <mask id="mask-4" fill="white">
                        <use xlink:href="#path-3"></use>
                    </mask>
                    <g id="Clip-16"></g>
                    <polygon id="Fill-15" fill="#25477B" mask="url(#mask-4)" points="13.8407964 46.4869756 18.7129482 46.4869756 18.7129482 0.106492683 13.8407964 0.106492683"></polygon>
                    <path d="M14.456147,46.3379415 L18.0975976,46.3379415 L18.0975976,0.237731707 L14.456147,0.237731707 L14.456147,46.3379415 Z M13.2251675,47.5680293 L19.3285771,47.5680293 L19.3285771,-0.992078049 L13.2251675,-0.992078049 L13.2251675,47.5680293 Z" id="Fill-17" fill="#FFFFFE" mask="url(#mask-4)"></path>
                    <polygon id="Fill-18" fill="#25477B" mask="url(#mask-4)" points="4.62723614 46.4869756 9.49966627 46.4869756 9.49966627 0.106492683 4.62723614 0.106492683"></polygon>
                    <path d="M5.24258675,46.8217463 L8.88403735,46.8217463 L8.88403735,0.721258537 L5.24258675,0.721258537 L5.24258675,46.8217463 Z M4.01160723,48.0515561 L10.1150169,48.0515561 L10.1150169,-0.50855122 L4.01160723,-0.50855122 L4.01160723,48.0515561 Z" id="Fill-19" fill="#FFFFFE" mask="url(#mask-4)"></path>
                    <polygon id="Fill-20" fill="#25477B" mask="url(#mask-4)" points="23.7367807 46.4869756 28.6089325 46.4869756 28.6089325 0.106492683 23.7367807 0.106492683"></polygon>
                    <path d="M24.3521313,46.3440585 L27.9935819,46.3440585 L27.9935819,0.243570732 L24.3521313,0.243570732 L24.3521313,46.3440585 Z M23.1211518,47.5741463 L29.2245614,47.5741463 L29.2245614,-0.986239024 L23.1211518,-0.986239024 L23.1211518,47.5741463 Z" id="Fill-21" fill="#FFFFFE" mask="url(#mask-4)"></path>
                    <polygon id="Fill-22" fill="#25477B" mask="url(#mask-4)" points="33.6327651 46.4869756 38.5051952 46.4869756 38.5051952 0.106492683 33.6327651 0.106492683"></polygon>
                    <path d="M34.248394,46.3496195 L37.8898446,46.3496195 L37.8898446,0.249409756 L34.248394,0.249409756 L34.248394,46.3496195 Z M33.0174145,47.5797073 L39.1208241,47.5797073 L39.1208241,-0.9804 L33.0174145,-0.9804 L33.0174145,47.5797073 Z" id="Fill-23" fill="#FFFFFE" mask="url(#mask-4)"></path>
                    <polygon id="Fill-24" fill="#25477B" mask="url(#mask-4)" points="43.5287494 46.4869756 48.4011795 46.4869756 48.4011795 0.106492683 43.5287494 0.106492683"></polygon>
                    <path d="M44.1443783,46.3557366 L47.7855506,46.3557366 L47.7855506,0.255526829 L44.1443783,0.255526829 L44.1443783,46.3557366 Z M42.9131205,47.5858244 L49.0168084,47.5858244 L49.0168084,-0.974282927 L42.9131205,-0.974282927 L42.9131205,47.5858244 Z" id="Fill-25" fill="#FFFFFE" mask="url(#mask-4)"></path>
                </g>
                <polyline id="Fill-27" fill="#25477B" points="62.9113193 7.22593171 70.7221807 1.26679024 5.87519277 1.26679024 62.9107627 44.6401756 62.9113193 7.22593171"></polyline>
                <polygon id="Fill-28" fill="#FFFFFE" points="37.6830578 27.7367561 38.9140373 27.7367561 38.9140373 1.26679024 37.6830578 1.26679024"></polygon>
                <path d="M14.5226639,19.6789024 L14.5226639,7.1814439 L61.991494,43.1806976 L61.9909373,47.2958195 C63.4963337,47.6392098 65.6652289,48.718039 65.6814714,51.0330732 C65.6908337,52.4814293 65.0351277,54.3944049 61.8534506,55.2799902 L61.5595518,55.3617366 L14.5226639,19.6789024" id="Fill-29" fill="#F6C03C"></path>
                <path d="M13.9070349,5.84625366 L13.9070349,8.42015122 L13.9075916,19.3738829 L13.9075916,19.983922 L60.9439229,55.6673122 L61.4304145,56.0360049 L62.0184904,55.8725122 C65.7629169,54.8298293 66.3061843,52.3905073 66.2965703,51.0289024 C66.2797446,48.5767902 64.250006,47.3252927 62.606288,46.8250829 L62.6065663,43.4859951 L62.6065663,42.875678 L62.1200747,42.5064293 L15.8825024,7.34438049 L13.9070349,5.84625366 Z M15.1380145,8.42015122 L61.3755867,43.4859951 L61.3753084,47.8093756 C61.3753084,47.8093756 65.0465386,48.2753854 65.0658425,51.0372439 C65.0791012,52.9727415 63.7579482,54.1116293 61.6884108,54.6877463 L15.1385711,19.3738829 L15.1380145,8.42015122 L15.1380145,8.42015122 Z" id="Fill-30" fill="#FFFFFE"></path>
                <path d="M15.1380145,8.42015122 L15.1380145,19.3738829 L61.6881325,54.6877463 C63.7579482,54.1113512 65.0791012,52.9727415 65.0658425,51.0372439 C65.0468169,48.2753854 61.3753084,47.8093756 61.3753084,47.8093756 L61.3758651,43.4859951 L15.1380145,8.42015122 Z M15.7469639,9.6455122 L60.7669157,43.7879561 L60.7666373,47.8093756 L60.7666373,48.3451756 L61.298494,48.4127415 C61.3068434,48.4138537 62.1223012,48.5209024 62.9399855,48.9310244 C63.9405217,49.4331805 64.4506699,50.143039 64.4571523,51.0414146 C64.466812,52.4742 63.6004229,53.4498732 61.8105904,54.0168146 L15.7469639,19.071922 L15.7469639,9.6455122 L15.7469639,9.6455122 Z" id="Fill-31" fill="#25477B"></path>
                <path d="M70.7221807,1.26679024 L5.87491446,1.26679024 L13.6854976,7.22620976 L13.6863325,46.4313659 C13.6863325,46.4313659 9.8553506,47.560522 9.8553506,51.0733902 C9.8553506,54.5862585 13.5599783,56.4680927 17.9551012,57.0328098 C22.3505024,57.5972488 33.7148675,57.6598098 38.2984084,64.5601463 C42.8822277,57.6598098 54.2465928,57.5972488 58.641994,57.0328098 C63.0368386,56.4680927 66.7417446,54.5862585 66.7417446,51.0733902 C66.7417446,47.560522 62.9107627,46.4313659 62.9107627,46.4313659 L62.9113193,7.22620976 L70.7221807,1.26679024 Z M67.0821217,2.4966 L61.6806181,6.61783902 L61.6806181,7.22620976 L61.6797831,46.4313659 L61.6856277,47.3433659 L62.5567482,47.6094585 C62.6772578,47.6458829 65.5107651,48.5412 65.5107651,51.0733902 C65.5107651,52.3054244 64.9045988,53.306678 63.6585904,54.1347073 C62.420653,54.9568976 60.6313771,55.5371854 58.4850253,55.8132878 C57.9183795,55.8858585 57.2259361,55.9503659 56.4238373,56.025161 C51.276712,56.5061854 42.9167386,57.2869463 38.2984084,62.5417902 C33.6803566,57.2869463 25.3201048,56.5061854 20.1727012,56.025161 C19.371159,55.9503659 18.6784373,55.8858585 18.1120699,55.8132878 C15.9651614,55.5371854 14.1764422,54.9568976 12.9385048,54.1347073 C11.6922181,53.306678 11.0863301,52.3054244 11.0863301,51.0733902 C11.0863301,48.5412 13.9198373,47.6458829 14.0347807,47.6108488 L14.917312,47.3505951 L14.917312,46.4313659 L14.9164771,7.22620976 L14.9164771,6.61783902 L9.51441687,2.4966 L67.0821217,2.4966 L67.0821217,2.4966 Z" id="Fill-32" fill="#FFFFFE"></path>
                <path d="M14.6440084,6.75241463 L14.6445651,47.1470634 L13.957688,47.349761 C13.8302205,47.3881317 10.8138614,48.324878 10.8138614,51.0736683 C10.8138614,52.2993073 11.521612,55.2410634 18.0772807,56.0829951 C18.6403084,56.1555659 19.3227325,56.219239 20.1128639,56.2932 L20.148488,56.2968146 C25.2675036,56.7747805 33.7953,57.5708341 38.2986867,62.9613659 C42.8020735,57.5708341 51.3295916,56.7747805 56.4486072,56.2968146 L56.4828398,56.293478 C57.273806,56.219239 57.9567867,56.1555659 58.5195361,56.0829951 C65.0754831,55.2410634 65.7832337,52.2993073 65.7832337,51.0736683 C65.7832337,48.3215415 62.6708566,47.3592146 62.6394072,47.349761 L61.9522518,47.1470634 L61.9528084,6.75241463 L67.8878386,2.22439024 L8.70897831,2.22439024 L14.6440084,6.75241463 Z M37.500206,65.0895512 C33.7824976,59.4929854 25.1361398,58.6855317 19.9700892,58.2031171 C19.1493434,58.1266537 18.4407578,58.060478 17.8329217,57.9820683 C12.2374337,57.2635902 8.89711807,54.6807951 8.89711807,51.0736683 C8.89711807,49.3252976 9.6914241,47.8027024 11.193759,46.6710439 C11.7570651,46.2461854 12.3206494,45.9553463 12.7281,45.7751707 L12.7275434,7.69944878 L3.0408506,0.309468293 L73.5559663,0.309468293 L63.8695518,7.69944878 L63.8689952,45.7751707 C64.2758892,45.9550683 64.8391952,46.2459073 65.4030578,46.6710439 C66.9053928,47.8027024 67.6999771,49.3252976 67.6999771,51.0736683 C67.6999771,54.6807951 64.3593831,57.2635902 58.7638952,57.9820683 C58.1563373,58.060478 57.4474735,58.1266537 56.627006,58.2031171 C51.4609554,58.6858098 42.8145976,59.4932634 39.0968892,65.0895512 L38.2986867,66.2918341 L37.500206,65.0895512 L37.500206,65.0895512 Z" id="Fill-33" fill="#25477B"></path>
                <path d="M9.29204458,2.42124878 L67.3047723,2.42124878 L61.7557627,6.65481951 L61.7557627,6.84973171 L61.755206,46.9996976 L61.755206,47.2941512 L62.0379723,47.3778439 L62.5837446,47.5388341 C62.6126892,47.5474537 65.5859096,48.4772488 65.5859096,51.0736683 C65.5859096,52.2470341 64.8951361,55.0653366 58.494488,55.8878049 C57.9348,55.9595415 57.2529325,56.0234927 56.4636361,56.0971756 L56.4302386,56.1005122 C51.3373843,56.5759756 42.8902988,57.365078 38.2984084,62.6574585 C33.7067964,57.365078 25.2597108,56.5759756 20.1668566,56.1005122 L20.1320675,56.0971756 C19.3433277,56.0232146 18.6620169,55.9595415 18.1026072,55.8878049 C11.701959,55.0653366 11.0109072,52.2470341 11.0109072,51.0736683 C11.0109072,48.4700195 13.8925627,47.5749805 14.0152988,47.538278 L14.5591229,47.3778439 L14.8418892,47.2941512 L14.8413325,6.84973171 L14.8413325,6.65481951 L9.29204458,2.42124878 Z M74.1390325,0.112331707 L2.45778434,0.112331707 L12.5302193,7.79676585 L12.5307759,45.6481024 C12.1258301,45.8349512 11.600653,46.1174488 11.0749193,46.5136683 C9.52109639,47.6839756 8.69979398,49.2607902 8.69979398,51.0736683 C8.69979398,54.7895122 12.1046783,57.4451561 17.8078735,58.1775366 C18.4184928,58.2562244 19.1290265,58.3224 19.9517205,58.3991415 C25.0824253,58.8784976 33.670059,59.6803902 37.3357229,65.1985463 L38.2984084,66.6480146 L39.2613723,65.1985463 C42.9267578,59.6803902 51.5143916,58.8784976 56.6453747,58.3991415 C57.4677904,58.3224 58.1783241,58.2562244 58.7892217,58.1775366 C64.4921386,57.4451561 67.8970229,54.7895122 67.8970229,51.0736683 C67.8970229,49.2607902 67.0757205,47.6839756 65.5216193,46.5133902 C64.9958855,46.1171707 64.4707084,45.8346732 64.066041,45.6481024 L64.0665976,7.79676585 L74.1390325,0.112331707 Z M68.4711831,2.02725366 L8.12563373,2.02725366 L14.4466843,6.84973171 L14.4475193,46.9996976 L13.901747,47.1606878 C13.7695482,47.2004488 10.6165373,48.1836293 10.6165373,51.0736683 C10.6165373,52.3513024 11.3409867,55.4165122 18.0522325,56.2784634 C18.6269494,56.3524244 19.3235675,56.4172098 20.1301193,56.492839 C25.3395867,56.9794244 33.8902048,57.7779805 38.2984084,63.2727805 C42.7068904,57.7779805 51.2572301,56.9794244 56.4669759,56.492839 C57.273806,56.4172098 57.9701458,56.3524244 58.5448627,56.2784634 C65.2558301,55.4165122 65.9805578,52.3513024 65.9805578,51.0736683 C65.9805578,48.1627756 62.7279108,47.1701415 62.6953482,47.1606878 L62.1495759,46.9996976 L62.1501325,6.84973171 L68.4711831,2.02725366 L68.4711831,2.02725366 Z M72.9726217,0.506326829 L63.6722277,7.60185366 L63.6716711,45.9047415 C64.0866361,46.0799122 64.6855663,46.3771463 65.2842181,46.8281415 C66.7356217,47.9214293 67.5023747,49.3892488 67.5023747,51.0736683 C67.5023747,54.5723561 64.2263494,57.0820244 58.738847,57.7866 C58.138247,57.8638976 57.4293831,57.9303512 56.6086373,58.0068146 C51.4075193,58.4925659 42.7024373,59.3058585 38.9326843,64.9805561 L38.2984084,65.9353756 L37.6644108,64.9805561 C33.8946578,59.3058585 25.1892976,58.4925659 19.9881795,58.0068146 C19.167712,57.9303512 18.4588482,57.8638976 17.8582482,57.7866 C12.3704675,57.0820244 9.09416386,54.5723561 9.09416386,51.0736683 C9.09416386,49.3892488 9.86147349,47.9214293 11.3125988,46.8281415 C11.9109723,46.3771463 12.510459,46.0799122 12.9251458,45.9047415 L12.9245892,7.60185366 L3.62419518,0.506326829 L72.9726217,0.506326829 L72.9726217,0.506326829 Z" id="Fill-34" fill="#FFFFFE"></path>
                <path d="M20.4883084,7.37948293 C20.6708819,7.45309154 21.0997627,7.54106282 21.7543554,7.54106282 C22.4086699,7.54106282 22.8375506,7.45309154 23.0201241,7.37948293 C22.8375506,7.30587431 22.4086699,7.21790303 21.7543554,7.21790303 C21.0997627,7.21790303 20.6708819,7.30587431 20.4883084,7.37948293 Z M21.7543554,7.87948293 C21.3655518,7.87948293 20.0967217,7.84357628 20.0967217,7.37948293 C20.0967217,6.91538957 21.3655518,6.87948293 21.7543554,6.87948293 C22.143159,6.87948293 23.4117108,6.91538957 23.4117108,7.37948293 C23.4117108,7.84357628 22.143159,7.87948293 21.7543554,7.87948293 L21.7543554,7.87948293 Z" id="Fill-35" fill="#F6C03C"></path>
                <path d="M20.6533482,6.70347805 C20.6533482,6.70347805 20.7468614,6.6912439 20.6533482,6.06897073 C20.6533482,6.06897073 20.9461337,6.6564878 21.3741795,6.62256585 L20.6533482,6.70347805" id="Fill-36" fill="#F6C03C"></path>
                <path d="M21.7479542,6.49521951 C21.797494,6.4968878 22.6232494,6.53136585 23.1943482,6.66677561 C23.3084566,6.51218049 23.4818458,6.2346878 23.4826811,6.03699512 C23.4832373,5.87739512 22.9369084,5.73169756 22.6101687,5.64439024 C22.2575458,5.55040976 21.9369289,5.46504878 21.754912,5.32018537 C21.5723386,5.46504878 21.252,5.55040976 20.8993771,5.64466829 C20.5726373,5.73169756 20.0263084,5.87739512 20.0268646,6.03671707 C20.0277,6.2346878 20.2013675,6.51218049 20.3151976,6.66677561 C20.8857398,6.53136585 21.7109386,6.4968878 21.7479542,6.49521951 Z M20.198306,7.02323415 L20.1331807,6.94538049 C20.0903205,6.89394146 19.7137627,6.43126829 19.7120877,6.03838537 C19.7101446,5.63604878 20.2734506,5.48590244 20.8181096,5.34048293 C21.0680349,5.27402927 21.5882024,5.13528293 21.5973867,5.02545366 L21.6093542,4.88142439 L21.8990783,4.88142439 L21.9118807,5.02545366 C21.9213434,5.13528293 22.4412325,5.27402927 22.6911578,5.34048293 C23.2360952,5.48590244 23.7994012,5.63604878 23.7974581,6.03838537 C23.7957831,6.43126829 23.4192253,6.89394146 23.3763651,6.94538049 L23.3112398,7.02323415 L23.2132735,6.99626341 C22.6791904,6.84834146 21.7579735,6.80997073 21.7487892,6.80941463 C21.751294,6.80997073 20.8295205,6.84861951 20.2962723,6.99626341 L20.198306,7.02323415 L20.198306,7.02323415 Z" id="Fill-37" fill="#F6C03C"></path>
                <path d="M22.8561976,6.70347805 C22.8561976,6.70347805 22.7626843,6.6912439 22.8561976,6.06897073 C22.8561976,6.06897073 22.563412,6.6564878 22.1348096,6.62256585 L22.8561976,6.70347805" id="Fill-38" fill="#F6C03C"></path>
                <path d="M21.754912,6.38622439 C21.754912,6.38622439 21.9102108,6.33033659 21.9522361,6.06897073 C21.9942614,5.80760488 21.7440578,5.77201463 21.7551904,5.58210732 C21.7663229,5.3916439 21.7551904,5.03852195 21.7551904,4.86919024 C21.7551904,4.69958049 22.0532639,4.5839122 22.135088,4.46518537 C22.2166337,4.34645854 21.9344241,4.01363415 21.7551904,4.01363415 L21.7543554,4.01363415 C21.5751217,4.01363415 21.2926337,4.34645854 21.3744578,4.46518537 C21.4562819,4.5839122 21.7543554,4.69958049 21.7543554,4.86919024 C21.7543554,5.03852195 21.7429446,5.3916439 21.7543554,5.58210732 C21.765488,5.77201463 21.5155627,5.80760488 21.5573096,6.06897073 C21.5993349,6.33033659 21.7546337,6.38622439 21.754912,6.38622439" id="Fill-39" fill="#F6C03C"></path>
                <polyline id="Fill-40" fill="#FFFFFE" points="30.8398916 7.42557073 29.7380494 6.83555122 28.6267446 7.40805366 28.8480036 6.17852195 27.9593494 5.29905366 29.1984 5.12972195 29.7605928 4.0139122 30.3052518 5.13834146 31.5409627 5.32797073 30.6386711 6.19270244 30.8398916 7.42557073"></polyline>
                <polyline id="Fill-41" fill="#FFFFFE" points="29.258794 13.2604244 28.0901566 12.8155463 27.0609542 13.5248488 27.1235747 12.2772439 26.1299964 11.5184488 27.3373193 11.1922976 27.752841 10.0139268 28.4361 11.0599463 29.6860048 11.0905317 28.9017181 12.0631463 29.258794 13.2604244"></polyline>
                <polyline id="Fill-42" fill="#FFFFFE" points="35.8612193 11.0596683 34.7638301 10.4610293 33.647794 11.0246341 33.878794 9.79704878 32.9970976 8.91146341 34.2369831 8.75102927 34.8080819 7.63966829 35.3438349 8.76826829 36.5781542 8.96707317 35.6691831 9.82513171 35.8612193 11.0596683"></polyline>
                <polyline id="Fill-43" fill="#FFFFFE" points="35.9049145 19.7436878 34.8982554 19.0029659 33.7165373 19.4114195 34.1109072 18.2258195 33.3566783 17.2292927 34.6071398 17.2373561 35.3224048 16.2133024 35.7014675 17.4036293 36.8976578 17.767039 35.8812578 18.4946927 35.9049145 19.7436878"></polyline>
                <polyline id="Fill-44" fill="#FFFFFE" points="34.6964783 14.8055415 34.0410506 14.3234049 33.2717928 14.5892195 33.5286759 13.8173561 33.0377313 13.1686683 33.8515193 13.1739512 34.3174157 12.5071902 34.5637229 13.2823902 35.3427217 13.5190098 34.6808928 13.9925268 34.6964783 14.8055415"></polyline>
                <path d="M50.6271289,21.2176244 C50.6271289,21.2176244 50.6229542,21.2087268 50.6223976,21.2081707 C50.6221193,21.2087268 50.6179446,21.2176244 50.6179446,21.2176244 L50.6271289,21.2176244" id="Fill-45" fill="#009DCD"></path>
                <path d="M50.6271289,27.9422341 C50.6257373,27.9422341 50.6240675,27.9414 50.6223976,27.9414 C50.621006,27.9414 50.6196145,27.9422341 50.6179446,27.9422341 L50.6271289,27.9422341" id="Fill-46" fill="#009DCD"></path>
                <path d="M50.6179446,23.427278 C50.6179446,23.427278 50.6221193,23.4375659 50.6226759,23.4395122 C50.6232325,23.4375659 50.6274072,23.427278 50.6274072,23.427278 L50.6179446,23.427278" id="Fill-47" fill="#009DCD"></path>
                <polyline id="Fill-48" fill="#009DCD" points="50.6271289 27.0154976 50.6223976 27.0107707 50.6179446 27.0154976 50.6271289 27.0154976"></polyline>
                <path d="M20.665594,16.7643951 L19.2292193,17.5687902 L20.2651012,18.3573366 L20.665594,16.7643951 Z M19.7004036,20.6195415 L19.9965289,19.4333854 L18.2618024,18.1134878 L17.1958627,18.7135171 L16.2134169,17.9658439 L21.1540337,15.1920293 L22.0476976,15.8721366 L20.683406,21.3674927 L19.7004036,20.6195415 L19.7004036,20.6195415 Z" id="Fill-49" fill="#25477B"></path>
                <path d="M24.6246,19.1372634 C24.4804337,19.1428244 24.3618723,19.2053854 24.2703072,19.3255024 C24.1784639,19.4458976 24.1600952,19.5829756 24.2143663,19.7364585 C24.269194,19.8902195 24.4556639,20.1646537 24.7748892,20.560039 C25.0938361,20.9557024 25.2883771,21.3327366 25.3576771,21.6908634 C25.427812,22.0495463 25.3212181,22.4140683 25.0384518,22.7847073 C24.7559639,23.1553463 24.3874771,23.3499805 23.9335482,23.3691659 C23.479341,23.3877951 23.0248554,23.2245805 22.5709265,22.8792439 C21.9163337,22.3809805 21.5111096,21.6891951 21.3555325,20.8044439 L22.4206373,20.5491951 C22.5689783,21.2790732 22.832541,21.7881805 23.2113253,22.076239 C23.3810964,22.2055317 23.5422398,22.2705951 23.6947554,22.2711512 C23.8467145,22.2717073 23.9705639,22.2102585 24.0651904,22.0859707 C24.1598169,21.9616829 24.1834735,21.8240488 24.1364386,21.6727902 C24.0894036,21.5218098 23.9424542,21.2932537 23.696147,20.987122 C23.3014988,20.5060976 23.062706,20.0893024 22.9794904,19.7361805 C22.8962747,19.3830585 23.0045386,19.0104732 23.303447,18.6181463 C23.6026337,18.2258195 23.9747386,18.0303512 24.4194831,18.0322832 C24.8636711,18.0339659 25.2970048,18.1955122 25.7197627,18.5169366 C25.9958494,18.7271415 26.2360337,18.9851707 26.4400373,19.2896341 C26.6445976,19.5949317 26.782641,19.9119073 26.8558373,20.2416732 L25.8742265,20.5603171 C25.7222675,20.0145073 25.4548084,19.596322 25.072406,19.3052049 C24.9182205,19.1878683 24.7687663,19.1319805 24.6246,19.1372634" id="Fill-50" fill="#25477B"></path>
                <path d="M28.4021458,22.0120098 C28.2577012,22.0175707 28.1394181,22.0801317 28.0475747,22.2002488 C27.9560096,22.3206439 27.937641,22.457722 27.991912,22.6112049 C28.0464614,22.7649659 28.2332096,23.0394 28.5524349,23.4347854 C28.8711036,23.8304488 29.0656446,24.2074829 29.1352229,24.5656098 C29.2050795,24.9242927 29.0987639,25.2888146 28.8159976,25.6594537 C28.5335096,26.0300927 28.1650229,26.2247268 27.711094,26.2439122 C27.2566084,26.2625415 26.8024012,26.0993268 26.3484723,25.7539902 C25.6938795,25.2557268 25.2883771,24.5639415 25.1330783,23.6791902 L26.1979048,23.4239415 C26.3465241,24.1538195 26.6100867,24.6629268 26.9888711,24.9509854 C27.1583639,25.080278 27.3195072,25.1453415 27.4723012,25.1458976 C27.6242602,25.1464537 27.7478313,25.0850049 27.8427361,24.9607171 C27.9373627,24.8367073 27.9610193,24.6987951 27.9139843,24.5475366 C27.8669494,24.3965561 27.72,24.168 27.4736928,23.8618683 C27.0790446,23.3808439 26.8402518,22.9640488 26.7570361,22.6109268 C26.6738205,22.2578049 26.781806,21.8852195 27.0809928,21.4928927 C27.3801795,21.1005659 27.7522843,20.9050976 28.1970289,20.9070295 C28.6409386,20.9087122 29.0745506,21.0702585 29.4970301,21.391961 C29.7731169,21.6018878 30.0135795,21.8599171 30.2175831,22.1646585 C30.4221434,22.469678 30.5601867,22.7866537 30.6331048,23.1164195 L29.651494,23.4350634 C29.4998133,22.8892537 29.2323542,22.4710683 28.8499518,22.1799512 C28.6957663,22.0626146 28.546312,22.0067268 28.4021458,22.0120098" id="Fill-51" fill="#25477B"></path>
                <path d="M30.5969241,27.2251463 C30.6052735,27.5337805 30.7396988,27.7870829 30.9999217,27.9850537 C31.2604229,28.1833024 31.5395711,28.2447512 31.8373663,28.1688439 C32.1351614,28.0937707 32.4101349,27.889961 32.6625651,27.5585268 L34.4036928,25.2751902 L35.3274145,25.9783756 L33.5637434,28.2911854 C33.106753,28.8903805 32.5899253,29.2248732 32.0135386,29.2938293 C31.4368735,29.3630634 30.889988,29.2006829 30.3728819,28.8072439 C29.8560542,28.4138049 29.553806,27.9280537 29.4669723,27.3511024 C29.3798602,26.7741512 29.563547,26.1877463 30.0174759,25.5924439 L31.781147,23.2793561 L32.7048687,23.9825415 L30.963741,26.265878 C30.7113108,26.5970341 30.5891313,26.9170683 30.5969241,27.2251463" id="Fill-52" fill="#25477B"></path>
                <polyline id="Fill-53" fill="#25477B" points="38.8244205 31.0611073 35.9828422 32.4691463 35.4323386 32.0498488 36.0421229 28.9434878 34.0577494 31.5460244 33.1340277 30.8431171 36.2864819 26.7082537 37.5361084 27.6591805 36.8692699 30.7413512 39.6732759 29.2857659 40.9165012 30.2316878 37.7637687 34.3662732 36.8403253 33.6633659 38.8244205 31.0611073"></polyline>
                <path d="M42.5852675,34.6568341 C42.790941,34.6167951 42.984647,34.4774927 43.1663855,34.2389268 C43.3484024,34.000639 43.4054566,33.7756976 43.3381048,33.5654927 C43.270753,33.3552878 43.0848398,33.1347951 42.7809217,32.9034585 L42.2540747,32.5025122 L41.1942578,33.892478 L41.8160096,34.365439 C42.1238241,34.5998341 42.3801506,34.6968732 42.5852675,34.6568341 Z M44.5036807,33.5457512 C44.6061,34.0137073 44.4624904,34.5025171 44.0731301,35.0130146 C43.6837699,35.5237902 43.2496012,35.7837659 42.771459,35.7937756 C42.2927602,35.8032293 41.7475446,35.5755073 41.135812,35.1097756 L40.5855867,34.6910341 L39.7061169,35.8443805 L38.7823952,35.1414732 L41.9351277,31.0068878 L43.3973855,32.119639 C44.0327747,32.6034439 44.4012614,33.0789073 44.5036807,33.5457512 L44.5036807,33.5457512 Z" id="Fill-54" fill="#25477B"></path>
                <polyline id="Fill-55" fill="#25477B" points="47.086706 36.189439 44.5432012 39.5254683 43.6194795 38.822561 46.1629843 35.4865317 44.9907289 34.5945512 45.5996783 33.7957171 48.8679108 36.2831415 48.2589614 37.0816976 47.086706 36.189439"></polyline>
                <polyline id="Fill-56" fill="#25477B" points="49.5430988 36.7966976 50.4665422 37.4996049 47.314088 41.6344683 46.3903663 40.931561 49.5430988 36.7966976"></polyline>
                <path d="M53.0940976,42.7285902 C53.3749157,42.3601756 53.4962602,41.9553366 53.4581313,41.5151854 C53.4194458,41.074478 53.2279663,40.7227463 52.8823012,40.4597122 C52.5369145,40.1969561 52.1467193,40.105478 51.7114373,40.1858341 C51.2761554,40.2656341 50.917688,40.4900195 50.6365916,40.8587122 C50.3554952,41.2276829 50.2349855,41.6311317 50.2750627,42.0698927 C50.3148614,42.5080976 50.5071759,42.8587171 50.852841,43.1217512 C51.1982277,43.3845073 51.5878663,43.4768195 52.0217566,43.3989659 C52.4550904,43.3208341 52.8127229,43.097561 53.0940976,42.7285902 Z M52.2485819,44.4875268 C51.5191229,44.5773366 50.848388,44.3896537 50.2366554,43.923922 C49.6246446,43.4581902 49.2650639,42.8620537 49.1581916,42.1355122 C49.0504843,41.4089707 49.2286048,40.7419317 49.6917181,40.1346732 C50.154553,39.5276927 50.7507,39.1790195 51.4807157,39.0894878 C52.2101747,38.999678 52.8809096,39.187639 53.4929205,39.6530927 C54.104653,40.1188244 54.4642337,40.714961 54.571106,41.4415024 C54.6779783,42.1680439 54.5006928,42.8350829 54.0375795,43.4423415 C53.5747446,44.0496 52.9777627,44.3977171 52.2485819,44.4875268 L52.2485819,44.4875268 Z" id="Fill-57" fill="#25477B"></path>
                <polyline id="Fill-58" fill="#25477B" points="59.2704253 44.1997463 60.194147 44.9026537 57.0414145 49.037239 56.1179711 48.3343317 56.1215892 44.243122 54.1461217 46.8339805 53.2226783 46.1307951 56.3751325 41.9962098 57.2395735 42.6540732 57.2406867 46.8615073 59.2704253 44.1997463"></polyline>
                <path d="" id="Fill-59" fill="#25477B"></path>
                <path d="" id="Stroke-60" stroke="#FFFFFE" stroke-width="0.5"></path>
                <path d="M12.2176735,67.8931171 C12.2176735,67.8931171 17.2788,66.8226293 24.6905602,69.2555561 C24.6905602,69.2555561 18.4983687,67.3956878 12.4717735,68.9338537 C12.3690759,68.423078 12.371859,68.3730293 12.2176735,67.8931171" id="Fill-61" fill="#FFFFFE"></path>
                <path d="M35.338547,74.8554585 C27.9292916,70.6724927 21.8233771,69.7944146 18.0057542,69.7944146 C15.8335193,69.7944146 13.7547976,70.0749659 12.1519916,70.5846293 L11.863659,70.6761073 L11.8686687,70.4016732 C11.8959434,68.9118878 11.5310747,68.1683854 11.5274566,68.1611561 L11.5168807,68.1400244 L11.5113145,68.1161122 C11.5104795,68.1133317 11.3515627,67.5486146 10.2630795,66.832639 L10.108894,66.7314293 L10.2001807,66.5707171 C10.2074169,66.5576488 10.9296398,65.259439 10.7932663,63.1540537 C10.6571711,61.0597902 9.06521928,59.5825171 9.04907711,59.5677805 L8.82531325,59.3634146 L9.10306988,59.2419073 C9.11754217,59.2355122 10.5466807,58.5990585 10.8486506,57.6069805 L10.9371542,57.3166976 L11.1667627,57.5155024 C11.2249301,57.5658293 17.0773012,62.5846098 23.788547,64.0299073 C25.7915675,64.461439 27.8332735,64.6799854 29.8566108,64.6799854 C33.2954494,64.6799854 35.5055349,64.0399171 35.5275217,64.033522 L35.6981277,63.9831951 L36.5845554,66.1364049 L36.4640458,66.228439 C36.4470687,66.2412293 34.775241,67.533322 34.6861807,69.3172829 C34.5962855,71.1101415 36.465159,72.9989268 36.4840843,73.0178341 L36.5929048,73.1268293 L35.7999904,74.4464488 L35.5088747,74.9516634 L35.338547,74.8554585" id="Fill-62" fill="#25477B"></path>
                <path d="M10.8369614,56.9691366 L10.6599542,57.5494244 C10.4303458,58.3037707 9.40114337,58.8965707 9.02402892,59.0614537 L8.46823735,59.3041902 L8.91604337,59.7132 C8.93107229,59.7271024 10.4659699,61.160722 10.5962205,63.1668439 C10.7298108,65.2227366 10.0359759,66.4600537 10.0290181,66.4722878 L9.84505301,66.7937122 L10.1545373,66.9972439 C11.1495072,67.6514927 11.3178867,68.1553171 11.319,68.1600439 L11.3298542,68.2078683 L11.3521193,68.251522 C11.3543458,68.2559707 11.6977843,68.9686098 11.6713446,70.3980585 L11.6613253,70.9466488 L12.1848325,70.7809317 L12.2121072,70.7723122 C13.795988,70.2687659 15.8535578,69.9915512 18.0057542,69.9915512 C21.7997205,69.9915512 27.8697325,70.8649024 35.2414157,75.0270146 L35.5817928,75.2191463 L35.9725446,74.5423756 L36.8411602,73.0959659 L36.6235193,72.8785317 C36.6054289,72.8604585 34.7980627,71.0283951 34.8832265,69.3272927 C34.9675554,67.6381463 36.5673,66.3974927 36.5834422,66.3852585 L36.8239048,66.2017463 L36.7092398,65.9217512 L35.9483313,64.0724488 L35.8130711,63.7443512 L35.471859,63.8444488 C35.4501506,63.8508439 33.2567639,64.4831268 29.8563325,64.4831268 C27.8477458,64.4831268 25.8202337,64.2659707 23.8300157,63.8372195 C17.1708145,62.403322 11.3537892,57.4165171 11.2959,57.3664683 L10.8369614,56.9691366 Z M11.037347,57.6642585 C11.037347,57.6642585 16.9055819,62.7492146 23.7470783,64.2223171 C26.0272988,64.7136293 28.1026807,64.877122 29.8563325,64.877122 C33.3636361,64.877122 35.5834627,64.2223171 35.5834627,64.2223171 L36.3446494,66.0716195 C36.3446494,66.0716195 34.5843181,67.4068098 34.4891349,69.3075512 C34.3939518,71.2085707 36.3446494,73.1571366 36.3446494,73.1571366 L35.6310542,74.345239 L35.4354,74.6839024 C28.1639096,70.5785122 22.1278518,69.597278 18.0057542,69.597278 C14.5268386,69.597278 12.4108229,70.2962927 12.0657145,70.4052878 C12.094659,68.8362585 11.7033506,68.0721805 11.7033506,68.0721805 C11.7033506,68.0721805 11.5608542,67.4501854 10.3713434,66.6680341 C10.3713434,66.6680341 11.1325301,65.339239 10.9900337,63.1412634 C10.847259,60.9435659 9.18211084,59.422361 9.18211084,59.422361 C9.18211084,59.422361 10.7044843,58.7572683 11.037347,57.6642585 L11.037347,57.6642585 Z" id="Fill-63" fill="#FFFFFE"></path>
                <g id="Group-66" transform="translate(10.297590, 58.668293)">
                    <mask id="mask-6" fill="white">
                        <use xlink:href="#path-5"></use>
                    </mask>
                    <g id="Clip-65"></g>
                    <path d="M25.2087795,15.145039 C23.3827663,13.9958634 14.4288723,8.67512195 5.29073494,8.67512195 C4.02858434,8.67512195 2.79788313,8.77716585 1.62785422,8.97763902 C1.47255542,8.71154634 1.1633494,8.31532683 0.55606988,7.87156098 C0.785956627,7.33186829 1.18143976,6.13153171 1.07206265,4.44850244 C0.962407229,2.76380488 0.0353457831,1.46754146 -0.494006024,0.856390244 C-0.0773710843,0.610317073 0.517940964,0.184346341 0.875851807,-0.395941463 C2.30220723,0.759907317 7.43096386,4.64702927 13.3690554,5.92605366 C15.4127096,6.36620488 17.495606,6.5892 19.5584639,6.5892 C22.3399265,6.5892 24.3089928,6.18825366 25.0601602,6.00613171 L25.589512,7.29099512 C25.0793639,7.74671707 23.8937494,8.97597073 23.8119253,10.6203512 C23.7273181,12.300322 25.050141,13.9544341 25.5733699,14.5386146 L25.2087795,15.145039" id="Fill-64" fill="#F6C03C" mask="url(#mask-6)"></path>
                </g>
                <path d="M12.5240964,68.2025854 C12.5240964,68.2025854 17.5849446,67.1320976 24.9967048,69.5647463 C24.9967048,69.5647463 18.8045133,67.704878 12.7779181,69.2430439 C12.6752205,68.7325463 12.6780036,68.6822195 12.5240964,68.2025854" id="Fill-67" fill="#FFFFFE"></path>
                <path d="M8.03351205,46.7525122 L9.00426867,47.731522 C8.44652892,48.5514878 7.67114819,50.1861366 8.11839759,52.5378732 C8.26284217,53.2980585 8.50580964,53.9536976 8.82642651,54.5270341 C8.75545663,54.5214732 8.68587831,54.5186927 8.61824819,54.5186927 C8.28482892,54.5186927 7.93944217,54.5823659 7.59182892,54.7077659 L6.75382771,54.9961024 L7.17491566,55.7735268 C7.22863012,55.8816878 7.46491807,56.4494634 6.86125663,57 C5.75273494,58.0112634 6.48247229,60.1883854 7.1882747,62.2934927 C7.29932169,62.6254829 7.41259518,62.9627561 7.50527349,63.264439 L6.28848795,63.264439 L6.15573253,63.8600195 C6.14960964,63.8883805 5.99236265,64.5587561 5.26791325,64.5712683 L5.24230843,64.5718244 C4.65534578,64.5718244 4.4961506,64.1756049 4.45802169,64.0185073 L4.36534337,63.4393317 L3.75082771,63.4079122 L2.91783614,63.3653707 C3.24346265,62.3771854 3.67957952,60.819278 3.71158554,59.4807512 C3.76307349,57.319478 2.81124217,56.3546488 1.69130964,55.6845512 L2.63813133,52.947439 C3.54765904,52.8829317 5.40873976,52.502839 6.22280602,50.5331415 C6.80726386,49.1192634 6.78193735,48.108278 6.62719518,47.4682098 L8.03351205,46.7525122" id="Fill-68" fill="#F6C03C"></path>
                <path d="M7.27983976,55.5891805 C7.14346627,55.5891805 7.01154578,55.5157756 6.94308072,55.386761 C6.71848193,54.9627366 6.36029277,54.6785707 5.9071988,54.5654049 C5.2206,54.3941268 4.36395181,54.6204585 3.49617108,55.204639 C3.32166867,55.3222537 3.08538072,55.2760976 2.96793253,55.101761 C2.85048434,54.9277024 2.89668434,54.691361 3.07090843,54.5740244 C4.1201494,53.8677805 5.1933253,53.6036341 6.0919988,53.8277415 C6.75076627,53.9926244 7.29208554,54.4199854 7.61576386,55.0311366 C7.71400843,55.2165951 7.64331687,55.4468195 7.45740361,55.5449707 C7.40090602,55.575 7.33995542,55.5891805 7.27983976,55.5891805" id="Fill-69" fill="#25477B"></path>
                <path d="M40.8302241,74.4433902 L40.0392578,73.1268293 L40.1483566,73.0178341 C40.1670036,72.9992049 42.0355988,71.107361 41.9459819,69.3172829 C41.8563651,67.5288732 40.185094,66.2412293 40.1683952,66.228439 L40.0476072,66.1366829 L40.9340349,63.9831951 L41.1043627,64.033522 C41.1263494,64.0399171 43.3420012,64.6799854 46.7755518,64.6799854 C48.7988892,64.6799854 50.8403169,64.461439 52.8436157,64.0299073 C59.5579229,62.5837756 65.4069542,57.5658293 65.4654,57.5155024 L65.6950084,57.3164195 L65.7832337,57.6069805 C66.0854819,58.5990585 67.5146205,59.2355122 67.5288145,59.2419073 L67.8060145,59.3631366 L67.5830855,59.5675024 C67.5669434,59.582239 65.9744349,61.0647951 65.8388964,63.1540537 C65.7022446,65.259439 66.4247458,66.5576488 66.4317036,66.5707171 L66.5229904,66.7311512 L66.3688048,66.832639 C65.2803217,67.5486146 65.1216831,68.1133317 65.1202916,68.1188927 L65.1150036,68.1397463 L65.1044277,68.1617122 C65.101088,68.1683854 64.735941,68.9118878 64.763494,70.4016732 L64.7682253,70.6761073 L64.4796145,70.5846293 C62.8773651,70.0749659 60.7983651,69.7944146 58.6261301,69.7944146 C54.8085072,69.7944146 48.7025928,70.6724927 41.2936157,74.8554585 L41.123288,74.9516634 L40.8302241,74.4433902" id="Fill-70" fill="#25477B"></path>
                <path d="M65.7952012,56.9688585 L65.3362627,57.3664683 C65.2780952,57.4165171 59.4613482,62.403322 52.8018687,63.8372195 C50.8119289,64.2659707 48.7844169,64.4831268 46.7755518,64.4831268 C43.3753988,64.4831268 41.1817337,63.8508439 41.1600253,63.8444488 L40.8190916,63.7443512 L40.6838313,64.0724488 L39.9226446,65.9217512 L39.8074229,66.2023024 L40.0489988,66.3855366 C40.0645843,66.3974927 41.6643289,67.6381463 41.7489361,69.3272927 C41.8343783,71.0339561 40.027012,72.8601805 40.0086434,72.8785317 L39.7907241,73.0959659 L39.9493627,73.3598341 L40.6626795,74.5482146 L40.854994,74.880761 L41.0503699,75.2191463 L41.390747,75.0270146 C48.7615952,70.8654585 54.8318855,69.9915512 58.6261301,69.9915512 C60.7791614,69.9915512 62.8361747,70.2687659 64.4194988,70.7723122 L64.4473301,70.7809317 L64.9708373,70.9466488 L64.9605398,70.3980585 C64.9343783,68.9686098 65.2775386,68.2559707 65.2811566,68.2490195 L65.3073181,68.1961902 L65.3131627,68.160322 C65.3137193,68.160322 65.4798723,67.653161 66.477347,66.9972439 L66.7871096,66.7937122 L66.6028663,66.4722878 C66.5967434,66.4611659 65.9034651,65.2049415 66.0356639,63.1668439 C66.1659145,61.160722 67.7010904,59.7271024 67.7166759,59.712922 L68.1614205,59.3036341 L67.6078554,59.0614537 C67.230741,58.8951805 66.2004253,58.2996 65.9719301,57.5494244 L65.7952012,56.9688585 Z M65.5945373,57.6642585 C65.9274,58.7572683 67.4500518,59.422361 67.4500518,59.422361 C67.4500518,59.422361 65.7849036,60.9435659 65.6421289,63.1412634 C65.4996325,65.339239 66.260541,66.6680341 66.260541,66.6680341 C65.0713084,67.4501854 64.9285337,68.0721805 64.9285337,68.0721805 C64.9285337,68.0721805 64.5375036,68.8362585 64.5661699,70.4052878 C64.2210614,70.2962927 62.106159,69.597278 58.6261301,69.597278 C54.5040325,69.5975561 48.4674181,70.5787902 41.1964843,74.6839024 L41.0011084,74.345239 L40.2875133,73.1571366 C40.2875133,73.1571366 42.2379325,71.2085707 42.1427494,69.3075512 C42.0478446,67.4068098 40.2875133,66.0716195 40.2875133,66.0716195 L41.0487,64.2223171 C41.0487,64.2223171 43.2685265,64.877122 46.7755518,64.877122 C48.5292036,64.877122 50.6045855,64.7136293 52.8850843,64.2223171 C59.7265807,62.7492146 65.5945373,57.6642585 65.5945373,57.6642585 L65.5945373,57.6642585 Z" id="Fill-71" fill="#FFFFFE"></path>
                <g id="Group-74" transform="translate(41.190361, 58.668293)">
                    <mask id="mask-8" fill="white">
                        <use xlink:href="#path-7"></use>
                    </mask>
                    <g id="Clip-73"></g>
                    <path d="M-0.0645686747,15.145039 C1.76144458,13.9958634 10.7153386,8.67512195 19.8531976,8.67512195 C21.1156265,8.67512195 22.3463277,8.77716585 23.5163566,8.97763902 C23.6713771,8.71154634 23.9805831,8.31532683 24.5878627,7.87156098 C24.3582542,7.33186829 23.9627711,6.13153171 24.0721482,4.44850244 C24.1818036,2.76380488 25.1088651,1.46754146 25.6379386,0.856390244 C25.2215819,0.610317073 24.6262699,0.184346341 24.2680807,-0.395941463 C22.8420036,0.759907317 17.713247,4.64702927 11.7748771,5.92605366 C9.73122289,6.36620488 7.64860482,6.5892 5.58546867,6.5892 C2.80400602,6.5892 0.834939759,6.18825366 0.0837722892,6.00613171 L-0.445301205,7.29099512 C0.0645686747,7.74671707 1.25018313,8.97597073 1.33228554,10.6203512 C1.41689277,12.300322 0.0937915663,13.9544341 -0.429159036,14.5386146 L-0.0645686747,15.145039" id="Fill-72" fill="#F6C03C" mask="url(#mask-8)"></path>
                </g>
                <path d="M64.1080663,68.2025854 C64.1080663,68.2025854 59.0469398,67.1320976 51.6354578,69.5647463 C51.6354578,69.5647463 57.8273711,67.704878 63.8539663,69.2430439 C63.9569422,68.7325463 63.954159,68.6822195 64.1080663,68.2025854" id="Fill-75" fill="#FFFFFE"></path>
                <path d="M68.5986506,46.7525122 L70.0046892,47.4682098 C69.849947,48.108278 69.8248988,49.1192634 70.4090783,50.5331415 C71.2234229,52.502839 73.0842253,52.8829317 73.9940313,52.947439 L74.940853,55.6845512 C73.8209205,56.3546488 72.8688108,57.319478 72.9205771,59.4807512 C72.9525831,60.819278 73.3884217,62.3771854 73.7143265,63.3653707 L72.8813349,63.4079122 L72.266541,63.4393317 L72.174141,64.0185073 C72.1357337,64.1756049 71.9768169,64.5718244 71.3895759,64.5718244 L71.3642494,64.5712683 C70.6398,64.5587561 70.482553,63.8883805 70.4761518,63.8600195 L70.3436747,63.264439 L69.1268892,63.264439 C69.2195675,62.9627561 69.3325627,62.6254829 69.443888,62.2934927 C70.1496904,60.1883854 70.8794277,58.0112634 69.770906,57 C69.1672446,56.4494634 69.4035325,55.8816878 69.457247,55.7735268 L69.8783349,54.9961024 L69.0400554,54.7077659 C68.6927205,54.5823659 68.3470554,54.5186927 68.0136361,54.5186927 C67.9462843,54.5186927 67.876706,54.5214732 67.8057361,54.5270341 C68.1260747,53.9536976 68.3693205,53.2980585 68.5137651,52.5378732 C68.9610145,50.1861366 68.1856337,48.5514878 67.6276157,47.731522 L68.5986506,46.7525122" id="Fill-76" fill="#F6C03C"></path>
                <path d="M69.3523229,55.5891805 C69.4886964,55.5891805 69.6206169,55.5157756 69.6888036,55.386761 C69.9136807,54.9627366 70.2718699,54.6785707 70.7246855,54.5654049 C71.4112843,54.3941268 72.2682108,54.6204585 73.1359916,55.204639 C73.310494,55.3222537 73.5467819,55.2760976 73.6642301,55.101761 C73.7814,54.9277024 73.7354783,54.691361 73.5612542,54.5740244 C72.5120133,53.8677805 71.4388373,53.6036341 70.5398855,53.8277415 C69.8811181,53.9926244 69.3400771,54.4199854 69.0161205,55.0311366 C68.9178759,55.2165951 68.9888458,55.4468195 69.1744807,55.5449707 C69.2312566,55.575 69.2922072,55.5891805 69.3523229,55.5891805" id="Fill-77" fill="#25477B"></path>
                <path d="M14.4931627,64.7703512 C14.4550337,64.9299512 14.4361084,65.0625805 14.4347169,65.1662927 C14.4341602,65.270561 14.4522506,65.3498049 14.4914928,65.4051366 C14.5301783,65.4599122 14.5922422,65.4952244 14.6776843,65.5121854 C14.7622916,65.5288683 14.8377145,65.521639 14.9020048,65.4891073 C14.9665735,65.4565756 15.0266892,65.3973512 15.0812386,65.3111561 C15.1363446,65.2246829 15.190894,65.1092927 15.2434952,64.9641512 C15.2960964,64.8181756 15.3537072,64.6413366 15.4157711,64.4308537 C15.4778349,64.2203707 15.5257048,64.0404732 15.5607723,63.8908829 C15.5947265,63.7418488 15.6125386,63.6147805 15.6139301,63.5102341 C15.6156,63.4056878 15.5975096,63.3219951 15.5616072,63.258878 C15.5254265,63.1952049 15.4669807,63.1451561 15.3873831,63.1109561 C15.3072289,63.076478 15.236259,63.0711951 15.1741952,63.0951073 C15.111853,63.1187415 15.0536855,63.1743512 14.9974663,63.2627707 C14.9418036,63.3514683 14.8858627,63.4726976 14.8315916,63.6250683 C14.7762072,63.7782732 14.7149783,63.9676244 14.6484614,64.1925659 C14.5819446,64.4177854 14.5304566,64.6099171 14.4931627,64.7703512 M14.9373506,65.9920976 C14.8201807,66.006278 14.6874253,66.0021073 14.539641,65.9787512 C14.3211651,65.9442732 14.1583518,65.8789317 14.0539843,65.7760537 C13.9493386,65.6731756 13.8864398,65.5360976 13.865288,65.3645415 C13.8435795,65.1927073 13.8566602,64.9927902 13.9031386,64.7645122 C13.9485036,64.5373463 14.0122373,64.2879366 14.0918349,64.0190634 C14.1705976,63.7529707 14.2521434,63.5102341 14.3378639,63.2936341 C14.4227494,63.076478 14.520994,62.9010293 14.632041,62.7709024 C14.742253,62.6402195 14.8694422,62.5604195 15.0136084,62.5298341 C15.1574964,62.4995268 15.3289373,62.5353951 15.5293229,62.631322 C15.7285952,62.7269707 15.8766578,62.8429171 15.9723976,62.9763805 C16.0681373,63.110678 16.128253,63.2597122 16.1516313,63.4245951 C16.1747313,63.5897561 16.1674952,63.7704878 16.1304795,63.9684585 C16.0929072,64.1667073 16.0414193,64.3780244 15.9746241,64.6038 C15.8997578,64.8568244 15.8184904,65.082322 15.7313783,65.2825171 C15.6434313,65.4832683 15.5323843,65.6448146 15.3962892,65.7707707 C15.4817313,65.9225854 15.5248699,65.9971024 15.6122602,66.143078 C15.4377578,66.2470683 15.3498108,66.3010098 15.1730819,66.4133415 C15.0776205,66.2487366 15.0303072,66.1644878 14.9373506,65.9920976" id="Fill-78" fill="#25477B"></path>
                <path d="M16.6662325,65.4148683 C16.645359,65.4854927 16.6314434,65.5505561 16.6228157,65.6108927 C16.6153012,65.6715073 16.6175277,65.7257268 16.6300518,65.7749415 C16.6422976,65.8227659 16.6673458,65.863639 16.7038048,65.8981171 C16.7399855,65.9323171 16.7917518,65.9562293 16.8579904,65.9709659 C16.927012,65.9862585 16.9862928,65.9870927 17.0352759,65.9726341 C17.0853723,65.9584537 17.1282325,65.9339854 17.1655265,65.8992293 C17.2030988,65.8639171 17.2339916,65.8202634 17.2595964,65.7671561 C17.2852012,65.7140488 17.3074663,65.6542683 17.3275048,65.5875366 C17.5448675,64.8515415 17.653688,64.4831268 17.8713289,63.7476878 C18.0889699,63.8388878 18.197512,63.8839317 18.4157096,63.9734634 C18.207253,64.6785951 18.1028855,65.0319951 17.8944289,65.7376829 C17.8468373,65.897839 17.782547,66.0243512 17.7010012,66.1183317 C17.620012,66.2123122 17.527612,66.2812683 17.4235229,66.3257561 C17.319712,66.3702439 17.2100566,66.393322 17.0937217,66.3938984 C16.9771084,66.3944341 16.8604952,66.3835902 16.7424904,66.3613463 C16.6250422,66.3391024 16.5134386,66.307961 16.410741,66.2659756 C16.3069301,66.2248244 16.2217663,66.1642098 16.1555277,66.0821854 C16.0890108,66.0009951 16.0486554,65.8939463 16.0344614,65.7618732 C16.0194325,65.6289659 16.0416976,65.464361 16.0995867,65.2688927 C16.3394928,64.4572683 16.4597241,64.051039 16.6993518,63.2396927 C16.9147663,63.3358976 17.0224735,63.3834439 17.2390012,63.4774244 C17.0099494,64.2520683 16.8952843,64.6396683 16.6662325,65.4148683" id="Fill-79" fill="#25477B"></path>
                <path d="M19.5064193,65.897561 C19.6088386,65.5107951 19.6617181,65.3144927 19.7710952,64.9154927 C19.7680337,64.9146585 19.7666422,64.9143805 19.7635807,64.9132683 C19.4460253,65.2524878 19.2857169,65.424878 18.9609253,65.7771659 C19.1791229,65.8252683 19.2882217,65.8491805 19.5064193,65.897561 M20.1757627,64.5851707 C19.9929108,65.4752049 19.903294,65.9392683 19.7571795,66.7656293 C19.5186651,66.7222537 19.538147,66.7394927 19.2987976,66.6977854 C19.3430494,66.5201122 19.3658711,66.4305805 19.4120711,66.2506829 C19.112606,66.1906244 18.9628735,66.1611512 18.6625735,66.102761 C18.5078313,66.2704244 18.4301819,66.3552293 18.2734916,66.5259512 C18.0327506,66.4870244 17.9116843,66.4681171 17.6695518,66.4308585 C18.4850096,65.5947659 18.8782663,65.2018829 19.6430711,64.4530976 C19.906912,64.5379024 19.9099735,64.5034244 20.1757627,64.5851707" id="Fill-80" fill="#25477B"></path>
                <path d="M21.3299277,65.2580488 C20.9258169,65.1582293 20.7240398,65.1073463 20.3213205,65.0028 C20.2759554,65.2049415 20.2531337,65.3061512 20.2074904,65.5082927 C20.5882229,65.5989366 20.7788675,65.6439805 21.1601566,65.732678 C21.1289855,65.8703122 21.1136783,65.9392683 21.0827855,66.0766244 C20.7006614,65.9909854 20.5097386,65.9481659 20.1276145,65.8630829 C20.0755699,66.0941415 20.0494084,66.2095317 19.9973639,66.4408683 C20.4215133,66.5253951 20.6333096,66.5687707 21.0563458,66.6571902 C21.025453,66.7945463 21.0098675,66.8632244 20.979253,67.0000244 C20.3243819,66.8690634 19.9965289,66.8070585 19.3388747,66.6908341 C19.537312,65.8105317 19.7357494,65.4051366 19.9341867,64.5248341 C20.5609482,64.7038976 20.7763627,64.7528341 21.4072988,64.9143805 C21.3761277,65.0517366 21.3608205,65.1204146 21.3299277,65.2580488" id="Fill-81" fill="#25477B"></path>
                <path d="M22.9357952,66.7892634 C22.9252193,66.8365317 22.920488,66.8807415 22.9227145,66.9221707 C22.9246627,66.963878 22.9371867,67.0011366 22.9600084,67.0339463 C22.9831084,67.0670341 23.0178976,67.0967854 23.0638193,67.122922 C23.108906,67.1496146 23.1690217,67.1713024 23.243888,67.1882634 C23.331,67.208561 23.4147723,67.2063366 23.4935349,67.1810341 C23.5731325,67.1568439 23.6232289,67.1012341 23.6424325,67.0155951 C23.6527301,66.9697171 23.6527301,66.9285659 23.6432675,66.8910293 C23.6332482,66.8537707 23.6118181,66.8173463 23.5775855,66.781478 C23.5436313,66.7458878 23.4968747,66.7097415 23.4370373,66.6735951 C23.3763651,66.6368927 23.3014988,66.5965756 23.2107687,66.5518098 C23.090259,66.4931415 22.9881181,66.4350293 22.9032325,66.3777512 C22.818347,66.3210293 22.7498819,66.2615268 22.6986723,66.1984098 C22.647741,66.1361268 22.6143434,66.0699512 22.5998711,65.9993268 C22.5842855,65.9292585 22.5862337,65.852239 22.605159,65.7685463 C22.6505241,65.566961 22.7629627,65.4348878 22.9413614,65.3720488 C23.1203169,65.3094878 23.3465855,65.3089317 23.6201675,65.3684341 C23.7476349,65.396239 23.8634133,65.4312732 23.9663892,65.4738146 C24.0696434,65.5163561 24.1556422,65.5689073 24.2243855,65.629522 C24.2928506,65.6912488 24.3415554,65.7615951 24.3693867,65.840561 C24.3974964,65.9195268 24.4002795,66.0085024 24.3780145,66.1060976 C24.3732831,66.1294537 24.3702217,66.1408537 24.365212,66.1642098 C24.144788,66.1172195 24.0345759,66.0935854 23.8147084,66.0454829 C23.8364169,65.9481659 23.8291807,65.8678098 23.7938349,65.8052488 C23.7573759,65.7424098 23.6833446,65.6993122 23.5720193,65.6745659 C23.5080072,65.6606634 23.4531795,65.6556585 23.4078145,65.6598293 C23.3627277,65.6634439 23.3245988,65.6734537 23.294541,65.6895805 C23.2644831,65.7059854 23.2416614,65.7271171 23.2257976,65.7535317 C23.2099337,65.7799463 23.1990795,65.8080293 23.1918434,65.8388927 C23.1779277,65.9008976 23.1840506,65.9581756 23.2124386,66.0093366 C23.2397133,66.0602195 23.3104048,66.1174976 23.4242349,66.1806146 C23.5887181,66.2748732 23.6710988,66.3215854 23.8355819,66.416122 C23.936888,66.4747902 24.0175988,66.530122 24.0782711,66.5826732 C24.1386651,66.6357805 24.1851434,66.6883317 24.2168711,66.7408829 C24.2474855,66.7937122 24.2652976,66.8473756 24.2697506,66.9032634 C24.2739253,66.9585951 24.2686373,67.0183756 24.2547217,67.0817707 C24.2057386,67.2994829 24.083559,67.4371171 23.8873482,67.4941171 C23.6919723,67.5511171 23.4398205,67.5422195 23.1297795,67.470761 C22.8058229,67.3959659 22.5859554,67.2950341 22.4687855,67.162961 C22.351894,67.0314439 22.3146,66.8718439 22.3571819,66.6833268 C22.3646964,66.6505171 22.3683145,66.6341122 22.3755506,66.6010244 C22.605159,66.6519073 22.7198241,66.6777659 22.9491542,66.7294829 C22.9438663,66.7533951 22.9410831,66.7653512 22.9357952,66.7892634" id="Fill-82" fill="#25477B"></path>
                <path d="M25.0843735,67.2422049 C25.072406,67.2955902 25.0662831,67.345361 25.0651699,67.3915171 C25.0648916,67.4382293 25.0735193,67.4807707 25.0913313,67.5199756 C25.1085867,67.5583463 25.1375313,67.5925463 25.1767735,67.6222976 C25.2157373,67.6520488 25.2686169,67.6751268 25.3342988,67.6915317 C25.4030422,67.7090488 25.460653,67.7134976 25.506853,67.7051561 C25.553888,67.6965366 25.5928518,67.6790195 25.6256928,67.6523268 C25.6582554,67.625078 25.6838602,67.5900439 25.7033422,67.5469463 C25.7233807,67.5041268 25.7389663,67.4551902 25.7509337,67.4006927 C25.8870289,66.7970488 25.9552157,66.4956439 26.0910325,65.892278 C26.3228675,65.9323171 26.4389241,65.9515024 26.6713157,65.9895951 C26.5316024,66.6088098 26.4620241,66.9185561 26.3225892,67.5377707 C26.2905831,67.6784634 26.2388169,67.7894049 26.1686819,67.8678146 C26.0982687,67.9473366 26.0147747,68.0018341 25.9184783,68.0321415 C25.8224602,68.0627268 25.7186494,68.0724585 25.6064892,68.0618927 C25.4946072,68.0510488 25.3807771,68.0299171 25.2649988,67.9996098 C25.1497771,67.9687463 25.0390084,67.9317659 24.9349193,67.8881122 C24.8305518,67.8441805 24.7412133,67.7880146 24.6677386,67.7187805 C24.5939855,67.6501024 24.5416627,67.5658537 24.5116048,67.4668683 C24.4804337,67.3664927 24.481547,67.2477659 24.5129964,67.1084634 C24.6435253,66.5298439 24.7083723,66.2403951 24.8389012,65.6614976 C25.0693446,65.7065415 25.1848446,65.7287854 25.4158446,65.7713268 C25.2833675,66.3599561 25.2171289,66.6538537 25.0843735,67.2422049" id="Fill-83" fill="#25477B"></path>
                <path d="M27.6370627,67.2458195 C27.7514494,67.2697317 27.8502506,67.260278 27.9340229,67.2163463 C28.0175169,67.1718585 28.0740145,67.0867756 28.1021241,66.9616537 C28.1296771,66.8393122 28.1196578,66.741161 28.0723446,66.667478 C28.024753,66.5940732 27.9281783,66.5462488 27.7831771,66.5226146 C27.6866024,66.5067659 27.6384542,66.4987024 27.5418795,66.4825756 C27.4781458,66.7664634 27.4461398,66.9082683 27.3821277,67.1921561 C27.4839904,67.2135659 27.5352,67.2244098 27.6370627,67.2458195 M28.056759,66.1978537 C28.2053783,66.2184293 28.325888,66.2559659 28.4177313,66.3124098 C28.5092964,66.3682976 28.5780398,66.4361415 28.6242398,66.5145512 C28.6707181,66.5937951 28.6968795,66.6808244 28.703559,66.775361 C28.7094036,66.8704537 28.7027241,66.9652683 28.6815723,67.0595268 C28.6523494,67.1893756 28.6047578,67.2992049 28.5385193,67.3859561 C28.4731157,67.4732634 28.394353,67.5386049 28.3025096,67.5814244 C28.2109446,67.624522 28.1060205,67.6476 27.9885723,67.6520488 C27.8702892,67.6556634 27.7444916,67.641761 27.608953,67.6100634 C27.4867735,67.5817024 27.4261012,67.567522 27.3039217,67.539161 C27.2198711,67.9120244 27.1778458,68.0983171 27.0937952,68.4714585 C26.8678048,68.405839 26.755088,68.3730293 26.528541,68.309078 C26.7322663,67.4045854 26.8344072,66.9527561 27.0381325,66.0479854 C27.4450265,66.1113805 27.6487518,66.1414098 28.056759,66.1978537" id="Fill-84" fill="#25477B"></path>
                <path d="M29.7004771,67.6278585 C29.8387988,67.6556634 29.9520723,67.6456537 30.0411325,67.5953268 C30.1307494,67.5455561 30.1928133,67.4429561 30.2276024,67.2891951 C30.2863265,67.0275512 30.1805675,66.8790732 29.9108819,66.8420927 C29.8012265,66.8273561 29.7461205,66.8198488 29.6364651,66.804278 C29.5666084,67.1145805 29.531541,67.2697317 29.461406,67.5800341 C29.5571458,67.5994976 29.6047373,67.6086732 29.7004771,67.6278585 M30.2231494,66.4567171 C30.4672301,66.4817415 30.6445157,66.5593171 30.7525012,66.6983415 C30.8596518,66.8368098 30.8835867,67.037839 30.8254193,67.2947561 C30.7806108,67.4943951 30.7049096,67.6514927 30.6002639,67.7616 C30.4947831,67.8714293 30.3570181,67.9256488 30.1880819,67.9256488 C30.1875253,67.9287073 30.187247,67.9303756 30.186412,67.9337122 C30.3244554,67.9857073 30.418247,68.0557756 30.4675084,68.1450293 C30.5176048,68.2334488 30.5309639,68.3627415 30.5095337,68.5326293 C30.5020193,68.5896293 30.4925566,68.6513561 30.4808675,68.7172537 C30.4683434,68.782039 30.454706,68.855722 30.4393988,68.9369122 C30.4090627,69.0959561 30.386241,69.2224683 30.3806747,69.3058829 C30.3748301,69.3901317 30.3987651,69.4624244 30.4432952,69.5108049 C30.4410687,69.5205366 30.4396771,69.5258195 30.4377289,69.5358293 C30.1964313,69.4524146 30.0756434,69.4112634 29.8337892,69.3300732 C29.8145855,69.2805805 29.8070711,69.2291415 29.8106892,69.1752 C29.8145855,69.1209805 29.8209867,69.0653707 29.8312843,69.0092049 C29.8741446,68.7901024 29.8952964,68.6805512 29.9378783,68.4620049 C29.9581952,68.3491171 29.9495675,68.2554146 29.9139434,68.1803415 C29.8774843,68.1055463 29.8006699,68.0549415 29.6812735,68.0271366 C29.5593723,67.9993317 29.4984217,67.9851512 29.3765205,67.9570683 C29.2741012,68.4122341 29.2228916,68.6394 29.120194,69.0945659 C28.8961518,69.0222732 28.7839916,68.9864049 28.5596711,68.9157805 C28.7920627,67.8842195 28.9083976,67.3687171 29.1405108,66.3377122 C29.5730096,66.3891512 29.789259,66.4130634 30.2231494,66.4567171" id="Fill-85" fill="#25477B"></path>
                <path d="M32.1501904,68.7664683 C32.1791349,68.1286244 32.1919373,67.8172098 32.2144807,67.2077268 L32.2064096,67.2071707 C31.9601024,67.790239 31.8384795,68.0746829 31.5985735,68.6302244 C31.8192759,68.6844439 31.929488,68.7116927 32.1501904,68.7664683 M32.7048687,66.6549659 C32.7070952,68.0396488 32.6984675,68.7742537 32.6583904,70.3449512 C32.4293386,70.2570878 32.3146735,70.2139902 32.0847867,70.1277951 C32.100094,69.8158244 32.1073301,69.6617854 32.1212458,69.3567659 C31.8253988,69.2672341 31.6773361,69.2230244 31.3806542,69.135439 C31.2682157,69.392078 31.2122747,69.5185902 31.1009494,69.7688341 C30.8699494,69.6862537 30.7541711,69.6456585 30.5223361,69.5653024 C31.0864771,68.4592244 31.3762012,67.8714293 31.975688,66.6074195 C32.2670819,66.6282732 32.4129181,66.6374488 32.7048687,66.6549659" id="Fill-86" fill="#25477B"></path>
                <path d="M10.7345422,56.6090634 C10.7345422,56.6090634 14.4522506,59.6086537 14.4962241,59.7056927 C14.7536639,60.2718 15.3384,60.7058341 15.3384,60.7058341 L14.4722892,60.4528098 C14.4722892,60.4528098 10.9775096,57.8194098 11.037347,57.6642585 C11.1325301,57.4173512 10.7345422,56.6090634 10.7345422,56.6090634" id="Fill-87" fill="#25477B"></path>
                <path d="M65.8870446,56.6090634 C65.8870446,56.6090634 62.1693361,59.6086537 62.1253627,59.7056927 C61.8682012,60.2718 61.2831867,60.7058341 61.2831867,60.7058341 L62.1492976,60.4528098 C62.1492976,60.4528098 65.6440771,57.8194098 65.5842398,57.6642585 C65.4890566,57.4173512 65.8870446,56.6090634 65.8870446,56.6090634" id="Fill-88" fill="#25477B"></path>
                <path d="M29.3289289,65.6200683 L26.7495217,61.0219756 L27.5733289,60.3260195 L27.8204711,60.5871073 C28.9779759,61.8085756 32.007694,62.7984293 33.4076096,62.8443073 C34.7179084,62.8837902 36.1192157,61.9667854 36.1334096,61.9576098 L36.5556108,62.5901707 C36.4902072,62.6338244 34.9372193,63.6587122 33.3825614,63.6042146 C32.0839518,63.5619512 29.5899867,62.8306829 28.0303193,61.7499073 L29.9929843,65.2485951 L29.3289289,65.6200683" id="Fill-89" fill="#25477B"></path>
                <path d="M47.3032337,65.6200683 L49.8823627,61.0219756 L49.0588337,60.3260195 L48.8114133,60.5871073 C47.6541867,61.8085756 44.6244687,62.7984293 43.2242747,62.8443073 C41.9139759,62.8837902 40.5126687,61.9667854 40.4984747,61.9576098 L40.0765518,62.5901707 C40.1419554,62.6338244 41.6946651,63.6587122 43.2493229,63.6042146 C44.5479325,63.5619512 47.0418976,62.8306829 48.6015651,61.7499073 L46.6391783,65.2485951 L47.3032337,65.6200683" id="Fill-90" fill="#25477B"></path>
                <path d="M46.9124819,68.411122 C46.9561771,68.5507024 47.0043253,68.6602537 47.0558133,68.7400537 C47.1075795,68.8190195 47.1663036,68.8699024 47.2325422,68.8927024 C47.299059,68.9157805 47.3781,68.9121659 47.4713349,68.8832488 C47.5640133,68.8548878 47.6349831,68.8120683 47.6825747,68.7553463 C47.7304446,68.6997366 47.7596675,68.6252195 47.7705217,68.5329073 C47.7813759,68.440039 47.776088,68.325761 47.7549361,68.1895171 C47.733506,68.0527171 47.7001084,67.8895024 47.6550217,67.6993171 C47.6099349,67.5085756 47.5670747,67.3481415 47.5253277,67.2177366 C47.4835807,67.0876098 47.4368241,66.9822293 47.3853361,66.9021512 C47.3338482,66.8226293 47.2737325,66.7670195 47.2058241,66.7372683 C47.1376373,66.707239 47.0549783,66.6988976 46.9586819,66.7128 C46.8621072,66.7264244 46.7889108,66.7572878 46.7396494,66.8062244 C46.6901096,66.8546049 46.6603301,66.9266195 46.6500325,67.020878 C46.6397349,67.1156927 46.6453012,67.2349756 46.6684012,67.3778927 C46.6912229,67.5202537 46.726847,67.693478 46.7749952,67.8970098 C46.8228651,68.0997073 46.8685084,68.2712634 46.9124819,68.411122 M47.9722988,69.1220927 C47.8634783,69.1899366 47.7293313,69.2508293 47.5712494,69.3053268 C47.3366313,69.3856829 47.1423687,69.4151561 46.9865133,69.3881854 C46.8306578,69.3620488 46.6987373,69.2892 46.5913084,69.1699171 C46.4836012,69.0506341 46.3948193,68.8924244 46.325241,68.6975122 C46.2562193,68.502322 46.1930422,68.2826634 46.1354313,68.0396488 C46.0786554,67.7991366 46.0374651,67.5758634 46.0118602,67.3692732 C45.9865337,67.163239 45.9951614,66.9822293 46.0385783,66.8290244 C46.0817169,66.6760976 46.167159,66.552922 46.2949048,66.4581073 C46.4215373,66.3641268 46.6093988,66.3057366 46.8559843,66.2784878 C47.1025699,66.251239 47.3074084,66.2648634 47.4696651,66.3182488 C47.6324783,66.3713561 47.7669036,66.4542146 47.8732193,66.5679366 C47.9798133,66.6816585 48.0646988,66.8226293 48.1284325,66.992239 C48.191888,67.1624049 48.2481072,67.3486976 48.2965337,67.5544537 C48.3510831,67.7849561 48.3850373,67.9973854 48.4003446,68.1931317 C48.4153735,68.3891561 48.3872639,68.5676634 48.3157373,68.7300439 C48.477994,68.804561 48.5584265,68.8404293 48.7195699,68.9107756 C48.5990602,69.0748244 48.5392229,69.1585171 48.4203831,69.3295171 C48.2419843,69.249439 48.1523675,69.2080098 47.9722988,69.1220927" id="Fill-91" fill="#25477B"></path>
                <path d="M49.6171301,67.7793951 C49.632159,67.8427902 49.650806,67.9000683 49.6736277,67.9503951 C49.6964494,68.000722 49.7265072,68.0413171 49.7635229,68.0724585 C49.8005386,68.1036 49.8464602,68.1236195 49.8998964,68.131961 C49.9533325,68.1408585 50.0170663,68.1344634 50.0908193,68.1141659 C50.1667988,68.0930341 50.2266361,68.0649512 50.2683831,68.0301951 C50.3101301,67.9957171 50.340188,67.955678 50.3602265,67.9103561 C50.3791518,67.8655902 50.3877795,67.8160976 50.3861096,67.761878 C50.3844398,67.7082146 50.3760904,67.6503805 50.3613398,67.5892098 C50.2010313,66.9107707 50.1208771,66.5709951 49.9605687,65.892278 C50.2210699,65.8475122 50.3510422,65.8241561 50.6109867,65.7763317 C50.7671205,66.4372537 50.8450482,66.7678537 51.0009036,67.4284976 C51.036806,67.578922 51.0373627,67.7107171 51.0050783,67.824161 C50.9716807,67.9376049 50.9154614,68.0371463 50.8350289,68.1211171 C50.7548747,68.205922 50.6569084,68.2757122 50.5416867,68.3310439 C50.4261867,68.3860976 50.3040072,68.4330878 50.1751482,68.4714585 C50.0462892,68.5098293 49.9199349,68.5381902 49.7952506,68.5554293 C49.6711229,68.5729463 49.5553446,68.5668293 49.4476373,68.5362439 C49.3407651,68.5048244 49.2458602,68.4430976 49.1643145,68.3496732 C49.0833253,68.2559707 49.0209831,68.1202829 48.9795145,67.9445561 C48.8066819,67.2132878 48.7201265,66.8476537 48.5478506,66.1163854 C48.8091867,66.0785707 48.939994,66.0585512 49.2010518,66.0174 C49.3672048,66.7222537 49.4504205,67.0745415 49.6171301,67.7793951" id="Fill-92" fill="#25477B"></path>
                <path d="M52.9148639,66.7831463 C52.6961096,66.4066683 52.5864542,66.2178732 52.3665867,65.8383366 C52.3629687,65.8388927 52.3610205,65.8394488 52.3574024,65.8400049 C52.330406,66.2748732 52.317047,66.4925854 52.2908855,66.9316244 C52.5405325,66.872122 52.6652169,66.8423707 52.9148639,66.7831463 M52.6674434,65.3589805 C53.2185036,66.1847854 53.4923639,66.5901805 54.0420325,67.4095902 C53.7742952,67.4721512 53.6404265,67.5038488 53.3732458,67.5691902 C53.2697133,67.3934634 53.217947,67.305322 53.1141361,67.1293171 C52.7754289,67.2107854 52.6062145,67.2522146 52.2686205,67.3359073 C52.2555398,67.5436098 52.2488602,67.6476 52.2360578,67.8566927 C51.9702687,67.9264829 51.8375133,67.9617951 51.5720024,68.0343659 C51.6858325,67.009478 51.7465048,66.513161 51.8703542,65.5302585 C52.1898578,65.4640829 52.3493313,65.4296049 52.6674434,65.3589805" id="Fill-93" fill="#25477B"></path>
                <path d="M55.8160012,64.9749951 C55.3642988,65.0962244 55.1380301,65.1548927 54.6849361,65.2694488 C54.7353108,65.4829902 54.7606373,65.589761 54.8112904,65.8033024 C55.2387795,65.6998683 55.4528024,65.6475951 55.8794566,65.5416585 C55.9159157,65.6959756 55.934006,65.7729951 55.9707434,65.9273122 C55.5424193,66.0279659 55.3283964,66.0782927 54.899794,66.1786683 C54.9576831,66.4227951 54.9860711,66.5448585 55.0439602,66.7892634 C55.5179277,66.6830488 55.7553289,66.6316098 56.2304096,66.5309561 C56.2668687,66.6858293 56.2852373,66.7631268 56.3219747,66.918 C55.5866711,67.0636976 55.2198542,67.1415512 54.4887253,67.3069902 C54.2758157,66.4066683 54.1695,65.9565073 53.9568687,65.0561854 C54.6671241,64.8807366 55.0205819,64.7870341 55.7247145,64.5882293 C55.7611735,64.7431024 55.7792639,64.8204 55.8160012,64.9749951" id="Fill-94" fill="#25477B"></path>
                <path d="M57.458606,65.2399756 C57.6125133,65.2013268 57.7238386,65.1429366 57.7925819,65.0631366 C57.8618819,64.9838927 57.8799723,64.8740634 57.8474096,64.7355951 C57.7914687,64.4989756 57.616688,64.4250146 57.3241807,64.5100976 C57.2042277,64.5451317 57.1446687,64.5623707 57.0247157,64.5965707 C57.0917892,64.8807366 57.1254651,65.0225415 57.1922602,65.3067073 C57.2988542,65.2800146 57.352012,65.2666683 57.458606,65.2399756 M57.4725217,64.0646634 C57.7346928,63.9818049 57.9512205,63.9692927 58.1226614,64.0343561 C58.2952157,64.0994195 58.4082108,64.2495659 58.4630386,64.4809024 C58.5047855,64.6591317 58.4972711,64.8167854 58.4379904,64.9508049 C58.3787096,65.0853805 58.2623747,65.1890927 58.0889855,65.2641659 C58.0898205,65.2669463 58.0900988,65.2683366 58.0909337,65.2716732 C58.2554169,65.2519317 58.3820494,65.2663902 58.4722229,65.3153268 C58.5621181,65.3639854 58.6336446,65.4615805 58.6870807,65.6058878 C58.7040578,65.6542683 58.7218699,65.7070976 58.738012,65.7646537 C58.7547108,65.8227659 58.7730795,65.8872732 58.7933964,65.9587317 C58.8329169,66.0983122 58.8654795,66.2086976 58.8969289,66.2776537 C58.9289349,66.347722 58.9834843,66.3936 59.0505578,66.4113951 C59.0527843,66.4202927 59.0536193,66.4250195 59.0558458,66.4339171 C58.7736361,66.4781268 58.632253,66.5012049 58.3506,66.5479171 C58.3085747,66.5176098 58.2776819,66.4800732 58.2582,66.4350293 C58.2378831,66.3897073 58.2203494,66.3427171 58.2053205,66.2926683 C58.1518843,66.0977561 58.1251663,66.0007171 58.0717301,65.8058049 C58.0419506,65.7070976 57.9921325,65.6350829 57.9225542,65.5908732 C57.8524193,65.5469415 57.7511133,65.5405463 57.6172446,65.5714098 C57.4800361,65.6033854 57.4112928,65.6192341 57.2735277,65.6512098 C57.3720506,66.0677268 57.421312,66.2757073 57.5195566,66.6919463 C57.2598904,66.7386585 57.1299181,66.7625707 56.8708084,66.8117854 C56.6448181,65.8555756 56.5321012,65.3770537 56.3061108,64.4208439 C56.7742337,64.2837659 57.0074602,64.2123073 57.4725217,64.0646634" id="Fill-95" fill="#25477B"></path>
                <path d="M60.7950253,63.4668585 C60.3533422,63.6164488 60.1320831,63.6898537 59.6878952,63.8327707 C59.7527422,64.1060927 59.7850265,64.2426146 59.8493169,64.5156585 C60.272353,64.4019366 60.4835928,64.3446585 60.904959,64.2287122 C60.9544988,64.4366927 60.9789904,64.5406829 61.0279735,64.7492195 C60.6021542,64.8476488 60.3895229,64.8968634 59.9625904,64.9958488 C60.0366217,65.3083756 60.073359,65.4640829 60.147112,65.7766098 C60.624141,65.6934732 60.8626554,65.6534341 61.3399627,65.5764146 C61.3895024,65.7863415 61.4142723,65.8914439 61.4640904,66.1013707 C60.7204373,66.1906244 60.3488892,66.2403951 59.607741,66.3499463 C59.3455699,65.2394195 59.2144843,64.683878 58.9520349,63.5733512 C59.6436434,63.332561 59.9876386,63.2068829 60.6711759,62.9435707 C60.720994,63.1529415 60.7454855,63.2574878 60.7950253,63.4668585" id="Fill-96" fill="#25477B"></path>
                <path d="M38.1013627,74.8949415 C38.0905084,74.6338537 37.9023687,74.4559024 37.6644108,74.2306829 C37.4523361,74.0296537 37.2115952,73.8019317 37.0415458,73.4627122 C36.7860542,72.9513805 37.0267952,72.2445805 37.2394265,71.6209171 C37.3515867,71.2919854 37.4576241,70.9816829 37.4576241,70.7864927 C37.4576241,70.6246683 37.3646675,70.5443122 37.1712398,70.3916634 C36.9112952,70.1864634 36.5550542,69.905078 36.5550542,69.2163512 C36.5550542,68.3271512 37.1673434,67.7337951 37.4590157,67.5013463 L36.7996916,66.2857171 L39.7974036,66.2857171 L39.1378012,67.5013463 C39.4294735,67.7337951 40.0417627,68.3271512 40.0417627,69.2163512 C40.0417627,69.905078 39.6852434,70.1864634 39.4252988,70.3916634 C39.2321494,70.5440341 39.1394711,70.6246683 39.1394711,70.7864927 C39.1394711,70.9816829 39.2449518,71.2919854 39.3573904,71.6209171 C39.5697434,72.2445805 39.811041,72.9513805 39.5549928,73.4627122 C39.3849434,73.8019317 39.1444807,74.0296537 38.9321277,74.2306829 C38.6944482,74.4559024 38.5065867,74.6338537 38.4954542,74.8946634 L38.1013627,74.8949415" id="Fill-97" fill="#25477B"></path>
                <path d="M40.1283181,66.0885805 L36.4682205,66.0885805 L37.209647,67.4551902 C36.8701048,67.7607659 36.3577301,68.3632976 36.3577301,69.2160732 C36.3577301,70.0004488 36.7738084,70.3288244 37.0490602,70.5462585 C37.2394265,70.6966829 37.2603,70.7278244 37.2603,70.7864927 C37.2603,70.9491512 37.1548193,71.2583415 37.0529566,71.557522 C36.8278012,72.2176098 36.572588,72.9661171 36.8653735,73.5505756 C37.0507301,73.9209366 37.3156843,74.1720146 37.5288723,74.373878 C37.7704482,74.6027122 37.8970807,74.7300585 37.9043169,74.9032829 L38.6925,74.9032829 C38.6997361,74.7300585 38.8263687,74.6027122 39.0679446,74.373878 C39.2808542,74.1720146 39.5460867,73.9209366 39.7314434,73.5505756 C40.0242289,72.9661171 39.7690157,72.2176098 39.5438602,71.557522 C39.4419976,71.2583415 39.3365169,70.9491512 39.3365169,70.7864927 C39.3365169,70.7278244 39.357112,70.6966829 39.5477566,70.5462585 C39.8230084,70.3288244 40.2388084,70.0004488 40.2388084,69.2160732 C40.2388084,68.3632976 39.726712,67.7607659 39.3868916,67.4551902 L40.1283181,66.0885805 Z M39.4659325,66.4825756 L38.8823096,67.5583463 C38.8823096,67.5583463 39.8444386,68.1692195 39.8444386,69.2160732 C39.8444386,70.2629268 38.9418687,70.1758976 38.9418687,70.7864927 C38.9418687,71.3968098 39.7278253,72.6766683 39.3785422,73.3742927 C39.029259,74.0724732 38.3240133,74.2760049 38.2984084,74.8866 C38.2725253,74.2760049 37.5672795,74.0724732 37.2179964,73.3742927 C36.8687133,72.6766683 37.6546699,71.3968098 37.6546699,70.7864927 C37.6546699,70.1758976 36.7523783,70.2629268 36.7523783,69.2160732 C36.7523783,68.1692195 37.7145072,67.5583463 37.7145072,67.5583463 L37.1308843,66.4825756 L39.4659325,66.4825756 L39.4659325,66.4825756 Z" id="Fill-98" fill="#FFFFFE"></path>
                <path d="M37.892906,74.8866 C37.892906,74.8866 38.2728036,75.1807756 38.3000783,75.6292683 C38.3187253,75.4935805 38.3039747,75.2758683 38.696953,74.8949415 C37.892906,74.8866 37.892906,74.8866 37.892906,74.8866" id="Fill-99" fill="#FFFFFE"></path>
                <polygon id="Fill-100" fill="#25477B" points="37.9179542 66.8165122 38.6788627 66.8165122 38.6788627 64.4022146 37.9179542 64.4022146"></polygon>
                <polyline id="Fill-101" fill="#F6C03C" points="51.2733723 6.58336098 50.6427145 6.26193659 50.0201277 6.59865366 50.1311747 5.90047317 49.6182434 5.41333171 50.3173663 5.30294634 50.6226759 4.66482439 50.9438494 5.29516098 51.6454771 5.38802927 51.1447916 5.88768293 51.2733723 6.58336098"></polyline>
                <polyline id="Fill-102" fill="#F6C03C" points="48.8773735 6.72878049 48.2366964 6.42793171 47.6255205 6.78439024 47.7140241 6.08259512 47.1857855 5.61185854 47.8812904 5.47950732 48.1660048 4.83220976 48.5072169 5.45170244 49.2113494 5.52232683 48.726806 6.03810732 48.8773735 6.72878049"></polyline>
                <polyline id="Fill-103" fill="#F6C03C" points="46.679812 6.99737561 45.9957181 6.81636585 45.4585735 7.27681463 45.4193313 6.57084878 44.8148349 6.20299024 45.474994 5.94746341 45.6389205 5.25929268 46.0856133 5.80760488 46.7911373 5.75060488 46.4076217 6.34479512 46.679812 6.99737561"></polyline>
                <polyline id="Fill-104" fill="#F6C03C" points="44.8805169 7.56376098 44.2250892 7.8306878 44.0736867 8.52163902 43.6166964 7.9811122 42.9125639 8.05062439 43.2857819 7.44976098 43.0016241 6.80218537 43.6890578 6.97096098 44.2181313 6.50105854 44.2696193 7.20646829 44.8805169 7.56376098"></polyline>
                <polyline id="Fill-105" fill="#F6C03C" points="46.5771145 8.80802927 45.9720614 9.17477561 45.9314277 9.88074146 45.3951181 9.41945854 44.7104675 9.5988 44.9843277 8.94677561 44.6019253 8.35147317 45.3071711 8.41014146 45.7555337 7.86294146 45.9177904 8.5511122 46.5771145 8.80802927"></polyline>
                <polyline id="Fill-106" fill="#F6C03C" points="49.0379602 9.19229268 48.4804988 9.62771707 48.523359 10.3334049 47.9363964 9.93829756 47.2779072 10.197161 47.4727265 9.51733171 47.022694 8.97152195 47.729888 8.94649756 48.1106205 8.35036098 48.352753 9.01489756 49.0379602 9.19229268"></polyline>
                <polyline id="Fill-107" fill="#F6C03C" points="52.3682566 6.72878049 53.0086554 6.42793171 53.6201096 6.78439024 53.5313277 6.08259512 54.0598446 5.61185854 53.3643398 5.47950732 53.0796253 4.83220976 52.7384133 5.45170244 52.0340024 5.52232683 52.5185458 6.03810732 52.3682566 6.72878049"></polyline>
                <polyline id="Fill-108" fill="#F6C03C" points="54.5655398 6.99737561 55.249912 6.81636585 55.7867783 7.27681463 55.8260205 6.57084878 56.4305169 6.20299024 55.7703578 5.94746341 55.6067096 5.25929268 55.1597386 5.80760488 54.4542145 5.75060488 54.8377301 6.34479512 54.5655398 6.99737561"></polyline>
                <polyline id="Fill-109" fill="#F6C03C" points="56.3651133 7.56376098 57.020541 7.8306878 57.1719434 8.52163902 57.6286554 7.9811122 58.3330663 8.05062439 57.9598482 7.44976098 58.2437277 6.80218537 57.556294 6.97096098 57.0274988 6.50105854 56.9757325 7.20646829 56.3651133 7.56376098"></polyline>
                <polyline id="Fill-110" fill="#F6C03C" points="54.6682373 8.80802927 55.2735687 9.17477561 55.3142024 9.88074146 55.8502337 9.41945854 56.5348843 9.5988 56.2610241 8.94677561 56.6437048 8.35147317 55.9381807 8.41014146 55.4900964 7.86294146 55.3278398 8.5511122 54.6682373 8.80802927"></polyline>
                <polyline id="Fill-111" fill="#F6C03C" points="52.2073916 9.19229268 52.764853 9.62771707 52.7219928 10.3334049 53.3092337 9.93829756 53.9677229 10.197161 53.7729036 9.51733171 54.2229361 8.97152195 53.5154639 8.94649756 53.1347313 8.35036098 52.8925988 9.01489756 52.2073916 9.19229268"></polyline>
                <polyline id="Fill-112" fill="#F6C03C" points="51.2733723 10.2933659 50.6427145 9.97194146 50.0201277 10.3089366 50.1311747 9.61047805 49.6182434 9.12333659 50.3173663 9.01295122 50.6226759 8.37482927 50.9438494 9.00516585 51.6454771 9.09803415 51.1447916 9.59796585 51.2733723 10.2933659"></polyline>
                <path d="M48.8846096,19.9675171 C49.4195277,20.0817951 49.8598193,20.5377951 49.8358843,21.8685366 C49.812506,23.199278 48.8133614,25.6230293 47.6241289,26.430761 C46.4348964,27.2387707 45.1268241,26.7635854 44.5320687,26.430761 C44.5320687,26.430761 43.2239964,26.6924049 42.5104012,25.5279366 C41.796806,24.3637463 42.7244241,24.0784683 42.1772602,23.8407366 C41.6303747,23.6032829 41.5351916,24.5061073 41.0358976,24.1023805 C40.5363253,23.6983756 41.1193916,21.9900439 42.2487867,22.9156683 C42.2487867,22.9156683 42.7720157,22.4627268 42.6531759,21.4648098 C42.5340578,20.4666146 42.4628096,19.9436049 41.8683325,19.8012439 C41.2735771,19.6586049 40.8931229,19.112239 41.7252795,18.6367756 C42.5579928,18.1615902 43.3784602,19.9675171 43.3784602,19.9675171 C43.3784602,19.9675171 43.908647,18.9696 43.9111518,18.0189512 C43.9136566,17.0685805 43.6996337,17.140039 43.6996337,17.140039 C43.6996337,17.140039 42.5104012,17.3299463 42.5340578,16.5222146 C42.5579928,15.7142049 43.7708819,15.5003854 44.1752711,16.3792976 C44.5796602,17.2587659 44.508412,18.4468683 44.080088,19.9199707 C44.080088,19.9199707 45.6976446,19.0883268 45.8880108,19.8487902 C46.0780988,20.6089756 45.2929771,20.0626098 44.6035952,20.5377951 C43.9136566,21.0129805 43.2239964,21.5621268 43.2479313,22.9156683 C43.2479313,22.9156683 44.080088,22.2725415 44.6269735,22.5814537 C45.1744157,22.8903659 45.1980723,23.5081902 44.6035952,23.9597415 C44.0088398,24.4112927 44.1274012,23.2704585 43.3784602,23.8407366 C42.6295193,24.4112927 43.3617614,25.5991171 43.9111518,25.5991171 C44.4608205,25.5991171 44.6985,25.5279366 44.6985,25.5279366 C44.6985,25.5279366 44.8999988,25.9794878 45.3461349,25.9555756 C45.7928277,25.9319415 46.2681867,24.9101122 46.0305072,23.5081902 C45.7928277,22.1062683 45.5548699,19.9436049 46.6249843,19.8487902 C47.6953771,19.7536976 47.6953771,21.9872634 47.5052892,23.1280976 C47.3149229,24.2686537 46.9046892,25.7804049 46.1972169,26.2884 C46.1972169,26.2884 47.271506,26.5258537 47.8545723,25.421722 C48.6497133,23.9146976 48.0285181,23.0805512 48.0521747,21.6783512 C48.0761096,20.2764293 48.5873711,19.9038439 48.8846096,19.9675171" id="Fill-113" fill="#009DCD"></path>
                <path d="M47.6477855,18.5772732 C47.6477855,19.0824878 47.2433964,19.4920537 46.7441024,19.4920537 C46.2448084,19.4920537 45.840141,19.0824878 45.840141,18.5772732 C45.840141,18.0720585 46.2448084,17.6627707 46.7441024,17.6627707 C47.2433964,17.6627707 47.6477855,18.0720585 47.6477855,18.5772732" id="Fill-114" fill="#009DCD"></path>
                <path d="M50.1445337,18.7794146 C50.1445337,19.2846293 49.7398663,19.6941951 49.2408506,19.6941951 C48.7415566,19.6941951 48.3366108,19.2846293 48.3366108,18.7794146 C48.3366108,18.2742 48.7415566,17.8649122 49.2408506,17.8649122 C49.7398663,17.8649122 50.1445337,18.2742 50.1445337,18.7794146" id="Fill-115" fill="#009DCD"></path>
                <path d="M50.6226759,12.7438098 C50.6226759,12.7438098 51.5372133,13.8846439 51.3947169,15.3813805 C51.2519422,16.8786732 51.6326747,17.5201317 52.0846554,17.4964976 C52.5363578,17.4725854 52.940747,17.2109415 52.8931554,15.3338341 C52.8455639,13.4567268 54.7957048,12.3161707 54.7957048,12.3161707 C54.7957048,12.3161707 54.4628422,13.337722 54.082388,14.9064732 C53.7019337,16.4746683 54.1299795,17.3299463 54.7720482,17.3299463 C55.4141169,17.3299463 55.5808265,16.9495756 55.2003723,15.0724683 C54.8196398,13.195361 55.842441,12.4588098 55.842441,12.4588098 C56.4369181,12.8628146 58.220906,12.1735317 56.8176506,11.2467951 C55.4141169,10.3203366 52.2165759,13.5518195 52.2165759,13.5518195 C51.9443855,12.5775366 50.6226759,11.5796195 50.6226759,11.5796195 L50.6321386,11.5796195 C50.6321386,11.5796195 49.3104289,12.5775366 49.0379602,13.5518195 C49.0379602,13.5518195 45.840141,10.3203366 44.4368855,11.2467951 C43.0336301,12.1735317 44.8173398,12.8628146 45.4120952,12.4588098 C45.4120952,12.4588098 46.4348964,13.195361 46.0541639,15.0724683 C45.673988,16.9495756 45.840141,17.3299463 46.482488,17.3299463 C47.1245566,17.3299463 47.5528807,16.4746683 47.1721482,14.9064732 C46.791694,13.337722 46.458553,12.3161707 46.458553,12.3161707 C46.458553,12.3161707 48.4089723,13.4567268 48.3613807,15.3338341 C48.3140675,17.2109415 48.7181783,17.4725854 49.170159,17.4964976 C49.6218614,17.5201317 50.002594,16.8786732 49.8598193,15.3813805 C49.7170446,13.8846439 50.6321386,12.7438098 50.6321386,12.7438098 L50.6226759,12.7438098" id="Fill-116" fill="#009DCD"></path>
                <path d="M50.6318602,21.1795317 C50.6318602,21.1795317 50.6274072,21.1706341 50.6271289,21.170078 C50.6268506,21.1706341 50.6226759,21.1795317 50.6226759,21.1795317 L50.6318602,21.1795317" id="Fill-117" fill="#009DCD"></path>
                <path d="M50.6318602,27.9041415 C50.6304687,27.9041415 50.6287988,27.9033073 50.6271289,27.9033073 C50.6257373,27.9033073 50.6243458,27.9041415 50.6226759,27.9041415 L50.6318602,27.9041415" id="Fill-118" fill="#009DCD"></path>
                <path d="M50.6318602,26.9774049 L50.6226759,26.9774049 L50.6271289,26.972678 C50.6129349,26.961278 50.1219904,26.5589415 50.1450904,25.5754829 C50.1684687,24.6059268 50.602359,23.466761 50.6271289,23.4016976 C50.6265723,23.3994732 50.6226759,23.3891854 50.6226759,23.3891854 L50.6318602,23.3891854 C50.6318602,23.3891854 50.6282422,23.3994732 50.6271289,23.4016976 C50.6524554,23.466761 51.0863458,24.6059268 51.1091675,25.5754829 C51.1328241,26.5589415 50.6418795,26.961278 50.6271289,26.972678 L50.6318602,26.9774049 Z M51.6326747,25.5515707 C51.6090181,24.3634683 50.8478313,22.0823561 50.8478313,22.0823561 C51.0379193,21.2507122 51.3707819,20.0862439 51.3707819,20.0862439 C50.9972855,20.3895951 50.6402096,21.1425512 50.6271289,21.170078 C50.6274072,21.1706341 50.6318602,21.1795317 50.6318602,21.1795317 L50.6226759,21.1795317 C50.6226759,21.1795317 50.6268506,21.1706341 50.6271289,21.170078 C50.6146048,21.1425512 50.2575289,20.3895951 49.8837542,20.0862439 C49.8837542,20.0862439 50.2166169,21.2507122 50.4069831,22.0823561 C50.4069831,22.0823561 49.6457964,24.3634683 49.6221398,25.5515707 C49.5982048,26.7368927 49.9986976,27.8971902 50.6271289,27.9033073 C51.2558386,27.8971902 51.656053,26.7368927 51.6326747,25.5515707 L51.6326747,25.5515707 Z" id="Fill-119" fill="#009DCD"></path>
                <path d="M50.6226759,23.3891854 C50.6226759,23.3891854 50.6265723,23.3994732 50.6274072,23.4014195 C50.6279639,23.3994732 50.6318602,23.3891854 50.6318602,23.3891854 L50.6226759,23.3891854" id="Fill-120" fill="#009DCD"></path>
                <polyline id="Fill-121" fill="#009DCD" points="50.6318602 26.9774049 50.6271289 26.972678 50.6226759 26.9774049 50.6318602 26.9774049"></polyline>
                <path d="M52.3699265,19.9675171 C51.8350084,20.0817951 51.3947169,20.5377951 51.4186518,21.8685366 C51.4423084,23.199278 52.441453,25.6230293 53.6304072,26.430761 C54.8196398,27.2387707 56.127712,26.7635854 56.7227458,26.430761 C56.7227458,26.430761 58.0305398,26.6924049 58.7441349,25.5279366 C59.4577301,24.3637463 58.530112,24.0784683 59.0772759,23.8407366 C59.6244398,23.6032829 59.7193446,24.5061073 60.2189169,24.1023805 C60.7182108,23.6983756 60.1351446,21.9900439 59.0057494,22.9156683 C59.0057494,22.9156683 58.4825205,22.4627268 58.6016386,21.4648098 C58.7204783,20.4666146 58.7917265,19.9436049 59.3862036,19.8012439 C59.980959,19.6586049 60.3614133,19.112239 59.5292566,18.6367756 C58.6965434,18.1615902 57.8760759,19.9675171 57.8760759,19.9675171 C57.8760759,19.9675171 57.3458892,18.9696 57.3436627,18.0189512 C57.3411578,17.0685805 57.5549024,17.140039 57.5549024,17.140039 C57.5549024,17.140039 58.7441349,17.3299463 58.7204783,16.5222146 C58.6965434,15.7142049 57.4836542,15.5003854 57.0792651,16.3792976 C56.6751542,17.2587659 56.7461241,18.4468683 57.1744482,19.9199707 C57.1744482,19.9199707 55.5571699,19.0883268 55.3668036,19.8487902 C55.1764373,20.6089756 55.961559,20.0626098 56.6512193,20.5377951 C57.3411578,21.0129805 58.0305398,21.5621268 58.0066048,22.9156683 C58.0066048,22.9156683 57.1744482,22.2725415 56.6275627,22.5814537 C56.0801205,22.8903659 56.0567422,23.5081902 56.6512193,23.9597415 C57.2456964,24.4112927 57.1271349,23.2704585 57.8760759,23.8407366 C58.6252952,24.4112927 57.893053,25.5991171 57.3436627,25.5991171 C56.7937157,25.5991171 56.5560361,25.5279366 56.5560361,25.5279366 C56.5560361,25.5279366 56.3545373,25.9794878 55.9084012,25.9555756 C55.4617084,25.9319415 54.9863494,24.9101122 55.2240289,23.5081902 C55.4617084,22.1062683 55.6999446,19.9436049 54.6295518,19.8487902 C53.559159,19.7536976 53.559159,21.9872634 53.7495253,23.1280976 C53.9396133,24.2686537 54.349847,25.7804049 55.0575976,26.2884 C55.0575976,26.2884 53.9830301,26.5258537 53.3999639,25.421722 C52.6048229,23.9146976 53.2260181,23.0805512 53.2023614,21.6783512 C53.1784265,20.2764293 52.6671651,19.9038439 52.3699265,19.9675171" id="Fill-122" fill="#009DCD"></path>
                <path d="M53.6067506,18.5772732 C53.6067506,19.0824878 54.0114181,19.4920537 54.5104337,19.4920537 C55.0094494,19.4920537 55.4143952,19.0824878 55.4143952,18.5772732 C55.4143952,18.0720585 55.0094494,17.6627707 54.5104337,17.6627707 C54.0114181,17.6627707 53.6067506,18.0720585 53.6067506,18.5772732" id="Fill-123" fill="#009DCD"></path>
                <path d="M51.1100024,18.7794146 C51.1100024,19.2846293 51.5146699,19.6941951 52.0136855,19.6941951 C52.5129795,19.6941951 52.9179253,19.2846293 52.9179253,18.7794146 C52.9179253,18.2742 52.5129795,17.8649122 52.0136855,17.8649122 C51.5146699,17.8649122 51.1100024,18.2742 51.1100024,18.7794146" id="Fill-124" fill="#009DCD"></path>
            </g>
        </g>
    </g>
</svg>