<?xml version="1.0" encoding="UTF-8"?>
<svg width="61px" height="89px" viewBox="0 0 61 89" version="1.1" xmlns="http://www.w3.org/2000/svg" xmlns:xlink="http://www.w3.org/1999/xlink">
    <title>IvanhoeGS_Crest_PMS411 (1)</title>
    <defs>
        <polygon id="path-1" points="0.0174681818 0.214058906 60.1944811 0.214058906 60.1944811 88.4854688 0.0174681818 88.4854688"></polygon>
    </defs>
    <g id="Page-1" stroke="none" stroke-width="1" fill="none" fill-rule="evenodd">
        <g id="Home" transform="translate(-426.000000, -3553.000000)">
            <g id="IvanhoeGS_Crest_PMS411-(1)" transform="translate(426.000000, 3553.000000)">
                <mask id="mask-2" fill="white">
                    <use xlink:href="#path-1"></use>
                </mask>
                <g id="Clip-2"></g>
                <path d="M17.355512,40.7944294 C17.4020939,40.7634741 17.4393593,40.743908 17.457992,40.7459522 C17.457992,40.7459522 17.4958398,40.7520848 17.6012311,40.8893395 C17.6815848,40.9927186 17.7115718,41.0604698 17.697015,41.0885048 C17.6923568,41.0987259 17.6801291,41.1118673 17.6708127,41.1238406 C17.5610543,41.1950962 17.4399416,41.2993514 17.2856393,41.4333938 L16.941225,41.7216286 L16.6014689,41.9844567 C16.5831273,41.9981822 16.5682793,42.0101555 16.55052,42.0232969 C16.3845723,42.0854995 16.1737895,41.8626797 16.223865,41.7216286 C16.2457002,41.7032306 16.2663709,41.6860008 16.2896618,41.6664347 L16.6585316,41.3598019 C16.6596961,41.3589258 16.6634809,41.3560055 16.6634809,41.3560055 L16.6672657,41.3527931 L17.0177939,41.0762395 C17.1473495,40.9743206 17.2617661,40.8832069 17.355512,40.7944294 Z M17.1755898,40.380037 C17.1636532,40.4031075 17.1380332,40.4317266 17.1060082,40.463558 C16.994503,40.538902 16.8701877,40.6428652 16.7144298,40.7751553 C16.7144298,40.7751553 16.4034961,41.033603 16.4034961,41.0318508 L16.0177405,41.332935 C15.9956141,41.3495808 15.9796016,41.3624302 15.9589309,41.3784919 C15.813945,41.3963058 15.6619718,41.1293892 15.7679455,40.968772 C15.788325,40.9512502 15.8078311,40.9348964 15.8296664,40.9164984 L16.1595239,40.641113 L16.5662414,40.3242591 C16.6963793,40.2258445 16.8102136,40.1373591 16.8998836,40.0479975 C16.9158961,40.0401127 16.9295795,40.0348561 16.9388959,40.0351365 C16.941225,40.0351365 16.9814018,40.0465373 17.0818439,40.1858363 C17.1959693,40.3379845 17.1814125,40.370108 17.1755898,40.380037 Z M16.6719239,39.6850027 C16.667848,39.6934716 16.6562025,39.7054448 16.6477595,39.71625 C16.5275202,39.7895498 16.3933064,39.902858 16.2203714,40.0497497 L15.9129314,40.3073213 L15.8963366,40.3201706 L15.9012859,40.3163742 L15.8975011,40.3201706 L15.8963366,40.3201706 L15.8742102,40.3388606 L15.5565805,40.5911756 C15.5431882,40.6016888 15.5318339,40.6110338 15.5184416,40.6212548 C15.3341523,40.7009794 15.0831927,40.3826653 15.2508873,40.2576759 C15.2508873,40.2576759 15.6343139,39.9679809 15.6343139,39.9638925 L15.9717409,39.6850027 C16.1595239,39.5267217 16.3697243,39.3465384 16.4302807,39.3485827 C16.4329009,39.3485827 16.4727866,39.3590958 16.5758489,39.4983947 C16.6585316,39.6111188 16.6789111,39.6701091 16.6719239,39.6850027 Z M16.81953,42.351832 C16.8329223,42.3407348 16.8448589,42.3308058 16.8588334,42.3194166 L17.1883998,42.0548363 C17.1933491,42.0510398 17.199463,42.0466594 17.1997541,42.0463673 L17.2049945,42.0416948 L17.5671682,41.7578405 C17.7057491,41.650665 17.8265707,41.5542947 17.9214811,41.4576323 C17.9430252,41.445367 17.9636959,41.4345619 17.9753414,41.4345619 C17.9753414,41.4345619 18.0149359,41.445367 18.1121755,41.575905 C18.2335793,41.7411947 18.2155289,41.772442 18.2117441,41.7852914 C18.2012632,41.8057336 18.1808836,41.8299722 18.153808,41.8571311 C18.0452141,41.9278027 17.9241014,42.0253411 17.7724193,42.1479942 C17.7724193,42.1479942 17.5543582,42.3243811 17.4693464,42.3947606 L17.4349923,42.4210434 L17.3817143,42.4657242 L17.0530214,42.7221277 C17.0343886,42.7361452 17.0183761,42.7489945 17.000908,42.76272 C16.8489348,42.7933833 16.6876452,42.5092369 16.81953,42.351832 Z M17.2573991,43.1157858 C17.2815634,43.0953436 17.3048543,43.0751934 17.3307655,43.0529991 C17.3307655,43.0529991 17.6897366,42.7492866 17.6923568,42.7463663 C17.694977,42.74403 18.032113,42.4870425 18.032113,42.4870425 C18.1770989,42.3769467 18.3014141,42.2811605 18.4006916,42.1880025 C18.4446532,42.1602595 18.4795895,42.1430297 18.4979311,42.145658 C18.504045,42.1479942 18.5430573,42.1631798 18.6426259,42.2966381 C18.7456882,42.4341848 18.743068,42.4739011 18.7419034,42.4785736 C18.7404477,42.4902548 18.7293845,42.5063166 18.7145366,42.5241305 C18.619335,42.585457 18.5159816,42.6683939 18.3852614,42.7781977 C18.3852614,42.7781977 18.0254168,43.0664325 17.9762148,43.1061488 L17.9701009,43.1108213 L17.9590377,43.1198742 L17.6207373,43.3844545 C17.6041425,43.3973039 17.5898768,43.4084011 17.5738643,43.4209584 C17.4070432,43.4878336 17.2020832,43.2647217 17.2573991,43.1157858 Z M17.8350136,43.7594227 C17.8518995,43.7454052 17.8676209,43.7322638 17.8853802,43.7173702 C17.8853802,43.7173702 18.1642889,43.4887097 18.2134909,43.4472413 C18.2166934,43.444613 18.2216427,43.4405245 18.2213516,43.4408166 L18.2300857,43.4340998 C18.2632752,43.4107373 18.5392725,43.2025191 18.5392725,43.2025191 C18.7314225,43.0597158 18.8769907,42.94962 18.9794707,42.8444888 C18.9884959,42.8395242 19.0010148,42.8316394 19.0065464,42.8307633 C19.0138248,42.8330995 19.0513814,42.8509134 19.1390134,42.968018 C19.2615818,43.1327236 19.2444048,43.1657231 19.2382909,43.1785725 C19.2269366,43.2004748 19.2024811,43.2285098 19.172203,43.2591731 C19.0665205,43.3318889 18.9486102,43.4303034 18.8024598,43.5532486 L18.48483,43.8192891 C18.4813364,43.8216253 18.4758048,43.8260058 18.4749314,43.8262978 L18.4749314,43.8271739 L18.4746402,43.8274659 L18.4749314,43.8262978 C18.4746402,43.8265898 18.4737668,43.8274659 18.4737668,43.8274659 C18.4737668,43.8274659 18.4688175,43.8315544 18.4667795,43.8335986 L18.1011123,44.1110283 C18.0711252,44.1335147 18.0487077,44.1510366 18.0210498,44.1717708 C17.8748993,44.1849122 17.7214705,43.9174116 17.8350136,43.7594227 Z M19.5562118,45.0180773 C21.5426352,43.7144498 23.0801264,43.2410672 23.8955993,43.6905033 C24.0787241,43.781617 24.1602423,43.9063144 24.1151161,44.033348 C24.0461168,44.2257966 23.6504625,44.3542903 23.1322398,44.2246284 C22.2806659,44.0070652 20.0269793,45.6260864 20.0039795,45.6424402 L20.0063086,45.641272 C19.2260632,46.2025561 17.7383564,47.4483614 17.714192,48.1296703 C17.7115718,48.6839456 17.4568275,48.9637116 17.2771964,48.986198 C17.227412,48.9908705 17.0576795,48.9879502 16.9910093,48.6988392 C16.7045311,47.5263338 18.3209202,45.8381011 19.5562118,45.0180773 Z M20.3291789,46.0469034 C20.5355945,45.893587 20.7880098,45.7259611 21.0567286,45.5621316 C23.5270207,48.8594564 37.9356505,68.0616792 37.9356505,68.0616792 C37.9356505,68.0616792 37.9379795,68.0643075 37.9379795,68.0654756 C37.9379795,68.0669358 38.3543045,69.2925909 38.3604184,69.3142013 C38.3161657,69.284122 22.925533,49.2922467 20.3291789,46.0469034 Z M29.0201816,59.1520978 C29.1605093,59.3264405 29.3005459,59.5001991 29.4400002,59.6730816 C25.778087,64.2273089 21.9720614,69.2423616 21.95634,69.2508305 C21.9746816,69.1938844 22.3776143,68.0047331 22.3787789,68.003565 C22.3787789,68.003565 25.4624952,63.8949773 29.0201816,59.1520978 Z M30.9466309,57.8867264 L30.4581041,57.2357888 C34.2178391,52.2248245 38.1091677,47.0345531 39.2614855,45.5002209 C39.5383561,45.668723 39.7992143,45.8418975 40.0094148,45.9984263 L40.0105793,46.0016386 C40.0123261,46.0028067 40.014073,46.0039748 40.0158198,46.005143 C38.6998834,47.7015525 34.8257318,53.0506889 30.9466309,57.8867264 Z M40.3165636,45.5822817 C40.2921082,45.5638837 38.0363836,43.9469067 37.1856832,44.1621337 C36.6662959,44.2926717 36.269477,44.164178 36.2001866,43.9696852 C36.1568073,43.8452798 36.2342495,43.7223347 36.4211591,43.6288847 C37.2331384,43.1820769 38.7741232,43.6531233 40.7617111,44.9555827 C41.9981673,45.7782347 43.6122273,47.4641311 43.3283693,48.6369286 C43.2602434,48.9242873 43.0890552,48.9280837 43.0392709,48.9237033 C42.8599309,48.902385 42.6063511,48.6264155 42.6025664,48.070388 C42.578402,47.3937516 41.0979736,46.1485303 40.3165636,45.5822817 Z M42.0793943,43.9518713 L41.7253725,43.7080252 L41.3128323,43.3993481 C41.1818209,43.2994734 41.064493,43.2101119 40.9532789,43.1473252 C40.9439625,43.1359359 40.9372664,43.1254228 40.9355185,43.1172459 C40.9355185,43.1154938 40.9340639,43.0751934 41.0409109,42.9376467 C41.1562009,42.7866666 41.1890993,42.7939673 41.2010359,42.7951355 C41.2301495,42.8012681 41.2720732,42.8237545 41.3198195,42.8523736 C41.4202616,42.9358945 41.5437034,43.0232119 41.7047018,43.1327236 C41.7047018,43.1327236 42.0383441,43.3645964 42.036015,43.3645964 L42.4293402,43.6554595 C42.4488464,43.6709372 42.4636943,43.6814503 42.482327,43.6960519 C42.550453,43.8327225 42.3245311,44.0628431 42.1382039,43.9921716 C42.117242,43.977862 42.1015207,43.9667648 42.0793943,43.9518713 Z M42.3123034,43.0529991 C42.2925061,43.0378134 42.277367,43.0264242 42.277367,43.0258402 L42.2136082,42.9817434 L41.9134466,42.7612598 C41.7769036,42.6608011 41.6554998,42.5720236 41.5431211,42.5051484 C41.5041089,42.4712728 41.4776155,42.4432378 41.4741083,42.4254239 C41.4741083,42.4254239 41.4706282,42.3854156 41.5760195,42.2472848 C41.653753,42.1418616 41.7108157,42.0939684 41.7410939,42.1001011 C41.752157,42.1024373 41.7687518,42.1109063 41.7833086,42.1173309 C41.8811305,42.2040642 42.012433,42.2925497 42.1827477,42.4061498 L42.5539466,42.6605091 L42.896323,42.9198328 C42.9158291,42.9344344 42.9341707,42.9484519 42.9528034,42.9627614 C43.048005,43.1079009 42.8890445,43.3657645 42.7414384,43.3508709 C42.7184386,43.3351013 42.700097,43.3222519 42.6753505,43.3053141 L42.3123034,43.0529991 Z M42.8337286,42.35154 C42.8124757,42.3348942 42.796172,42.3226289 42.7955898,42.3217528 L42.7562864,42.2948859 L42.4171125,42.0457833 C42.2724177,41.9377317 42.1431532,41.8407773 42.0214582,41.7747783 C42.0092305,41.7613448 41.999623,41.7493716 41.9970027,41.7400266 C41.9970027,41.7388584 41.9970027,41.6968059 42.0965714,41.5671441 C42.2229245,41.407695 42.2593166,41.4135356 42.2715443,41.4179161 C42.2974555,41.4228806 42.3338475,41.4412786 42.3746066,41.4655172 C42.4700993,41.547578 42.586845,41.6337272 42.738527,41.7411947 C42.738527,41.7411947 43.0905109,41.9923416 43.0942957,41.99643 L43.4823805,42.2799923 C43.500722,42.2940098 43.5184814,42.3071513 43.5359495,42.3205847 C43.6061134,42.4572553 43.3793182,42.6891281 43.1941555,42.6096956 C43.1778518,42.5983064 43.1659152,42.5892534 43.1487382,42.5772802 L42.8337286,42.35154 Z M43.3435084,41.6640984 L43.3356477,41.6582578 L43.3068252,41.6378156 C43.2279273,41.5785333 42.9932714,41.4009783 42.9932714,41.4009783 C42.8491589,41.2902984 42.7230968,41.1945122 42.6072245,41.1235486 C42.5690857,41.0890889 42.5434657,41.0604698 42.5405543,41.0426559 C42.5405543,41.0356472 42.5431745,40.9927186 42.6450723,40.8624727 C42.7507548,40.7246339 42.7894759,40.7179172 42.7932607,40.7179172 C42.8051973,40.715873 42.8241211,40.7222977 42.8459564,40.7322267 C42.9300948,40.8066947 43.0366507,40.8834989 43.1755227,40.9801613 C43.1755227,40.9801613 43.6084425,41.2905905 43.6122273,41.2940948 L43.9642111,41.5542947 C43.9808059,41.56656 43.9962361,41.5782413 44.0125398,41.5905066 C44.126083,41.734478 43.9598441,41.9981822 43.7985545,41.9765719 C43.7723523,41.95905 43.7519727,41.9444484 43.7240236,41.9257584 C43.7240236,41.9257584 43.3903814,41.6944697 43.3435084,41.6640984 Z M43.855035,40.9576748 C43.8512502,40.9553386 43.543228,40.7179172 43.543228,40.7179172 C43.3539893,40.5719016 43.2092945,40.4597616 43.0814857,40.3885059 C43.0744984,40.3809131 43.0634352,40.3709841 43.0613973,40.3657275 C43.0625618,40.3587188 43.0675111,40.3190025 43.154852,40.2004378 C43.2809141,40.0380684 43.3173061,40.0453692 43.331863,40.0465373 C43.3557361,40.0515019 43.3883434,40.0666875 43.4253177,40.0871297 C43.524013,40.1709427 43.6474548,40.25826 43.8087443,40.3677717 L44.1441334,40.5976003 C44.154032,40.6051931 44.160437,40.6095736 44.1610193,40.6101577 C44.1610193,40.6101577 44.1674243,40.6148302 44.1729559,40.6183345 L44.5345473,40.8954722 C44.5624964,40.9173745 44.5840405,40.9331442 44.6102427,40.9532944 C44.6681789,41.0920092 44.446333,41.3186255 44.262917,41.2441575 C44.2448666,41.2318922 44.2317655,41.2219631 44.2131327,41.2091138 C44.2131327,41.2091138 43.8599843,40.9597191 43.855035,40.9576748 Z M44.4108143,40.2801623 C44.407903,40.2778261 44.4023714,40.2737377 44.4023714,40.2734456 L44.3913082,40.2658528 L44.0503875,40.0167502 C43.9045282,39.9089906 43.7775927,39.8155406 43.6602648,39.7472053 C43.6250373,39.71625 43.600873,39.6902592 43.5965059,39.6730294 C43.5965059,39.6701091 43.5965059,39.6303928 43.7021884,39.4934302 C43.8087443,39.3529631 43.8503768,39.3418659 43.8599843,39.3404058 C43.9205407,39.3336891 44.1327791,39.501315 44.3365745,39.6628083 L44.6667232,39.9192117 L45.0332639,40.173863 C45.2111482,40.295348 45.0192893,40.6186266 44.849848,40.5914677 C44.832962,40.5794944 44.8207343,40.5701494 44.8026839,40.5578841 L44.4108143,40.2801623 Z M41.1416441,43.8070238 L41.4682991,44.0313038 L41.4854761,44.0441531 L41.4875141,44.0444452 L41.4875141,44.0456133 L41.5154632,44.0648873 L41.841827,44.3037689 C41.8560927,44.314282 41.869485,44.3239191 41.8834595,44.3344322 C42.0031166,44.4932972 41.7655493,44.8165758 41.6028041,44.6889581 C41.6028041,44.6889581 41.2190864,44.3960508 41.2179218,44.3942986 L40.8589507,44.146072 C40.6551552,44.0070652 40.4257398,43.8514125 40.412347,43.7924222 C40.412347,43.790378 40.411183,43.7500777 40.5165743,43.6125309 C40.6027507,43.5018511 40.6502059,43.4668073 40.6685475,43.4694356 C40.6787373,43.4711878 40.6944586,43.4796567 40.7084332,43.4860814 C40.8109132,43.5815756 40.955608,43.6802822 41.1416441,43.8070238 Z M19.7733995,43.8768192 C19.7649566,43.940482 19.5466043,44.099347 19.3343659,44.2532475 L19.0004325,44.5026422 L18.6595118,44.7873727 C18.4947286,44.9281317 18.2367818,44.6544984 18.3066545,44.4982617 C18.3223759,44.4854123 18.3348948,44.4754833 18.3514895,44.4620498 L18.7311314,44.1536648 L19.0743811,43.8826598 C19.2158734,43.771688 19.3369861,43.6750256 19.4342257,43.5809916 C19.4764405,43.5535406 19.5105034,43.5360188 19.5294273,43.5371869 C19.5305918,43.5371869 19.5696041,43.547992 19.6703373,43.6852467 C19.7757286,43.8262978 19.7757286,43.8706866 19.7733995,43.8768192 Z M17.4146127,39.9393619 C17.3249427,39.8158327 17.2198425,39.7004803 17.0809705,39.6499589 C17.0725275,39.5363588 17.0227432,39.4087411 16.9059975,39.2519203 C16.8078845,39.1187541 16.6960882,38.9923045 16.542077,38.94996 C16.5211152,38.9455795 16.5019002,38.9391548 16.4789005,38.9374027 C16.2445357,38.9099517 16.052968,39.0731972 15.7059334,39.3693169 L15.3795695,39.6403219 L15.0042948,39.9238842 C14.6657032,40.1761992 14.4802493,40.314622 14.4473509,40.5371498 C14.4208575,40.7202534 14.518097,40.884375 14.6281466,41.033603 C14.7233482,41.1603445 14.831942,41.2777411 14.976928,41.3247581 C14.9815861,41.4456591 15.0328261,41.5799934 15.156268,41.7473273 C15.2453557,41.8699805 15.3446332,41.9838727 15.4759357,42.0343941 C15.4878723,42.1771973 15.5670614,42.3065672 15.6573136,42.4227956 C15.7507684,42.5521655 15.8616914,42.668978 16.0072595,42.715703 C16.0119177,42.8368959 16.06374,42.9723984 16.1889286,43.1411925 C16.2818011,43.2661819 16.38399,43.3803661 16.518495,43.4300114 C16.5289759,43.5433195 16.5799248,43.6703531 16.6949236,43.8262978 C16.7857582,43.9536234 16.892023,44.0742323 17.0340975,44.1218334 C17.0413759,44.2398141 17.0937805,44.3709361 17.2178045,44.5327214 C17.3080568,44.6539144 17.4117014,44.7669305 17.5447507,44.81862 C17.5569784,44.9640516 17.6358764,45.0966338 17.7237995,45.2192869 C17.8233682,45.351577 17.9351645,45.4786106 18.08772,45.5209552 C18.0926693,45.5221233 18.0976186,45.5227073 18.102568,45.5238755 C17.0990209,46.4747292 16.2232827,47.7368883 16.4861789,48.818572 C16.6087473,49.3430602 17.0006168,49.5393052 17.3354236,49.4987128 C17.7796977,49.4464392 18.2263009,48.9622514 18.2300857,48.1404755 C18.2356173,47.9798583 18.5951707,47.5172808 19.2010255,46.9612533 C20.8214905,48.9748088 24.8720707,54.0030028 28.685957,58.7371214 L21.9152898,67.7585508 L21.4989648,68.9856661 L20.9688055,70.5588384 C20.9688055,70.5588384 23.3363264,68.9345606 23.3374909,68.9322244 L23.4053257,68.8852073 L30.1343605,60.5351578 C33.7773498,65.0563856 36.8625218,68.8852073 36.8631041,68.8852073 L36.9125973,68.9485781 L39.3494086,70.620457 L38.4005952,67.8207534 L31.5824727,58.7339091 L41.118062,46.9010948 C41.7268282,47.4597506 42.0802677,47.9179477 42.0869639,48.079733 C42.0895841,48.9029691 42.5370607,49.3862808 42.9787145,49.4385544 C43.314977,49.4750583 43.7091757,49.2817336 43.829415,48.7578295 C44.1013364,47.6413941 43.165333,46.3374745 42.1251027,45.379612 C42.2887214,45.3434002 42.4092518,45.2163666 42.51639,45.0791119 C42.6110093,44.9552906 42.6939832,44.8209563 42.7012616,44.6705602 C42.8156782,44.6334722 42.9312593,44.5414823 43.0590682,44.3773608 C43.1519407,44.2587961 43.23375,44.1305944 43.2474334,43.9907114 C43.3813561,43.9407741 43.4838361,43.8298022 43.571177,43.7109455 C43.6681255,43.5894605 43.750517,43.4524978 43.7583777,43.3015177 C43.8736677,43.2641377 43.9898311,43.1709797 44.1182223,43.0042298 C44.2108036,42.884205 44.2917395,42.7548352 44.3048407,42.613492 C44.4113966,42.5731917 44.5202816,42.4849983 44.6399386,42.3308058 C44.7360136,42.2107809 44.820152,42.0773227 44.8294684,41.9298469 C44.9415559,41.8915908 45.0530611,41.7993089 45.1750473,41.6351873 C45.2676286,41.5142864 45.3491468,41.3834564 45.3619568,41.2412372 C45.4984998,41.1912998 45.6050557,41.0791598 45.6982193,40.958843 C45.8015727,40.828013 45.8912427,40.6869619 45.8912427,40.5257606 C45.8912427,40.5047344 45.889787,40.4837081 45.8851289,40.4609297 C45.8499014,40.2278888 45.6411566,40.0871297 45.2612236,39.8298502 C45.2612236,39.8298502 44.9191384,39.5921367 44.91186,39.5880483 C44.9069107,39.5822077 44.5939391,39.3389456 44.5939391,39.3389456 C44.237297,39.0556753 44.0419445,38.9017748 43.8087443,38.9298098 C43.6183411,38.9517122 43.4823805,39.099772 43.3720398,39.239655 C43.2777116,39.3643523 43.1906618,39.4995628 43.1836745,39.6522952 C43.0698402,39.6914273 42.9542591,39.7845853 42.8273236,39.949583 C42.740565,40.0658114 42.6639961,40.193137 42.6517684,40.3312678 C42.5131875,40.3812052 42.4051759,40.4950973 42.3175439,40.6084055 C42.22176,40.7331028 42.1399507,40.8677292 42.1306343,41.0181253 C42.0156355,41.0557973 41.8988898,41.1483713 41.7702075,41.314245 C41.6822843,41.4290133 41.5987282,41.5627636 41.5885384,41.7114075 C41.4784889,41.7505397 41.3664014,41.8387331 41.2447064,41.9946778 C41.1544541,42.1167469 41.0764295,42.2516653 41.0685689,42.398557 C40.9532789,42.4330167 40.83828,42.5217942 40.7133825,42.6832875 C40.6196366,42.8030203 40.5387007,42.9338503 40.526473,43.0795739 C40.4196259,43.1184141 40.3098675,43.2060234 40.1902105,43.3616761 C40.0897684,43.4895858 39.9998073,43.6323891 39.9998073,43.7924222 C39.9998073,43.8131564 40.0009718,43.8359348 40.003592,43.8575452 C40.0059211,43.8733148 40.0158198,43.8861642 40.0196045,43.9010578 C38.3179125,42.9510802 37.0258493,42.7048978 36.1809716,43.1703956 C35.7029257,43.407525 35.6019014,43.8327225 35.7136977,44.1437358 C35.8909998,44.6434013 36.5483857,44.8574602 37.3129098,44.6670558 C37.5365025,44.6092336 38.1676861,44.8825748 38.809933,45.2382689 L30.1337782,56.8032905 L21.5039141,45.3016397 C22.1470343,44.9450695 22.780547,44.6702681 23.0061777,44.7283823 C23.7680816,44.9190788 24.4245941,44.7053119 24.6030607,44.2056464 C24.7049584,43.9156594 24.6432375,43.4860814 24.1346223,43.2320142 C23.2626689,42.7507467 21.9234416,43.0267163 20.1460541,44.0467814 C20.1603198,44.0123217 20.177788,43.9787381 20.1836107,43.940482 C20.2138889,43.7524139 20.1084975,43.5806995 20.002815,43.4376042 C19.9073223,43.3096945 19.7996018,43.1885016 19.652578,43.1409005 C19.6458818,43.0202916 19.5934773,42.8859572 19.4700355,42.7189153 C19.3812389,42.6021028 19.2799234,42.4940513 19.1497855,42.4464502 C19.1398868,42.2983903 19.0618623,42.164348 18.9748125,42.0481195 C18.8807755,41.921378 18.7718905,41.8031053 18.6260311,41.7560883 C18.6216641,41.6346033 18.5704241,41.4988088 18.4446532,41.3291386 C18.3573123,41.2134942 18.249883,41.0931773 18.1078084,41.0449922 C18.0999477,40.9284717 18.0501634,40.7979338 17.9325443,40.6387767 C17.8387984,40.5158316 17.7284577,40.4028155 17.5866743,40.3566745 C17.5843452,40.2363577 17.5363077,40.1028994 17.4146127,39.9393619 Z M35.1404502,23.3303766 L33.5042639,23.2080155 C33.2096339,23.1875733 32.94732,23.372137 32.9231557,23.6218238 C32.8963711,23.8703423 33.1147234,24.0919941 33.4122648,24.1141884 L35.0467043,24.2336292 C35.3442457,24.2552395 35.6048127,24.0733041 35.6292682,23.8215731 C35.654597,23.5718864 35.4362448,23.3514028 35.1404502,23.3303766 Z M26.9225441,23.2080155 L25.2843198,23.3303766 C24.9893986,23.3514028 24.7710464,23.5718864 24.7963752,23.8215731 C24.8208307,24.0733041 25.0828534,24.2552395 25.3789391,24.2336292 L27.0145432,24.1141884 C27.3120845,24.0919941 27.5304368,23.8703423 27.5024877,23.6218238 C27.4783234,23.372137 27.2174652,23.1875733 26.9225441,23.2080155 Z M30.9160616,23.0415577 L29.2717234,23.0415577 C28.9744732,23.0415577 28.7342857,23.2436433 28.7342857,23.4956663 C28.7342857,23.745937 28.9744732,23.9488988 29.2717234,23.9488988 L30.9160616,23.9488988 C31.2106916,23.9488988 31.4511702,23.745937 31.4511702,23.4956663 C31.4511702,23.2436433 31.2106916,23.0415577 30.9160616,23.0415577 Z M22.8804068,10.5116648 C22.8804068,10.1232633 22.564815,9.80845359 22.1790593,9.80845359 C21.7906834,9.80845359 21.4788764,10.1232633 21.4788764,10.5116648 C21.4788764,10.9003584 21.7906834,11.2183805 22.1790593,11.2183805 C22.564815,11.2183805 22.8804068,10.9003584 22.8804068,10.5116648 Z M38.0451177,11.2183805 C38.4297089,11.2183805 38.7441361,10.9003584 38.7441361,10.5116648 C38.7441361,10.1232633 38.4297089,9.80845359 38.0451177,9.80845359 C37.6555773,9.80845359 37.3414411,10.1232633 37.3414411,10.5116648 C37.3414411,10.9003584 37.6555773,11.2183805 38.0451177,11.2183805 Z M33.9290318,7.14600469 C34.3174077,7.14600469 34.6295059,6.83148703 34.6295059,6.44250141 C34.6295059,6.05351578 34.3174077,5.73841406 33.9290318,5.73841406 C33.5394914,5.73841406 33.2265198,6.05351578 33.2265198,6.44250141 C33.2265198,6.83148703 33.5394914,7.14600469 33.9290318,7.14600469 Z M26.4881686,7.14600469 C26.8750889,7.14600469 27.1883516,6.83148703 27.1883516,6.44250141 C27.1883516,6.05351578 26.8750889,5.73841406 26.4881686,5.73841406 C26.1009573,5.73841406 25.7853655,6.05351578 25.7853655,6.44250141 C25.7853655,6.83148703 26.1009573,7.14600469 26.4881686,7.14600469 Z M30.045855,11.952255 C30.4319018,11.952255 30.7448734,11.6362772 30.7448734,11.2461234 C30.7448734,10.858598 30.4319018,10.5426202 30.045855,10.5426202 C29.6566057,10.5426202 29.343343,10.858598 29.343343,11.2461234 C29.343343,11.6362772 29.6566057,11.952255 30.045855,11.952255 Z M30.045855,17.6091923 C30.4319018,17.6091923 30.7448734,17.2937986 30.7448734,16.905105 C30.7448734,16.5161194 30.4319018,16.2016017 30.045855,16.2016017 C29.6566057,16.2016017 29.343343,16.5161194 29.343343,16.905105 C29.343343,17.2937986 29.6566057,17.6091923 30.045855,17.6091923 Z M34.465305,11.6856305 L33.5030993,11.6856305 L33.5030993,12.8969761 L32.2593648,12.8969761 L32.2593648,13.9097405 L33.5030993,13.9097405 L33.5030993,16.3931742 L34.465305,16.3931742 L34.465305,13.9097405 L35.7107864,13.9097405 L35.7107864,12.8969761 L34.465305,12.8969761 L34.465305,11.6856305 Z M24.4507964,13.9222978 L25.6956955,13.9222978 L25.6956955,16.4042714 L26.6567366,16.4042714 L26.6567366,13.9222978 L27.9016357,13.9222978 L27.9016357,12.9101175 L26.6567366,12.9101175 L26.6567366,11.6976038 L25.6956955,11.6976038 L25.6956955,12.9101175 L24.4507964,12.9101175 L24.4507964,13.9222978 Z M52.0840043,72.9210792 L51.8109184,73.3013039 L54.1213766,75.0047222 L54.4395886,74.5690116 L52.9940966,73.5039736 L54.0619848,73.5667603 L54.1129336,73.5016373 L53.7318361,72.4955897 L55.1720877,73.5591675 L55.4926289,73.1234569 L53.178677,71.4212067 L52.9029709,71.7993872 L53.3507386,72.9929189 L52.0840043,72.9210792 Z M52.6761757,75.8945414 L52.1506745,75.442477 L52.7937948,74.694293 L52.3920266,74.3470678 L51.7515266,75.0978802 L51.2964805,74.704222 L51.9652207,73.9177819 L51.5657816,73.5746452 L50.5441841,74.7673008 L52.7247955,76.6491502 L53.7612409,75.4375125 L53.3629664,75.0911634 L52.6761757,75.8945414 Z M50.7308025,75.3455227 L50.3558189,74.9743509 L48.8876182,76.4753916 L49.2614373,76.8451031 L49.8099382,76.2890756 L51.4819343,77.9419725 L51.8580825,77.5597036 L50.1834661,75.9044705 L50.7308025,75.3455227 Z M48.9813641,77.9723438 L48.7688345,78.1604119 L48.3367882,77.6703834 L48.5382545,77.4907842 C48.688772,77.3564498 48.840163,77.3710514 48.9822375,77.5305005 C49.1438182,77.7150642 49.0925782,77.8756814 48.9813641,77.9723438 Z M49.568295,77.9200702 C49.6533068,77.6438086 49.5889657,77.3844848 49.380512,77.1470634 C49.0925782,76.8258291 48.6340384,76.7002556 48.3050543,76.9925789 L47.5844918,77.629207 L49.487068,79.7870259 L49.8900007,79.4325 L49.115578,78.5566983 L49.2323236,78.4530272 C49.4495114,78.2620388 49.8780641,78.619777 50.4591723,78.9290381 L50.9008261,78.5409286 C50.1167959,78.1063861 49.8317734,77.8835662 49.568295,77.9200702 Z M47.7411232,80.4359194 C47.4121391,80.6806416 46.9873711,80.5626609 46.6706148,80.1383395 C46.3588077,79.7116819 46.3698709,79.2660422 46.6985639,79.0201519 C47.0263834,78.7757217 47.4508602,78.8957466 47.766452,79.3209441 C48.0794236,79.7464336 48.0698161,80.1911972 47.7411232,80.4359194 Z M46.3404661,78.5383003 C45.6900675,79.0257005 45.8161295,79.9073428 46.2301255,80.4677508 C46.664792,81.0617423 47.465417,81.3937819 48.0989298,80.918063 C48.7190502,80.4531492 48.6474307,79.5843563 48.2054857,78.9874444 C47.7978948,78.4311248 46.9931939,78.0503161 46.3404661,78.5383003 Z M44.7182543,79.7207348 L44.6745839,80.9945752 L43.5350761,80.4370875 L43.1321434,80.6800575 L44.6114073,83.1453853 L45.0725673,82.8679556 L44.1479182,81.3257386 L45.1089593,81.8011655 L45.1805789,81.759113 L45.2143507,80.6806416 L46.1355061,82.2228586 L46.5978307,81.9439688 L45.1174023,79.479225 L44.7182543,79.7207348 Z M38.8888309,84.0279038 C39.0038298,84.432075 38.98083,84.9492623 38.440772,85.1075433 L38.0899527,85.2085861 L37.5804641,83.4619472 L37.9263341,83.3614884 C38.4334936,83.2125525 38.7464652,83.5518928 38.8888309,84.0279038 Z M37.8474361,82.834372 L36.8986227,83.1138459 L37.6995389,85.8738333 L38.5912895,85.6121733 C39.4515975,85.3607344 39.67257,84.6645319 39.4408255,83.8690388 C39.2186884,83.1138459 38.6314664,82.6013311 37.8474361,82.834372 Z M35.4618648,85.2488864 L35.5660916,84.0857259 L36.1387568,85.1192245 L35.4618648,85.2488864 Z M35.1098809,83.4718763 L34.7797323,86.4777539 L35.3622961,86.3656139 L35.4155741,85.7716223 L36.3972859,85.5829702 L36.6849286,86.1062902 L37.2747709,85.9935661 L35.7433936,83.3495152 L35.1098809,83.4718763 Z M32.0116077,86.2298194 L31.9632791,85.5391655 L32.9848766,85.4644055 L32.94732,84.9358289 L31.926887,85.0102969 L31.8832166,84.4066683 L32.9548895,84.3298641 L32.9170418,83.8021636 L31.2887161,83.918392 L31.4898914,86.7981122 L33.143837,86.6772113 L33.1062805,86.1506789 L32.0116077,86.2298194 Z M30.293612,85.5584395 C30.293612,86.0729986 30.0205261,86.2712878 29.725605,86.2712878 C29.4027348,86.2712878 29.1712814,86.0230613 29.1712814,85.609837 L29.1712814,83.9560641 L28.6128818,83.9560641 L28.6128818,85.5931913 C28.6128818,86.4830105 29.0824848,86.8725802 29.7302632,86.8725802 C30.34689,86.8725802 30.8505559,86.5414167 30.8505559,85.5891028 L30.8505559,83.9560641 L30.293612,83.9560641 L30.293612,85.5584395 Z M27.6058411,85.3180978 C27.5449936,85.8820102 27.2005793,86.1641123 26.8072541,86.1214758 C26.3824861,86.0773791 26.1385139,85.6986145 26.194412,85.1714981 C26.2526393,84.6437977 26.5705602,84.3193509 26.9964927,84.3631556 C27.3752611,84.40404 27.667562,84.7448405 27.6058411,85.3180978 Z M27.0657832,83.7691641 C26.2671961,83.684767 25.7029739,84.3847659 25.6240759,85.1192245 C25.5402286,85.8951516 25.9783889,86.4891431 26.3874355,86.628442 C26.7164195,87.0223922 27.1286686,87.338662 27.5473227,87.4189706 L28.032647,86.9911448 L28.0038245,86.9286502 C27.7648016,87.0004898 27.4224252,86.8749164 27.1991236,86.6704945 C27.712397,86.5291514 28.1106716,85.9979466 28.1785064,85.3630706 C28.2489614,84.6998677 27.9042559,83.8561894 27.0657832,83.7691641 Z M23.7395502,84.0460097 C23.5357548,85.0587741 24.6871991,85.1221448 24.5914152,85.5847223 C24.5585168,85.749428 24.4263409,85.8215597 24.2164316,85.7768789 C23.9747884,85.7284017 23.8027268,85.5931913 23.5418686,85.2599836 L23.41668,85.8659484 C23.6073743,86.058105 23.7736132,86.2236867 24.1555841,86.3042873 C24.6446932,86.4053302 25.0621827,86.1641123 25.1713589,85.6238545 C25.3716607,84.6391252 24.2298239,84.5281533 24.3148357,84.1023717 C24.3451139,83.9621967 24.4871884,83.8970738 24.68487,83.936498 C24.8717795,83.9767983 25.0452968,84.0851419 25.3291548,84.3333684 L25.4394955,83.7831816 C25.1958143,83.5737952 24.9847405,83.4619472 24.7407682,83.4102577 C24.2309884,83.3048344 23.8391189,83.5589016 23.7395502,84.0460097 Z M23.0745948,83.0370417 L22.60965,84.5757544 C22.4594236,85.0692872 22.1415027,85.179967 21.8599739,85.0946939 C21.552825,85.001828 21.4023075,84.6960713 21.5213823,84.3006609 L22.003213,82.7120109 L21.4681043,82.5531459 L20.9947166,84.1228139 C20.7361875,84.9761292 21.07245,85.4836795 21.6925705,85.6711636 C22.278628,85.8487186 22.8562425,85.6796325 23.132822,84.7635305 L23.6047541,83.1970748 L23.0745948,83.0370417 Z M15.4284805,79.4103056 C14.9964341,79.1188584 14.532945,79.2052997 14.2563655,79.6211522 C13.6787509,80.4800161 14.7210191,80.9715047 14.4563761,81.3628266 C14.3629214,81.5053378 14.212695,81.5216916 14.0342284,81.4019587 C13.830433,81.2649961 13.7209657,81.0737156 13.6071314,80.6683763 L13.2612614,81.1846875 C13.3619945,81.4308698 13.4505,81.6478491 13.7745348,81.8651203 C14.1908598,82.14255 14.66745,82.0780111 14.9783836,81.6171858 C15.5399857,80.7846047 14.524502,80.2507716 14.7696389,79.8869006 C14.8497014,79.76892 15.0060416,79.7639555 15.1737361,79.8740513 C15.331532,79.9818108 15.4538093,80.1488527 15.6188836,80.4858567 L15.9321464,80.0174386 C15.783958,79.731248 15.6348961,79.5472683 15.4284805,79.4103056 Z M14.0135577,78.4579917 L12.2999291,80.7627023 L12.7476968,81.095618 L14.4613255,78.7920755 L14.0135577,78.4579917 Z M11.4567982,79.4146861 L12.9517834,77.6035083 L12.519737,77.2486903 L10.6922741,79.4672517 L12.0076282,80.5524398 L12.342435,80.1462244 L11.4567982,79.4146861 Z M9.8925225,78.021113 L10.3644545,77.5153148 L11.1144218,78.2194022 L11.4736841,77.8336289 L10.7248814,77.1324619 L11.1350925,76.6917867 L11.9202873,77.4268294 L12.2795495,77.0431003 L11.0879284,75.9231605 L9.12566932,78.021113 L10.3341764,79.1576986 L10.6960589,78.7733855 L9.8925225,78.021113 Z M9.43252705,76.2779784 C9.12334023,76.563877 8.64878795,76.7709272 8.268855,76.3547827 L8.02138909,76.0864059 L9.35624932,74.8476094 L9.59905705,75.1118977 C9.95802818,75.5049717 9.79178932,75.9430186 9.43252705,76.2779784 Z M10.034597,74.8102294 L9.36236318,74.0760628 L7.25453591,76.0303359 L7.88309932,76.7148572 C8.49215659,77.3789362 9.21533932,77.2676723 9.81973841,76.7066803 C10.3961884,76.1702189 10.5903764,75.4156102 10.034597,74.8102294 Z M8.76407795,73.3202859 L6.53834045,75.1387645 L6.89032432,75.5744752 L9.11460614,73.7539523 L8.76407795,73.3202859 Z M7.167195,74.040727 L7.59429205,73.7329261 L7.01551295,72.9318844 L7.53344455,72.5551641 L8.11338818,73.3553297 L8.54077636,73.0451925 L7.63301318,71.7923784 L5.30450455,73.479735 L5.63203295,73.9338436 L6.58812477,73.2423136 L7.167195,74.040727 Z M49.5549027,41.5542947 C48.1257143,43.4241708 47.429025,45.6030159 47.429025,48.2143594 C47.429025,48.5037623 47.4351389,48.7940414 47.4523159,49.0764356 L47.9824752,58.088228 C47.9993611,58.3770469 48.0078041,58.6483439 48.0078041,58.9181808 C48.0078041,63.2723667 46.0481652,67.3190438 42.6284775,70.0215009 L30.2473214,79.4076773 C30.2473214,79.4076773 17.5677505,70.0241292 17.5593075,70.0177045 C13.9346598,67.1686477 11.9336795,62.7061181 12.2090945,58.0809272 L12.7407095,49.070595 C12.7552664,48.7768116 12.7637093,48.4938333 12.7637093,48.2143594 C12.7637093,45.7703498 12.1604748,43.5079838 10.9190693,41.2981833 L10.7822352,41.0543372 L17.4137393,35.7049088 L17.558143,35.5880963 L17.7316602,35.6517591 C21.3758141,36.9495459 25.3474964,37.5806255 29.877287,37.5806255 C29.9489066,37.5806255 30.0132477,37.5975633 30.0668168,37.6299788 L30.1308668,37.6299788 C34.136612,37.6299788 38.5147207,36.9953948 42.7923873,35.7939783 L42.9560059,35.7469613 L49.7490907,41.3005195 L49.5549027,41.5542947 Z M51.2199116,40.8303492 L43.2861545,34.0657373 L43.1126373,34.118887 C38.9796655,35.4117094 34.6923914,36.0693638 30.3733834,36.0693638 L29.9791848,36.0693638 C25.677645,36.0693638 21.4072568,35.4157978 17.2838925,34.12794 L17.1176536,34.0756664 L8.98010114,40.5207961 L9.10761886,40.7646422 C10.3827961,43.19259 11.4410768,45.3950897 11.4410768,47.7582066 C11.4410768,48.0572466 11.4323427,48.3554105 11.4154568,48.66876 L10.8401714,58.2301552 C10.5440857,63.134528 12.705482,67.863682 16.6250509,70.882117 L30.1722082,81.3610744 L43.7254793,70.882117 C47.420582,68.022547 49.5368523,63.7349442 49.5368523,59.1173461 C49.5368523,58.8334917 49.5281182,58.5446728 49.5077386,58.2395002 L48.9374025,48.6737245 C48.92139,48.3752686 48.910618,48.0660075 48.910618,47.7582066 C48.910618,45.3860367 49.8172166,43.4878336 51.0950141,41.0645583 L51.2199116,40.8303492 Z M59.0651632,66.5501255 C59.0503152,66.6745308 59.0261509,66.8059448 59.0069359,66.9312263 C57.7521382,66.3267216 56.4463916,65.8533389 55.1153161,65.5183791 C55.1758725,65.2584713 55.228277,64.9956431 55.2620489,64.7249302 C55.2827195,64.5587644 55.2911625,64.4004834 55.2911625,64.2427866 C55.2911625,64.0377806 55.266707,63.8251819 55.230315,63.6058664 C56.549745,63.9682772 57.7946441,64.5561361 58.9326961,65.3615583 L58.9326961,65.3638945 C58.9717084,65.3901773 58.998493,65.4319378 59.0069359,65.4809991 C59.0081005,65.4815831 59.0081005,65.4874238 59.009265,65.48976 C59.0602139,65.7192966 59.0858339,65.947373 59.0858339,66.1640602 C59.0858339,66.2975184 59.07972,66.4341891 59.0651632,66.5501255 Z M55.5048566,67.947495 C55.2014925,68.4684788 54.9403432,68.9868342 54.7097632,69.535853 C54.6101945,69.7721063 54.5170309,70.0241292 54.4282343,70.3173286 C53.82762,70.0177045 53.2101198,69.7817433 52.5862145,69.6228783 C52.4563677,69.5878345 52.3241918,69.5662242 52.1882311,69.5662242 C51.837703,69.5662242 51.5098834,69.6807005 51.2295191,69.891255 C51.0257236,70.0471997 50.8035866,70.1748173 50.569513,70.2758602 C50.5040073,70.3038952 50.437337,70.2983466 50.3767807,70.2673913 C50.3281609,70.2376041 50.2906043,70.18095 50.285655,70.1213756 C50.2431491,69.7575047 50.260035,69.3994744 50.3488316,69.0440723 C50.44578,68.6261756 50.5779559,68.2243406 50.7357518,67.8505406 C50.9444966,67.3517513 51.20157,66.8401125 51.494162,66.3267216 C51.786463,65.8185872 52.1096243,65.3364436 52.450545,64.8963525 C52.689568,64.5800827 52.9687677,64.2731578 53.2802836,63.9828788 C53.5583189,63.7337761 53.864012,63.536363 54.1772748,63.4008605 C54.2389957,63.3739936 54.3132355,63.37779 54.3580705,63.4072852 C54.3653489,63.4096214 54.3711716,63.4119577 54.3749564,63.4157541 C54.4395886,63.4487536 54.4867527,63.5045316 54.5036386,63.574035 C54.5487648,63.7758286 54.5738025,64.0053652 54.5738025,64.2427866 C54.5738025,64.3791652 54.564195,64.5076589 54.5508027,64.6376128 C54.5048032,65.0105367 54.4282343,65.3846288 54.3277923,65.7414909 C54.3190582,65.7692339 54.3155645,65.7972689 54.3155645,65.8220916 C54.3155645,65.8723209 54.3301214,65.9243025 54.3545768,65.9698594 C54.3944625,66.0393628 54.463753,66.0904683 54.5400307,66.1076981 C55.2014925,66.2694834 55.8044359,66.4406138 56.3736075,66.6286819 C56.0655852,67.0497909 55.7729932,67.4872538 55.5048566,67.947495 Z M56.3919491,72.7058522 C53.4866993,77.7203208 49.2247541,81.7775109 44.0483495,84.4566056 C42.8651714,83.2426317 42.0715336,81.656902 41.8095109,79.9625367 C41.8068907,79.9304133 41.8057261,79.8991659 41.8057261,79.8664584 C41.8057261,79.8016275 41.8153336,79.7397169 41.8301816,79.6786823 C46.2082902,77.7977091 49.8681655,74.4714731 52.1678516,70.2892936 C52.2502432,70.2919219 52.3326348,70.2983466 52.4042543,70.3173286 C53.9452391,70.7086505 55.317947,71.5353909 56.3919491,72.7058522 Z M41.457527,82.6985775 C41.2790605,82.7730455 41.0982648,82.8600708 40.9128109,82.9543969 C40.5750927,82.152187 40.1375148,81.4077994 39.591343,80.7463486 C39.3098141,80.4078844 38.9118307,80.2212764 38.4725059,80.2212764 L38.2623055,80.236462 L38.252698,80.2379222 C38.2457107,80.2379222 38.233483,80.2405505 38.2285336,80.2417186 L37.8704359,80.3007089 C37.5842489,80.3377969 37.3222261,80.3264077 37.0648616,80.2674173 C37.0369125,80.2612847 37.0150773,80.2417186 37.0077989,80.2277011 C37.0002293,80.2122234 37.0040141,80.1888609 37.0150773,80.170755 C37.0174064,80.1669586 37.0200266,80.1628702 37.0200266,80.1579056 C37.1498734,79.9304133 37.3222261,79.7216109 37.5306798,79.5364631 C37.7624243,79.3405102 38.022118,79.1539022 38.2986975,78.983648 C38.7464652,78.72228 39.1022339,78.5383003 39.4515975,78.3890723 C39.8472518,78.2091811 40.2475643,78.0582009 40.6796107,77.9244506 C40.9867595,77.8336289 41.297402,77.7676298 41.5958168,77.7325861 C41.8735609,77.6960822 42.1431532,77.7045511 42.399062,77.7591609 C42.4220618,77.7644175 42.4369098,77.7758067 42.4488464,77.7982931 C42.4488464,77.7982931 42.4488464,77.8035497 42.4526311,77.8090983 C42.4526311,77.8105584 42.4552514,77.8310006 42.4552514,77.8310006 C42.4552514,77.8432659 42.4526311,77.853487 42.4488464,77.8604958 C42.3117211,78.0912005 42.138495,78.3023391 41.9320793,78.4871948 C41.916358,78.5006283 41.7111068,78.66621 41.7111068,78.66621 C41.7148916,78.6606614 41.7207143,78.6589092 41.7279927,78.6548208 C41.323022,78.9357548 41.0898218,79.3775981 41.0898218,79.8676266 L41.1020495,80.068252 C41.2365545,80.9323725 41.4939191,81.7602811 41.8592952,82.5306595 C41.7233345,82.5867295 41.5911586,82.6352067 41.457527,82.6985775 Z M30.0944748,87.8538052 C26.3958784,87.8538052 22.7700661,87.1841775 19.3139864,85.8726652 C19.4257827,84.1669106 20.0723966,82.5148898 21.151348,81.1995811 C21.2057905,81.1359183 21.2739164,81.0874411 21.3490295,81.0456806 C24.0501927,82.4053781 27.0753907,83.1021647 30.1139809,83.0566078 C33.1342295,83.1021647 36.1533136,82.4053781 38.8460339,81.0462647 C38.9202736,81.0894853 38.9866527,81.1394227 39.0352725,81.1995811 C40.1153884,82.516058 40.7596732,84.170415 40.8737986,85.8726652 C37.437225,87.1774608 33.8125773,87.8467964 30.0944748,87.8538052 Z M18.3334391,82.5251109 C18.704638,81.731078 18.9620025,80.9034614 19.0895202,80.0603672 C19.0871911,80.0662078 19.0991277,79.8676266 19.0991277,79.8676266 C19.0991277,79.3825627 18.8638895,78.9316664 18.4659061,78.6606614 C18.4743491,78.66621 18.4801718,78.6723427 18.4862857,78.6764311 L18.4659061,78.6589092 L18.2656043,78.4909913 C18.2644398,78.4909913 18.2571614,78.4825223 18.2571614,78.4825223 C18.0653025,78.3242414 17.89557,78.1186514 17.7450525,77.8756814 C17.7377741,77.853487 17.7316602,77.8385934 17.7316602,77.8277883 L17.7351539,77.8105584 C17.7351539,77.8105584 17.743888,77.7939127 17.7412677,77.7982931 C17.7497107,77.778435 17.7715459,77.7629573 17.788723,77.7591609 C17.9438986,77.7279136 18.1066439,77.7106838 18.286275,77.7106838 C18.3916664,77.7106838 18.4923995,77.7179845 18.5969175,77.7311259 C18.9063955,77.7696741 19.2097595,77.8336289 19.5265159,77.9308753 C19.9329423,78.0582009 20.3370395,78.2091811 20.7603518,78.3940369 C21.1100066,78.5505656 21.4835345,78.7453505 21.9010241,78.993577 C22.1668316,79.151858 22.4119684,79.3308731 22.6559407,79.544348 C22.8562425,79.7116819 23.0320889,79.9254488 23.1692141,80.1628702 C23.166885,80.1579056 23.177657,80.180392 23.1826064,80.1847725 C23.1826064,80.1859406 23.1837709,80.2034625 23.1837709,80.2034625 C23.1837709,80.2008342 23.177657,80.2186481 23.1741634,80.2341258 C23.1657205,80.2487273 23.1485434,80.2624528 23.1267082,80.2674173 C22.9531909,80.3033372 22.7881166,80.3223192 22.6291561,80.3223192 C22.5260939,80.3223192 22.4253607,80.3161866 22.3284123,80.3007089 C22.3246275,80.3007089 22.0067066,80.2507716 22.0067066,80.2507716 L21.9522641,80.2405505 C21.4485982,80.152357 20.9341602,80.3410092 20.6051761,80.7305789 C20.0482323,81.4127639 19.6112366,82.1629922 19.2872018,82.9611136 L18.3334391,82.5251109 Z M16.1408911,84.4539773 C10.9895243,81.7973691 6.72670568,77.7404709 3.79379795,72.7005956 C4.87129364,71.5310105 6.24603955,70.7051461 7.78353068,70.3173286 C7.86737795,70.2983466 7.93288364,70.2869573 8.00071841,70.2869573 C8.00916136,70.2869573 8.01294614,70.2887095 8.02138909,70.2887095 C10.3149614,74.4714731 13.9760011,77.7977091 18.35673,79.6786823 C18.3724514,79.7373806 18.3808943,79.7998753 18.3808943,79.8676266 L18.3782741,79.936838 C18.3782741,79.9272009 18.3771095,79.9502714 18.3771095,79.9528997 C18.1223652,81.6606984 17.346778,83.2125525 16.1408911,84.4539773 Z M4.69282705,67.9542117 C4.43429795,67.4998111 4.13704773,67.0538794 3.8141775,66.6210891 C4.47796841,66.4011895 5.08003841,66.2350237 5.63814682,66.1179192 C5.71820932,66.1036097 5.78866432,66.0525042 5.82971455,65.9821247 C5.85882818,65.938028 5.87222045,65.8831261 5.87222045,65.8305605 C5.87222045,65.8034016 5.86872682,65.7771187 5.86261295,65.7502519 C5.74499386,65.3431603 5.66958955,64.9825017 5.62970386,64.6443295 C5.61485591,64.5099952 5.60903318,64.3812094 5.60903318,64.2427866 C5.60903318,64.0091616 5.63203295,63.7921823 5.6780325,63.574035 C5.69753864,63.5106642 5.74120909,63.4557623 5.80322114,63.4262672 C5.80671477,63.4221787 5.81399318,63.4213027 5.81777795,63.4163381 C5.8445625,63.4008605 5.87949886,63.3926836 5.91239727,63.3926836 C5.93772614,63.3926836 5.96567523,63.3988162 6.00585205,63.4119577 C6.33105136,63.5547609 6.63441545,63.75159 6.90255205,64.0009847 C7.20824523,64.2927239 7.48977409,64.5999408 7.7276325,64.9129983 C8.09795795,65.405655 8.40598023,65.8705688 8.66945864,66.3337303 C8.96670886,66.8465372 9.216795,67.3421142 9.42903341,67.8505406 C9.59643682,68.2392342 9.71900523,68.6229633 9.80896636,69.0210019 C9.86602909,69.2601755 9.8925225,69.4981809 9.8925225,69.7364784 C9.8925225,69.8486184 9.88902886,69.9692273 9.87418091,70.0837036 C9.8669025,70.1494106 9.82818136,70.2066487 9.77490341,70.2376041 C9.742005,70.2589223 9.7067775,70.2673912 9.67417023,70.2673912 C9.65117045,70.2673912 9.62438591,70.2600905 9.59177864,70.2484092 C9.35013545,70.1383134 9.13411227,70.0118639 8.93643068,69.8620519 C8.55300409,69.5711888 8.05166727,69.4686858 7.59429205,69.5834541 C6.94272886,69.7519561 6.32610205,69.9922978 5.74965205,70.2948422 C5.67220977,70.0422352 5.58341318,69.7864158 5.47540159,69.5335167 C5.24016341,68.9722327 4.97552045,68.4392756 4.69282705,67.9542117 Z M1.20297545,66.9145805 C1.17968455,66.8006883 1.16046955,66.6827077 1.14445705,66.5574262 C1.12640659,66.4263042 1.11796364,66.293722 1.11796364,66.1611398 C1.11796364,65.9348156 1.1432925,65.7070313 1.19569705,65.4725302 C1.20297545,65.4383625 1.22830432,65.3922216 1.26964568,65.3650627 C1.26964568,65.3638945 1.27197477,65.3638945 1.27197477,65.3615583 C2.39430545,64.5631448 3.63105273,63.9782063 4.95135614,63.6157955 C4.91496409,63.8251819 4.88934409,64.0377806 4.88934409,64.2427866 C4.88934409,64.4130408 4.89807818,64.5730739 4.91612864,64.7249302 C4.95135614,64.9912627 5.002305,65.256135 5.06548159,65.5250958 C3.75595023,65.8413656 2.45893773,66.3080316 1.20297545,66.9145805 Z M59.3006925,64.8475833 C57.8636434,63.8289783 56.1805841,63.1137938 54.4308545,62.7735773 C54.4395886,62.7735773 54.4477405,62.7767897 54.4550189,62.7788339 C54.3787411,62.751967 54.3071216,62.751967 54.2596664,62.751967 C54.1481611,62.751967 54.0363648,62.7735773 53.9356316,62.8135856 C53.5391039,62.9870522 53.178677,63.2259338 52.8558068,63.5229295 C52.5195443,63.8377392 52.2208384,64.1618939 51.9492082,64.5134995 C51.5841232,64.9895105 51.2525189,65.4920963 50.9555598,66.0089916 C50.6521957,66.5317275 50.3840591,67.0652686 50.1616309,67.5944292 C49.9688986,68.0467856 49.8317734,68.4757795 49.7371541,68.8986408 C49.6739775,69.1816191 49.6425348,69.47073 49.6425348,69.7575047 L49.6582561,70.1853305 C49.6582561,70.1914631 49.6582561,70.1914631 49.6594207,70.1975958 C49.6873698,70.4554594 49.8378873,70.6806155 50.0673027,70.81641 C50.0734166,70.8184542 50.0769102,70.8199144 50.0792393,70.8237108 C50.1593018,70.8619669 50.2370352,70.890878 50.3194268,70.9113202 C50.5441841,70.9539567 50.7698148,71.0146992 50.9931164,71.0745656 C49.0503634,74.1295045 46.3660861,76.629292 43.19532,78.3242414 C43.1490293,78.1449342 43.1068145,77.9516095 43.0739161,77.7360905 C43.0666377,77.6814806 43.0520809,77.6061366 43.0121952,77.5316686 C42.9210695,77.3368838 42.7364891,77.1897 42.5230861,77.1464794 C42.3166705,77.1015066 42.1006473,77.0801883 41.9003455,77.0801883 C41.7766125,77.0801883 41.640943,77.0860289 41.5169189,77.1038428 C41.2135548,77.1385945 40.8764189,77.2116023 40.4953214,77.3211141 C40.0327057,77.4653775 39.6143427,77.6216142 39.2102455,77.8055939 C38.8026545,77.9828569 38.3982661,78.1931194 37.9787386,78.4477706 C37.6995389,78.6069277 37.4249973,78.8072611 37.1315318,79.0592841 C36.8753318,79.2724669 36.6581441,79.5364631 36.4773484,79.843388 C36.4106782,79.9453069 36.3742861,80.068252 36.3742861,80.2034625 C36.3742861,80.2983727 36.3949568,80.3891944 36.4386273,80.488485 C36.4627916,80.5503956 36.504133,80.6114302 36.551297,80.6593233 C36.5466389,80.6537747 36.540525,80.6479341 36.5347023,80.6415094 C36.6933716,80.8412588 36.8293323,81.0287428 36.9591791,81.2135986 C34.757897,82.0309941 32.4631602,82.441298 30.1262086,82.4261123 C27.7671307,82.4480147 25.4543434,82.0353745 23.2431627,81.2071739 C23.3537945,81.0322472 23.4859705,80.8497277 23.6522093,80.6441377 C23.6522093,80.6429695 23.7529425,80.479432 23.7529425,80.479432 C23.7916636,80.3891944 23.8134989,80.2983727 23.8134989,80.2034625 C23.8134989,80.0720484 23.7800182,79.9517316 23.7145125,79.8498127 C23.713348,79.8463083 23.7124745,79.8430959 23.7078164,79.8407597 L23.7104366,79.8407597 C23.5479825,79.5612858 23.3258455,79.2943692 23.0673164,79.0674609 C22.7785091,78.8195264 22.5030941,78.6209452 22.2250589,78.4536113 C21.8052402,78.2012963 21.4072568,77.9942461 21.0054886,77.8207795 C20.5929484,77.6330034 20.1696361,77.4720942 19.7119698,77.3307511 C19.3783275,77.2294163 19.0423561,77.1537802 18.6865875,77.1038428 C18.53607,77.0860289 18.4135016,77.0801883 18.286275,77.0801883 C18.0909225,77.0801883 17.8868359,77.1015066 17.66499,77.1464794 C17.4512959,77.1897 17.2643864,77.3377598 17.1747164,77.5342969 C17.1406534,77.5967916 17.1237675,77.6607464 17.1176536,77.703383 C17.1176536,77.7060113 17.11416,77.7174005 17.11416,77.7203208 C17.0847552,77.908973 17.0434139,78.1122267 16.9962498,78.3221972 C13.8266482,76.6354247 11.1473202,74.1388495 9.216795,71.0754417 C9.41564114,71.0146992 9.63049977,70.9600894 9.87680114,70.9113202 C9.882915,70.9113202 9.89019341,70.9089839 9.89514273,70.9063556 C9.98830636,70.8797808 10.0599259,70.8505777 10.1196089,70.8175781 C10.3464041,70.6826597 10.5004152,70.4469905 10.5295289,70.1894189 C10.5478705,70.0445714 10.5478705,69.9061486 10.5478705,69.7575047 C10.5478705,69.4456153 10.5187568,69.1643892 10.4555802,68.9041894 C10.352518,68.4713991 10.2066586,68.0269275 10.034597,67.6183758 C9.80139682,67.0635164 9.53588045,66.527347 9.24707318,66.031478 C8.95448114,65.5204233 8.61850977,65.0137491 8.24818432,64.5301453 C7.93637727,64.125682 7.64524091,63.8097042 7.33809205,63.5299383 C7.03123432,63.237615 6.67808591,63.0080784 6.26787477,62.8281872 C6.16597705,62.7788339 6.05185159,62.751967 5.92928318,62.751967 L5.76915818,62.7639403 C4.01680841,63.1053248 2.33636932,63.8245978 0.899611364,64.8458311 C0.729587727,64.9658559 0.614297727,65.1366942 0.563348864,65.3446205 C0.501336818,65.6194219 0.469894091,65.9032763 0.469894091,66.1640602 C0.469894091,66.321173 0.48678,66.4777017 0.501336818,66.6286819 L0.501336818,66.6418233 C0.5476275,66.9890484 0.604399091,67.302398 0.678638864,67.5999778 C0.694360227,67.6621805 0.736866136,67.7109497 0.793928864,67.7366484 C0.850991591,67.7629313 0.915332727,67.760303 0.97356,67.732268 C1.64579386,67.3815384 2.35704,67.0681889 3.13728545,66.7732373 C3.14194364,66.7808302 3.19522159,66.8552981 3.19784182,66.8576344 C3.56787614,67.3421142 3.87968318,67.8096563 4.15160455,68.2894636 C4.43196886,68.7672267 4.68438409,69.274193 4.91001477,69.8004333 C5.04102614,70.1225438 5.14292386,70.4283005 5.22182182,70.7340572 C4.48524682,71.171812 3.80922818,71.7275475 3.22200614,72.3925027 C3.14689295,72.4874128 3.10933636,72.5776505 3.10933636,72.676357 L3.10933636,72.6807375 C3.10933636,72.7668867 3.14194364,72.8320097 3.16144977,72.8734781 C3.16261432,72.8758144 3.16494341,72.8796108 3.16610795,72.881947 C6.19509068,78.14289 10.6424898,82.3694583 16.0290948,85.1113397 C16.0279302,85.1101716 16.0279302,85.1075433 16.0241455,85.104915 C16.0643223,85.1259413 16.1141066,85.1408348 16.1845616,85.1408348 C16.2949023,85.1408348 16.3991291,85.0946939 16.4745334,85.0164295 C17.0605909,84.4399598 17.5593075,83.7761728 17.9695186,83.0542716 C18.153808,83.1322439 18.482792,83.2706667 18.482792,83.2706667 C18.7352073,83.3871872 18.943952,83.4905663 19.13814,83.5942373 C18.8746616,84.3427134 18.7180302,85.1452153 18.6781445,85.9985306 L18.6781445,86.0230613 C18.6781445,86.1927314 18.7835359,86.3478 18.9390027,86.4088345 C22.5272584,87.786638 26.2805884,88.4854688 30.0944748,88.4854688 L30.1465882,88.4854688 C30.150373,88.4854688 30.150373,88.4843006 30.1529932,88.4843006 C33.9884236,88.4755397 37.7321461,87.7743727 41.28663,86.3939409 C41.2813895,86.3954011 41.2790605,86.3959852 41.2755668,86.3977373 C41.410363,86.3542247 41.508767,86.1959438 41.508767,86.0230613 L41.508767,86.0069995 C41.4793623,85.1957367 41.3253511,84.3847659 41.0607082,83.5921931 C41.2962375,83.4636994 41.5253618,83.3536036 41.7061575,83.2706667 C41.8857886,83.18919 42.0581414,83.1217308 42.2304941,83.0566078 C42.6249839,83.7697481 43.1225359,84.4332431 43.7182009,85.0272347 C43.7898205,85.0973222 43.897832,85.1408348 44.0035145,85.1408348 C44.0713493,85.1408348 44.1356905,85.1253572 44.1962468,85.095278 C49.5866366,82.3411313 54.0267573,78.1069702 57.0435123,72.8512838 C57.0606893,72.8212045 57.0653475,72.7917094 57.0676766,72.7616302 C57.0676766,72.7668867 57.0676766,72.7736034 57.0653475,72.7797361 C57.0653475,72.7773998 57.0676766,72.7700991 57.0702968,72.7557895 L57.0702968,72.7467366 C57.0737905,72.7175334 57.0799043,72.6786933 57.0799043,72.6786933 C57.0799043,72.5834911 57.047297,72.4912092 56.9815002,72.4097325 C56.9791711,72.4073963 56.9765509,72.404768 56.9765509,72.4000955 C56.4073793,71.7608391 55.734272,71.2004311 54.9767352,70.7276325 C55.0605825,70.3950089 55.1586955,70.0799072 55.2865043,69.7963448 C55.503692,69.2771133 55.7572718,68.7628463 56.0434589,68.2663931 C56.3238232,67.7906742 56.6443643,67.3096988 56.9975127,66.8401125 C56.9986773,66.8401125 57.0289555,66.8030245 57.0504995,66.7749895 C57.7984289,67.0521272 58.5143332,67.3643086 59.239845,67.7404448 C59.2980723,67.770232 59.3638691,67.770232 59.4244255,67.7404448 C59.4849818,67.7109497 59.523703,67.6560478 59.5359307,67.5909248 L59.5662089,67.3981842 L59.683828,66.6245934 C59.7021695,66.4794539 59.7155618,66.3249694 59.7155618,66.1640602 C59.7155618,65.9047364 59.6876127,65.6386959 59.6270564,65.3513372 C59.5880441,65.1571364 59.4730452,64.9769531 59.3006925,64.8475833 Z M48.7758218,32.5947759 C49.6896989,32.2230202 51.0271793,31.6777978 51.0271793,31.6777978 C51.1107355,31.6462584 51.1727475,31.5747108 51.1969118,31.4885616 C51.1969118,31.4885616 51.3681,30.9147202 51.4443777,30.6460514 L51.5960598,30.6460514 C53.693115,30.6460514 55.7438795,30.1639078 57.615013,29.2626994 C57.0714614,29.9793441 56.5022898,30.72636 56.5022898,30.72636 C56.4609484,30.7803858 56.4426068,30.8417123 56.4426068,30.9047911 C56.4426068,30.9515161 56.4525055,30.997073 56.4705559,31.0367892 C56.5252895,31.1384161 56.624567,31.2014948 56.737528,31.2000347 C56.737528,31.2000347 57.7862011,31.1854331 58.7143439,31.1757961 C55.6332477,32.7089602 52.1725098,33.2051213 48.7758218,32.5947759 Z M44.9948339,29.277593 C43.0133598,29.277593 41.0656575,29.7898158 39.3365986,30.7497225 C39.1980177,30.2821805 38.8375909,29.0749233 38.7356932,28.7411316 C42.6756416,26.7103463 47.3175198,26.7103463 51.2539745,28.7411316 C51.1581907,29.0749233 50.7977639,30.2929856 50.6606386,30.7652002 C48.9251748,29.7956564 46.9777636,29.277593 44.9948339,29.277593 Z M40.419917,32.6774208 C39.6748991,32.6774208 38.9240584,32.5562278 38.1921416,32.3164702 C38.1848632,32.3144259 38.1799139,32.3138419 38.1714709,32.3117977 C34.7200493,31.4543939 32.0596452,28.9254033 31.0098075,25.6558214 C31.7996605,25.6683788 32.5895134,25.6949536 33.378493,25.7405105 C34.2606361,27.9304528 36.1099343,29.6309508 38.4334936,30.2921095 C38.5051132,30.5312831 38.7828573,31.4885616 38.7828573,31.4885616 C38.8110975,31.5785072 38.8766032,31.6485947 38.9624884,31.6818863 C38.9624884,31.6818863 40.4370941,32.2361616 41.4225907,32.6055811 C41.0909864,32.651722 40.755015,32.6774208 40.419917,32.6774208 Z M30.1262086,25.0002113 C27.6177777,25.0002113 24.4700114,25.2738445 24.4700114,25.2738445 C24.3934425,24.3454772 24.2624311,23.4214903 24.0804709,22.5126891 C26.0925143,22.1885344 28.1214436,22.0179881 30.1151455,22.0179881 C32.1452393,22.0179881 34.1753332,22.1873663 36.1521491,22.5126891 C35.9739736,23.3914111 35.840342,24.3191944 35.7553302,25.2738445 C35.7553302,25.2738445 32.6366775,25.0002113 30.1262086,25.0002113 Z M22.0308709,32.3117977 C22.022428,32.3138419 22.0174786,32.3144259 22.0102002,32.3164702 C20.9618182,32.6596069 19.8624873,32.7565612 18.7873207,32.6055811 C19.7690325,32.2341173 21.2314105,31.6818862 21.2314105,31.6818862 C21.3175868,31.6485947 21.3816368,31.5785072 21.4107505,31.4885616 C21.4107505,31.4885616 21.6887857,30.5312831 21.7604052,30.2921095 C24.0857114,29.6254022 25.9353007,27.9260723 26.815697,25.7428467 C27.626803,25.6955377 28.4390734,25.6672106 29.2525084,25.6549453 C28.1380384,28.9271555 25.4575459,31.4561461 22.0308709,32.3117977 Z M9.53326023,30.7652002 C9.396135,30.2938617 9.03337909,29.0676225 8.93875977,28.7390873 C10.8765634,27.7435528 13.0353395,27.2141002 15.1979005,27.2141002 C17.3773473,27.2141002 19.5361234,27.7435528 21.4605348,28.7411316 C21.3609661,29.072587 21.0069443,30.2921095 20.8709836,30.7652002 C17.346778,28.7907769 13.0717316,28.7913609 9.53326023,30.7652002 Z M8.59667455,32.8430025 C6.12580023,32.8430025 3.68928,32.2671169 1.48566886,31.1757961 C2.41031795,31.1854331 3.45607977,31.2000347 3.45607977,31.2000347 C3.56787614,31.2014948 3.66977386,31.1384161 3.72072273,31.0385414 C3.74022886,30.997073 3.75245659,30.9515161 3.75245659,30.9047911 C3.75245659,30.8428805 3.73178591,30.7803858 3.69160909,30.72636 C3.69160909,30.72636 3.12971591,29.9825564 2.59111364,29.2723364 C4.50970227,30.1969073 6.60908659,30.670582 8.74952114,30.6483877 C8.82841909,30.9191006 8.9958225,31.4885616 8.9958225,31.4885616 C9.02260705,31.5747108 9.08665705,31.6462584 9.16817523,31.6801341 C9.16817523,31.6801341 10.5138075,32.2183477 11.4384566,32.5880592 C10.4884786,32.7588975 9.53588045,32.8430025 8.59667455,32.8430025 Z M28.369783,21.3965456 C27.714435,21.4275009 27.0570491,21.4765622 26.3996632,21.5419772 C25.7562518,18.5375597 24.652845,15.6303886 23.1083666,12.8928877 C24.4784543,10.8559697 26.2843732,9.12422437 28.3555173,7.83928688 C28.3555173,8.69114203 28.3665805,18.8260866 28.369783,21.3965456 Z M33.7962736,21.5352605 C33.1432548,21.4715977 32.4873245,21.4231205 31.8293564,21.3936253 C31.83285,18.8176177 31.8471157,8.70515953 31.8491536,7.85418047 C33.9121459,9.13678172 35.7154445,10.8644386 37.0928107,12.8911355 C35.5512436,15.5816194 34.4423052,18.4861622 33.7962736,21.5352605 Z M19.562908,11.8950169 C21.9676943,7.83461437 25.6991891,4.69060594 30.0883609,3.02865609 C34.4885959,4.69119 38.2247489,7.83403031 40.6324466,11.8801233 C38.5735302,14.7691884 37.0389505,18.3705178 36.2313382,21.8544506 C35.6892423,21.764797 35.1436527,21.6874088 34.5951518,21.6219938 C35.2470061,18.6975928 36.3565268,15.6730252 37.8474361,13.1127872 L37.9408909,12.9571345 L37.9991182,12.8578439 L37.8317148,12.6078652 C36.2831605,10.2739514 34.1948393,8.30653688 31.7932555,6.9153 L31.0849207,6.50441203 C31.0849207,6.50441203 31.062212,20.1533686 31.0604652,21.3670505 C30.7454557,21.3591656 30.4304461,21.3542011 30.1151455,21.3542011 C29.7899461,21.3542011 29.4632911,21.3600417 29.1366361,21.3685106 C29.1340159,20.1519084 29.121497,6.48776625 29.121497,6.48776625 L28.4090864,6.90099047 C25.9990595,8.29339547 23.9107384,10.269863 22.3694625,12.6116616 L22.2093375,12.8534634 L22.3537411,13.1084067 C23.8420302,15.718582 24.9789177,18.7446098 25.6319366,21.6257902 C25.086347,21.6909131 24.5410486,21.7680094 23.9972059,21.8564948 C23.1884291,18.3921281 21.6203686,14.7972234 19.562908,11.8950169 Z M29.573923,1.37897156 C29.5945936,1.1634525 29.7424909,0.909677344 30.0909811,0.909677344 C30.3797884,0.909677344 30.6103684,1.14213422 30.6103684,1.4251125 C30.6103684,1.67450719 30.4333575,1.89148641 30.1879295,1.93850344 L30.2048155,1.93558312 C30.1637652,1.94025563 30.1262086,1.95281297 30.0909811,1.97237906 C30.0569182,1.95281297 30.0170325,1.94025563 29.9754,1.93558312 L29.9937416,1.93850344 C29.6504918,1.87192031 29.5532523,1.59595078 29.573923,1.37897156 Z M60.1840002,30.7868105 C60.1487727,30.6591928 60.0311536,30.5707073 59.8963575,30.5727516 C59.8963575,30.5727516 58.1221725,30.5937778 57.3334841,30.604875 C57.8118211,29.9723353 58.9000889,28.5434264 58.9000889,28.5434264 C58.9391011,28.4911528 58.9594807,28.4269059 58.9594807,28.3658714 C58.9594807,28.2954919 58.9326961,28.2233602 58.8843675,28.1690423 C58.7897482,28.0650792 58.6342814,28.0414247 58.5143332,28.1132644 C56.4367841,29.3853525 54.0436432,30.0561483 51.5960598,30.0561483 L51.4781495,30.0561483 L51.8860316,28.67046 C51.9250439,28.5372938 51.8668166,28.3944905 51.7430836,28.3284914 C47.5213152,26.0599927 42.4733018,26.0599927 38.2457107,28.3284914 C38.1228511,28.3944905 38.0646239,28.5390459 38.1045095,28.6710441 L38.4040889,29.6738794 C36.4368805,29.053897 34.8577568,27.62382 34.0265625,25.7840231 C34.7351884,25.8330844 35.4435232,25.8906145 36.14982,25.9665427 L36.1533136,25.9665427 C36.3137298,25.9831884 36.4566777,25.8643317 36.4738548,25.7048827 L36.4738548,25.6736353 C36.4738548,25.6269103 36.459298,25.5836897 36.4421209,25.5430973 C36.5332466,24.4114763 36.6849286,23.315483 36.9021164,22.2863648 C36.9070657,22.2653386 36.9108505,22.2463566 36.9108505,22.2247463 C36.9108505,22.2168614 36.9061923,22.2101447 36.90561,22.2022598 C37.6832352,18.5609222 39.2483843,15.0565472 41.4345273,12.0670233 L41.5483616,11.9131228 L41.4502486,11.7475411 C39.0294498,7.53732656 35.2298291,4.25460328 30.7253673,2.45598281 C31.0738575,2.23841953 31.3021084,1.85177016 31.3021084,1.42277625 C31.3021084,0.757529062 30.7582657,0.214058906 30.0909811,0.214058906 C29.3349,0.214058906 28.9354609,0.783811875 28.8859677,1.31092828 C28.8833475,1.34918438 28.8810184,1.39065281 28.8810184,1.43066109 C28.8810184,1.81409812 29.0545357,2.22469406 29.4440761,2.457735 C24.9506775,4.25898375 21.1609555,7.54375125 18.7436502,11.7615586 L18.6478664,11.9265562 L18.7605361,12.0798727 C20.9557043,15.101228 22.5260939,18.6231248 23.3075039,22.2665067 L23.3657311,22.5430603 L23.3785411,22.5410161 C23.5802986,23.5780191 23.7247023,24.6348802 23.8001066,25.6940775 C23.8123343,25.8517744 23.9456748,25.9726753 24.1011416,25.9682948 C24.1133693,25.9671267 24.119192,25.9627463 24.1290907,25.960702 C24.1386982,25.9627463 24.1314198,25.960702 24.153255,25.9583658 C24.8228686,25.8871102 25.4945202,25.8327923 26.1670452,25.7854833 C25.3399268,27.6179794 23.7642968,29.0436759 21.8008732,29.6692069 L22.0917184,28.67046 C22.1281105,28.5372938 22.0687186,28.3956586 21.9484793,28.3284914 C19.8878161,27.2141002 17.5543582,26.6259492 15.1979005,26.6259492 C12.8691007,26.6259492 10.5455414,27.2091356 8.47527068,28.3115536 C8.4642075,28.3159341 8.4546,28.3220667 8.44615705,28.3284914 L8.42315727,28.3463053 C8.31747477,28.4190211 8.27031068,28.548975 8.30670273,28.67046 L8.71458477,30.0584845 C6.23963455,30.081555 3.8205825,29.4186441 1.70402114,28.1275739 C1.58261727,28.0569023 1.42744159,28.0799728 1.33398682,28.1839359 C1.28187341,28.24059 1.25741795,28.3098014 1.25741795,28.3822252 C1.25741795,28.4432597 1.27808864,28.5057544 1.31826545,28.5577359 C1.31826545,28.5577359 2.38848273,29.9758397 2.86157932,30.604875 C2.07667568,30.5937778 0.297541364,30.5727516 0.297541364,30.5727516 C0.162745227,30.5707073 0.0451261364,30.6591928 0.0110631818,30.7868105 C-0.0253288636,30.9147202 0.0294047727,31.0525589 0.144694773,31.1200181 C2.70145432,32.633032 5.62475455,33.4302773 8.59667455,33.4302773 C9.8925225,33.4302773 11.2139905,33.2737486 12.519737,32.9621513 C12.6446345,32.9326561 12.7345957,32.8272328 12.7453677,32.698155 L12.7453677,32.679465 C12.7765193,32.6152181 12.7858357,32.5404581 12.7648739,32.4692025 L12.1205891,30.3122597 C14.1238984,29.7279052 16.2468648,29.7223566 18.2481361,30.2985342 L17.4597389,32.4370791 C17.4352834,32.5024941 17.4390682,32.5740417 17.462068,32.6382886 C17.4594477,32.6537663 17.4547895,32.6686598 17.4547895,32.6847216 L17.4547895,32.6966948 C17.4609034,32.8231444 17.5447507,32.9326561 17.6684836,32.9682839 C19.1460007,33.3882248 20.7018334,33.3569775 22.1746923,32.8815506 C22.1802239,32.8812586 22.1857555,32.8789223 22.1924516,32.8777542 C22.1898314,32.8777542 22.1875023,32.8792144 22.1840086,32.8792144 C25.8703773,31.9543514 28.7433109,29.1978684 29.8758314,25.6470605 C30.045855,25.6464764 30.2158786,25.6461844 30.3859023,25.6470605 C30.8339611,27.128243 31.5990675,28.4955333 32.6538545,29.6619061 C34.0795493,31.2467597 35.9375816,32.3599828 38.0171686,32.8792144 C38.013675,32.8792144 38.0125105,32.8777542 38.0101814,32.8777542 C38.0139661,32.8786303 38.0177509,32.8792144 38.022118,32.8803825 C38.8105152,33.1356178 39.6160895,33.2635275 40.419917,33.2635275 C41.1396061,33.2635275 41.8555105,33.1639448 42.5434657,32.9682839 C42.6648695,32.9326561 42.7498814,32.8231444 42.7559952,32.6966948 L42.7559952,32.6847216 C42.7559952,32.6379966 42.7417295,32.5944839 42.72135,32.5541836 C42.7210589,32.5194319 42.7166918,32.4846802 42.7038818,32.4508045 L41.909953,30.3090473 C42.9088418,30.0193523 43.946743,29.86662 44.9948339,29.86662 C46.0606841,29.86662 47.11518,30.0263611 48.1300814,30.3283214 L47.4971509,32.455477 C47.4828852,32.5054144 47.4834675,32.5565198 47.4939484,32.604413 C47.4869611,32.6301117 47.482303,32.6569786 47.482303,32.6847216 L47.482303,32.7089602 C47.4907459,32.8336575 47.5795425,32.941417 47.7032755,32.9706202 C51.9308666,33.9871809 56.3153802,33.3295266 60.0503686,31.1200181 C60.1659498,31.0525589 60.2189366,30.9147202 60.1840002,30.7868105 L60.1840002,30.7868105 Z" id="Fill-1" fill="#3B3231" mask="url(#mask-2)"></path>
            </g>
        </g>
    </g>
</svg>