<?xml version="1.0" encoding="UTF-8"?>
<svg width="57px" height="88px" viewBox="0 0 57 88" version="1.1" xmlns="http://www.w3.org/2000/svg" xmlns:xlink="http://www.w3.org/1999/xlink">
    <title>MG Crest_CMYK</title>
    <defs>
        <polygon id="path-1" points="0.16365541 0.186978695 51.1560909 0.186978695 51.1560909 85.6553836 0.16365541 85.6553836"></polygon>
        <polygon id="path-3" points="0.0141285246 0.00630265263 56.848238 0.00630265263 56.848238 53.8113479 0.0141285246 53.8113479"></polygon>
    </defs>
    <g id="Page-1" stroke="none" stroke-width="1" fill="none" fill-rule="evenodd">
        <g id="Home" transform="translate(-698.000000, -3553.000000)">
            <g id="MG-Crest_CMYK" transform="translate(698.000000, 3553.000000)">
                <path d="M27.7693796,0.145194442 C29.3955728,0.145194442 30.6862135,1.44914324 30.6862135,3.06378947 C30.6862135,3.36935141 30.6704367,3.68915267 30.5842527,3.96763655 C30.5842527,3.96763655 36.4351102,8.79570189 38.4408897,15.8553731 C38.4408897,15.8553731 34.0311417,17.9126056 33.0593347,22.4537836 C33.0593347,22.4537836 33.7949599,23.4797154 32.8250367,23.6788325 C32.8250367,23.6788325 30.039598,22.3856216 27.7693796,22.6197534 C25.4942162,22.3856216 22.7111323,23.6788325 22.7111323,23.6788325 C21.7407382,23.4797154 22.4744795,22.4537836 22.4744795,22.4537836 C21.5071466,17.9126056 17.0919826,15.8553731 17.0919826,15.8553731 C19.0987041,8.79570189 24.950739,3.96763655 24.950739,3.96763655 C24.8652614,3.68915267 24.8520748,3.36935141 24.8520748,3.06378947 C24.8520748,1.44914324 26.1441283,0.145194442 27.7693796,0.145194442" id="Fill-1" fill="#CDA127"></path>
                <g id="Group-5" transform="translate(2.119279, 1.400589)">
                    <mask id="mask-2" fill="white">
                        <use xlink:href="#path-1"></use>
                    </mask>
                    <g id="Clip-3"></g>
                    <path d="M30.2428133,19.1785051 L30.1830026,19.1595971 C30.1686386,19.1551619 28.7166972,18.6999704 28.330282,18.6999704 L28.2210214,18.6999704 L28.2690584,18.6026294 C28.2843643,18.571583 29.8158964,15.4954216 31.7912996,13.7115375 C31.4745852,13.1506014 28.4086953,7.76510147 26.6946698,6.37478299 L26.6946698,18.5529085 L26.6094277,18.5309659 C26.6030699,18.5293319 25.9698765,18.3682641 25.6501009,18.3682641 C25.3279706,18.3682641 24.6924224,18.5293319 24.6860646,18.5309659 L24.600587,18.552675 L24.600587,6.37478299 C22.8865615,7.76510147 19.8220845,13.1506014 19.5056056,13.7115375 C21.4814797,15.4954216 23.011128,18.571583 23.0264339,18.6026294 L23.0744709,18.6999704 L22.9652103,18.6999704 C22.580679,18.6999704 21.1266183,19.1551619 21.1120188,19.1595971 L21.052679,19.1785051 L21.0286605,19.1210809 C19.5173793,15.5089607 16.5094165,13.8684035 16.4790401,13.8522968 L16.427471,13.8245184 L16.4474864,13.769662 C18.5594654,7.98966265 23.9410204,3.09110097 24.5125192,2.58198669 C24.303888,2.3240448 24.1882696,1.99840775 24.1882696,1.6632 C24.1882696,0.835451621 24.830411,0.186978695 25.6501009,0.186978695 C26.468378,0.186978695 27.1095775,0.835451621 27.1095775,1.6632 C27.1095775,1.99724059 26.99443,2.32194392 26.7846214,2.58175326 C27.3549429,3.08970038 32.7381462,7.98896236 34.8484769,13.769662 L34.8684923,13.8245184 L34.8166877,13.8522968 C34.7865468,13.8684035 31.778113,15.5089607 30.2668318,19.1210809 L30.2428133,19.1785051" id="Fill-2" fill="#080A28" mask="url(#mask-2)"></path>
                    <path d="M25.6583426,25.9242109 L50.2681131,25.9242109 C50.2681131,25.9242109 40.8997239,44.4862232 51.1560909,67.3804921 C51.1560909,67.3804921 35.5541967,70.6492345 25.6583426,85.6693895 C15.7610756,70.6492345 0.16365541,67.3804921 0.16365541,67.3804921 C10.4150774,44.4862232 1.04715915,25.9242109 1.04715915,25.9242109 L25.6583426,25.9242109" id="Fill-4" fill="#CDA127" mask="url(#mask-2)"></path>
                </g>
                <path d="M27.7776212,29.0022397 L50.0863261,29.0022397 C50.0863261,29.0022397 42.0391894,45.2677521 51.2236723,67.7185011 C51.2236723,67.7185011 38.6551723,70.5479252 27.7776212,84.2487249 C16.8991283,70.5479252 4.33298302,67.7185011 4.33298302,67.7185011 C13.5155821,45.2677521 5.4708002,29.0022397 5.4708002,29.0022397 L27.7776212,29.0022397" id="Fill-6" fill="#FFFFFE"></path>
                <path d="M46.6719327,34.8784128 C45.1999759,41.4908291 43.6225261,54.3120586 49.3492881,66.6573211 C49.3492881,66.6573211 38.7406499,69.3978078 27.7776212,81.6870467 C20.2468822,73.248962 12.8856854,69.3133056 9.01305679,67.6741491 L46.6719327,34.8784128" id="Fill-7" fill="#080A28"></path>
                <path d="M27.7776212,30.3313991 L7.63175803,30.3313991 C7.63175803,30.3313991 13.7604765,47.1996318 7.30067961,64.0629625 L45.9718643,30.3313991 L27.7776212,30.3313991" id="Fill-8" fill="#080A28"></path>
                <polyline id="Fill-9" fill="#8E8DA2" points="14.0941452 62.2176859 14.0941452 59.2145886 13.6389712 59.7054952 13.6389712 62.6371624 14.0941452 62.2176859"></polyline>
                <polyline id="Fill-10" fill="#8E8DA2" points="13.1228091 63.0727458 13.1228091 60.07315 12.6714028 60.5621891 12.6714028 63.4945566 13.1228091 63.0727458"></polyline>
                <polyline id="Fill-11" fill="#8E8DA2" points="12.151944 63.9294397 12.151944 60.9296104 11.6991248 61.4205171 11.6991248 64.3521843 12.151944 63.9294397"></polyline>
                <polyline id="Fill-12" fill="#8E8DA2" points="11.1839046 64.7894016 11.1839046 61.7872381 10.7292016 62.2772109 10.7292016 65.2086447 11.1839046 64.7894016"></polyline>
                <polyline id="Fill-13" fill="#8E8DA2" points="10.2139814 65.6470292 10.2139814 62.6457994 9.75668813 63.1327377 9.75668813 66.0672061 10.2139814 65.6470292"></polyline>
                <polyline id="Fill-14" fill="#8E8DA2" points="9.24146793 66.5030228 9.24146793 63.5022599 8.78676492 63.9931665 8.78676492 66.9262343 9.24146793 66.5030228"></polyline>
                <polyline id="Fill-15" fill="#8E8DA2" points="8.27154472 67.3249354 8.27154472 64.3617549 7.8168417 64.8498604 7.8168417 67.1351555 8.27154472 67.3249354"></polyline>
                <polyline id="Fill-16" fill="#8E8DA2" points="7.30067961 66.9262343 7.30067961 65.2184488 6.84432826 65.7053871 6.84432826 66.7483594 7.30067961 66.9262343"></polyline>
                <polyline id="Fill-17" fill="#8E8DA2" points="6.32910807 66.5616141 6.32910807 66.0760765 5.98036898 66.4547025 6.32910807 66.5616141"></polyline>
                <polyline id="Fill-18" fill="#8E8DA2" points="15.0431111 61.4100126 15.0431111 58.4057482 14.5884081 58.8968883 14.5884081 61.8292557 15.0431111 61.4100126"></polyline>
                <polyline id="Fill-19" fill="#8E8DA2" points="15.9892513 60.5902009 15.9892513 57.589438 15.5336064 58.0794109 15.5336064 61.0120118 15.9892513 60.5902009"></polyline>
                <polyline id="Fill-20" fill="#8E8DA2" points="16.93963 59.7307059 16.93963 56.7318104 16.4835142 57.2217832 16.4835142 60.1543842 16.93963 59.7307059"></polyline>
                <polyline id="Fill-21" fill="#8E8DA2" points="17.8857702 58.9326033 17.8857702 55.9285723 17.4310672 56.4185452 17.4310672 59.3499789 17.8857702 58.9326033"></polyline>
                <polyline id="Fill-22" fill="#8E8DA2" points="18.8309685 58.1214285 18.8309685 55.1197319 18.3755591 55.608771 18.3755591 58.5402048 18.8309685 58.1214285"></polyline>
                <polyline id="Fill-23" fill="#8E8DA2" points="19.7813473 57.249795 19.7813473 54.2490321 19.3261733 54.7401721 19.3261733 57.6725396 19.7813473 57.249795"></polyline>
                <polyline id="Fill-24" fill="#8E8DA2" points="20.7258391 56.4262484 20.7258391 53.4240849 20.2711361 53.9149915 20.2711361 56.8478259 20.7258391 56.4262484"></polyline>
                <polyline id="Fill-25" fill="#8E8DA2" points="21.6764534 55.6246444 21.6764534 52.6238814 21.2215149 53.1159552 21.2215149 56.049023 21.6764534 55.6246444"></polyline>
                <polyline id="Fill-26" fill="#8E8DA2" points="22.6223581 54.8010978 22.6223581 51.8008017 22.1676551 52.2868062 22.1676551 55.2226752 22.6223581 54.8010978"></polyline>
                <polyline id="Fill-27" fill="#8E8DA2" points="23.5675564 53.966113 23.5675564 50.9674509 23.1147372 51.4548561 23.1147372 54.3897913 23.5675564 53.966113"></polyline>
                <polyline id="Fill-28" fill="#8E8DA2" points="24.5179351 53.1409324 24.5179351 50.1413366 24.0627612 50.6287417 24.0627612 53.5604089 24.5179351 53.1409324"></polyline>
                <polyline id="Fill-29" fill="#8E8DA2" points="25.4636044 52.3138843 25.4636044 49.3138216 25.0131399 49.8042614 25.0131399 52.7356952 25.4636044 52.3138843"></polyline>
                <polyline id="Fill-30" fill="#8E8DA2" points="26.4130412 51.4887037 26.4130412 48.4865401 25.960222 48.9800145 25.960222 51.9114483 26.4130412 51.4887037"></polyline>
                <polyline id="Fill-31" fill="#8E8DA2" points="27.3591814 50.6800967 27.3591814 47.6812012 26.908246 48.1688397 26.908246 51.1005069 27.3591814 50.6800967"></polyline>
                <polyline id="Fill-32" fill="#8E8DA2" points="28.3095602 49.8481465 28.3095602 46.8464499 27.856741 47.335489 27.856741 50.2669228 28.3095602 49.8481465"></polyline>
                <polyline id="Fill-33" fill="#8E8DA2" points="29.2540521 48.9800145 29.2540521 45.9792515 28.8038231 46.4692244 28.8038231 49.4008916 29.2540521 48.9800145"></polyline>
                <polyline id="Fill-34" fill="#8E8DA2" points="30.2046663 48.1452632 30.2046663 45.1445002 29.7497278 45.6354068 29.7497278 48.5680077 30.2046663 48.1452632"></polyline>
                <polyline id="Fill-35" fill="#8E8DA2" points="31.155045 47.3373565 31.155045 44.3342592 30.700342 44.8256327 30.700342 47.7582336 31.155045 47.3373565"></polyline>
                <polyline id="Fill-36" fill="#8E8DA2" points="32.1000079 46.4876655 32.1000079 43.485502 31.6448339 43.973374 31.6448339 46.9059749 32.1000079 46.4876655"></polyline>
                <polyline id="Fill-37" fill="#8E8DA2" points="33.0480319 45.6832603 33.0480319 42.6843648 32.5933289 43.1755048 32.5933289 46.1069386 33.0480319 45.6832603"></polyline>
                <polyline id="Fill-38" fill="#8E8DA2" points="33.9965268 44.8818897 33.9965268 41.8820605 33.540411 42.3729671 33.540411 45.3060349 33.9965268 44.8818897"></polyline>
                <polyline id="Fill-39" fill="#8E8DA2" points="34.9412542 44.0837871 34.9412542 41.0795227 34.4907897 41.5711296 34.4907897 44.5025634 34.9412542 44.0837871"></polyline>
                <polyline id="Fill-40" fill="#8E8DA2" points="35.890691 43.2469349 35.890691 40.2447714 35.4333978 40.7361448 35.4333978 43.6664115 35.890691 43.2469349"></polyline>
                <polyline id="Fill-41" fill="#8E8DA2" points="36.8377731 42.4252557 36.8377731 39.4209913 36.3830701 39.9109642 36.3830701 42.8435651 36.8377731 42.4252557"></polyline>
                <polyline id="Fill-42" fill="#8E8DA2" points="37.78721 41.5956399 37.78721 38.594877 37.3299167 39.0883513 37.3299167 42.0183845 37.78721 41.5956399"></polyline>
                <polyline id="Fill-43" fill="#8E8DA2" points="38.7317018 40.7618223 38.7317018 37.7619931 38.2769988 38.2536 38.2769988 41.1850338 38.7317018 40.7618223"></polyline>
                <polyline id="Fill-44" fill="#8E8DA2" points="39.6787839 39.9380423 39.6787839 36.9384465 39.2259647 37.4249179 39.2259647 40.3575188 39.6787839 39.9380423"></polyline>
                <polyline id="Fill-45" fill="#8E8DA2" points="40.6282208 39.1130951 40.6282208 36.1123321 40.1735178 36.5997373 40.1735178 39.5314045 40.6282208 39.1130951"></polyline>
                <polyline id="Fill-46" fill="#8E8DA2" points="41.5734191 38.2937502 41.5734191 35.2925204 41.1205999 35.783427 41.1205999 38.7153277 41.5734191 38.2937502"></polyline>
                <polyline id="Fill-47" fill="#8E8DA2" points="42.5247397 37.4685696 42.5247397 34.4673398 42.0695658 34.9552118 42.0695658 37.8913142 42.5247397 37.4685696"></polyline>
                <polyline id="Fill-48" fill="#8E8DA2" points="43.469938 36.6424552 43.469938 33.642626 43.0171188 34.1311983 43.0171188 37.0626321 43.469938 36.6424552"></polyline>
                <polyline id="Fill-49" fill="#8E8DA2" points="44.4189039 35.8086376 44.4189039 32.8088084 43.9660847 33.2962136 43.9660847 36.2292813 44.4189039 35.8086376"></polyline>
                <polyline id="Fill-50" fill="#8E8DA2" points="45.365986 34.9885925 45.365986 31.9899304 44.9155216 32.4813039 44.9155216 35.411804 45.365986 34.9885925"></polyline>
                <polyline id="Fill-51" fill="#8E8DA2" points="46.3154229 34.159677 46.3154229 31.155646 45.8600134 31.6465526 45.8600134 34.5789201 46.3154229 34.159677"></polyline>
                <path d="M46.8139243,33.7670451 L47.0701216,33.530112 C47.1379385,33.2871097 47.2038716,33.0571796 47.2686273,32.8403217 L47.2686273,30.345405 L46.8139243,30.8335104 L46.8139243,33.7670451" id="Fill-52" fill="#8E8DA2"></path>
                <path d="M48.1290545,30.345405 L47.769719,30.345405 L47.769719,31.2924369 C47.9865919,30.679679 48.1290545,30.345405 48.1290545,30.345405" id="Fill-53" fill="#8E8DA2"></path>
                <path d="M27.7776212,42.898655 L27.7248748,42.8346947 C25.5829904,40.2347338 22.1024284,39.9020938 22.067578,39.8990592 L21.9571401,39.8894885 L22.015538,39.7961159 C24.5958775,35.677916 22.307292,31.5538803 22.2837445,31.5127963 L22.2265239,31.4119539 L33.3303669,31.4119539 L33.2731464,31.5127963 C33.2493633,31.5541137 30.9572457,35.6802503 33.5382917,39.7961159 L33.5966896,39.8894885 L33.4864871,39.8990592 C33.4516367,39.9023272 29.9708392,40.2361344 27.8306032,42.8346947 L27.7776212,42.898655" id="Fill-54" fill="#CDA127"></path>
                <path d="M27.7776212,73.8965012 C26.070189,73.8965012 25.4400569,73.2221174 25.3178451,73.0668854 L19.0546702,73.0668854 L19.0636182,72.9912536 L20.2442919,63.2209748 L20.8146134,63.2209748 L19.7547386,72.5341945 L25.7956247,72.5341945 L25.8144628,72.5713101 C25.8175239,72.5776128 26.1775658,73.2300541 27.7776212,73.2300541 C29.3767348,73.2300541 29.7370121,72.5776128 29.7403088,72.5710767 L29.7593823,72.534428 L29.8010614,72.5341945 L35.8012104,72.5341945 L34.7403936,63.2209748 L35.3100087,63.2209748 L35.3173084,63.2804999 L36.498924,73.0668854 L30.2345717,73.0668854 C30.1123599,73.221884 29.4817568,73.8965012 27.7776212,73.8965012" id="Fill-55" fill="#CDA127"></path>
                <path d="M2.53512826,21.8090456 C2.53512826,21.8090456 3.25921515,23.453571 6.29096105,23.9792589 C6.29096105,23.9792589 8.31298839,19.87133 13.1515371,23.527102 C13.1515371,23.527102 16.8817031,19.4679603 20.6869857,23.741859 C21.3844639,24.1688054 21.168062,24.5530338 22.5149813,24.2187597 C22.5149813,24.2187597 22.5580733,24.6167606 22.2922216,25.1319441 C21.7169551,26.2568509 19.5939089,27.9648697 15.8941192,26.4368266 C15.8941192,26.4368266 12.5475427,28.2032034 9.1804798,26.1746829 C9.1804798,26.1746829 3.91006918,28.552417 2.36582144,23.6010998 C2.1995758,23.0632734 2.26527344,22.245796 2.53512826,21.8090456" id="Fill-56" fill="#CDA127"></path>
                <path d="M18.8469809,26.2911653 C17.5565756,26.2911653 16.5508601,25.7708463 16.178338,25.5472189 C15.6642952,25.2353543 15.4229329,24.8978122 15.3522903,24.7859985 C14.7106198,24.8100419 13.9104744,24.1055454 13.8772723,24.0763665 L13.7981526,24.0070373 L13.894462,23.9640859 C14.1650233,23.8436352 14.460074,23.7827096 14.7713725,23.7827096 C15.5227745,23.7827096 16.1677416,24.1295889 16.3975656,24.2701147 C16.3608315,24.1312229 16.1449005,23.8576411 15.9200215,23.642884 L15.8046386,23.5329378 L15.9885449,23.5261683 C16.4543152,23.5261683 17.3392318,24.0397177 17.6361663,24.2201603 C17.5610496,24.006337 17.1958273,23.5957309 16.9558778,23.3583309 L16.8631005,23.2663589 L16.992141,23.243716 C17.0102727,23.2406814 17.0298171,23.2390474 17.0503035,23.2390474 C17.4310672,23.2390474 18.2385124,23.837566 18.5422757,24.0735653 C18.4709266,23.8956904 18.2305062,23.5490445 17.9363974,23.2124362 L17.7680325,23.0200886 L18.0105722,23.1043574 C18.5020094,23.2752293 18.9275134,23.6001661 19.1980747,23.842468 L18.88866,23.2427823 L19.0002753,23.2427823 C19.0195843,23.2427823 19.0355967,23.2418486 19.0494897,23.2413817 L19.0845755,23.2402146 C19.1893621,23.2402146 19.2223287,23.2719613 19.5376302,23.5765895 C19.6640805,23.6982073 19.8378614,23.8665115 20.0841687,24.0980756 C20.7816468,24.7549521 21.3832865,24.8527599 21.67975,24.8527599 C21.7739402,24.8527599 21.8273931,24.8422555 21.8280995,24.8422555 L22.0237796,24.8028056 L21.8935617,24.9526686 C21.421669,25.4939965 21.10519,25.7358316 20.5904408,25.9477875 C20.0391929,26.1756167 19.4526236,26.2911653 18.8469809,26.2911653" id="Fill-57" fill="#080A28"></path>
                <path d="M12.5984054,26.3868723 C9.97450289,26.3868723 8.39681764,24.4650301 8.18606715,24.192382 C8.09187698,24.2010189 7.99603849,24.2052207 7.90184833,24.2052207 C7.368732,24.2052207 7.02470243,24.0714644 7.01033843,24.0656286 L6.90861305,24.0254784 L6.99008754,23.9526477 C7.17211003,23.7904128 7.42406872,23.7080115 7.73866387,23.7080115 C8.36408656,23.7080115 9.07357397,24.0275793 9.35473161,24.1676382 C9.25347718,23.9958326 8.95348151,23.6202412 8.66996911,23.3055754 L8.57413062,23.1991306 L8.7180061,23.1930614 L8.71824157,23.1930614 C9.1661158,23.1930614 9.92010807,23.9554489 10.2158652,24.274083 C10.1520513,24.0632943 9.96272911,23.66506 9.7684619,23.3207485 L9.70252879,23.2037992 L9.8365143,23.2206063 C10.1687701,23.2621571 11.2140454,24.257276 11.5463012,24.5810456 C11.5281696,24.3471471 11.2524279,23.8634769 11.0240168,23.5413413 L10.8860282,23.3464259 L11.1069041,23.4402654 C11.3826458,23.5574481 12.0871883,24.2196935 12.5009186,24.6225964 L11.9753374,23.6244429 L12.171253,23.7292537 C12.1743142,23.7308877 12.4898512,23.8998922 12.7538191,24.064228 L12.7688896,24.0770668 C13.5417199,24.9585044 14.4570128,25.1755958 14.4661963,25.1776967 L14.4895084,25.1830656 L14.5043433,25.2015067 C14.5975916,25.3177556 15.025215,25.7673448 15.0294535,25.77178 L15.0975059,25.8432101 L15.005906,25.8807926 C14.1902191,26.2164672 13.3801837,26.3868723 12.5984054,26.3868723" id="Fill-58" fill="#080A28"></path>
                <path d="M6.71340393,26.0511976 C4.18439803,26.0511976 3.22624859,23.740225 3.21682957,23.7171153 L3.13064557,23.5028251 L3.3199678,23.6370483 C4.55009134,24.5091486 5.79552079,24.6923924 6.62415875,24.6923924 C7.18435475,24.6923924 7.54533856,24.6071899 7.54887069,24.6062562 L7.59408197,24.5952849 L7.62092616,24.6328674 C7.78505252,24.8639646 8.45286079,25.6228507 8.45968957,25.6305539 L8.52609364,25.7059523 L8.43049062,25.7388662 C7.82955738,25.9461534 7.25170072,26.0511976 6.71340393,26.0511976" id="Fill-59" fill="#080A28"></path>
                <path d="M53.1091239,21.8090456 C53.1091239,21.8090456 52.3873918,23.453571 49.3554104,23.9792589 C49.3554104,23.9792589 47.3322057,19.87133 42.4920087,23.527102 C42.4920087,23.527102 38.7649039,19.4679603 34.9586793,23.741859 C34.2590819,24.1688054 34.4776031,24.5530338 33.1299773,24.2187597 C33.1299773,24.2187597 33.085237,24.6167606 33.3510887,25.1319441 C33.9287099,26.2568509 36.0526981,27.9648697 39.7489556,26.4368266 C39.7489556,26.4368266 43.0976514,28.2032034 46.4684819,26.1746829 C46.4684819,26.1746829 51.7330056,28.552417 53.2772534,23.6010998 C53.4456183,23.0632734 53.3782723,22.245796 53.1091239,21.8090456" id="Fill-60" fill="#CDA127"></path>
                <path d="M36.7984487,26.2911653 C36.1930414,26.2911653 35.6057658,26.1756167 35.053105,25.9477875 C34.5390622,25.7346644 34.2230542,25.4928293 33.7521033,24.9526686 L33.6218854,24.803039 L33.8175655,24.8422555 C33.8175655,24.8422555 33.8719603,24.8527599 33.9666214,24.8527599 C34.2642624,24.8527599 34.8675504,24.7547187 35.5636157,24.0980756 C35.8162808,23.8604423 35.9928873,23.6895704 36.1200441,23.5672522 C36.426633,23.2710275 36.4586577,23.2402146 36.5606186,23.2402146 L36.594998,23.2413817 C36.6086555,23.2418486 36.6241969,23.2427823 36.643035,23.2427823 L36.7541793,23.2427823 L36.4457066,23.8445689 C36.7160323,23.6018001 37.1422428,23.2756962 37.633209,23.1043574 L37.8748068,23.0200886 L37.7076193,23.2122028 C37.4156298,23.5481108 37.1766222,23.893823 37.1036249,24.0723981 C37.4259907,23.8228598 38.3017237,23.1813898 38.6544659,23.243716 L38.783271,23.2663589 L38.6907291,23.3583309 C38.3198553,23.7257523 38.0521198,24.0791677 37.9970186,24.2257627 C38.285005,24.0504556 39.184992,23.5261683 39.6557073,23.5261683 L39.8391427,23.5329378 L39.7242307,23.642884 C39.5002936,23.8574077 39.2848336,24.1305226 39.2464511,24.2696478 C39.4781589,24.129122 40.1247744,23.7827096 40.8768828,23.7827096 C41.1886523,23.7827096 41.4841739,23.8436352 41.7547351,23.9640859 L41.8510446,24.0070373 L41.7716894,24.0763665 C41.7384873,24.105312 40.9536478,24.7862319 40.3171578,24.7862319 C40.3093871,24.7862319 40.3018519,24.7862319 40.2943167,24.7859985 C40.224145,24.8980456 39.9834891,25.2355877 39.467327,25.5472189 C39.093863,25.7708463 38.0864992,26.2909319 36.7984487,26.2911653" id="Fill-61" fill="#080A28"></path>
                <path d="M43.0482016,26.3868723 C42.2661877,26.3868723 41.4554459,26.2167006 40.6392881,25.8807926 L40.5479237,25.8432101 L40.6155051,25.7720135 C40.6199791,25.7673448 41.0461896,25.3172888 41.1448538,25.2003395 L41.1594533,25.1828322 L41.1818235,25.1776967 C41.191007,25.1755958 42.1067709,24.956637 42.8758336,24.0773002 L42.8906685,24.0644615 C43.1522817,23.9001256 43.4692316,23.7308877 43.4722928,23.7290203 L43.6663245,23.6256101 L43.1461593,24.6237635 C43.5577704,24.2210941 44.2594871,23.5574481 44.5342869,23.4402654 L44.7539854,23.3464259 L44.6171742,23.5411079 C44.3906469,23.8634769 44.1172599,24.3478474 44.1007767,24.5815124 C44.4320906,24.2582097 45.476895,23.2621571 45.8100927,23.2206063 L45.9447846,23.2037992 L45.878145,23.3207485 C45.6815231,23.6657603 45.4910235,24.0644615 45.4290934,24.2759505 C45.7229668,23.9580167 46.4762526,23.1925945 46.907879,23.1925945 L47.0602316,23.1925945 L46.9723993,23.3055754 C46.6947738,23.6137051 46.4018424,23.9806595 46.3005879,24.1639033 C46.5862196,24.0219769 47.2893492,23.7080115 47.9077076,23.7080115 C48.2218318,23.7080115 48.4726131,23.7904128 48.6534582,23.9528812 L48.7342263,24.0254784 L48.6329719,24.0656286 C48.6186079,24.0714644 48.2752847,24.2052207 47.7449941,24.2052207 C47.6512749,24.2052207 47.5563783,24.2010189 47.4624236,24.192382 C47.2519086,24.4650301 45.6732814,26.3866388 43.0482016,26.3868723" id="Fill-62" fill="#080A28"></path>
                <path d="M48.9306128,26.0511976 C48.392316,26.0511976 47.8146948,25.9461534 47.2135261,25.7388662 L47.1181586,25.7059523 L47.1845626,25.6305539 C47.1913914,25.6228507 47.8582578,24.8639646 48.0223841,24.6328674 L48.0492283,24.5952849 L48.0942041,24.6060227 C48.0979717,24.6071899 48.459662,24.6923924 49.0203289,24.6923924 L49.0205644,24.6923924 C49.8499088,24.6923924 51.0955737,24.5091486 52.3233425,23.6370483 L52.5126647,23.5025917 L52.4264807,23.7171153 C52.4170617,23.740225 51.4596187,26.0511976 48.9306128,26.0511976" id="Fill-63" fill="#080A28"></path>
                <path d="M27.8138845,27.1763379 C30.5305643,27.1763379 32.7289627,26.6137677 32.7289627,25.9232771 C32.7289627,25.2271842 30.5305643,24.6655478 27.8138845,24.6655478 C25.0976756,24.6655478 22.8936258,25.2271842 22.8936258,25.9232771 C22.8936258,26.6137677 25.0976756,27.1763379 27.8138845,27.1763379" id="Fill-64" fill="#CDA127"></path>
                <path d="M27.8138845,26.4613369 C26.7179819,26.4613369 24.6453273,26.3488229 24.6453273,25.9232771 C24.6453273,25.4939965 26.7179819,25.3805487 27.8138845,25.3805487 C28.9086096,25.3805487 30.9793804,25.4939965 30.9793804,25.9232771 C30.9793804,26.3488229 28.9086096,26.4613369 27.8138845,26.4613369" id="Fill-65" fill="#080A28"></path>
                <path d="M26.0880852,24.5635382 C26.5432591,24.5635382 26.908246,24.1984512 26.908246,23.7495623 C26.908246,23.3016071 26.5432591,22.9374538 26.0880852,22.9374538 C25.63974,22.9374538 25.271221,23.3016071 25.271221,23.7495623 C25.271221,24.1984512 25.63974,24.5635382 26.0880852,24.5635382" id="Fill-66" fill="#CDA127"></path>
                <path d="M24.3841851,24.7633556 C24.7472882,24.7633556 25.041397,24.473667 25.041397,24.1127818 C25.041397,23.7528303 24.7472882,23.462208 24.3841851,23.462208 C24.0222594,23.462208 23.7279151,23.7528303 23.7279151,24.1127818 C23.7279151,24.473667 24.0222594,24.7633556 24.3841851,24.7633556" id="Fill-67" fill="#CDA127"></path>
                <path d="M23.1465264,25.0037901 C23.3914208,25.0037901 23.5903975,24.8077076 23.5903975,24.5635382 C23.5903975,24.3189019 23.3914208,24.1214188 23.1465264,24.1214188 C22.9016319,24.1214188 22.7043035,24.3189019 22.7043035,24.5635382 C22.7043035,24.8077076 22.9016319,25.0037901 23.1465264,25.0037901" id="Fill-68" fill="#CDA127"></path>
                <path d="M29.5330904,24.5635382 C29.0805067,24.5635382 28.7129296,24.1984512 28.7129296,23.7495623 C28.7129296,23.3016071 29.0805067,22.9374538 29.5330904,22.9374538 C29.9859096,22.9374538 30.3532513,23.3016071 30.3532513,23.7495623 C30.3532513,24.1984512 29.9859096,24.5635382 29.5330904,24.5635382" id="Fill-69" fill="#CDA127"></path>
                <path d="M27.8138845,24.4542922 C28.1616816,24.4542922 28.4470778,24.1127818 28.4470778,23.6900372 C28.4470778,23.2668258 28.1616816,22.9243816 27.8138845,22.9243816 C27.4620842,22.9243816 27.176688,23.2668258 27.176688,23.6900372 C27.176688,24.1127818 27.4620842,24.4542922 27.8138845,24.4542922" id="Fill-70" fill="#CDA127"></path>
                <path d="M31.2393452,24.7633556 C30.8738874,24.7633556 30.5842527,24.473667 30.5842527,24.1127818 C30.5842527,23.7528303 30.8738874,23.462208 31.2393452,23.462208 C31.5998581,23.462208 31.8942024,23.7528303 31.8942024,24.1127818 C31.8942024,24.473667 31.5998581,24.7633556 31.2393452,24.7633556" id="Fill-71" fill="#CDA127"></path>
                <path d="M32.4772395,25.0037901 C32.2288129,25.0037901 32.0331329,24.8077076 32.0331329,24.5635382 C32.0331329,24.3189019 32.2288129,24.1214188 32.4772395,24.1214188 C32.7221339,24.1214188 32.9201687,24.3189019 32.9201687,24.5635382 C32.9201687,24.8077076 32.7221339,25.0037901 32.4772395,25.0037901" id="Fill-72" fill="#CDA127"></path>
                <path d="M25.792799,10.6594196 C25.792799,10.6594196 23.4119071,13.9671451 23.0770611,15.0598383 C23.0770611,15.0598383 24.8652614,16.908383 25.792799,18.8741103 L25.792799,10.6594196" id="Fill-73" fill="#FFFFFE"></path>
                <polyline id="Fill-74" fill="#FFFFFE" points="26.1723854 6.41446636 25.3566986 8.47706779 23.3869468 9.52330813 24.2061657 7.46327444 26.1723854 6.41446636"></polyline>
                <polyline id="Fill-75" fill="#FFFFFE" points="22.0428531 11.5135458 21.7211937 13.7068689 20.0535569 15.1758538 20.3698003 12.9825307 22.0428531 11.5135458"></polyline>
                <path d="M22.7429215,11.1918771 C23.1192112,11.1918771 23.4250938,10.8914506 23.4250938,10.5205278 C23.4250938,10.1486713 23.1192112,9.84637743 22.7429215,9.84637743 C22.3678092,9.84637743 22.0647523,10.1486713 22.0647523,10.5205278 C22.0647523,10.8914506 22.3678092,11.1918771 22.7429215,11.1918771" id="Fill-76" fill="#FFFFFE"></path>
                <polyline id="Fill-77" fill="#080A28" points="25.769016 14.0145317 25.146419 13.7176067 24.8742094 12.8450395 24.6019999 13.7176067 23.9826995 14.0145317 24.5975258 14.312157 24.5975258 15.6541551 24.8742094 16.5388608 25.1506576 15.6541551 25.1506576 14.312157 25.769016 14.0145317"></polyline>
                <path d="M29.7410152,10.6594196 C29.7410152,10.6594196 32.1249683,13.9671451 32.4567531,15.0598383 C32.4567531,15.0598383 30.6685529,16.908383 29.7410152,18.8741103 L29.7410152,10.6594196" id="Fill-78" fill="#FFFFFE"></path>
                <polyline id="Fill-79" fill="#FFFFFE" points="29.3614289 6.41446636 30.1797059 8.47706779 32.1494577 9.52330813 31.3290614 7.46327444 29.3614289 6.41446636"></polyline>
                <polyline id="Fill-80" fill="#FFFFFE" points="33.4944932 11.5135458 33.8081465 13.7068689 35.4819057 15.1758538 35.1666041 12.9825307 33.4944932 11.5135458"></polyline>
                <polyline id="Fill-81" fill="#FFFFFE" points="26.9214327 5.56034021 27.7733827 3.24890072 28.6276875 5.56034021 27.7733827 7.87107941 26.9214327 5.56034021"></polyline>
                <path d="M27.7733827,7.8902208 C28.148495,7.8902208 28.4539066,8.19508244 28.4539066,8.56367091 C28.4539066,8.93646114 28.148495,9.23595385 27.7733827,9.23595385 C27.401567,9.23595385 27.0956845,8.93646114 27.0956845,8.56367091 C27.0956845,8.19508244 27.401567,7.8902208 27.7733827,7.8902208" id="Fill-82" fill="#FFFFFE"></path>
                <path d="M32.793483,11.1918771 C32.4171932,11.1918771 32.1131945,10.8914506 32.1131945,10.5205278 C32.1131945,10.1486713 32.4171932,9.84637743 32.793483,9.84637743 C33.1662405,9.84637743 33.4690619,10.1486713 33.4690619,10.5205278 C33.4690619,10.8914506 33.1662405,11.1918771 32.793483,11.1918771" id="Fill-83" fill="#FFFFFE"></path>
                <polyline id="Fill-84" fill="#FFFFFE" points="27.7733827 15.1627816 28.541268 17.2435907 27.7733827 19.3229992 27.0066748 17.2435907 27.7733827 15.1627816"></polyline>
                <polyline id="Fill-85" fill="#FFFFFE" points="27.0066748 11.8356813 27.7733827 9.75533912 28.541268 11.8356813 27.7733827 13.9148564 27.0066748 11.8356813"></polyline>
                <path d="M28.382793,14.5392859 C28.382793,14.8744936 28.110348,15.1455077 27.7733827,15.1455077 C27.434769,15.1455077 27.1599692,14.8744936 27.1599692,14.5392859 C27.1599692,14.2031444 27.434769,13.9323638 27.7733827,13.9323638 C28.110348,13.9323638 28.382793,14.2031444 28.382793,14.5392859" id="Fill-86" fill="#FFFFFE"></path>
                <g id="Group-90" transform="translate(0.000000, 12.838737)">
                    <mask id="mask-4" fill="white">
                        <use xlink:href="#path-3"></use>
                    </mask>
                    <g id="Clip-88"></g>
                    <polyline id="Fill-87" fill="#080A28" mask="url(#mask-4)" points="29.7650337 1.17579486 30.3876307 0.878869895 30.6598403 0.00630265263 30.9320498 0.878869895 31.5565306 1.17579486 30.9384077 1.47342013 30.9384077 2.81541827 30.6598403 3.70012396 30.3831567 2.81541827 30.3831567 1.47342013 29.7650337 1.17579486"></polyline>
                    <path d="M54.5182088,53.8113479 L54.4798263,53.7303471 C53.357315,51.36125 48.8635023,51.0062006 45.2527224,50.7209472 C44.30305,50.6460157 43.4058887,50.5752859 42.6858049,50.4723426 C37.7139771,49.7718144 33.0638087,47.6310134 27.607608,43.531488 C25.9715249,42.3022373 18.9529448,38.9711687 14.6538702,37.7293127 C10.227639,36.4515082 8.25341311,35.3695528 7.97884879,35.2124534 C6.74754787,35.8422518 5.47833541,36.1615862 4.20535534,36.1615862 C1.75617561,36.1615862 0.105963934,34.9631485 0.0894806557,34.95101 L0,34.8849489 L0.100077049,34.8359283 C2.74046282,33.5476194 3.15489954,31.1070922 3.19092728,30.8535855 C-0.337907213,24.7775949 4.5112379,20.0496717 4.56045226,20.0025186 L4.63203679,19.93459 L4.67041928,20.024928 C6.19465161,23.5735549 9.60480649,26.1508729 14.8062228,27.6852187 C15.8825809,28.0033859 16.9685935,28.3124493 18.0190493,28.6114752 C23.6808201,30.2233203 29.0284666,31.7455276 33.3494404,34.7143104 C37.6918424,37.7010675 41.3718521,39.5463441 44.2875087,40.1994856 C45.6600948,40.5080822 47.7134404,40.9551037 48.0037816,41.0181302 C50.0043807,39.2216408 52.1931246,38.843715 53.6801518,38.843715 C55.2243995,38.843715 56.3240697,39.242883 56.335137,39.2468514 L56.4290917,39.2816327 L56.3619812,39.3553971 C53.9784991,41.9831363 54.44945,43.8926067 54.5012546,44.0730493 C56.1222673,45.6979665 56.910639,47.4115877 56.8444704,49.1660595 C56.7425095,51.8670963 54.6079249,53.734082 54.5862612,53.7525231 L54.5182088,53.8113479" id="Fill-89" fill="#CDA127" mask="url(#mask-4)"></path>
                </g>
                <path d="M52.7436661,55.5870619 C52.7436661,55.5870619 52.7961771,54.2980527 53.2270971,53.5323971 C53.2270971,53.5323971 51.3482388,53.6299715 50.2918961,54.4406794 L49.2310794,54.1533251 C49.2310794,54.1533251 51.1099377,52.246656 54.6248791,52.86595 C54.6248791,52.86595 53.2753696,54.6316264 53.5617077,56.1104155 L52.7436661,55.5870619" id="Fill-91" fill="#FFFFFE"></path>
                <g id="Group-95" transform="translate(1.883803, 34.314442)" fill="#FFFFFE">
                    <path d="M2.04581036,10.4222531 C2.04581036,10.4222531 1.12415961,12.9181036 0.0654621639,13.1573709 C0.0654621639,13.1573709 1.99118007,14.2664044 5.16491764,13.1197885 C5.16491764,13.1197885 4.49546105,12.8237972 4.25409875,12.5338752 C4.25409875,12.5338752 2.90458918,13.2052244 1.60617777,12.7747766 C1.60617777,12.7747766 2.52052879,11.8205083 2.61895751,10.9619469 C2.61895751,10.9619469 2.28528885,10.7114749 2.04581036,10.4222531" id="Fill-92"></path>
                    <path d="M2.67923921,0.0555567158 C2.67923921,0.0555567158 -4.73705882,10.1736485 12.1119132,15.0409304 C12.3841228,15.1230983 21.3983569,17.4863596 27.861686,22.309056 C28.1981803,22.5634964 35.0832458,27.9966164 43.1214344,28.3138499 C49.9259673,28.5853309 51.0569557,29.6063606 52.6577176,30.6978867 C52.6577176,30.6978867 57.0893648,24.5490654 48.9461542,21.4297192 C44.3962983,19.6831842 39.673839,20.2350164 32.4054195,15.1520438 C29.3291687,13.0002715 23.3678732,9.87812413 16.5795881,8.30036008 C14.1468917,7.73872371 3.82859469,5.07526939 2.67923921,0.0555567158" id="Fill-94"></path>
                </g>
                <path d="M4.50276079,35.9690051 C4.50276079,35.9690051 1.27533482,42.5074237 9.36203134,46.6622723 C11.2199323,47.6107048 15.0289826,48.6158612 18.7551454,49.9590265 C21.9267637,51.1028413 24.9707544,52.526307 27.4663228,54.0092979 C31.1277299,56.1844133 36.1838579,60.5010301 42.6361196,61.5052527 C45.2828632,61.9163257 53.6622557,62.4126013 54.3361863,63.8419028 C54.3361863,63.8419028 56.5496551,58.9736872 50.5782342,56.5387624 C48.5159406,55.6995759 41.5143148,55.3886451 34.4229728,50.7491924 C32.8535292,49.7213932 25.3957875,44.9902019 17.5017098,43.2730792 C15.7770879,42.8958538 5.53626236,40.4518252 4.50276079,35.9690051" id="Fill-96" fill="#080A28"></path>
                <polyline id="Fill-97" fill="#FFFFFE" points="6.86928866 43.9341575 8.50136872 41.1208401 9.35426066 41.6077784 8.10506361 43.7649196 9.2810278 44.4339345 8.90049954 45.0903441 6.86928866 43.9341575"></polyline>
                <path d="M11.5722035,43.7597841 L10.8667192,44.7385627 L11.4488144,44.9600893 L11.5722035,43.7597841 Z M9.28644374,45.3219082 L11.4615301,42.6724598 L12.3968384,43.0258752 L12.238128,46.4407458 L11.3204803,46.0929327 L11.3633369,45.6503464 L10.4456892,45.3015997 L10.1899629,45.6648192 L9.28644374,45.3219082 L9.28644374,45.3219082 Z" id="Fill-98" fill="#FFFFFE"></path>
                <path d="M14.4132144,44.4591451 L14.2528556,44.9771298 L14.6451576,45.0954796 C14.8333025,45.1540709 14.9943677,45.1052837 15.0511172,44.925308 C15.1276468,44.6834728 14.9451533,44.6225472 14.7461766,44.5620884 L14.4132144,44.4591451 Z M14.0757781,45.5401667 L13.8984651,46.1123075 L14.3107826,46.2381272 C14.5417839,46.3095572 14.73299,46.312125 14.8050454,46.0779931 C14.890523,45.8074459 14.6771823,45.7243443 14.3753028,45.6335394 L14.0757781,45.5401667 Z M12.7305071,46.5471906 L13.6952498,43.4462855 L15.0706617,43.8680963 C15.7170417,44.065346 16.1839894,44.3884153 15.9892513,45.0042078 C15.8922354,45.3219082 15.6273256,45.4955813 15.4033885,45.5646771 C15.6878428,45.7481543 15.7662561,46.0861632 15.6624114,46.4204372 C15.4448321,47.1139624 14.8773364,47.2054676 14.1332341,46.9776384 L12.7305071,46.5471906 L12.7305071,46.5471906 Z" id="Fill-99" fill="#FFFFFE"></path>
                <path d="M17.145671,46.1935417 C17.0109791,46.5896751 16.9617647,47.1183976 17.4082261,47.2649927 C17.8115955,47.3992158 18.099111,47.0752128 18.2662985,46.5665654 C18.409703,46.1426536 18.3986357,45.6475453 17.9809023,45.5261608 C17.5553982,45.3849347 17.2744761,45.8074459 17.145671,46.1935417 Z M19.2079647,46.8711936 C18.8582837,47.9197683 18.0018596,48.2969937 17.1583867,48.0203773 C16.259577,47.7213514 15.8613881,46.9253497 16.2103627,45.8791094 C16.5353188,44.9113021 17.3545377,44.481788 18.2425155,44.7745112 C19.261653,45.1106526 19.4782904,46.0614195 19.2079647,46.8711936 L19.2079647,46.8711936 Z" id="Fill-100" fill="#FFFFFE"></path>
                <path d="M20.6351811,47.1923955 L20.9982842,47.335489 C21.2792064,47.4473027 21.4621708,47.4283948 21.5476483,47.2185398 C21.6314776,47.0056502 21.5158591,46.8441155 21.3025184,46.7607805 L20.8737177,46.5915426 L20.6351811,47.1923955 Z M20.3716841,47.8544074 L19.9548927,48.9074173 L19.0363031,48.5486329 L20.2360503,45.5280283 L21.5582447,46.0483473 C22.4921402,46.412734 22.6911169,46.8030316 22.4594091,47.3915126 C22.3183593,47.7407262 22.0602783,47.9757918 21.6938786,47.944512 C21.9441889,48.176543 22.0930094,48.323138 21.8504697,48.9344953 C21.6938786,49.3266604 21.6295938,49.4559815 21.7388544,49.4979992 L21.7016492,49.5904381 L20.770815,49.2272185 C20.775289,49.1501861 20.8287419,48.9475675 20.9337639,48.679588 C21.0922389,48.2839215 21.0835263,48.1310238 20.6551965,47.9662211 L20.3716841,47.8544074 L20.3716841,47.8544074 Z" id="Fill-101" fill="#FFFFFE"></path>
                <polyline id="Fill-102" fill="#FFFFFE" points="22.0647523 49.7573416 23.4206197 46.8009307 25.6552814 47.8100554 25.3399798 48.4977448 24.0045988 47.8971254 23.8133927 48.3208037 24.9410845 48.8289843 24.624841 49.5187746 23.4962073 49.0080263 23.2821602 49.4732554 24.6740553 50.0986186 24.35687 50.7860746 22.0647523 49.7573416"></polyline>
                <polyline id="Fill-103" fill="#FFFFFE" points="26.0261551 51.6014511 27.5591001 48.7363119 29.7323026 49.8819941 29.3701414 50.5500753 28.0719655 49.863553 27.856741 50.2757932 28.9535854 50.8514355 28.5949564 51.5220844 27.4966991 50.9431741 27.2560432 51.3943973 28.603669 52.1044962 28.2459818 52.7735111 26.0261551 51.6014511"></polyline>
                <polyline id="Fill-104" fill="#FFFFFE" points="30.2001923 50.1355008 32.5528271 51.5720387 32.1000079 52.2966104 31.3462511 51.8346493 30.0800998 53.8718067 29.2389816 53.3577903 30.5032491 51.323901 29.7497278 50.8600724 30.2001923 50.1355008"></polyline>
                <polyline id="Fill-105" fill="#FFFFFE" points="32.3811655 55.3547975 34.0732918 52.5804632 34.9191195 53.08771 34.3483271 54.0237706 35.1425856 54.5034725 35.7178521 53.563677 36.5620314 54.0720909 34.8644892 56.8478259 34.0205453 56.3415128 34.6786991 55.2649263 33.8794955 54.7870919 33.2222837 55.8622777 32.3811655 55.3547975"></polyline>
                <path d="M37.0562943,56.1248883 C36.8770975,56.4986122 36.7591243,57.0156632 37.1855703,57.2150137 C37.5705726,57.3982575 37.8941158,57.1099695 38.1239398,56.6262993 C38.3165587,56.2287653 38.366715,55.7329566 37.9706453,55.5609176 C37.5637438,55.3723048 37.2333718,55.7539655 37.0562943,56.1248883 Z M39.0187464,57.045309 C38.5395539,58.0436958 37.6471021,58.312609 36.8420117,57.9351501 C35.986765,57.5327141 35.6935981,56.6925939 36.1664327,55.6963079 C36.6079491,54.7740197 37.4700246,54.4493164 38.3210327,54.849885 C39.2895431,55.3041428 39.386088,56.2698493 39.0187464,57.045309 L39.0187464,57.045309 Z" id="Fill-106" fill="#FFFFFE"></path>
                <polyline id="Fill-107" fill="#FFFFFE" points="41.2800167 57.9743667 41.4728711 57.2586654 41.7964143 56.2796534 42.6994625 56.5679414 41.6803249 59.6536734 40.8034145 59.3716881 40.3331701 57.3581073 40.1384319 58.0749757 39.8188918 59.0504862 38.9200822 58.7603308 39.9326264 55.6759993 40.8121271 55.9589184 41.2800167 57.9743667"></polyline>
                <path d="M43.5087915,58.3831053 C43.436736,58.7904435 43.4567514,59.3229009 43.920167,59.4076365 C44.3379004,59.4821012 44.5783208,59.1221497 44.672511,58.5955281 C44.7561047,58.1606451 44.6751012,57.6706722 44.2481843,57.6067119 C43.8064324,57.5240771 43.5855565,57.9797356 43.5087915,58.3831053 Z M45.6459663,58.7720024 C45.4448703,59.8583929 44.6529665,60.3474321 43.7758206,60.1868312 C42.8438089,60.0154924 42.3408334,59.2836844 42.5442842,58.1972938 C42.7281905,57.1956389 43.4781797,56.6601469 44.4012433,56.8282176 C45.4580569,57.0191646 45.8011446,57.9283806 45.6459663,58.7720024 L45.6459663,58.7720024 Z" id="Fill-108" fill="#FFFFFE"></path>
                <path d="M47.0809534,58.7752704 L47.4657203,58.8392307 C47.7633612,58.8880179 47.9406742,58.8338617 47.975289,58.6118683 C48.0148489,58.3849728 47.8683832,58.2514499 47.6385592,58.2148012 L47.1838562,58.1412702 L47.0809534,58.7752704 Z M46.9627448,59.4800003 L46.7745999,60.5953364 L45.8011446,60.4338018 L46.3373221,57.2325211 L47.7391072,57.4636184 C48.732578,57.6270205 49.0076132,57.9685309 48.9070652,58.5920266 C48.8418386,58.9596813 48.6383878,59.2461019 48.27293,59.2913876 C48.5679807,59.4694959 48.7455291,59.5787419 48.6339138,60.2248805 C48.5679807,60.6422562 48.5288917,60.781148 48.6447456,60.8005228 L48.6294397,60.8992643 L47.640914,60.7356288 C47.6277273,60.6625647 47.6385592,60.4527097 47.6868317,60.1674563 C47.7522938,59.7510144 47.717208,59.6025519 47.2603857,59.5280872 L46.9627448,59.4800003 L46.9627448,59.4800003 Z" id="Fill-109" fill="#FFFFFE"></path>
                <polyline id="Fill-110" fill="#FFFFFE" points="49.0408153 60.9706944 49.6970852 57.7897223 52.1005828 58.280162 51.949643 59.020607 50.5127721 58.7290509 50.4185819 59.1821416 51.6369317 59.4302794 51.4793986 60.1728253 50.2655229 59.9256212 50.1605009 60.4232973 51.6588309 60.7279256 51.5012978 61.4683705 49.0408153 60.9706944"></polyline>
                <path d="M27.7776212,62.0290732 C28.5139529,61.2006245 30.623577,62.1600283 32.4322637,62.7912273 C33.4648233,63.1511788 34.2152835,62.8909026 34.2152835,62.8909026 L35.0837168,71.6410853 C35.0837168,71.6410853 32.664207,72.3318093 30.135672,71.0771146 C29.1535041,70.5906432 28.4920536,70.5026395 27.7776212,70.6795806 C27.0648372,70.5026395 26.3998546,70.5906432 25.4190995,71.0771146 C22.8893872,72.3318093 20.4722321,71.6410853 20.4722321,71.6410853 L21.3416073,62.8909026 C21.3416073,62.8909026 22.0930094,63.1511788 23.126511,62.7912273 C24.9302526,62.1600283 27.0394058,61.2006245 27.7776212,62.0290732" id="Fill-111" fill="#FFFFFE"></path>
                <path d="M21.8330445,63.4317635 L20.9850976,71.1879946 C20.9850976,71.1879946 22.5062687,71.817793 24.5843392,70.8789312 C26.779441,69.8859133 27.2223702,70.2166858 27.2223702,70.2166858 L27.2223702,62.6264246 C27.2223702,62.6264246 26.8550286,61.9637123 25.4855036,62.4266072 C24.1138593,62.8909026 23.0991958,63.5869955 21.8330445,63.4317635" id="Fill-112" fill="#080A28"></path>
                <path d="M26.2884748,63.0578061 L26.2884748,69.4867453 C26.2884748,69.4867453 25.3741237,69.2213336 24.3175456,69.8859133 C23.0455074,70.6795806 21.7748821,70.4484834 21.7748821,70.4484834 L22.5107428,64.1171187 C22.5107428,64.1171187 23.6568016,63.9443793 24.6848872,63.5545485 C25.5523786,63.2228423 25.8528452,63.0220911 26.2884748,63.0578061" id="Fill-113" fill="#8E8DA2"></path>
                <path d="M33.726201,63.4317635 L34.5717932,71.1879946 C34.5717932,71.1879946 33.0525059,71.817793 30.9716097,70.8789312 C28.7774498,69.8859133 28.3314594,70.2166858 28.3314594,70.2166858 L28.3314594,62.6264246 C28.3314594,62.6264246 28.698801,61.9637123 30.0704453,62.4266072 C31.4394993,62.8909026 32.4543984,63.5869955 33.726201,63.4317635" id="Fill-114" fill="#080A28"></path>
                <path d="M29.2653549,63.0578061 L29.2653549,69.4867453 C29.2653549,69.4867453 30.1797059,69.2213336 31.2393452,69.8859133 C32.5080868,70.6795806 33.7820087,70.4484834 33.7820087,70.4484834 L33.0461481,64.1171187 C33.0461481,64.1171187 31.9000892,63.9443793 30.8738874,63.5545485 C30.0035703,63.2228423 29.7005134,63.0220911 29.2653549,63.0578061" id="Fill-115" fill="#8E8DA2"></path>
                <path d="M32.0336038,22.4082644 L32.0109982,22.4005612 C30.2983855,21.8134808 27.8294258,21.7091368 27.8047009,21.7082031 C27.7856274,21.7091368 25.3133711,21.8134808 23.6085291,22.4005612 L23.586159,22.4082644 L23.5635533,22.4005612 C23.5496603,22.3958925 23.2237623,22.2808108 23.1608904,22.0277709 C23.1239207,21.8809425 23.1825541,21.7245433 23.3349067,21.5630087 C23.824931,21.0403554 26.9240229,20.5137337 27.8127071,20.579328 C27.8539153,20.5755931 27.9123132,20.5734922 27.9775399,20.5734922 C29.0381211,20.5734922 31.8193212,21.0702346 32.2829723,21.5630087 C32.4346184,21.7250102 32.4927809,21.8814093 32.4560467,22.0284712 C32.3929393,22.2810442 32.0696315,22.3958925 32.0557385,22.4005612 L32.0336038,22.4082644" id="Fill-116" fill="#080A28"></path>
                <path d="M27.7776212,42.0657711 L27.722049,41.9885053 C26.3275637,40.0472883 23.1201531,39.4949891 23.087893,39.4898536 L23.0050056,39.4760812 L23.0356174,39.3983485 C24.787319,34.9729526 23.1236852,32.0186425 23.1069665,31.9892301 L23.0480976,31.8879208 L32.5033772,31.8879208 L32.4447439,31.9892301 C32.4277896,32.0186425 30.7679235,34.9769209 32.5177412,39.3983485 L32.5485885,39.4758477 L32.4654657,39.4898536 C32.433441,39.4949891 29.2276788,40.048222 27.8334289,41.9885053 L27.7776212,42.0657711" id="Fill-117" fill="#080A28"></path>
                <path d="M27.7776212,40.7947362 C29.1603329,39.3808411 31.1618738,38.8483837 31.1618738,38.8483837 C30.1797059,35.8434189 30.8465723,33.1477511 30.8465723,33.1477511 L24.7049026,33.1477511 C24.7049026,33.1477511 25.3741237,35.8434189 24.3931332,38.8483837 C24.3931332,38.8483837 26.3953806,39.3808411 27.7776212,40.7947362" id="Fill-118" fill="#FFFFFE"></path>
                <polyline id="Fill-119" fill="#080A28" points="26.3160254 35.1648333 26.5609198 35.5980824 27.0540053 35.5177819 26.8682152 35.9806767 27.2409728 36.314017 26.7565999 36.4580443 26.7281073 36.9524524 26.3160254 36.6685996 25.9046498 36.9524524 25.8719188 36.4580443 25.3913134 36.314017 25.7577132 35.9806767 25.5752197 35.5177819 26.0650086 35.5980824 26.3160254 35.1648333"></polyline>
                <polyline id="Fill-120" fill="#080A28" points="27.7649056 33.3886525 28.0119193 33.8212012 28.5052403 33.7451025 28.3182728 34.2042624 28.6877337 34.5387699 28.2066574 34.6820968 28.1748683 35.1753378 27.7649056 34.891485 27.3528236 35.1753378 27.3186797 34.6820968 26.8394872 34.5387699 27.2091836 34.2042624 27.0198614 33.7451025 27.5195402 33.8212012 27.7649056 33.3886525"></polyline>
                <polyline id="Fill-121" fill="#080A28" points="29.4732797 34.9500763 29.7181741 35.3847259 30.2133789 35.3046589 30.0264114 35.7673203 30.3982271 36.1011274 29.9190346 36.2423535 29.8853616 36.7376953 29.4732797 36.45571 29.062846 36.7376953 29.0268183 36.2423535 28.5499806 36.1011274 28.9154384 35.7673203 28.732474 35.3046589 29.225795 35.3847259 29.4732797 34.9500763"></polyline>
                <polyline id="Fill-122" fill="#080A28" points="27.7733827 38.2650381 28.0187481 38.695486 28.5139529 38.6177533 28.3269854 39.0771466 28.698801 39.4114206 28.2198441 39.5540473 28.1861711 40.0533575 27.7733827 39.7688044 27.36342 40.0533575 27.3273923 39.5540473 26.8505546 39.4114206 27.2155414 39.0771466 27.033048 38.6177533 27.526369 38.695486 27.7733827 38.2650381"></polyline>
                <polyline id="Fill-123" fill="#080A28" points="28.8170097 36.8765871 28.9199125 37.2484436 29.2858412 37.3707618 28.9667721 37.5855188 28.9604142 37.9681132 28.6550026 37.731647 28.2841289 37.8448613 28.4207046 37.4825755 28.1977094 37.1690769 28.5850664 37.1856505 28.8170097 36.8765871"></polyline>
            </g>
        </g>
    </g>
</svg>