<?xml version="1.0" encoding="UTF-8"?>
<svg width="89px" height="85px" viewBox="0 0 89 85" version="1.1" xmlns="http://www.w3.org/2000/svg" xmlns:xlink="http://www.w3.org/1999/xlink">
    <title>Crests_Colour_CMYK_uncoated</title>
    <defs>
        <polygon id="path-1" points="0.4345425 0.589459802 15.3980954 0.589459802 15.3980954 17.4453626 0.4345425 17.4453626"></polygon>
        <polygon id="path-3" points="0 0.552778803 52.2713552 0.552778803 52.2713552 75.6318026 0 75.6318026"></polygon>
    </defs>
    <g id="Page-1" stroke="none" stroke-width="1" fill="none" fill-rule="evenodd">
        <g id="Home" transform="translate(-818.000000, -3559.000000)">
            <g id="Crests_Colour_CMYK_uncoated" transform="translate(818.000000, 3559.000000)">
                <path d="M70.6902525,67.5157055 C70.9145325,67.9757143 73.4817375,73.2187385 73.66263,73.5893011 C70.1676,76.0352835 66.4142475,77.282822 62.5026975,77.282822 C58.64655,77.282822 54.9439275,76.0702549 51.4889475,73.6915253 C51.6678375,73.3189451 54.2377125,67.9871473 54.4606575,67.5210857 C57.0158475,69.3241319 59.7405825,70.2569275 62.5707825,70.2569275 C65.4049875,70.2569275 68.1323925,69.3214418 70.6902525,67.5157055" id="Fill-1" fill="#89B2CB"></path>
                <path d="M58.473,58.446 C58.46766,58.4305319 58.473,58.396233 58.473,58.396233 L58.473,44.2032132 L51.860745,44.2032132 C51.478935,49.3231648 50.3782275,54.1344264 48.70347,58.4177538 C48.68478,58.4675209 48.6654225,58.5172879 48.648735,58.5657099 L48.68211,58.4823165 C49.14669,60.1360615 51.14385,61.9411253 53.1790575,61.9411253 C55.419855,61.9411253 57.358275,60.7299033 58.2934425,58.9678813 L58.47033,58.6013538 C58.47834,58.5818505 58.48902,58.5623473 58.4963625,58.5435165 L58.473,58.446" id="Fill-2" fill="#000A1A"></path>
                <path d="M58.5150525,21.5161714 C57.646635,19.5671868 55.5727125,18.1938857 53.14902,18.1938857 C51.13584,18.1938857 49.366965,19.1421495 48.3276675,20.5793407 L48.4358025,20.833556 L48.4838625,20.9465407 C50.362875,25.4195209 51.5597025,30.4197626 52.0109325,35.6076396 L52.026285,35.9324703 L58.52373,35.9324703 L58.52373,21.590822 C58.52373,21.590822 58.52373,21.5417275 58.5150525,21.5161714" id="Fill-3" fill="#000A1A"></path>
                <path d="M66.655215,36.1032923 L66.37086,36.1032923 L66.36819,21.3735956 C65.699355,19.5281802 64.212165,18.3391516 62.5627725,18.3391516 C60.9140475,18.3391516 59.427525,19.5248176 58.757355,21.3641802 L58.757355,21.4253802 L58.75602,21.4764923 L58.75602,36.1032923 L52.1150625,36.1032923 C52.2178575,37.4712132 52.2712575,38.7691912 52.2739275,40.0564088 C52.2765975,41.3126901 52.2272025,42.6099956 52.135755,43.9167165 L58.75602,43.9167165 L58.75602,58.396233 L58.746675,58.3760571 L58.77204,58.4729011 L58.80141,58.5589846 C58.80141,58.5589846 58.7994075,58.5657099 58.7967375,58.5697451 C59.483595,60.3539604 60.9474225,61.5012923 62.5627725,61.5012923 C64.19748,61.5012923 65.6893425,60.3196615 66.3608475,58.4937495 C66.3608475,58.4937495 66.380205,58.4379297 66.3942225,58.3969055 C66.3942225,58.3067868 66.3942225,43.9073011 66.3942225,43.9073011 L66.9108675,43.9073011 L66.9108675,43.9167165 L76.961415,43.9167165 L76.961415,36.1032923 C76.4227425,36.1032923 66.655215,36.1032923 66.655215,36.1032923" id="Fill-4" fill="#5E1E2E"></path>
                <path d="M72.7381425,74.2006286 C69.506775,76.2410769 66.0711525,77.282822 62.5026975,77.282822 C58.64655,77.282822 54.9439275,76.0702549 51.4889475,73.6915253 C51.6678375,73.3189451 54.2377125,67.9871473 54.4606575,67.5210857 C57.0158475,69.3241319 59.7405825,70.2569275 62.5707825,70.2569275 C65.4049875,70.2569275 68.1323925,69.3214418 70.6902525,67.5157055 C70.9118625,67.9703341 73.4243325,73.1017187 73.65462,73.5724879 C73.153995,73.6370505 67.7372325,74.3089055 64.265565,73.525411 L64.153425,74.0345143 C66.9669375,74.6680352 70.895175,74.3882637 72.7381425,74.2006286 Z M70.89117,66.7503692 L70.6435275,66.9319516 C68.10369,68.7921626 65.386965,69.7363912 62.5707825,69.7363912 C59.75727,69.7363912 57.04455,68.7948527 54.5060475,66.9373319 L54.255735,66.7550769 L50.8281225,73.8704176 L51.0096825,73.9981978 C54.6035025,76.5228659 58.47033,77.8026857 62.5026975,77.8026857 C66.591135,77.8026857 70.508025,76.487222 74.1452325,73.8919385 L74.32479,73.7634857 L70.89117,66.7503692 Z M70.5821175,71.1265055 C71.039355,71.1265055 71.4111525,71.5004308 71.4111525,71.9617846 C71.4111525,72.4217934 71.039355,72.7970637 70.5821175,72.7970637 C70.1255475,72.7970637 69.7530825,72.4217934 69.7530825,71.9617846 C69.7530825,71.5004308 70.1255475,71.1265055 70.5821175,71.1265055 Z M70.5821175,73.3176 C71.32371,73.3176 71.92713,72.7096352 71.92713,71.9617846 C71.92713,71.2139341 71.32371,70.6066418 70.5821175,70.6066418 C69.840525,70.6066418 69.2364375,71.2139341 69.2364375,71.9617846 C69.2364375,72.7096352 69.840525,73.3176 70.5821175,73.3176 L70.5821175,73.3176 Z" id="Fill-5" fill="#FFE256"></path>
                <path d="M58.2652725,58.5059515 C58.2695925,58.463186 58.2753525,58.4197077 58.2753525,58.4197077 L58.2386325,58.4966856 C58.2386325,58.4966856 58.2609525,58.5052387 58.2623925,58.5066642 C58.2566325,58.5080898 58.2213525,58.5180684 58.2213525,58.5180684 L58.4366325,59.3612615 L58.8290325,58.551568 L58.7555925,58.3612615 C58.7555925,58.3612615 58.3365525,58.483856 58.2652725,58.5059515 L58.2652725,58.5059515 Z" id="Fill-6" fill="#000A1A"></path>
                <path d="M77.21373,59.2025934 C77.215065,59.2032659 80.7454725,66.5109495 80.7454725,66.5109495 C80.7454725,66.5109495 84.1644075,73.587956 84.7992,74.9020747 C84.3873525,75.1159385 77.324535,78.7906286 76.894665,79.0139077 C76.681065,78.5767648 74.22867,73.5650901 74.22867,73.5650901 C74.22867,73.5650901 69.16635,63.2269978 67.9615125,60.7668923 C69.0321825,61.6714418 70.435935,62.2013934 71.95116,62.2013934 C74.1852825,62.2013934 76.1864475,61.0338857 77.21373,59.2025934 Z M76.990785,58.5273758 C76.1450625,60.4434066 74.165925,61.6808571 71.95116,61.6808571 C69.6890025,61.6808571 67.6931775,60.4097802 66.86748,58.4426374 C66.86748,58.4426374 66.8040675,58.470211 66.77403,58.482989 C66.6345225,58.4359121 66.4102425,58.3612615 66.4102425,58.3612615 L66.3394875,58.5522593 L66.372195,58.6975253 L76.66371,79.719389 L85.4847225,75.1314066 L77.217735,58.0169275 L76.990785,58.5273758 L76.990785,58.5273758 Z" id="Fill-7" fill="#FFE256"></path>
                <polyline id="Fill-8" fill="#000A1A" points="66.9122025 21.4785099 66.3942225 21.4785099 66.3942225 35.8174681 66.9148725 35.8174681 66.9148725 21.4785099 66.9122025 21.4785099"></polyline>
                <polyline id="Fill-9" fill="#000A1A" points="58.7313225 21.4764923 58.21401 21.4764923 58.21401 35.8174681 58.7326575 35.8174681 58.7326575 21.4764923 58.7313225 21.4764923"></polyline>
                <polyline id="Fill-10" fill="#000A1A" points="58.7313225 44.2032132 58.21401 44.2032132 58.21401 58.396233 58.7326575 58.396233 58.7326575 44.2032132 58.7313225 44.2032132"></polyline>
                <path d="M66.6305175,58.5435165 C67.4635575,60.5335253 69.5328075,61.9404527 71.95116,61.9404527 C74.331465,61.9404527 76.3693425,60.5738769 77.228415,58.6329626 C77.2397625,58.6020264 77.2451025,58.5421714 77.2451025,58.5421714 L77.2451025,44.2032132 L66.655215,44.2032132" id="Fill-11" fill="#000A1A"></path>
                <path d="M77.2451025,43.9167165 L66.655215,43.9167165 L66.655215,44.4890374 C66.655215,44.4890374 76.4227425,44.4890374 76.961415,44.4890374 C76.961415,45.0384923 76.961415,58.5421714 76.961415,58.5421714 C76.125705,60.4225582 74.15658,61.6546286 71.95116,61.6546286 C69.6983475,61.6546286 67.712535,60.3896044 66.89151,58.433222 L66.36819,58.6558286 C67.27866,60.8247297 69.4700625,62.2269495 71.95116,62.2269495 C74.38086,62.2269495 76.552905,60.8623912 77.4880725,58.7499824 C77.4894075,58.7452747 77.5281225,58.5643648 77.5281225,58.5643648 L77.5294575,43.9167165 L77.2451025,43.9167165" id="Fill-12" fill="#FFE256"></path>
                <path d="M66.6198375,20.9088791 L66.6185025,20.9088791 L66.4169175,21.3238286 L66.88617,21.5477802 L67.0844175,21.1368659 L66.6251775,20.8981187 C66.6251775,20.8981187 66.6198375,20.9082066 66.6198375,20.9088791" id="Fill-13" fill="#000A1A"></path>
                <polyline id="Fill-14" fill="#000A1A" points="58.0598175 58.8542242 58.5203925 59.0916264 58.70262 58.715011 58.706625 58.7049231 58.2387075 58.4870242 58.0598175 58.8542242"></polyline>
                <path d="M66.3942225,43.9073011 C66.3942225,43.9073011 66.3942225,58.3067868 66.3942225,58.3969055 C66.380205,58.4379297 66.3608475,58.4937495 66.3608475,58.4937495 C65.6893425,60.3196615 64.19748,61.5012923 62.5627725,61.5012923 C60.9100425,61.5012923 59.4121725,60.3001582 58.746675,58.4412923 C58.746675,58.4412923 58.7339925,58.4063209 58.7326575,58.4009407 C58.7326575,58.4002681 58.7326575,44.2032132 58.7326575,44.2032132 L58.2160125,44.2032132 L58.2160125,58.396233 L58.21401,58.4930769 L58.250055,58.5892484 C59.0009925,60.684844 60.6897675,62.021156 62.5627725,62.021156 C64.4157525,62.021156 66.097185,60.7070374 66.8454525,58.6726418 C66.8467875,58.6699516 66.9122025,58.4883692 66.9122025,58.4883692 L66.9122025,43.9073011 L66.3942225,43.9073011" id="Fill-15" fill="#FFE256"></path>
                <path d="M77.2451025,35.5309714 L66.655215,35.5309714 L66.655215,36.1032923 C66.655215,36.1032923 76.4227425,36.1032923 76.961415,36.1032923 C76.961415,36.6184484 76.961415,43.4015604 76.961415,43.9167165 C76.4227425,43.9167165 66.655215,43.9167165 66.655215,43.9167165 L66.655215,44.4890374 L77.5294575,44.4890374 L77.5294575,35.5309714 L77.2451025,35.5309714" id="Fill-16" fill="#FFE256"></path>
                <path d="M66.6732375,20.7831165 C65.8535475,18.960567 64.2942675,17.8179429 62.5627725,17.8179429 C60.8366175,17.8179429 59.2826775,18.9504791 58.466325,20.7367121 C58.0531425,19.8819297 54.9219,13.4041451 54.7396725,13.0275297 C57.21276,11.2803033 59.8447125,10.3791165 62.5707825,10.3791165 C65.27082,10.3791165 67.87941,11.2648352 70.334475,12.9838154 C70.16493,13.3442901 66.999645,20.086378 66.6732375,20.7831165 Z M70.81641,12.6731077 C68.22117,10.8061714 65.44704,9.85858022 62.5707825,9.85858022 C59.6671575,9.85858022 56.869665,10.8216396 54.2544,12.7201846 L54.07818,12.8479648 L58.5123825,22.0185495 L58.7313225,21.4321055 C59.3894775,19.5530637 60.8940225,18.3391516 62.5627725,18.3391516 C64.2288525,18.3391516 65.7307275,19.5510462 66.390885,21.4267253 C66.39222,21.4347956 66.4008975,21.4825451 66.4008975,21.4825451 L66.55509,22.2189626 L66.9549225,21.4018418 C66.9549225,21.3998242 70.985955,12.8116484 70.985955,12.8116484 L70.81641,12.6731077 L70.81641,12.6731077 Z" id="Fill-17" fill="#FFE256"></path>
                <path d="M62.5026975,3.09093626 C66.260055,3.09093626 70.04211,4.31426374 73.45704,6.62036044 C73.0678875,7.40856264 70.92855,11.763178 70.558755,12.5143912 C68.035605,10.7644747 65.3529225,9.85858022 62.5707825,9.85858022 C59.761275,9.85858022 57.0545625,10.7806154 54.5127225,12.5594505 C54.2911125,12.0980967 51.80868,6.95998681 51.62712,6.58606154 C55.043385,4.27122198 58.701285,3.09093626 62.5026975,3.09093626" id="Fill-18" fill="#89B2CB"></path>
                <path d="M62.5026975,3.09093626 C66.260055,3.09093626 70.04211,4.31426374 73.45704,6.62036044 C73.0678875,7.40856264 70.92855,11.763178 70.558755,12.5143912 C68.035605,10.7644747 65.3529225,9.85858022 62.5707825,9.85858022 C59.761275,9.85858022 57.0545625,10.7806154 54.5127225,12.5594505 C54.2911125,12.0980967 51.80868,6.95998681 51.62712,6.58606154 C55.043385,4.27122198 58.701285,3.09093626 62.5026975,3.09093626 Z M51.147855,6.27737143 L50.963625,6.40380659 L54.3078,13.3234418 L54.5567775,13.1425319 C57.080595,11.309222 59.7779625,10.3791165 62.5707825,10.3791165 C65.336235,10.3791165 68.0082375,11.2937538 70.5167025,13.0968 L70.764345,13.2756923 L70.9639275,12.864778 L73.989705,6.70846154 C73.99371,6.70106374 74.115195,6.43272527 74.115195,6.43272527 L73.93497,6.30965275 C70.38654,3.86367033 66.43227,2.5704 62.5026975,2.5704 C58.5264,2.5704 54.70563,3.81726593 51.147855,6.27737143 L51.147855,6.27737143 Z" id="Fill-19" fill="#FFE256"></path>
                <path d="M66.6185025,20.9088791 L66.6185025,20.9088791 L66.5090325,21.1335033 L66.4209225,21.3224835 L66.88617,21.5477802 L67.0844175,21.1368659 L66.6238425,20.8994637 C66.6238425,20.8994637 66.6198375,20.9082066 66.6185025,20.9088791" id="Fill-20" fill="#000A1A"></path>
                <path d="M80.6440125,13.7370462 L77.32854,20.8483516 C77.3232,20.8604571 77.21907,21.1180352 77.21907,21.1180352 L77.27514,21.2263121 C80.06796,26.5184308 81.6052125,33.206044 81.6052125,40.0577538 C81.6052125,46.9558681 80.050605,53.6777802 77.228415,58.9833495 L77.16567,59.1010418 L80.939715,66.9117758 L81.1900275,66.5445758 C86.0294025,59.4675692 88.693395,50.1066593 88.693395,40.1868791 C88.693395,30.2617187 85.9933575,20.8557495 81.0899025,13.7000571 L80.835585,13.3274769 L80.6440125,13.7370462" id="Fill-21" fill="#89B2CB"></path>
                <path d="M80.9110125,14.3907429 C85.52544,21.321811 88.178085,30.6840659 88.178085,40.1868791 C88.178085,49.8275604 85.625565,58.9147516 81.0078,65.8599429 C80.6506875,65.1241978 77.84385,59.3149055 77.7430575,59.106422 C80.565915,53.7457055 82.12119,46.988822 82.12119,40.0577538 C82.12119,33.1697275 80.5812675,26.4437802 77.786445,21.0944967 C77.79312,21.0803736 77.8017975,21.0575077 77.8017975,21.0575077 C77.7977925,21.0669231 80.1994575,15.9153626 80.9110125,14.3907429 Z M80.6440125,13.7370462 L77.32854,20.8483516 C77.3232,20.8604571 77.21907,21.1180352 77.21907,21.1180352 L77.27514,21.2263121 C80.06796,26.5184308 81.6052125,33.206044 81.6052125,40.0577538 C81.6052125,46.9558681 80.050605,53.6777802 77.228415,58.9833495 L77.16567,59.1010418 L80.939715,66.9117758 L81.1900275,66.5445758 C86.0294025,59.4675692 88.693395,50.1066593 88.693395,40.1868791 C88.693395,30.2617187 85.9933575,20.8557495 81.0899025,13.7000571 L80.835585,13.3274769 L80.6440125,13.7370462 L80.6440125,13.7370462 Z" id="Fill-22" fill="#FFE256"></path>
                <path d="M70.895175,13.0080264 C70.8985125,12.9992835 70.9639275,12.864778 70.9639275,12.864778 L73.989705,6.70846154 C73.99371,6.70106374 74.0237475,6.63246593 74.0237475,6.63246593 C74.0237475,6.63246593 76.06029,2.26709011 76.558245,1.19978901 C76.9887825,1.40356484 84.2618625,4.8495956 84.6930675,5.0526989 C84.4848075,5.49925714 80.67939,13.659033 80.67939,13.659033 C80.67939,13.6617231 80.6426775,13.7397363 80.6426775,13.7397363 L77.32854,20.8483516 C77.32587,20.856422 77.3038425,20.9075341 77.287155,20.9519209 C76.27656,19.0372352 74.2360125,17.8179429 71.949825,17.8179429 C70.435935,17.8179429 69.0281775,18.3573099 67.9521675,19.2773275 C69.0628875,16.9086857 70.895175,13.0080264 70.895175,13.0080264 Z M76.2011325,0.74247033 L73.55583,6.41389451 C73.554495,6.41658462 73.5231225,6.48450989 73.5231225,6.48450989 C73.5271275,6.47778462 70.500015,12.6354462 70.500015,12.6354462 C70.49868,12.6367912 70.4346,12.7719692 70.4346,12.7719692 C70.42659,12.7854198 66.48834,21.1772176 66.48834,21.1772176 L66.9549225,21.4004967 L66.9762825,21.3561099 L67.0790775,21.1462813 C68.0122425,19.4145231 69.87924,18.3391516 71.949825,18.3391516 C74.173935,18.3391516 76.155075,19.5819824 77.00013,21.5060835 L76.9874475,21.7347429 L77.4840675,21.8342769 L77.8017975,21.0575077 C77.7964575,21.0682681 81.11193,13.9589802 81.11193,13.9589802 C81.11193,13.9569626 81.1473075,13.8782769 81.1473075,13.8782769 L85.3792575,4.80319121 L76.3106025,0.507085714 L76.2011325,0.74247033 L76.2011325,0.74247033 Z" id="Fill-23" fill="#FFE256"></path>
                <path d="M77.236425,21.4011692 C76.38069,19.4528571 74.33814,18.0788835 71.949825,18.0788835 C69.72171,18.0788835 67.7919675,19.2773275 66.8521275,21.0232088 L66.652545,21.4347956 L66.652545,21.4785099 L66.655215,21.4785099 L66.655215,35.8174681 L77.2451025,35.8174681 L77.2451025,21.4764923 C77.2451025,21.4764923 77.2451025,21.4267253 77.236425,21.4011692" id="Fill-24" fill="#000A1A"></path>
                <path d="M67.10778,21.1482989 C68.0309325,19.4353714 69.888585,18.3640352 71.949825,18.3640352 C74.1519075,18.3640352 76.115025,19.5913978 76.961415,21.4892703 C76.961415,21.5141538 76.961415,34.9815165 76.961415,35.5309714 C76.438095,35.5309714 67.4635575,35.5309714 66.93957,35.5309714 C66.93957,34.982189 66.93957,21.529622 66.93957,21.4953231 C66.983625,21.4052044 67.10778,21.1482989 67.10778,21.1482989 Z M66.601815,20.8860132 C66.596475,20.8981187 66.36819,21.3682154 66.36819,21.3682154 L66.37086,36.1032923 L77.5294575,36.1032923 L77.5294575,21.4764923 L77.49408,21.261956 L77.495415,21.284822 C76.56492,19.1636703 74.387535,17.7923868 71.949825,17.7923868 C69.6796575,17.7923868 67.6317675,18.9780527 66.601815,20.8860132 L66.601815,20.8860132 Z" id="Fill-25" fill="#FFE256"></path>
                <path d="M75.2586225,33.2322725 C74.790705,31.9766637 73.5217875,31.3095165 72.28491,31.1938418 C71.7515775,30.8669934 71.888415,30.1924484 71.6941725,29.6907429 C71.5860375,29.8884659 71.506605,30.134611 71.38245,30.3370418 C71.1975525,30.6060527 71.0159925,30.9248308 70.713615,31.1064132 C70.4619675,31.2590769 70.0881675,31.0774945 69.877905,31.3317099 C69.6996825,31.5570066 69.597555,31.8401407 69.3111975,31.9544703 L69.258465,31.8905802 L69.482745,31.0196571 C69.4179975,30.6201758 69.2297625,30.1487341 69.4467,29.7640484 C69.5902125,29.4230769 70.0734825,29.3941582 70.174275,29.0309934 C70.3031025,28.5017143 70.4619675,28.0443956 70.6421925,27.5366374 L70.65621,27.5151165 L70.59213,27.4646769 C70.15959,27.6173407 70.433265,28.5891429 69.8638875,28.1466198 C68.7918825,27.3631253 69.0642225,25.8896176 68.8986825,24.7281626 C68.812575,24.2567209 68.5389,23.8579121 68.3086125,23.4449802 L68.32263,23.3931956 C68.612325,23.5317363 68.86998,23.6548088 69.1229625,23.8431165 C69.2444475,23.9742593 69.16635,24.1840879 69.39597,24.2062813 C69.6996825,24.2143516 69.720375,24.5102637 69.8638875,24.6999165 C70.0881675,24.6790681 70.2456975,24.7799473 70.3458225,24.9393363 C70.39722,25.0476132 70.390545,25.1713582 70.48266,25.2507165 C70.612155,25.2507165 70.713615,25.3025011 70.815075,25.3603385 C70.9652625,25.5123297 70.9078575,25.8533011 71.210235,25.8465758 C71.38245,26.0348835 71.4552075,26.3388659 71.4191625,26.6441934 C71.49192,26.7457451 71.556,26.6085495 71.6421075,26.6287253 C72.7020975,25.9252615 72.6794025,24.627956 72.9237075,23.5465319 L72.9757725,23.5095429 C73.0905825,23.7778813 72.9183675,24.3582725 73.39296,24.3811385 C73.5297975,24.4396484 73.45704,24.6205582 73.5952125,24.6999165 C73.7460675,24.6636 73.94031,24.6562022 73.9610025,24.8519077 C74.0411025,24.9252132 74.171265,24.9393363 74.27139,24.9036923 C74.5217025,24.8088659 74.838765,24.4746198 75.0850725,24.7510286 L74.9262075,24.9897758 L74.0264175,25.7947912 C73.3562475,26.5143956 73.284825,27.5151165 73.0265025,28.4216835 C72.9036825,28.6463077 73.2561225,28.4943165 73.335555,28.617389 C73.4790675,28.7478593 73.5217875,28.9227165 73.543815,29.1042989 C73.789455,29.2576352 74.061795,29.4593934 74.04711,29.8003648 C74.2360125,29.8884659 74.4295875,30.0175912 74.494335,30.2354901 C74.3862,30.612778 74.8047225,30.6712879 74.8621275,30.9833407 C74.718615,31.3021187 75.121785,31.382822 74.9769375,31.6794066 C75.0783975,31.7379165 75.121785,31.8683868 75.097755,31.9766637 C75.049695,32.0425714 75.05637,32.1737143 75.121785,32.2382769 C75.2586225,32.521411 75.1932075,32.9060967 75.3080175,33.1744352 C75.2946675,33.195956 75.3013425,33.2544659 75.2586225,33.2322725" id="Fill-26" fill="#FFE256"></path>
                <path d="M50.2767675,54.4094901 L50.92224,55.0665495 L50.701965,54.1458593 L51.652485,54.0416176 L50.8361325,53.6650022 L51.34944,52.8774725 L50.4970425,53.293767 L50.42829,53.0032352 C50.2781025,53.5890066 50.1205725,54.1687253 49.9510275,54.7397011 L50.2767675,54.4094901" id="Fill-27" fill="#FFE256"></path>
                <polyline id="Fill-28" fill="#FFE256" points="52.62837 49.9425626 53.2765125 49.2841582 53.921985 49.9425626 53.70171 49.0212 54.650895 48.9176308 53.8358775 48.5403429 54.3498525 47.7534857 53.4967875 48.1704527 53.2765125 47.2497626 53.0522325 48.1798681 52.149105 47.7635736 52.75119 48.5349626 51.874095 48.9647077 52.85799 48.9869011 52.62837 49.9425626"></polyline>
                <polyline id="Fill-29" fill="#FFE256" points="58.0571475 51.7906681 57.2427975 51.4140527 57.756105 50.6265231 56.9037075 51.0434901 56.6820975 50.1228 56.4604875 51.052233 55.5553575 50.6372835 56.1587775 51.4086725 55.2816825 51.8384176 56.266245 51.8599385 56.03529 52.8162725 56.6820975 52.1578681 57.3295725 52.8162725 57.1079625 51.8942374 58.0571475 51.7906681"></polyline>
                <polyline id="Fill-30" fill="#FFE256" points="53.92599 57.686044 54.4392975 56.8978418 53.5869 57.3148088 53.36529 56.3941187 53.142345 57.3242242 52.237215 56.9079297 52.8426375 57.6799912 51.964875 58.1097363 52.9481025 58.1305846 52.7184825 59.0875912 53.36529 58.4305319 54.0120975 59.0875912 53.7918225 58.1648835 54.7396725 58.0613143 53.92599 57.686044"></polyline>
                <polyline id="Fill-31" fill="#FFE256" points="55.25031 54.3745187 55.1027925 53.9367033 54.9572775 54.3745187 54.53475 54.3745187 54.875175 54.6751385 54.698955 55.1432176 55.1094675 54.9071604 55.5032925 55.1485978 55.353105 54.6764835 55.7155575 54.3745187 55.25031 54.3745187"></polyline>
                <path d="M61.915965,82.2911341 C60.6830925,82.0032923 60.08568,80.9400264 60.08034,80.9299385 C59.8407075,80.3865363 59.1131325,72.0734242 60.252555,70.0713099 C60.370035,69.866189 60.495525,69.7538769 60.6243525,69.7397538 C60.6870975,69.7276484 64.5278925,68.9724 66.1979775,69.3261495 C65.221425,70.6066418 64.9537575,73.3848527 64.9537575,75.9814813 C64.9537575,78.4543648 65.1873825,80.7349055 65.256135,81.3617011 C64.0232625,82.2010154 62.8991925,82.5191209 61.915965,82.2911341" id="Fill-32" fill="#89B2CB"></path>
                <path d="M61.6776675,73.6256176 C61.6776675,73.1649363 62.049465,72.791011 62.5067025,72.791011 C62.9632725,72.791011 63.3357375,73.1649363 63.3357375,73.6256176 C63.3357375,74.0862989 62.9632725,74.4608967 62.5067025,74.4608967 C62.049465,74.4608967 61.6776675,74.0862989 61.6776675,73.6256176 Z M61.160355,73.6256176 C61.160355,74.3727956 61.763775,74.9807604 62.5067025,74.9807604 C63.2489625,74.9807604 63.8523825,74.3727956 63.8523825,73.6256176 C63.8523825,72.8784396 63.2489625,72.2704747 62.5067025,72.2704747 C61.763775,72.2704747 61.160355,72.8784396 61.160355,73.6256176 L61.160355,73.6256176 Z" id="Fill-33" fill="#FFE256"></path>
                <path d="M56.8516425,69.1230462 L56.8516425,69.1230462 C58.58247,67.3260527 58.861485,69.6193714 58.80675,70.110989 C58.431615,73.4823692 56.6220225,76.2686505 56.2869375,76.4932747 C54.74568,77.5269495 54.4446375,75.6842242 54.4446375,75.6842242 C52.189155,75.6842242 52.245225,72.7466242 54.258405,71.505811 C53.9934075,67.5056176 56.3637,65.9325758 56.8516425,69.1230462" id="Fill-34" fill="#89B2CB"></path>
                <line x1="52.9360875" y1="70.4216967" x2="54.7129725" y2="71.5737363" id="Fill-35" fill="#FFFFFE"></line>
                <g id="Group-39" transform="translate(52.065000, 66.580220)">
                    <mask id="mask-2" fill="white">
                        <use xlink:href="#path-1"></use>
                    </mask>
                    <g id="Clip-37"></g>
                    <path d="M2.8802625,5.43402198 C2.8802625,5.16232088 3.1005375,4.94038681 3.3702075,4.94038681 C3.64188,4.94038681 3.862155,5.16232088 3.862155,5.43402198 C3.862155,5.70572308 3.64188,5.92765714 3.3702075,5.92765714 C3.1005375,5.92765714 2.8802625,5.70572308 2.8802625,5.43402198 Z M6.4941075,3.50252308 C6.1189725,6.87188571 4.3394175,9.51491868 4.08243,9.70457143 C3.7052925,9.95744176 3.3942375,10.0347824 3.1606125,9.93323077 C2.8161825,9.78392967 2.6573175,9.25397802 2.625945,9.06230769 L2.591235,8.85315165 L2.3796375,8.85247912 C1.6587375,8.85247912 1.1661225,8.51756044 0.9965775,7.90892308 C0.7709625,7.10189011 1.1581125,5.85771429 2.3222325,5.14012747 L2.361615,5.11658901 L2.409675,5.1481978 C2.3836425,5.23966154 2.364285,5.33448791 2.364285,5.43402198 C2.364285,5.99356484 2.8161825,6.44819341 3.3702075,6.44819341 C3.926235,6.44819341 4.3781325,5.99356484 4.3781325,5.43402198 C4.3781325,4.87515165 3.926235,4.42052308 3.3702075,4.42052308 C3.1005375,4.42052308 2.858235,4.5288 2.676675,4.70298462 L2.4250275,4.54023297 C2.3716275,2.41168352 3.1005375,1.1554022 3.6665775,1.09285714 C4.0523925,1.05048791 4.3954875,1.63491429 4.5396675,2.58183297 L4.6170975,3.08084835 L4.964865,2.71768352 C5.42811,2.23884396 5.808585,2.03641319 6.0428775,2.14738022 C6.3993225,2.31752967 6.53082,3.17163956 6.4941075,3.50252308 Z M6.25581,1.69275165 C5.8826775,1.5152044 5.4407925,1.63894945 4.9401675,2.05726154 C4.591065,0.62007033 3.848805,0.566940659 3.6118425,0.593841758 C2.751435,0.689340659 1.9484325,2.04919121 1.9244025,4.2154022 L1.010595,3.62290549 L0.73158,4.06004835 L1.915725,4.82807473 C1.00926,5.45823297 0.4345425,6.47509451 0.4345425,7.43479121 C0.4345425,7.64327473 0.460575,7.84772308 0.516645,8.04477363 C0.73158,8.81347253 1.3383375,9.2607033 2.177385,9.32795604 C2.257485,9.61983297 2.46975,10.1780308 2.96103,10.3932396 C3.360195,10.5680967 3.8307825,10.476633 4.36011,10.122211 C4.751265,9.85925275 6.6049125,7.01782418 6.9893925,3.55901538 C7.031445,3.19047033 6.9306525,2.01421978 6.25581,1.69275165 L6.25581,1.69275165 Z" id="Fill-36" fill="#FFE256" mask="url(#mask-2)"></path>
                    <path d="M8.187555,3.49109011 C8.305035,3.28596923 8.430525,3.17365714 8.5593525,3.15953407 C8.6220975,3.14742857 12.4628925,2.39218022 14.1329775,2.74592967 C13.156425,4.02642198 12.8887575,6.80463297 12.8887575,9.40126154 C12.8887575,11.8089099 13.1090325,14.0302681 13.1864625,14.723644 C12.8500425,14.9395253 12.488925,15.1116923 12.101775,15.2071912 C11.80941,15.2798242 11.5003575,15.3013451 11.20065,15.2603209 C11.20065,15.2603209 10.6533,14.7263341 10.9737,14.2770857 C11.04312,14.1795692 11.1652725,14.0921407 11.2814175,14.1587209 C11.3294775,14.1889846 11.356845,14.2542198 11.415585,14.2737231 C11.46498,14.2912088 11.5590975,14.2905363 11.6098275,14.2770857 C11.709285,14.2501846 11.80941,14.0255604 11.80941,13.929389 C11.81475,13.7787429 11.6859225,13.5951429 11.5470825,13.5433582 C11.2734075,13.4411341 11.020425,13.758567 10.85622,13.9327516 C11.044455,13.6206989 11.132565,13.1916264 10.9436625,12.8600703 C10.9436625,12.8600703 10.63461,12.4686593 10.641285,12.3233934 L10.63995,12.3233934 C10.63461,12.4686593 10.30086,12.8372044 10.30086,12.8372044 C10.08726,13.1532923 10.147335,13.5884176 10.310205,13.9139209 C10.1613525,13.7289758 9.931065,13.3933846 9.650715,13.4747604 C9.5085375,13.5171297 9.36636,13.6926593 9.36102,13.8419604 C9.35568,13.9414945 9.423765,14.1156791 9.5058675,14.1755341 C9.5512575,14.2091604 9.640035,14.2118505 9.693435,14.211178 C9.7862175,14.2071429 9.79623,14.1472879 9.872325,14.1089538 C9.9904725,14.050444 10.1106225,14.1466154 10.1706975,14.2488396 C10.4590575,14.7202813 9.874995,15.2125714 9.874995,15.2125714 C9.57195,15.2320747 9.2682375,15.1897055 8.980545,15.0962242 C8.7716175,15.0282989 8.572035,14.9368352 8.3804625,14.8305758 C8.13816,14.5682901 8.01801,14.3537538 8.01534,14.3497187 C7.7757075,13.8063165 7.0481325,5.4932044 8.187555,3.49109011 Z M14.63961,14.0551516 C14.25513,13.9724308 13.8846675,14.1089538 13.69176,14.370567 C13.6857525,14.3752747 13.6777425,14.3806549 13.6710675,14.3853626 C13.466145,12.3207033 12.8286825,4.45683956 14.77044,2.79166154 L15.092175,2.51458022 L14.699685,2.3525011 C13.1597625,1.7136 8.6701575,2.60671648 8.47992,2.64572308 C8.1708675,2.67934945 7.8945225,2.91473407 7.68159,3.34111648 C6.6636525,5.38492747 7.07817,12.2184791 7.4379525,14.1358549 C7.2163425,13.9576352 6.983385,13.8157319 6.6543075,13.8103516 C6.3993225,13.806989 6.185055,13.8816396 6.03954,14.0235429 C5.800575,14.1963824 5.6624025,14.4620308 5.69778,14.7397846 C5.752515,15.1749099 6.2084175,15.4735121 6.7157175,15.4082769 C6.9960675,15.3719604 7.2310275,15.2307297 7.3765425,15.0397319 C7.578795,15.3544747 8.46657,15.7438681 9.0653175,15.9785802 C9.2335275,16.059956 9.41976,16.1305714 9.6193425,16.1850462 C9.6206775,16.1850462 9.6246825,16.1870637 9.6246825,16.1870637 C9.47316,16.4244659 9.52389,16.6813714 9.52389,16.6813714 C9.5592675,17.0216703 9.907035,17.1064088 9.907035,17.1064088 C10.2147525,17.2025802 10.3989825,17.4816791 10.3989825,17.4816791 L10.518465,17.4857143 C10.518465,17.4857143 10.7220525,17.2207385 11.036445,17.147433 C11.036445,17.147433 11.3882175,17.087578 11.4509625,16.7486242 C11.4509625,16.7486242 11.5177125,16.4977714 11.3815425,16.2482637 C11.3815425,16.2482637 13.36335,15.7257099 13.70511,15.263011 C13.70511,15.263011 13.71312,15.2556132 13.7244675,15.2468703 C13.858635,15.4197099 14.0648925,15.5521978 14.3112,15.6053275 C14.811825,15.7136044 15.2930925,15.4533363 15.383205,15.0256088 C15.473985,14.5978813 15.140235,14.162756 14.63961,14.0551516 L14.63961,14.0551516 Z" id="Fill-38" fill="#FFE256" mask="url(#mask-2)"></path>
                </g>
                <path d="M75.3600825,51.481978 C75.2439375,52.0139473 74.657205,52.1410549 74.657205,52.1410549 C74.2480275,51.923156 74.117865,50.992378 74.2013025,50.8376967 C74.32746,50.6050022 74.4642975,50.3265758 74.7526575,50.3474242 C75.289995,50.3871033 75.45687,51.0414725 75.3600825,51.481978 Z M75.7979625,50.3023648 C75.7979625,50.3023648 75.82266,50.6702374 75.55299,50.5821363 C75.55299,50.5821363 75.2052225,49.7017978 74.49033,49.9977099 C74.49033,49.9977099 74.16459,50.110022 73.9116075,50.5343868 C73.9116075,50.5343868 73.7514075,50.4718418 73.557165,50.3998813 C73.396965,50.2714286 72.8102325,49.8127648 72.37836,49.7596352 C72.37836,49.7596352 72.61065,49.6345451 72.61065,49.3507385 C72.61065,49.3507385 72.328965,48.1126154 71.9731875,48.4845231 C71.9731875,48.4845231 71.6421075,48.8920747 71.6901675,49.425389 C71.6901675,49.425389 71.7515775,49.7098681 71.9237925,49.7347516 C71.9237925,49.7347516 71.2442775,49.8692571 70.8437775,50.3729802 C70.8437775,50.3729802 70.54407,50.8767033 70.1856225,50.7966725 C70.1856225,50.7966725 70.1856225,50.8033978 70.1869575,50.8148308 C69.944655,50.576756 69.8438625,50.2109011 69.8438625,50.1705495 C69.8438625,50.110022 69.4633875,48.800611 69.4633875,48.800611 C69.3045225,47.993578 68.5235475,47.6707648 68.5235475,47.6707648 L68.502855,47.8126681 C68.0829975,47.710444 68.0229225,47.9532264 68.0229225,47.9532264 C68.54157,47.9122022 68.88333,48.7400835 68.88333,48.7400835 C69.162345,49.0817275 69.1443225,50.8356791 69.1443225,50.8356791 C69.1830375,51.5620088 69.504105,52.0670769 69.504105,52.0670769 C69.8078175,52.5721451 70.3538325,52.9601934 70.60014,53.1182374 C70.604145,53.1337055 70.60815,53.1424484 70.609485,53.1451385 C70.65354,53.1908703 70.815075,53.2211341 70.815075,53.2211341 C70.9732725,53.2830066 71.1334725,53.330756 71.3003475,53.3664 C71.503935,53.7369626 71.896425,54.7316308 71.327715,56.2690286 L71.37711,56.2690286 C70.438605,56.3914286 69.76443,56.7263473 69.76443,57.1217934 L74.5464,57.1217934 C74.5464,56.7263473 73.8728925,56.3914286 72.93372,56.2690286 L72.9597525,56.2690286 C72.3616725,54.6529451 72.825585,53.635411 73.0184925,53.3139429 C73.0678875,53.3018374 73.119285,53.2877143 73.170015,53.2749363 C73.170015,53.2749363 73.38495,53.2097011 73.655955,53.0637626 C73.6653,53.1370681 73.6886625,53.2238242 73.6926675,53.2453451 C73.78011,53.5688308 74.0931675,53.8149758 74.43693,53.7087165 C74.5390575,53.6764352 74.6298375,53.5863165 74.675895,53.4921626 C74.6979225,53.4471033 74.7072675,53.4040615 74.710605,53.354967 C74.710605,53.3267209 74.6845725,53.1848176 74.6965875,53.1720396 C74.614485,53.2594681 74.4843225,53.3664 74.3561625,53.3341187 C74.0771475,53.2635033 74.107185,52.865367 74.3468175,52.7718857 C74.9101875,52.5533143 75.5336325,52.2789231 75.679815,51.6225363 C75.725205,51.4227956 75.7499025,51.1497495 75.7031775,50.9500088 C75.7031775,50.9500088 76.0929975,50.5572527 75.7979625,50.3023648 L75.7979625,50.3023648 Z" id="Fill-40" fill="#FFE256"></path>
                <path d="M54.5447625,25.6333846 C54.5447625,26.0005846 54.5447625,28.4875912 54.5447625,28.7323912 L55.5687075,28.7323912 L55.977885,27.8258242 C55.7943225,27.4081846 55.31172,26.2588352 54.5447625,25.6333846" id="Fill-41" fill="#FFE256"></path>
                <path d="M54.2323725,24.8747736 L54.4005825,24.982378 C55.208925,25.5056044 55.8891075,26.8493143 56.1667875,27.4599692 L56.5512675,26.5991341 C56.5512675,26.5991341 56.2241925,24.4699121 53.929995,23.6615341 L53.929995,23.3077846 L54.1722975,23.3077846 L54.1722975,22.9654681 L53.9533575,22.9654681 L53.9533575,22.5982681 L53.516145,22.5982681 L53.516145,22.9654681 L53.297205,22.9654681 L53.297205,23.3077846 L53.54151,23.3077846 L53.54151,23.6615341 C51.246645,24.4699121 50.918235,26.5991341 50.918235,26.5991341 L51.31473,27.4855253 C51.569715,26.8856308 52.2272025,25.5123297 53.0442225,24.982378 L53.2124325,24.8747736 L53.2124325,28.7323912 L54.2323725,28.7323912 L54.2323725,24.8747736" id="Fill-42" fill="#FFE256"></path>
                <path d="M51.0524025,30.5878945 C51.305385,30.6517846 51.537675,30.9685451 51.697875,31.1615604 C51.92883,31.4366242 52.2645825,31.8589714 52.6597425,31.8145846 C52.9921575,31.7769231 53.2751775,31.3485231 53.406675,31.0687516 C53.412015,31.0586637 53.4327075,31.015622 53.4594075,30.9550945 C53.5555275,30.9604747 53.654985,30.9631648 53.753775,30.9631648 C53.9052975,30.9631648 54.0561525,30.9550945 54.202335,30.9423165 C54.2323725,31.0095692 54.2544,31.0573187 54.25974,31.0687516 C54.3912375,31.3478505 54.6729225,31.7769231 55.0066725,31.8145846 C55.4031675,31.8589714 55.7382525,31.4359516 55.969875,31.1615604 C56.202165,30.880444 56.586645,30.3370418 56.96979,30.6914637 L57.6299475,31.2967385 L57.70404,31.0210022 C57.76545,31.0263824 57.9503475,31.0553011 58.0077525,31.041178 C57.489105,30.5004659 57.08727,30.1695824 56.586645,30.1399912 C56.2375425,30.1211604 56.0546475,30.3242637 55.8330375,30.5562857 C55.6688325,30.7284527 55.52532,30.9221407 55.36512,31.0963253 C55.2216075,31.2503341 55.09812,31.4292264 54.92991,31.2274681 C54.8411325,31.1205363 54.757695,30.9981363 54.6782625,30.8717011 C54.963285,30.8098286 55.18623,30.7156747 55.2763425,30.5912571 L55.2776775,30.5919297 C55.2803475,30.5912571 55.2843525,30.5845319 55.2856875,30.5818418 C55.2870225,30.5791516 55.2883575,30.5784791 55.2896925,30.5764615 C55.3898175,30.4204352 55.582725,29.0800879 55.582725,29.0800879 L51.914145,29.0800879 L51.9495225,29.2502374 C52.0042575,29.6127297 52.135755,30.4399385 52.2165225,30.5730989 C52.2191925,30.5778066 52.2205275,30.5804967 52.2231975,30.5858769 C52.2258675,30.5865495 52.2272025,30.5912571 52.2285375,30.5919297 L52.2312075,30.5912571 C52.3353375,30.7365231 52.6183575,30.8400923 52.9728,30.9006198 C52.8987075,31.0162945 52.82061,31.1286066 52.73784,31.2281407 C52.5676275,31.4292264 52.4448075,31.2503341 52.30263,31.0963253 C52.141095,30.9228132 51.9975825,30.7297978 51.8347125,30.5562857 C51.6131025,30.3242637 51.4302075,30.1211604 51.081105,30.1413363 L51.0524025,30.5878945" id="Fill-43" fill="#FFE256"></path>
                <path d="M51.468255,27.8258242 L51.9014625,28.7323912 L52.864665,28.7323912 C52.864665,28.4875912 52.864665,26.0026022 52.864665,25.6333846 C52.08102,26.2776659 51.6184425,27.4559341 51.468255,27.8258242" id="Fill-44" fill="#FFE256"></path>
                <path d="M59.08977,43.6752791 C59.093775,43.6994901 59.1758775,44.2280967 59.916135,44.321578 L59.916135,42.4405187 C59.5029525,42.400167 59.2439625,42.2414505 59.08977,42.0713011 L59.08977,43.6752791" id="Fill-45" fill="#FFE256"></path>
                <path d="M59.08977,41.6052396 C59.104455,41.6328132 59.1238125,41.6704747 59.1264825,41.6765275 C59.197905,41.8520571 59.3961525,42.1358637 59.916135,42.1950462 L59.916135,40.403433 C59.5029525,40.3624088 59.2452975,40.2043648 59.08977,40.0342154 L59.08977,41.6052396" id="Fill-46" fill="#FFE256"></path>
                <path d="M59.091105,37.5317407 C59.10579,37.5593143 59.1238125,37.5963033 59.1264825,37.6016835 C59.197905,37.7772132 59.3961525,38.0603473 59.916135,38.1195297 L59.916135,36.328589 C59.5029525,36.2882374 59.245965,36.1301934 59.091105,35.960044 L59.091105,37.5317407" id="Fill-47" fill="#FFE256"></path>
                <path d="M59.08977,39.5688264 C59.10579,39.5964 59.1238125,39.633389 59.1251475,39.6394418 C59.197905,39.8142989 59.3961525,40.097433 59.916135,40.1572879 L59.916135,38.3663473 C59.5029525,38.3253231 59.2452975,38.1672791 59.091105,37.9971297 L59.08977,39.5688264" id="Fill-48" fill="#FFE256"></path>
                <path d="M60.1838025,35.9814066 C59.769285,35.9691666 59.534325,35.8201266 59.4001575,35.6674866 L65.1206325,35.6674866 L65.5064475,35.9814066 L60.1838025,35.9814066 Z M65.6359425,35.4738066 L59.2292775,35.4738066 C59.16186,35.4738066 59.1278175,35.5033266 59.1091275,35.5364466 C59.1184725,35.5530066 59.1238125,35.5674066 59.1264825,35.5717266 C59.203245,35.7769266 59.430195,36.1246866 60.09102,36.1448466 L65.774115,36.1448466 L65.774115,35.6228466 C65.774115,35.5414866 65.71137,35.4738066 65.6359425,35.4738066 L65.6359425,35.4738066 Z" id="Fill-49" fill="#F6BF35"></path>
                <path d="M66.049125,36.340022 L65.9496675,36.340022 L65.9149575,36.341367 L60.161775,36.3420396 L60.161775,44.3357011 L66.049125,44.3357011 C66.1245525,44.3357011 66.1859625,44.273156 66.1859625,44.1951429 L66.1859625,36.4792352 C66.1859625,36.402567 66.1245525,36.340022 66.049125,36.340022" id="Fill-50" fill="#FFE256"></path>
                <path d="M48.4358025,19.9854989 C48.3930825,20.0372835 48.35103,20.0897407 48.31098,20.1428703 L48.5559525,20.7898418 C48.5652975,20.7750462 48.57798,20.7615956 48.587325,20.7474725" id="Fill-51" fill="#FFE256"></path>
                <g id="Group-55" transform="translate(39.382500, 0.000000)" fill="#FFE256">
                    <path d="M5.08101,13.2508088 C5.08101,13.2508088 5.06766,13.2225626 5.0402925,13.1680879 L4.871415,12.9643121 C4.8934425,13.0080264 4.914135,13.0517407 4.9334925,13.0920923 L8.86173,20.0245055 L8.863065,20.023833 C8.313045,19.0399253 5.08101,13.2508088 5.08101,13.2508088" id="Fill-52"></path>
                    <path d="M12.593055,36.1032923 L19.37352,36.1032923 L19.37352,21.4764923 L19.37619,21.4253802 L19.37619,21.3661978 L19.3514925,21.3110505 C19.3501575,21.3097055 19.3501575,21.3076879 19.3501575,21.3063429 L19.3501575,21.2908747 L9.298275,0.487582418 L9.0679875,0.597204396 L0.3370875,4.76889231 L3.453645,11.1101538 L3.6719175,11.5244308 L4.871415,12.9643121 C4.0043325,11.1922022 1.56195,6.08704615 1.0326225,5.01234725 C1.469835,4.80386374 8.63211,1.38137143 9.0573075,1.17826813 C9.263565,1.60465055 14.7911325,13.0456879 14.7911325,13.0456879 C14.7911325,13.0456879 16.6074,16.8024264 17.767515,19.2067121 C16.69551,18.3129231 15.2970975,17.7923868 13.7952225,17.7923868 C11.91087,17.7923868 10.184715,18.6014374 9.0533025,19.9854989 L9.204825,20.7474725 C10.20741,19.2571516 11.909535,18.3640352 13.7952225,18.3640352 C16.0006425,18.3640352 17.9604225,19.5934154 18.80748,21.4953231 C18.80748,21.530967 18.806145,34.982189 18.806145,35.5309714 L12.536985,35.5309714" id="Fill-54"></path>
                </g>
                <path d="M44.58366,67.2312264 C42.60786,64.4113187 40.959135,61.1865495 39.6822075,57.6456923 C37.7371125,52.2459692 36.7091625,46.1555604 36.7091625,40.0348879 C36.7091625,34.0937802 37.634985,28.4156308 39.4419075,23.1376352 C41.5365225,27.2703165 42.82413,32.1925451 43.1532075,37.4389319 C43.1518725,37.4389319 43.08312,39.9024 43.08312,39.9024 L43.1652225,42.6550549 C43.53702,49.229011 45.3099,55.2091253 48.1194075,60.1925538 C48.010605,60.4151604 45.012195,66.6346945 44.6697675,67.3509363 C44.638395,67.3065495 44.58366,67.2312264 44.58366,67.2312264" id="Fill-56" fill="#89B2CB"></path>
                <path d="M44.472855,42.2770945 L50.85816,42.2770945 C50.862165,42.1620923 50.86617,42.0457451 50.870175,41.9300703 L44.4895425,41.9300703 C44.4855375,42.0464176 44.4775275,42.1620923 44.472855,42.2770945" id="Fill-57" fill="#000A1A"></path>
                <path d="M44.39676,43.5253055 L50.795415,43.5253055 C50.80209,43.4103033 50.811435,43.2946286 50.816775,43.1782813 L44.4254625,43.1782813 C44.41812,43.2953011 44.40744,43.4089582 44.39676,43.5253055" id="Fill-58" fill="#000A1A"></path>
                <path d="M37.73778,18.5617582 L45.9300075,18.5617582 C45.8699325,18.445411 45.80919,18.3304088 45.74778,18.2140615 L37.448085,18.2140615 C37.5448725,18.3304088 37.6436625,18.4440659 37.73778,18.5617582" id="Fill-59" fill="#000A1A"></path>
                <path d="M44.285955,44.7721714 L50.70597,44.7721714 C50.7159825,44.6571692 50.7239925,44.5414945 50.7333375,44.4258198 L44.3213325,44.4258198 C44.3106525,44.5414945 44.29797,44.6571692 44.285955,44.7721714" id="Fill-60" fill="#000A1A"></path>
                <path d="M44.515575,39.7806725 L50.8922025,39.7806725 C50.8895325,39.6649978 50.8895325,39.5486505 50.8881975,39.4336484 L44.510235,39.4336484 C44.51157,39.5486505 44.515575,39.6649978 44.515575,39.7806725" id="Fill-61" fill="#000A1A"></path>
                <path d="M44.51157,41.0288835 L50.8895325,41.0288835 C50.8908675,40.9132088 50.8922025,40.7968615 50.8922025,40.6811868 L44.518245,40.6811868 C44.515575,40.7975341 44.51424,40.9132088 44.51157,41.0288835" id="Fill-62" fill="#000A1A"></path>
                <path d="M33.787515,14.8171253 L43.71057,14.8171253 C43.6311375,14.7001055 43.5510375,14.5844308 43.471605,14.4694286 L33.2822175,14.4694286 C33.45243,14.5790505 33.619305,14.6987604 33.787515,14.8171253" id="Fill-63" fill="#000A1A"></path>
                <path d="M35.3661525,16.0653363 L44.51958,16.0653363 C44.4481575,15.948989 44.3747325,15.8333143 44.301975,15.7183121 L34.9696575,15.7183121 C35.1031575,15.8306242 35.234655,15.948989 35.3661525,16.0653363" id="Fill-64" fill="#000A1A"></path>
                <path d="M46.534095,56.0067429 L48.4358025,56.0067429 C48.47385,55.8910681 48.51123,55.7753934 48.5479425,55.6597187 L46.3905825,55.6597187 C46.4373075,55.7760659 46.4853675,55.8903956 46.534095,56.0067429" id="Fill-65" fill="#000A1A"></path>
                <path d="M44.136435,46.0203824 L50.584485,46.0203824 C50.5958325,45.9053802 50.6091825,45.790378 50.6211975,45.6733582 L44.1798225,45.6733582 C44.165805,45.789033 44.1517875,45.9060527 44.136435,46.0203824" id="Fill-66" fill="#000A1A"></path>
                <path d="M44.4855375,38.5324615 L50.867505,38.5324615 C50.8635,38.4161143 50.85816,38.3004396 50.85282,38.1847648 L44.467515,38.1847648 C44.47419,38.3004396 44.4801975,38.4154418 44.4855375,38.5324615" id="Fill-67" fill="#000A1A"></path>
                <path d="M36.6490875,17.3135473 L45.2571675,17.3135473 C45.191085,17.1972 45.123,17.0828703 45.0569175,16.9665231 L36.32001,16.9665231 C36.430815,17.0788352 36.5396175,17.1972 36.6490875,17.3135473" id="Fill-68" fill="#000A1A"></path>
                <path d="M43.4943,31.0438681 L50.079855,31.0438681 C50.0564925,30.9268484 50.0358,30.8118462 50.01444,30.6961714 L43.418205,30.6961714 C43.4455725,30.8105011 43.468935,30.9281934 43.4943,31.0438681" id="Fill-69" fill="#000A1A"></path>
                <path d="M41.458425,24.8028132 L48.51657,24.8028132 C48.477855,24.6864659 48.4398075,24.5707912 48.40176,24.455789 L41.3049,24.455789 C41.356965,24.5707912 41.407695,24.6864659 41.458425,24.8028132" id="Fill-70" fill="#000A1A"></path>
                <path d="M44.41812,37.2842505 L50.811435,37.2842505 C50.803425,37.1685758 50.79675,37.0522286 50.7894075,36.9365538 L44.3894175,36.9365538 C44.398095,37.0529011 44.41011,37.1672308 44.41812,37.2842505" id="Fill-71" fill="#000A1A"></path>
                <path d="M42.4283025,27.2992352 L49.249485,27.2992352 C49.2194475,27.184233 49.18941,27.0678857 49.1580375,26.952211 L42.3094875,26.952211 C42.350205,27.0665407 42.3882525,27.184233 42.4283025,27.2992352" id="Fill-72" fill="#000A1A"></path>
                <path d="M38.67495,19.8099692 L46.5441075,19.8099692 C46.4907075,19.6942945 46.4346375,19.5786198 46.3785675,19.4629451 L38.4299775,19.4629451 C38.5127475,19.5772747 38.593515,19.694967 38.67495,19.8099692" id="Fill-73" fill="#000A1A"></path>
                <path d="M40.8823725,23.5539297 L48.08937,23.5539297 C48.0473175,23.4375824 48.0072675,23.3219077 47.96388,23.2069055 L40.7048175,23.2069055 C40.7635575,23.3232527 40.8249675,23.4362374 40.8823725,23.5539297" id="Fill-74" fill="#000A1A"></path>
                <path d="M39.4979775,21.0575077 L47.1074775,21.0575077 C47.0567475,20.941833 47.0073525,20.8254857 46.95729,20.7104835 L39.28104,20.7104835 C39.3537975,20.8254857 39.426555,20.9411604 39.4979775,21.0575077" id="Fill-75" fill="#000A1A"></path>
                <path d="M40.23156,22.3063912 L47.62212,22.3063912 C47.57673,22.1893714 47.52867,22.0750418 47.4826125,21.9586945 L40.0333125,21.9586945 C40.1000625,22.0750418 40.1668125,22.1886989 40.23156,22.3063912" id="Fill-76" fill="#000A1A"></path>
                <path d="M42.830805,28.5474462 L49.5612075,28.5474462 C49.53384,28.4317714 49.5051375,28.3154242 49.47777,28.200422 L42.72801,28.200422 C42.764055,28.3154242 42.796095,28.432444 42.830805,28.5474462" id="Fill-77" fill="#000A1A"></path>
                <path d="M43.185915,29.7949846 L49.8362175,29.7949846 C49.812855,29.6793099 49.788825,29.5636352 49.7641275,29.4479604 L43.0958025,29.4479604 C43.127175,29.5622901 43.1545425,29.6799824 43.185915,29.7949846" id="Fill-78" fill="#000A1A"></path>
                <path d="M43.9835775,33.5402901 L50.464335,33.5402901 C50.4489825,33.4239429 50.4342975,33.3089407 50.418945,33.1932659 L43.9288425,33.1932659 C43.9482,33.3082681 43.965555,33.4246154 43.9835775,33.5402901" id="Fill-79" fill="#000A1A"></path>
                <path d="M44.3133225,36.035367 L50.7253275,36.035367 C50.7159825,35.9203648 50.707305,35.8040176 50.69796,35.6883429 L44.2732725,35.6883429 C44.285955,35.8046901 44.301975,35.9190198 44.3133225,36.035367" id="Fill-80" fill="#000A1A"></path>
                <path d="M44.168475,34.7878286 L50.6118525,34.7878286 C50.5998375,34.6714813 50.58582,34.5571516 50.57247,34.4408044 L44.1210825,34.4408044 C44.136435,34.5564791 44.1531225,34.6714813 44.168475,34.7878286" id="Fill-81" fill="#000A1A"></path>
                <path d="M43.7592975,32.2914066 L50.2887825,32.2914066 C50.2700925,32.1750593 50.250735,32.0600571 50.2327125,31.9437099 L43.6952175,31.9437099 C43.7192475,32.0587121 43.73727,32.1764044 43.7592975,32.2914066" id="Fill-82" fill="#000A1A"></path>
                <path d="M42.635895,33.6747956 C42.5898375,33.3997319 42.542445,33.1253407 42.4923825,32.8522945 C42.542445,33.1253407 42.5898375,33.3990593 42.635895,33.6747956" id="Fill-83" fill="#000A1A"></path>
                <path d="M44.117745,47.356022 C44.123085,47.3869582 44.1290925,47.417222 44.1344325,47.4481582 C44.1290925,47.417222 44.1237525,47.3869582 44.117745,47.356022" id="Fill-84" fill="#000A1A"></path>
                <path d="M50.250735,48.5174769 C50.2687575,48.4018022 50.2847775,48.2868 50.3028,48.1704527 L44.2612575,48.1704527 C44.28195,48.2861275 44.30064,48.4024747 44.3226675,48.5174769 L50.250735,48.5174769" id="Fill-85" fill="#000A1A"></path>
                <path d="M50.4316275,47.2685934 C50.4476475,47.1529187 50.463,47.0379165 50.477685,46.9215692 L44.0543325,46.9215692 C44.0716875,47.037244 44.0877075,47.1535912 44.10573,47.2685934 L50.4316275,47.2685934" id="Fill-86" fill="#000A1A"></path>
                <path d="M43.9194975,45.9638901 C43.944195,46.1595956 43.9715625,46.3553011 43.9995975,46.5496615 C43.9715625,46.3553011 43.944195,46.1595956 43.9194975,45.9638901" id="Fill-87" fill="#000A1A"></path>
                <path d="M50.03313,49.7650154 C50.0538225,49.6500132 50.07585,49.535011 50.0978775,49.4186637 L44.504895,49.4186637 C44.53026,49.5343385 44.5549575,49.6500132 44.58099,49.7650154 L50.03313,49.7650154" id="Fill-88" fill="#000A1A"></path>
                <path d="M49.5024675,52.2621099 C49.529835,52.1471077 49.5585375,52.0321055 49.585905,51.9157582 L45.118995,51.9157582 C45.1517025,52.0321055 45.18708,52.1471077 45.2211225,52.2621099 L49.5024675,52.2621099" id="Fill-89" fill="#000A1A"></path>
                <path d="M49.7868225,51.0145714 C49.810185,50.8995692 49.8335475,50.783222 49.85691,50.6675473 L44.790585,50.6675473 C44.8179525,50.783222 44.85066,50.8982242 44.8793625,51.0145714 L49.7868225,51.0145714" id="Fill-90" fill="#000A1A"></path>
                <path d="M33.4290675,65.9917582 L43.44891,65.9917582 C43.3734825,65.876756 43.29939,65.7610813 43.2252975,65.6454066 L33.934365,65.6454066 C33.7668225,65.7651165 33.5986125,65.8801187 33.4290675,65.9917582" id="Fill-91" fill="#000A1A"></path>
                <path d="M35.0844675,64.7442198 L42.662595,64.7442198 C42.5925075,64.6298901 42.5297625,64.5128703 42.462345,64.3971956 L35.4809625,64.3971956 C35.3501325,64.5148879 35.2179675,64.6298901 35.0844675,64.7442198" id="Fill-92" fill="#000A1A"></path>
                <path d="M36.4208025,63.4960088 L41.947035,63.4960088 C41.8836225,63.3816791 41.8235475,63.2639868 41.7608025,63.1489846 L36.74187,63.1489846 C36.6344025,63.2639868 36.529605,63.3836967 36.4208025,63.4960088" id="Fill-93" fill="#000A1A"></path>
                <path d="M49.185405,53.5103209 C49.2167775,53.3959912 49.24548,53.2789714 49.2755175,53.1639692 L45.4934625,53.1639692 C45.530175,53.279644 45.567555,53.3953187 45.6056025,53.5103209 L49.185405,53.5103209" id="Fill-94" fill="#000A1A"></path>
                <path d="M43.7993475,44.9618242 C43.8113625,45.0795165 43.826715,45.1951912 43.8393975,45.3128835 C43.826715,45.1958637 43.8126975,45.0795165 43.7993475,44.9618242" id="Fill-95" fill="#000A1A"></path>
                <path d="M37.53219,62.2477978 L41.290215,62.2477978 C41.231475,62.1334681 41.17674,62.0164484 41.119335,61.9014462 L37.821885,61.9014462 C37.7277675,62.019811 37.6276425,62.1321231 37.53219,62.2477978" id="Fill-96" fill="#000A1A"></path>
                <path d="M38.5047375,60.9995868 L40.686795,60.9995868 C40.633395,60.8852571 40.5819975,60.7682374 40.5299325,60.6525626 L38.743035,60.6525626 C38.6636025,60.7682374 38.5861725,60.8872747 38.5047375,60.9995868" id="Fill-97" fill="#000A1A"></path>
                <path d="M48.0005925,57.2549538 C48.0433125,57.1399516 48.085365,57.0242769 48.12675,56.9079297 L46.90656,56.9079297 C46.958625,57.0249495 47.014695,57.1392791 47.068095,57.2549538 L48.0005925,57.2549538" id="Fill-98" fill="#000A1A"></path>
                <path d="M48.8282925,54.7585319 C48.862335,54.6421846 48.8990475,54.5278549 48.9324225,54.4121802 L45.914655,54.4121802 C45.954705,54.5271824 45.9954225,54.6435297 46.0381425,54.7585319 L48.8282925,54.7585319" id="Fill-99" fill="#000A1A"></path>
                <path d="M42.192675,31.4077055 C42.171315,31.3142242 42.1506225,31.2207429 42.12993,31.1279341 C42.1506225,31.2207429 42.171315,31.3142242 42.192675,31.4077055" id="Fill-100" fill="#000A1A"></path>
                <path d="M41.9436975,30.3747033 C41.9356875,30.3478022 41.9290125,30.3209011 41.9223375,30.2946725 C41.9290125,30.3209011 41.9356875,30.3478022 41.9436975,30.3747033" id="Fill-101" fill="#000A1A"></path>
                <path d="M42.4242975,32.5045978 C42.3895875,32.3297407 42.355545,32.154211 42.3188325,31.9806989 C42.355545,32.154211 42.3909225,32.3297407 42.4242975,32.5045978" id="Fill-102" fill="#000A1A"></path>
                <path d="M31.672875,13.5689143 L42.8207925,13.5689143 C42.7326825,13.4518945 42.643905,13.3362198 42.55446,13.2212176 L30.8885625,13.2212176 C31.152225,13.3294945 31.4145525,13.4438242 31.672875,13.5689143" id="Fill-103" fill="#000A1A"></path>
                <path d="M41.971065,26.0510242 L48.902385,26.0510242 C48.86901,25.9346769 48.8336325,25.8190022 48.798255,25.704 L41.837565,25.704 C41.8836225,25.8183297 41.9263425,25.936022 41.971065,26.0510242" id="Fill-104" fill="#000A1A"></path>
                <path d="M10.18605,54.4121802 L3.261405,54.4121802 C3.2954475,54.5278549 3.330825,54.6421846 3.3648675,54.7585319 L10.318215,54.7585319 C10.2721575,54.6448747 10.2307725,54.5265099 10.18605,54.4121802" id="Fill-105" fill="#000A1A"></path>
                <path d="M10.69602,55.6597187 L3.6452175,55.6597187 C3.6825975,55.7753934 3.71931,55.8910681 3.7573575,56.0067429 L10.844205,56.0067429 C10.793475,55.8924132 10.745415,55.7753934 10.69602,55.6597187" id="Fill-106" fill="#000A1A"></path>
                <path d="M9.33432,51.9157582 L2.6079225,51.9157582 C2.63529,52.0321055 2.6639925,52.1471077 2.6920275,52.2621099 L9.4377825,52.2621099 C9.4017375,52.1477802 9.36903,52.0307604 9.33432,51.9157582" id="Fill-107" fill="#000A1A"></path>
                <path d="M9.7341525,53.1639692 L2.91831,53.1639692 C2.9483475,53.2789714 2.978385,53.3959912 3.0084225,53.5103209 L9.850965,53.5103209 C9.810915,53.3966637 9.773535,53.2789714 9.7341525,53.1639692" id="Fill-108" fill="#000A1A"></path>
                <path d="M11.266065,56.9079297 L4.067745,56.9079297 C4.10913,57.0242769 4.1511825,57.1399516 4.193235,57.2549538 L11.43828,57.2549538 C11.380875,57.1399516 11.3228025,57.0249495 11.266065,56.9079297" id="Fill-109" fill="#000A1A"></path>
                <path d="M12.63444,59.4050242 L5.0442975,59.4050242 C5.0936925,59.5213714 5.1417525,59.6370462 5.1924825,59.7513758 L12.852045,59.7513758 C12.77862,59.6370462 12.7058625,59.5213714 12.63444,59.4050242" id="Fill-110" fill="#000A1A"></path>
                <path d="M13.4521275,60.6525626 L5.6023275,60.6525626 C5.656395,60.7695824 5.71113,60.8845846 5.7665325,60.9995868 L13.690425,60.9995868 C13.60899,60.8872747 13.5322275,60.7682374 13.4521275,60.6525626" id="Fill-111" fill="#000A1A"></path>
                <path d="M11.9061975,58.1561407 L4.532325,58.1561407 C4.577715,58.2724879 4.6237725,58.3874901 4.6704975,58.5024923 L12.104445,58.5024923 C12.03903,58.3868176 11.9716125,58.273833 11.9061975,58.1561407" id="Fill-112" fill="#000A1A"></path>
                <path d="M7.8718275,44.4258198 L1.4611575,44.4258198 C1.469835,44.5414945 1.4785125,44.6571692 1.488525,44.7721714 L7.90854,44.7721714 C7.896525,44.6571692 7.8838425,44.5414945 7.8718275,44.4258198" id="Fill-113" fill="#000A1A"></path>
                <path d="M8.0146725,45.6733582 L1.57263,45.6733582 C1.5853125,45.790378 1.5973275,45.9053802 1.61001,46.0203824 L8.0587275,46.0203824 C8.043375,45.9060527 8.0293575,45.789033 8.0146725,45.6733582" id="Fill-114" fill="#000A1A"></path>
                <path d="M8.983215,50.6675473 L2.337585,50.6675473 C2.3609475,50.783222 2.382975,50.8995692 2.40834,51.0145714 L9.0733275,51.0145714 C9.0412875,50.8995692 9.0132525,50.783222 8.983215,50.6675473" id="Fill-115" fill="#000A1A"></path>
                <path d="M7.7676975,43.1782813 L1.3770525,43.1782813 C1.38306,43.2946286 1.3917375,43.4103033 1.3984125,43.5253055 L7.7970675,43.5253055 C7.7877225,43.4089582 7.7757075,43.2953011 7.7676975,43.1782813" id="Fill-116" fill="#000A1A"></path>
                <path d="M7.7049525,41.9300703 L1.3249875,41.9300703 C1.328325,42.0457451 1.3316625,42.1620923 1.336335,42.2770945 L7.7223075,42.2770945 C7.7163,42.1620923 7.7089575,42.0464176 7.7049525,41.9300703" id="Fill-117" fill="#000A1A"></path>
                <path d="M8.195565,46.9215692 L1.7161425,46.9215692 C1.731495,47.0379165 1.74618,47.1529187 1.7615325,47.2685934 L8.2482975,47.2685934 C8.2282725,47.1542637 8.2135875,47.037244 8.195565,46.9215692" id="Fill-118" fill="#000A1A"></path>
                <path d="M8.4165075,48.1704527 L1.8910275,48.1704527 C1.90905,48.2868 1.9257375,48.4018022 1.9444275,48.5174769 L8.4805875,48.5174769 C8.4578925,48.4024747 8.438535,48.2861275 8.4165075,48.1704527" id="Fill-119" fill="#000A1A"></path>
                <path d="M8.6781675,49.4186637 L2.0966175,49.4186637 C2.11731,49.535011 2.1393375,49.6500132 2.1606975,49.7650154 L8.75493,49.7650154 C8.7275625,49.6506857 8.7042,49.5343385 8.6781675,49.4186637" id="Fill-120" fill="#000A1A"></path>
                <path d="M14.45805,72.2334857 L37.7357775,72.2334857 C37.88196,72.119156 38.0268075,72.0041538 38.1709875,71.8864615 L14.02284,71.8864615 C14.16702,72.0041538 14.3118675,72.119156 14.45805,72.2334857" id="Fill-121" fill="#000A1A"></path>
                <path d="M26.09658,68.3039077 C25.430415,68.3039077 24.7715925,68.2474154 24.1241175,68.1425011 L10.2774975,68.1425011 C10.374285,68.2588484 10.4724075,68.373178 10.5698625,68.4888527 L41.6253,68.4888527 C41.7234225,68.373178 41.8208775,68.2588484 41.917665,68.1425011 L28.06971,68.1425011 C27.4215675,68.2474154 26.7634125,68.3039077 26.09658,68.3039077" id="Fill-122" fill="#000A1A"></path>
                <path d="M12.977535,70.9846022 L39.21696,70.9846022 C39.34245,70.8702725 39.4672725,70.7552703 39.59076,70.637578 L12.603735,70.637578 C12.7272225,70.7552703 12.852045,70.8702725 12.977535,70.9846022" id="Fill-123" fill="#000A1A"></path>
                <path d="M11.695935,69.7370637 L40.4978925,69.7370637 C40.60803,69.6227341 40.7168325,69.5063868 40.8249675,69.3907121 L11.370195,69.3907121 C11.47833,69.5063868 11.5871325,69.6227341 11.695935,69.7370637" id="Fill-124" fill="#000A1A"></path>
                <path d="M14.3732775,61.9014462 L6.211755,61.9014462 C6.2711625,62.0177934 6.3325725,62.1321231 6.393315,62.2477978 L14.6629725,62.2477978 C14.5668525,62.1321231 14.4680625,62.019811 14.3732775,61.9014462" id="Fill-125" fill="#000A1A"></path>
                <path d="M47.473935,19.7104352 L47.473935,19.7104352 C47.473935,19.7104352 47.47527,19.7117802 47.47527,19.7124527 C47.47527,19.7117802 47.473935,19.7104352 47.473935,19.7104352" id="Fill-126" fill="#000A1A"></path>
                <path d="M29.69307,4.48441319 L22.4994225,4.48441319 C22.0375125,4.58192967 21.5796075,4.69693187 21.126375,4.83143736 L31.0674525,4.83143736 C30.6135525,4.69693187 30.15498,4.58192967 29.69307,4.48441319" id="Fill-127" fill="#000A1A"></path>
                <path d="M16.7142,64.3971956 L7.6128375,64.3971956 C7.68426,64.5135429 7.7556825,64.6285451 7.82844,64.7442198 L17.1100275,64.7442198 C16.977195,64.6298901 16.84503,64.5148879 16.7142,64.3971956" id="Fill-128" fill="#000A1A"></path>
                <path d="M18.261465,65.6454066 L8.41584,65.6454066 C8.494605,65.7610813 8.5727025,65.8774286 8.652135,65.9917582 L18.7654275,65.9917582 C18.59655,65.8801187 18.4276725,65.7651165 18.261465,65.6454066" id="Fill-129" fill="#000A1A"></path>
                <path d="M15.4532925,63.1489846 L6.88059,63.1489846 C6.946005,63.2653319 7.0120875,63.3810066 7.0775025,63.4960088 L15.77436,63.4960088 C15.6655575,63.3836967 15.5600925,63.2639868 15.4532925,63.1489846" id="Fill-130" fill="#000A1A"></path>
                <path d="M18.504435,74.7299077 L33.688725,74.7299077 C33.92502,74.6189407 34.1593125,74.5039385 34.3929375,74.383556 L17.8015575,74.383556 C18.034515,74.5039385 18.26814,74.6189407 18.504435,74.7299077" id="Fill-131" fill="#000A1A"></path>
                <path d="M16.232265,73.4816967 L35.96223,73.4816967 C36.139785,73.3680396 36.3166725,73.2530374 36.492225,73.134 L15.7016025,73.134 C15.8764875,73.2530374 16.053375,73.3680396 16.232265,73.4816967" id="Fill-132" fill="#000A1A"></path>
                <path d="M20.325375,66.8936176 L9.29961,66.8936176 C9.3857175,67.0099648 9.47316,67.1256396 9.56127,67.2399692 L21.0723075,67.2399692 C20.82066,67.1323648 20.5716825,67.0173626 20.325375,66.8936176" id="Fill-133" fill="#000A1A"></path>
                <path d="M22.050195,75.9774462 L30.1422975,75.9774462 C30.5614875,75.8772396 30.97734,75.7615648 31.3891875,75.630422 L20.8039725,75.630422 C21.2151525,75.7615648 21.631005,75.8772396 22.050195,75.9774462" id="Fill-134" fill="#000A1A"></path>
                <path d="M31.86912,66.8936176 C31.6228125,67.0173626 31.373835,67.1323648 31.1221875,67.2399692 L42.6325575,67.2399692 C42.7206675,67.1256396 42.80811,67.0099648 42.894885,66.8936176 L31.86912,66.8936176" id="Fill-135" fill="#000A1A"></path>
                <path d="M17.225505,15.7183121 L7.89252,15.7183121 C7.819095,15.8333143 7.7463375,15.948989 7.6742475,16.0653363 L16.82901,16.0653363 C16.9605075,15.948989 17.092005,15.8306242 17.225505,15.7183121" id="Fill-136" fill="#000A1A"></path>
                <path d="M9.09936,29.4479604 L2.4297,29.4479604 C2.4050025,29.5636352 2.38164,29.6793099 2.35761,29.7949846 L9.0092475,29.7949846 C9.039285,29.6799824 9.06732,29.5622901 9.09936,29.4479604" id="Fill-137" fill="#000A1A"></path>
                <path d="M9.46782,28.200422 L2.716725,28.200422 C2.68869,28.3154242 2.6599875,28.4317714 2.63262,28.5474462 L9.3643575,28.5474462 C9.3990675,28.432444 9.4311075,28.3154242 9.46782,28.200422" id="Fill-138" fill="#000A1A"></path>
                <path d="M9.8850075,26.952211 L3.0364575,26.952211 C3.005085,27.0678857 2.97438,27.184233 2.9443425,27.2992352 L9.768195,27.2992352 C9.8075775,27.184233 9.84429,27.0665407 9.8850075,26.952211" id="Fill-139" fill="#000A1A"></path>
                <path d="M8.499945,31.9437099 L1.961115,31.9437099 C1.942425,32.0600571 1.923735,32.1750593 1.90638,32.2914066 L8.43453,32.2914066 C8.457225,32.1764044 8.475915,32.0587121 8.499945,31.9437099" id="Fill-140" fill="#000A1A"></path>
                <path d="M18.912945,14.4694286 L8.7235575,14.4694286 C8.64279,14.5844308 8.56269,14.7001055 8.4832575,14.8171253 L18.40698,14.8171253 C18.57519,14.6987604 18.7413975,14.5790505 18.912945,14.4694286" id="Fill-141" fill="#000A1A"></path>
                <path d="M8.777625,30.6961714 L2.180055,30.6961714 C2.1580275,30.8118462 2.136,30.9268484 2.1153075,31.0438681 L8.700195,31.0438681 C8.7262275,30.9281934 8.7502575,30.8105011 8.777625,30.6961714" id="Fill-142" fill="#000A1A"></path>
                <path d="M12.16185,21.9586945 L4.711215,21.9586945 C4.66449,22.0750418 4.617765,22.1893714 4.57104,22.3063912 L11.96427,22.3063912 C12.0290175,22.1886989 12.0957675,22.0750418 12.16185,21.9586945" id="Fill-143" fill="#000A1A"></path>
                <path d="M21.3066,13.2212176 L9.6393675,13.2212176 C9.55059,13.3362198 9.4618125,13.4518945 9.3737025,13.5689143 L20.520285,13.5689143 C20.7799425,13.4438242 21.04227,13.3294945 21.3066,13.2212176" id="Fill-144" fill="#000A1A"></path>
                <path d="M10.8915975,24.455789 L3.7914,24.455789 C3.7533525,24.5707912 3.715305,24.6864659 3.677925,24.8028132 L10.7380725,24.8028132 C10.788135,24.6864659 10.8395325,24.5707912 10.8915975,24.455789" id="Fill-145" fill="#000A1A"></path>
                <path d="M11.4910125,23.2069055 L4.2299475,23.2069055 C4.1872275,23.3219077 4.1458425,23.4375824 4.1044575,23.5539297 L11.31279,23.5539297 C11.3708625,23.4362374 11.4322725,23.3232527 11.4910125,23.2069055" id="Fill-146" fill="#000A1A"></path>
                <path d="M13.7645175,19.4629451 L5.8145925,19.4629451 C5.7585225,19.5786198 5.704455,19.6942945 5.64972,19.8099692 L13.5202125,19.8099692 C13.6016475,19.694967 13.6817475,19.5772747 13.7645175,19.4629451" id="Fill-147" fill="#000A1A"></path>
                <path d="M14.7470775,18.2140615 L6.4460475,18.2140615 C6.3846375,18.3304088 6.323895,18.445411 6.26382,18.5617582 L14.456715,18.5617582 C14.5515,18.4440659 14.6496225,18.3304088 14.7470775,18.2140615" id="Fill-148" fill="#000A1A"></path>
                <path d="M12.9141225,20.7104835 L5.237205,20.7104835 C5.186475,20.8254857 5.13708,20.941833 5.0870175,21.0575077 L12.697185,21.0575077 C12.7699425,20.9411604 12.8406975,20.8254857 12.9141225,20.7104835" id="Fill-149" fill="#000A1A"></path>
                <path d="M10.358265,25.704 L3.39624,25.704 C3.3608625,25.8190022 3.325485,25.9346769 3.2914425,26.0510242 L10.2240975,26.0510242 C10.2694875,25.936022 10.3122075,25.8183297 10.358265,25.704" id="Fill-150" fill="#000A1A"></path>
                <path d="M15.874485,16.9665231 L7.13691,16.9665231 C7.0694925,17.0828703 7.002075,17.1972 6.93666,17.3135473 L15.546075,17.3135473 C15.655545,17.1972 15.7643475,17.0788352 15.874485,16.9665231" id="Fill-151" fill="#000A1A"></path>
                <path d="M35.803365,6.98150769 L16.3904625,6.98150769 C16.2089025,7.09449231 16.0286775,7.20949451 15.84912,7.32853187 L36.3447075,7.32853187 C36.1658175,7.20949451 35.984925,7.09449231 35.803365,6.98150769" id="Fill-152" fill="#000A1A"></path>
                <path d="M7.920555,35.6883429 L1.4958675,35.6883429 C1.4865225,35.8040176 1.4785125,35.9203648 1.4691675,36.035367 L7.880505,36.035367 C7.89252,35.9190198 7.90854,35.8046901 7.920555,35.6883429" id="Fill-153" fill="#000A1A"></path>
                <path d="M7.72698,38.1847648 L1.34034,38.1847648 C1.336335,38.3004396 1.330995,38.4161143 1.32699,38.5324615 L7.709625,38.5324615 C7.7142975,38.4154418 7.7209725,38.3004396 7.72698,38.1847648" id="Fill-154" fill="#000A1A"></path>
                <path d="M7.805745,36.9365538 L1.40442,36.9365538 C1.3970775,37.0522286 1.389735,37.1685758 1.38306,37.2842505 L7.776375,37.2842505 C7.784385,37.1672308 7.7964,37.0529011 7.805745,36.9365538" id="Fill-155" fill="#000A1A"></path>
                <path d="M33.4757925,5.73262418 L18.7187025,5.73262418 C18.4764,5.84224615 18.2361,5.95926593 17.9978025,6.07964835 L34.196025,6.07964835 C33.95706,5.95926593 33.71676,5.84224615 33.4757925,5.73262418" id="Fill-156" fill="#000A1A"></path>
                <path d="M7.6769175,40.6811868 L1.301625,40.6811868 C1.3022925,40.7968615 1.30296,40.9132088 1.3049625,41.0288835 L7.6822575,41.0288835 C7.6809225,40.9132088 7.677585,40.7975341 7.6769175,40.6811868" id="Fill-157" fill="#000A1A"></path>
                <path d="M7.68426,39.4336484 L1.30563,39.4336484 C1.3036275,39.5486505 1.3036275,39.6649978 1.30296,39.7806725 L7.67892,39.7806725 C7.6795875,39.6649978 7.68159,39.5486505 7.68426,39.4336484" id="Fill-158" fill="#000A1A"></path>
                <path d="M26.09658,12.2588308 C26.4870675,12.2588308 26.8742175,12.2837143 27.259365,12.3207033 L41.834895,12.3207033 C41.736105,12.203011 41.637315,12.0880088 41.5391925,11.9730066 L10.65597,11.9730066 C10.55718,12.0880088 10.45839,12.203011 10.3602675,12.3207033 L24.93513,12.3207033 C25.31961,12.2837143 25.7060925,12.2588308 26.09658,12.2588308" id="Fill-159" fill="#000A1A"></path>
                <path d="M40.401105,10.7261407 L11.79339,10.7261407 C11.6832525,10.8397978 11.57445,10.9554725 11.46498,11.0731648 L40.729515,11.0731648 C40.62138,10.9554725 40.5112425,10.8397978 40.401105,10.7261407" id="Fill-160" fill="#000A1A"></path>
                <path d="M37.6049475,8.22971868 L14.5895475,8.22971868 C14.4413625,8.3427033 14.2931775,8.45837802 14.146995,8.57674286 L38.0475,8.57674286 C37.90065,8.45837802 37.752465,8.3427033 37.6049475,8.22971868" id="Fill-161" fill="#000A1A"></path>
                <path d="M8.07408,34.4408044 L1.6213575,34.4408044 C1.608675,34.5571516 1.5946575,34.6714813 1.581975,34.7878286 L8.0266875,34.7878286 C8.04204,34.6714813 8.0573925,34.5564791 8.07408,34.4408044" id="Fill-162" fill="#000A1A"></path>
                <path d="M39.1054875,9.47792967 L13.08834,9.47792967 C12.961515,9.59158681 12.8340225,9.70658901 12.7085325,9.82495385 L39.485295,9.82495385 C39.359805,9.70658901 39.2336475,9.59158681 39.1054875,9.47792967" id="Fill-163" fill="#000A1A"></path>
                <path d="M8.26632,33.1932659 L1.77555,33.1932659 C1.75953,33.3089407 1.7441775,33.4239429 1.7294925,33.5402901 L8.2109175,33.5402901 C8.2296075,33.4246154 8.246295,33.3082681 8.26632,33.1932659" id="Fill-164" fill="#000A1A"></path>
                <path d="M43.8393975,45.3128835 C43.8647625,45.5301099 43.8914625,45.7473363 43.9194975,45.9638901 C43.8914625,45.7473363 43.8647625,45.5301099 43.8393975,45.3128835" id="Fill-165" fill="#FFE256"></path>
                <path d="M43.725255,48.1011824 C43.66518,47.7635736 43.60911,47.4239473 43.557045,47.0836484 C43.60911,47.4246198 43.66518,47.7635736 43.725255,48.1011824" id="Fill-166" fill="#FFE256"></path>
                <path d="M42.4923825,32.8522945 C42.470355,32.7359473 42.44766,32.6209451 42.4242975,32.5045978 C42.44766,32.6209451 42.470355,32.7359473 42.4923825,32.8522945" id="Fill-167" fill="#FFE256"></path>
                <path d="M42.12993,31.1279341 C42.069855,30.8750637 42.00711,30.6235385 41.9436975,30.3747033 C42.00711,30.6235385 42.069855,30.8750637 42.12993,31.1279341" id="Fill-168" fill="#FFE256"></path>
                <path d="M44.2612575,48.1704527 C44.21787,47.9303604 44.173815,47.6902681 44.1344325,47.4481582 C44.173815,47.6902681 44.2145325,47.931033 44.2585875,48.1704527 L44.2612575,48.1704527" id="Fill-169" fill="#FFE256"></path>
                <path d="M42.3188325,31.9806989 C42.2787825,31.788356 42.235395,31.5987033 42.192675,31.4077055 C42.235395,31.5980308 42.2787825,31.788356 42.3188325,31.9806989" id="Fill-170" fill="#FFE256"></path>
                <path d="M44.0516625,46.9215692 L44.0543325,46.9215692 C44.034975,46.7978242 44.0169525,46.6740791 43.9995975,46.5496615 C44.0076075,46.6148967 44.0169525,46.6814769 44.02563,46.7473846 C44.034975,46.8045495 44.042985,46.8637319 44.0516625,46.9215692" id="Fill-171" fill="#FFE256"></path>
                <path d="M44.117745,47.356022 C44.11374,47.3271033 44.1104025,47.2975121 44.10573,47.2685934 L44.1037275,47.2685934 C44.1084,47.2981846 44.11374,47.3271033 44.117745,47.356022" id="Fill-172" fill="#FFE256"></path>
                <path d="M43.5990975,37.6332923 L43.602435,37.7012176 L43.6031025,37.6628835 C43.2640125,32.2328967 41.901645,27.1660747 39.66552,22.9802637 L39.3911775,22.4671253 L39.3831675,22.4873011 C39.47595,22.6527429 39.5714025,22.8121319 39.661515,22.9802637 C41.898975,27.1660747 43.2600075,32.2328967 43.5990975,37.6332923" id="Fill-173" fill="#FFE256"></path>
                <path d="M43.7993475,44.9618242 C43.719915,44.2153187 43.658505,43.4614154 43.61445,42.7007868 L43.6137825,42.6577451 L43.61178,42.7095297 C43.6551675,43.4688132 43.719915,44.2186813 43.7993475,44.9618242" id="Fill-174" fill="#FFE256"></path>
                <path d="M42.64791,33.746756 C42.643905,33.7225451 42.6399,33.6990066 42.635895,33.6747956 C42.6399,33.6990066 42.643905,33.7225451 42.64791,33.746756" id="Fill-175" fill="#FFE256"></path>
                <path d="M43.19259,44.0256659 C43.1665575,43.7216835 43.1451975,43.4156835 43.12584,43.1083385 C43.1451975,43.4156835 43.1665575,43.7216835 43.19259,44.0256659" id="Fill-176" fill="#FFE256"></path>
                <path d="M43.3267575,45.3687033 C43.292715,45.0795165 43.2640125,44.7876396 43.236645,44.4957626 C43.2640125,44.7876396 43.29405,45.0795165 43.3267575,45.3687033" id="Fill-177" fill="#FFE256"></path>
                <path d="M41.575905,62.2477978 C41.517165,62.1334681 41.461095,62.0164484 41.405025,61.9014462 L41.119335,61.9014462 C41.17674,62.0164484 41.231475,62.1334681 41.290215,62.2477978 L41.575905,62.2477978" id="Fill-178" fill="#FFE256"></path>
                <path d="M40.6968075,60.9995868 C40.644075,60.8845846 40.5913425,60.7695824 40.5392775,60.6525626 L40.5299325,60.6525626 C40.5819975,60.7682374 40.633395,60.8852571 40.686795,60.9995868 L40.6968075,60.9995868" id="Fill-179" fill="#FFE256"></path>
                <path d="M43.541025,65.9917582 C43.578405,65.9393011 43.61445,65.8875165 43.6511625,65.8350593 C43.6938825,65.7725143 43.7352675,65.7086242 43.7779875,65.6454066 L43.2252975,65.6454066 C43.29939,65.7610813 43.3734825,65.876756 43.44891,65.9917582 L43.541025,65.9917582" id="Fill-180" fill="#FFE256"></path>
                <path d="M41.95371,63.4960088 C41.890965,63.3816791 41.8315575,63.2639868 41.7674775,63.1489846 L41.7608025,63.1489846 C41.8235475,63.2639868 41.8836225,63.3816791 41.947035,63.4960088 L41.95371,63.4960088" id="Fill-181" fill="#FFE256"></path>
                <path d="M42.667935,64.7442198 C42.59985,64.6292176 42.5337675,64.5128703 42.46635,64.3971956 L42.462345,64.3971956 C42.5297625,64.5128703 42.5925075,64.6298901 42.662595,64.7442198 L42.667935,64.7442198" id="Fill-182" fill="#FFE256"></path>
                <path d="M44.57832,66.7416264 L44.47419,66.5903077 L43.94553,66.7268308 C43.94553,66.7268308 43.94553,66.7275033 43.944195,66.7275033 C43.981575,66.7813055 44.01762,66.8377978 44.0556675,66.8909275 L44.2612575,67.1821319 C44.3320125,67.0852879 44.403435,66.989789 44.472855,66.8922725 L44.57832,66.7416264" id="Fill-183" fill="#FFE256"></path>
                <path d="M52.039635,44.8212659 L52.1150625,44.4890374 L58.188645,44.4890374 C58.188645,45.0384923 58.188645,58.396233 58.188645,58.396233 C58.18998,58.3619341 58.19799,58.4850066 58.19799,58.5105626 C58.1759625,58.555622 58.03779,58.8427912 58.03779,58.8427912 C57.1186425,60.5738769 55.25565,61.6553011 53.1790575,61.6553011 C52.59099,61.6553011 51.9975825,61.4992747 51.4462275,61.2376615 C50.25474,60.637767 49.2728475,59.5213714 48.9524475,58.4755912 L48.9524475,58.4641582 C48.9511125,58.4581055 48.9484425,58.4520527 48.9471075,58.446 L48.9965025,58.226756 L52.039635,44.8212659 Z M54.1215675,67.0348484 L50.92491,73.6706769 C50.92491,73.6706769 48.90372,77.8652308 48.400425,78.9116835 C47.97723,78.7038725 41.4257175,75.4979341 41.001855,75.2901231 C41.186085,74.9101451 43.90281,69.2683121 44.6470725,67.7221714 L44.6497425,67.7255341 L44.8366425,67.3287429 L48.365715,59.9349758 C48.480525,59.7123692 48.6160275,59.4130945 48.68478,59.2563956 C49.4517375,60.7742901 51.2673375,62.227622 53.1790575,62.227622 C54.65223,62.227622 56.028615,61.7279341 57.09528,60.858356 C56.0052525,63.1247736 54.1215675,67.0348484 54.1215675,67.0348484 Z M58.7727075,58.4729011 L58.74801,58.3760571 L58.75602,58.396233 L58.75602,43.9167165 L51.5970825,43.9167165 L51.577725,44.1816923 C51.203925,49.1873143 50.14794,53.941411 48.4398075,58.3135121 L48.3824025,58.4661758 L48.0579975,59.2308396 C47.7082275,58.5899209 47.3784825,57.9315165 47.068095,57.2549538 C47.014695,57.1392791 46.958625,57.0249495 46.90656,56.9079297 C46.5961725,56.2091736 46.30848,55.4909143 46.0381425,54.7585319 C45.9954225,54.6435297 45.954705,54.5271824 45.914655,54.4121802 C45.807855,54.1142505 45.7043925,53.8136308 45.6056025,53.5103209 C45.567555,53.3953187 45.530175,53.279644 45.4934625,53.1639692 C45.39801,52.8660396 45.308565,52.5647473 45.2211225,52.2621099 C45.18708,52.1471077 45.1517025,52.0321055 45.118995,51.9157582 C45.0342225,51.6178286 44.956125,51.3165363 44.8793625,51.0145714 C44.85066,50.8982242 44.8179525,50.783222 44.790585,50.6675473 C44.7164925,50.3689451 44.6470725,50.0683253 44.58099,49.7650154 C44.5549575,49.6500132 44.53026,49.5343385 44.504895,49.4186637 C44.4428175,49.1200615 44.3800725,48.8201143 44.3226675,48.5174769 C44.30064,48.4024747 44.28195,48.2861275 44.2612575,48.1704527 L44.2585875,48.1704527 C44.2145325,47.931033 44.173815,47.6902681 44.1344325,47.4481582 C44.1290925,47.417222 44.123085,47.3869582 44.117745,47.356022 C44.11374,47.3271033 44.1084,47.2981846 44.1037275,47.2685934 L44.10573,47.2685934 C44.0877075,47.1535912 44.0716875,47.037244 44.0543325,46.9215692 L44.0516625,46.9215692 C44.042985,46.8637319 44.034975,46.8045495 44.02563,46.7473846 C44.0169525,46.682822 44.0089425,46.6182593 43.9995975,46.5530242 C43.9995975,46.5523516 43.9995975,46.5510066 43.9995975,46.5496615 C43.9715625,46.3553011 43.944195,46.1595956 43.9194975,45.9638901 C43.8914625,45.7473363 43.8647625,45.5301099 43.8393975,45.3128835 C43.826715,45.1951912 43.8113625,45.0795165 43.7993475,44.9618242 C43.7312625,44.3283033 43.677195,43.6873846 43.63581,43.0424308 C43.6284675,42.9314637 43.618455,42.8211692 43.61178,42.7095297 L43.6137825,42.6577451 L43.618455,42.4835604 L43.6444875,41.566233 C43.6271325,41.811033 43.6031025,42.0860967 43.5683925,42.3766286 C43.57707,42.4627121 43.5857475,42.5434154 43.5924225,42.6153758 C43.5857475,42.5440879 43.57707,42.4627121 43.5683925,42.3779736 C43.4976375,42.9691253 43.3868325,43.624167 43.2106125,44.210611 C43.2186225,44.3061099 43.2273,44.4009363 43.236645,44.4957626 C43.252665,44.664567 43.2706875,44.8320264 43.28871,44.9994857 C43.30206,45.1225582 43.3120725,45.2463033 43.3267575,45.3687033 C43.343445,45.5119516 43.3608,45.6545275 43.3788225,45.7971033 C43.41687,46.1071385 43.458255,46.4158286 43.5029775,46.7231736 C43.5203325,46.843556 43.53702,46.9639385 43.557045,47.0836484 C43.59309,47.3230681 43.634475,47.5604703 43.674525,47.7985451 C43.69188,47.8987516 43.7072325,48.0003033 43.725255,48.1011824 C43.7499525,48.2397231 43.7726475,48.3796088 43.79868,48.5174769 C44.57832,52.6730242 45.9340125,56.5192088 47.80902,59.8515824 L47.8163625,59.8643604 C47.5079775,60.5281451 45.8218725,64.0609319 44.9287575,65.9352659 C44.750535,66.3098637 44.617035,66.5876176 44.5602975,66.7073275 C44.528925,66.6642857 44.47686,66.5903077 44.47686,66.5903077 C42.5684775,63.868589 40.9758225,60.7561319 39.7396125,57.3403648 C39.7329375,57.3215341 39.7249275,57.3033758 39.7182525,57.2845451 C39.7049025,57.2482286 39.693555,57.210567 39.6795375,57.1742505 C37.816545,51.9588 36.831315,46.0883077 36.831315,40.1868791 C36.831315,34.4307165 37.7264325,28.9287692 39.4752825,23.8128527 C39.3551325,23.5667077 39.244995,23.3481363 39.1455375,23.1571385 C37.26786,28.4640527 36.31467,34.1919692 36.31467,40.1868791 C36.31467,46.1454725 37.3099125,52.0744747 39.191595,57.3444 C39.2056125,57.3840791 39.2176275,57.4237582 39.2323125,57.4620923 C39.293055,57.6315692 39.3591375,57.7956659 39.4218825,57.9631253 C39.76431,58.8824703 40.1347725,59.779622 40.5299325,60.6525626 L40.5392775,60.6525626 C40.5913425,60.7695824 40.644075,60.8845846 40.6968075,60.9995868 L40.686795,60.9995868 C40.8276375,61.3035692 40.972485,61.602844 41.119335,61.9014462 L41.405025,61.9014462 C41.461095,62.0164484 41.517165,62.1334681 41.575905,62.2477978 L41.290215,62.2477978 C41.4430725,62.5524527 41.6019375,62.8510549 41.7608025,63.1489846 L41.7674775,63.1489846 C41.8315575,63.2639868 41.890965,63.3816791 41.95371,63.4960088 L41.947035,63.4960088 C42.11391,63.8006637 42.28746,64.0992659 42.462345,64.3971956 L42.46635,64.3971956 C42.5337675,64.5128703 42.59985,64.6292176 42.667935,64.7442198 L42.662595,64.7442198 C42.8448225,65.0495473 43.0343925,65.3481495 43.2252975,65.6454066 L43.7779875,65.6454066 C43.7352675,65.7086242 43.6938825,65.7725143 43.6511625,65.8350593 C43.61445,65.8875165 43.578405,65.9393011 43.541025,65.9917582 L43.44891,65.9917582 C43.61178,66.2399209 43.77732,66.4847209 43.944195,66.7275033 C43.94553,66.7275033 43.94553,66.7268308 43.94553,66.7268308 L44.47419,66.5903077 L44.5589625,66.7113626 C44.526255,66.7799604 44.4962175,66.8411604 44.47152,66.8929451 C44.4021,66.9911341 44.3320125,67.0859604 44.2612575,67.1821319 L44.304645,67.2413143 L40.31166,75.5315604 L48.640725,79.6070769 L51.3888225,73.8979912 L58.37421,59.3969538 C58.431615,59.3001099 58.490355,59.2032659 58.543755,59.1030593 C58.54776,59.093644 58.7246475,58.7271165 58.7246475,58.7271165 C58.7366625,58.7002154 58.802745,58.5589846 58.802745,58.5589846 L58.7727075,58.4729011 L58.7727075,58.4729011 Z" id="Fill-184" fill="#FFE256"></path>
                <g id="Group-188" transform="translate(0.000000, 2.017582)">
                    <mask id="mask-4" fill="white">
                        <use xlink:href="#path-3"></use>
                    </mask>
                    <g id="Clip-186"></g>
                    <path d="M22.0542,24.5983648 L23.67489,23.6965055 L23.6541975,23.9359253 L23.684235,23.9002813 L23.684235,44.0700527 C23.1001725,44.0001099 22.5448125,44.0364264 22.0542,44.2260791 L22.0542,24.5983648 Z M24.592035,37.8693495 C25.379685,37.0434857 26.2547775,36.6056703 27.2012925,36.5760791 C28.914765,36.5229495 30.37392,37.8034418 30.682305,38.0933011 L30.6616125,47.7696264 C30.6616125,47.7696264 27.4696275,45.0512703 24.592035,44.2543253 L24.592035,37.8693495 Z M24.592035,32.6727297 C27.78936,34.5114198 29.988105,33.4750549 30.69432,33.0271516 L30.6856425,36.9500044 C27.94956,34.8147297 25.6153125,35.9304527 24.592035,36.6500571 L24.592035,32.6727297 Z M24.592035,23.1853846 L27.0050475,21.8410022 L30.71034,25.862044 L30.6963225,31.8825099 L30.663615,31.9080659 C27.948225,33.9996264 25.2989175,32.1239473 24.592035,31.5388484 L24.592035,23.1853846 Z M43.6605075,37.4597802 L43.602435,35.6836352 L43.5990975,35.6157099 C43.5817425,35.3278681 43.5590475,35.0406989 43.5350175,34.7548747 C43.5203325,34.5719473 43.5016425,34.3896923 43.4842875,34.2067648 C43.012365,29.3363209 41.7033975,24.7819648 39.661515,20.9626813 C39.5714025,20.7945495 39.47595,20.6351604 39.3831675,20.4697187 C36.024975,14.4828791 31.19094,11.0610593 26.0451825,11.0717945 C22.6149,11.0785451 19.2954225,12.6058549 16.4465325,15.4889802 C11.45964,20.5336088 8.49327,29.0451165 8.51253334,38.2567253 C8.5299825,47.4690066 11.5310625,55.9690813 16.5373125,60.9928615 C17.017245,61.4750637 17.5118625,61.9142242 18.0164925,62.3197582 C19.3715175,63.4058901 20.808645,64.2129231 22.2951675,64.7220264 C23.5527375,65.152444 24.8450175,65.3723604 26.1533175,65.3696947 C31.2837225,65.3602549 36.0883875,61.9202769 39.4218825,55.9455429 C39.3591375,55.7780835 39.293055,55.6139868 39.2323125,55.4445099 C39.2176275,55.4061758 39.2056125,55.3664967 39.191595,55.3268176 C35.9442075,61.3694769 31.197615,64.8390462 26.1519825,64.8498066 C24.8436825,64.8524967 23.5514025,64.6191297 22.2938325,64.1671912 C22.28916,60.1676703 22.271805,47.7763516 22.271805,47.2995297 C26.6579475,47.7548308 27.894825,51.8021011 27.945555,51.9776308 L28.185855,52.802822 L28.4401725,51.983011 C29.72244,47.8516747 34.6933125,46.8038769 34.743375,46.793789 L34.9509675,46.7520923 L34.951635,23.7772088 L34.80345,23.7065934 C31.2503475,21.9997187 29.95473,19.327767 29.9420475,19.3008659 L29.82123,19.0453055 C29.82123,19.0453055 26.8715475,20.7784088 24.59604,22.1147209 C24.58536,20.2114681 24.24894,18.9410637 23.58945,18.3478945 C23.17026,17.9712791 22.776435,18.017011 22.73238,18.0237363 L22.6649625,18.0338242 L22.6102275,18.0761934 C22.11294,18.4729846 21.5662575,18.9861231 21.7611675,19.4394066 C21.96342,19.9081582 22.8198225,19.8731868 23.30643,19.8133319 C23.644185,20.1812044 23.7623325,21.2135341 23.7623325,22.165833 C23.7623325,22.3184967 23.75766,22.4657802 23.7529875,22.6103736 C22.8398475,23.146378 22.1563275,23.5485495 22.0275,23.6245451 C20.46021,19.8509934 17.2061475,18.6505319 17.0646375,18.6007648 L16.8523725,18.5261143 L14.21775,23.7160088 L14.8498725,23.4705363 C15.583455,23.183367 16.18287,23.2055604 16.68216,23.5357714 C18.04119,24.4383033 18.1620075,27.3187385 18.1633425,27.3483297 C18.162675,27.3483297 18.066555,31.7083253 18.045195,32.6747473 C15.8658075,33.1098725 14.381955,34.0171121 13.666395,35.3951209 C13.300605,36.0999297 13.1784525,36.8329846 13.1784525,37.4967692 C13.1784525,38.7846593 13.637025,39.8142989 13.666395,39.8788615 L13.9861275,40.5816527 L14.1530025,39.8270769 C14.5294725,38.1316352 15.1943025,37.0313802 16.12947,36.5565758 C16.953165,36.1382637 17.7655125,36.3292615 18.0885825,36.4335033 C18.0845775,36.7805275 18.0218325,43.5279956 18.018495,43.8514813 C14.4613875,45.0169714 13.930725,47.9996308 13.930725,49.6291648 C13.930725,50.2781538 14.01216,50.710589 14.01483,50.7260571 L14.160345,51.4517143 L14.4974325,50.7939824 C15.8751525,48.1092527 17.4371025,47.6405011 18.0164925,47.5584527 L18.0164925,61.6499209 C17.63802,61.3304703 17.265555,60.9888264 16.9017675,60.623644 C11.9903025,55.6946901 9.047295,47.3338286 9.028605,38.2560527 C9.0105825,29.1789495 11.920215,20.8046374 16.811655,15.8561802 C19.56309,13.0732615 22.7557425,11.5990813 26.0465175,11.592356 C31.1101725,11.5815956 35.88213,15.0531824 39.1535475,21.1160176 C39.1508775,21.1240879 39.1482075,21.1321582 39.1455375,21.139556 C39.244995,21.3305538 39.3551325,21.5491253 39.4752825,21.7952703 C39.47862,21.7851824 39.4819575,21.774422 39.4846275,21.7643341 C40.4978925,23.7630857 41.3162475,25.9528352 41.9223375,28.2770901 C41.9290125,28.3033187 41.9356875,28.3302198 41.9436975,28.3571209 C42.00711,28.605956 42.069855,28.8574813 42.12993,29.1103516 C42.1506225,29.2031604 42.171315,29.2966418 42.192675,29.3901231 C42.235395,29.5811209 42.2787825,29.7707736 42.3188325,29.9631165 C42.355545,30.1366286 42.3895875,30.3121582 42.4242975,30.4870154 C42.44766,30.6033626 42.470355,30.7183648 42.4923825,30.8347121 C42.542445,31.1077582 42.5898375,31.3821495 42.635895,31.6572132 C42.6399,31.6814242 42.643905,31.7049626 42.64791,31.7291736 C42.85617,33.0089934 43.004355,34.3177319 43.0864575,35.6486637 C43.0864575,35.6486637 43.1051475,35.7340747 43.1104875,35.8753055 C43.1024775,35.7952747 43.0944675,35.7186066 43.0864575,35.6486637 C43.07511,35.7192791 43.0877925,35.9667692 43.076445,36.0407473 C43.07511,36.0730286 43.073775,36.1086725 43.07244,36.144989 C43.135185,37.3622637 43.14186,38.6306505 43.076445,39.9454418 L43.0998075,40.7127956 C43.1064825,40.8392308 43.116495,40.9649934 43.12584,41.090756 C43.1451975,41.3981011 43.1665575,41.7041011 43.19259,42.0080835 C43.19793,42.069956 43.2026025,42.131156 43.2106125,42.1930286 C43.3868325,41.6065846 43.4976375,40.9515429 43.5683925,40.3603912 C43.45692,39.2628264 43.23264,37.0851824 43.1131575,35.9015341 C43.1118225,35.8779956 43.1104875,35.8564747 43.1131575,35.8315912 C43.2226275,36.9284835 43.45158,39.1989363 43.5683925,40.3590462 C43.6031025,40.0685143 43.6271325,39.7934505 43.6444875,39.5486505 L43.658505,39.0805714 C43.67052,38.6716747 43.6805325,38.3172527 43.6832025,38.2157011 L43.6845375,38.1854374 L43.6605075,37.4597802 L43.6605075,37.4597802 Z" id="Fill-185" fill="#000A1A" mask="url(#mask-4)"></path>
                    <path d="M48.7081425,55.6139868 L48.7295025,55.6738418 L48.9310875,56.3934462 C48.9364275,56.414967 49.01586,56.5884791 49.022535,56.61 C49.471095,55.4545978 49.8175275,54.0759165 50.194665,52.7960967 C50.196,52.791389 50.6732625,51.0549231 50.6732625,51.0549231 C51.406845,48.1738154 51.8907825,45.1972088 52.1150625,42.2051341 C52.2218625,40.7941714 52.2739275,39.3932967 52.2713552,38.0388264 C52.2685875,36.7516088 52.2151875,35.4536308 52.1123925,34.0857099 L52.085025,33.513389 C51.64047,28.3261846 50.461665,23.3259429 48.6120225,18.8529626 L48.5639625,18.739978 L48.30831,18.1252879 L48.24156,18.0069231 L48.24156,18.0062505 C47.692875,17.0223429 44.46084,11.2332264 44.46084,11.2332264 C44.46084,11.2332264 44.4468225,11.2049802 44.42079,11.1505055 L43.0517475,9.50684835 L43.015035,9.46313407 C38.281125,3.68545055 32.3343675,0.54003956 26.0612025,0.552778803 C20.656455,0.563578022 15.47532,2.92078681 11.0784975,7.36821099 C4.11714,14.4109187 -0.02403,25.9158462 -0.000104008268,38.1450857 C0.041385,58.8434637 11.7993975,75.6600132 26.21139,75.6318026 C32.9898525,75.617644 39.38784,71.9026022 44.2612575,65.1645495 L44.0556675,64.8733451 C44.01762,64.8202154 43.981575,64.7637231 43.944195,64.7099209 C39.156885,71.4008967 32.866365,75.0977802 26.2093875,75.1112308 C12.0837525,75.1388044 0.55803,58.555622 0.5173125,38.1437407 C0.492615,26.0496791 4.577715,14.6826198 11.444955,7.73541099 C15.74232,3.38752088 20.79663,1.08344176 26.0625375,1.07335385 C32.839665,1.05923077 39.2389875,4.8421978 44.0817,11.7234989 L44.309985,12.0644703 L44.46351,12.3012 C44.46351,12.3018725 44.953455,13.1795209 45.5375175,14.2266462 L47.970555,18.8415297 C49.914315,23.4248044 51.1178175,28.4647253 51.5503575,33.8234242 L51.57105,34.0857099 L51.59508,34.0857099 C51.64848,34.798589 51.74994,36.0972396 51.75528,38.0401714 C51.756615,39.3805187 51.705885,40.7686154 51.5997525,42.1654549 C51.3781425,45.1279385 50.9002125,48.0736088 50.1753075,50.9210901 C50.1766425,50.9170549 49.698045,52.6521758 49.698045,52.6521758 L48.7081425,55.6139868 Z" id="Fill-187" fill="#000A1A" mask="url(#mask-4)"></path>
                </g>
            </g>
        </g>
    </g>
</svg>