<?xml version="1.0" encoding="UTF-8"?>
<svg width="68px" height="81px" viewBox="0 0 68 81" version="1.1" xmlns="http://www.w3.org/2000/svg" xmlns:xlink="http://www.w3.org/1999/xlink">
    <title>YVG New Logo Mitre only (2)</title>
    <defs>
        <polygon id="path-1" points="0.03672 0.173108172 67.272264 0.173108172 67.272264 80.0946434 0.03672 80.0946434"></polygon>
    </defs>
    <g id="Page-1" stroke="none" stroke-width="1" fill="none" fill-rule="evenodd">
        <g id="Home" transform="translate(-1231.000000, -3559.000000)">
            <g id="YVG-New-Logo-Mitre-only-(2)" transform="translate(1231.000000, 3559.000000)">
                <g id="Group-4">
                    <mask id="mask-2" fill="white">
                        <use xlink:href="#path-1"></use>
                    </mask>
                    <g id="Clip-2"></g>
                    <path d="M62.979084,62.8578407 C62.979084,60.8037868 57.423348,61.1451096 55.537164,61.6901251 C52.06284,62.6988013 48.348612,65.4972815 43.032168,65.4972815 C36.585972,65.4972815 33.908472,60.8851415 33.582276,60.2740636 L33.508836,60.2740636 C33.180192,60.8851415 30.50514,65.4972815 24.060168,65.4972815 C18.743724,65.4972815 15.025824,62.6988013 11.55456,61.6901251 C9.671436,61.1451096 4.334796,60.7793192 4.31578395,63.087836 C4.309092,64.0818317 5.151204,64.3595388 6.709356,64.303875 C9.424188,64.2084514 12.084552,63.052358 12.084552,63.052358 C12.084552,63.052358 10.534968,64.7461266 8.063712,65.819642 C10.752228,66.0374035 14.926068,64.6207302 14.926068,64.6207302 C14.926068,64.6207302 12.439512,66.3432483 11.192868,66.7940636 C10.071072,67.1971671 9.071676,67.479156 8.058204,67.488943 L59.01822,67.488943 C58.05738,67.4045299 57.012696,67.1971671 55.89702,66.7940636 C54.652824,66.3432483 52.16688,64.6207302 52.16688,64.6207302 C52.16688,64.6207302 56.344392,66.0374035 59.026788,65.819642 C56.560428,64.7461266 55.007784,63.052358 55.007784,63.052358 C55.007784,63.052358 57.446604,64.2855243 60.163272,64.303875 C62.03538,64.3222257 62.979084,64.1595162 62.979084,62.8578407 Z M66.271032,79.5367825 L0.820692,79.5367825 L0.820692,67.488943 L5.290128,67.488943 C4.29012,67.488943 -0.550188,66.1719752 0.840888,61.8363189 C1.515312,59.7345533 5.061852,57.8909207 9.350136,58.0603587 C15.045408,58.2756734 19.121328,62.3403512 24.03018,62.3440213 C27.656892,62.3519733 29.03022,60.5566642 29.227284,60.2697817 L28.656288,60.2661116 L20.456712,60.2661116 C19.28718,60.2661116 18.343476,59.3234978 18.343476,58.1576173 C18.343476,56.9990771 19.276164,56.0619686 20.43162,56.0491231 C20.484864,55.9867308 20.52036,55.9543112 20.52036,55.9543112 C20.52036,55.9543112 19.903464,50.964147 17.731476,47.6047474 C14.92056,43.2580807 11.20572,35.9661283 11.34036,31.0120538 C11.547828,23.2790732 16.80858,17.3897252 21.033216,14.0027996 C25.311708,10.5761141 32.363172,6.89251903 32.363172,6.89251903 L32.363172,4.94184072 L30.250548,4.94184072 L30.250548,2.98382214 L32.363172,2.98382214 L32.363172,0.767670517 L34.73406,0.767670517 L34.73406,2.98382214 L36.843624,2.98382214 L36.843624,4.94184072 L34.73406,4.94184072 L34.73406,6.89251903 C34.73406,6.89251903 41.858352,10.4813022 46.059732,14.0027996 C49.254984,16.6868938 55.54818,23.2790732 55.752588,31.0120538 C55.88784,35.9661283 52.113024,43.2177092 49.359024,47.6047474 C47.322288,50.8509844 46.571364,55.9543112 46.571364,55.9543112 C46.571364,55.9543112 46.608696,55.9928477 46.65888,56.0503465 C47.795364,56.0894946 48.701124,57.0180395 48.701124,58.1576173 C48.701124,59.3210511 47.75742,60.2661116 46.592784,60.2661116 L38.438496,60.2661116 L37.869336,60.2697817 C38.064564,60.5566642 39.439116,62.3519733 43.065216,62.3440213 C47.964888,62.3403512 52.048152,58.2756734 57.741588,58.0603587 C62.030484,57.8909207 65.879352,59.7522923 66.472992,61.881584 C67.593564,65.8991616 63.85914,67.488943 62.07822,67.488943 L66.271032,67.488943 L66.271032,79.5367825 L66.271032,79.5367825 Z" id="Fill-1" fill="#FFFFFE" mask="url(#mask-2)"></path>
                    <path d="M10.601676,65.0752157 C11.78712,64.2512697 12.480516,63.5013382 12.523968,63.4530147 L13.064976,62.8615108 C13.629852,63.0939529 14.209416,63.3520859 14.80428,63.6187826 C14.979924,63.6976906 15.15618,63.7759868 15.334884,63.8548948 L14.735736,64.0579758 C14.708808,64.0671511 12.6837,64.7461266 10.601676,65.0752157 Z M51.758064,63.8536714 C51.933708,63.7759868 52.109352,63.6976906 52.283772,63.620006 C52.880472,63.3533093 53.46126,63.0939529 54.026748,62.8615108 L54.56898,63.4542381 C54.612432,63.5013382 55.307664,64.2512697 56.492496,65.0758273 C54.409248,64.74735 52.385364,64.0671511 52.357824,64.0579758 L51.758064,63.8536714 Z M6.350724,63.7166529 C5.470056,63.7166529 5.138352,63.5698474 5.015952,63.4450627 C4.986576,63.4157016 4.909464,63.3374053 4.91126777,63.0902827 C4.918032,62.1959924 6.608376,61.8760788 8.187336,61.8760788 C9.480492,61.8760788 10.727136,62.0693727 11.388708,62.2614432 C11.584548,62.3183304 11.781612,62.3813344 11.980512,62.4504553 L11.84832,62.5073425 C11.822616,62.5183529 9.25344,63.6187826 6.687324,63.710536 C6.571656,63.7135945 6.45966,63.7166529 6.350724,63.7166529 Z M55.124064,62.4455618 C55.317456,62.378276 55.510848,62.317107 55.702404,62.2614432 C56.357244,62.0712078 57.70548,61.8681268 59.11614,61.8681268 C61.070256,61.8681268 62.38422,62.2651134 62.38422,62.8578407 C62.38422,63.3710483 62.38422,63.710536 60.405624,63.710536 C60.329124,63.710536 60.249564,63.710536 60.169392,63.7093127 C57.630204,63.6921853 55.300932,62.5336451 55.277064,62.522023 L55.124064,62.4455618 Z M24.060168,66.0924556 C29.546748,66.0924556 32.428044,62.955711 33.548004,61.3365685 C34.645932,62.8963771 37.562112,66.0924556 43.032168,66.0924556 C46.011996,66.0924556 48.48876,65.2501589 50.688288,64.3197789 L51.82722,65.110082 C51.90984,65.1657457 53.425152,66.2135701 54.70668,66.893769 L12.386268,66.893769 C13.668408,66.2135701 15.184332,65.1657457 15.265116,65.110082 L16.404048,64.3210023 C18.604188,65.2513823 21.081564,66.0924556 24.060168,66.0924556 Z M35.329536,0.173108172 L31.768308,0.173108172 L31.768308,2.3886481 L29.655684,2.3886481 L29.655684,5.53701476 L31.768308,5.53701476 L31.768308,6.5340689 C30.327048,7.3023511 24.468372,10.4898659 20.66112,13.5391388 C17.055828,16.4287608 10.973772,22.5395404 10.745496,30.9967616 C10.57536,37.2990001 16.118856,46.2064249 17.232084,47.9283312 C18.9108,50.5243421 19.63602,54.1932567 19.853892,55.5218466 C18.651312,55.7983303 17.748612,56.879186 17.748612,58.1576173 C17.748612,59.648305 18.963432,60.8618973 20.456712,60.8618973 L27.681372,60.8618973 C26.946972,61.3102658 25.786008,61.7488473 24.055884,61.7488473 L24.031404,61.7488473 C21.740076,61.7476239 19.600524,60.7952231 17.334288,59.7865469 C14.897916,58.7014094 12.378312,57.5795706 9.37278,57.4657963 C9.182448,57.4584561 8.99334,57.4541742 8.804844,57.4541742 C4.70934,57.4541742 1.042848,59.2604938 0.274176,61.6552588 C-0.219096,63.19427 -0.044676,64.6036029 0.779688,65.7340054 C1.119348,66.1995012 1.543464,66.5818073 1.99512,66.893769 L0.225216,66.893769 L0.225216,80.1313448 L66.865284,80.1313448 L66.865284,66.893769 L65.435652,66.893769 C65.795508,66.6252372 66.121704,66.3120521 66.392208,65.9554371 C67.005432,65.1504535 67.614984,63.761918 67.045824,61.721933 C66.379968,59.329003 62.529876,57.4553976 58.283208,57.4553976 C58.096548,57.4553976 57.90744,57.4584561 57.71772,57.4657963 C54.714024,57.5795706 52.191972,58.7026328 49.7556,59.7871586 C47.490588,60.7952231 45.351036,61.7476239 43.065216,61.7488473 L43.039512,61.7488473 C41.295312,61.7488473 40.134348,61.3090424 39.404232,60.8618973 L46.592784,60.8618973 C48.082392,60.8618973 49.295376,59.648305 49.295376,58.1576173 C49.295376,56.8883613 48.432456,55.8264681 47.245788,55.5340804 C47.493036,54.184693 48.284352,50.4368705 49.863312,47.9216027 C51.424524,45.4338608 56.506572,36.861642 56.34684,30.9961499 C56.11734,22.3309542 48.707244,15.450669 46.442232,13.5470908 C42.699852,10.4097346 36.79344,7.2846121 35.329536,6.52856369 L35.329536,5.53701476 L37.4391,5.53701476 L37.4391,2.3886481 L35.329536,2.3886481 L35.329536,0.173108172 Z M24.060168,65.4972815 C18.743724,65.4972815 15.025824,62.6988013 11.55456,61.6901251 C10.799352,61.4717519 9.487836,61.2815164 8.187336,61.2815164 C6.24546,61.2815164 4.327452,61.7048057 4.31577676,63.087836 C4.309092,64.0041471 5.022072,64.3106036 6.350724,64.3106036 C6.46578,64.3106036 6.58512,64.3081568 6.709356,64.303875 C9.424188,64.2084514 12.084552,63.052358 12.084552,63.052358 C12.084552,63.052358 10.534968,64.7461266 8.063712,65.819642 C8.254044,65.8361576 8.452944,65.8422745 8.657352,65.8422745 C11.324448,65.8422745 14.926068,64.6207302 14.926068,64.6207302 C14.926068,64.6207302 12.439512,66.3432483 11.192868,66.7940636 C10.071072,67.1971671 9.071676,67.479156 8.058204,67.488943 L59.01822,67.488943 C58.05738,67.4045299 57.012696,67.1971671 55.89702,66.7940636 C54.652824,66.3432483 52.16688,64.6207302 52.16688,64.6207302 C52.16688,64.6207302 55.77156,65.8422745 58.43376,65.8422745 C58.638168,65.8422745 58.836456,65.8361576 59.026788,65.819642 C56.560428,64.7461266 55.007784,63.052358 55.007784,63.052358 C55.007784,63.052358 57.446604,64.2855243 60.163272,64.303875 C60.245892,64.3050984 60.327288,64.3050984 60.405624,64.3050984 C62.116164,64.3050984 62.979084,64.1026291 62.979084,62.8578407 C62.979084,61.6552588 61.073928,61.2735644 59.11614,61.2735644 C57.730572,61.2735644 56.318076,61.4644116 55.537164,61.6901251 C52.06284,62.6988013 48.348612,65.4972815 43.032168,65.4972815 C36.585972,65.4972815 33.908472,60.8851415 33.582276,60.2740636 L33.508836,60.2740636 C33.180192,60.8851415 30.50514,65.4972815 24.060168,65.4972815 L24.060168,65.4972815 Z M34.73406,0.767670517 L34.73406,2.98382214 L36.843624,2.98382214 L36.843624,4.94184072 L34.73406,4.94184072 L34.73406,6.89251903 C34.73406,6.89251903 41.858352,10.4813022 46.059732,14.0027996 C49.254984,16.6868938 55.54818,23.2790732 55.752588,31.0120538 C55.88784,35.9661283 52.113024,43.2177092 49.359024,47.6047474 C47.322288,50.8509844 46.571364,55.9543112 46.571364,55.9543112 C46.571364,55.9543112 46.608696,55.9928477 46.65888,56.0503465 C47.795364,56.0894946 48.701124,57.0180395 48.701124,58.1576173 C48.701124,59.3210511 47.75742,60.2661116 46.592784,60.2661116 L38.438496,60.2661116 L37.869336,60.2697817 C38.06334,60.5554408 39.432996,62.3440213 43.039512,62.3440213 C43.047468,62.3440213 43.05726,62.3440213 43.065216,62.3440213 C47.964888,62.3403512 52.048152,58.2756734 57.741588,58.0603587 C57.923352,58.0524067 58.103892,58.0493483 58.283208,58.0493483 C62.349336,58.0493483 65.905668,59.843434 66.472992,61.881584 C67.593564,65.8991616 63.85914,67.488943 62.07822,67.488943 L66.271032,67.488943 L66.271032,79.5367825 L0.820692,79.5367825 L0.820692,67.488943 L5.290128,67.488943 C4.29012,67.488943 -0.550188,66.1719752 0.840888,61.8363189 C1.485936,59.8244717 4.763808,58.0493483 8.804844,58.0493483 C8.985384,58.0493483 9.165924,58.0524067 9.350136,58.0603587 C15.045408,58.2756734 19.121328,62.3403512 24.03018,62.3440213 C24.038748,62.3440213 24.047316,62.3440213 24.055884,62.3440213 C27.663012,62.3440213 29.03022,60.5554408 29.227284,60.2697817 L28.656288,60.2661116 L20.456712,60.2661116 C19.28718,60.2661116 18.343476,59.3234978 18.343476,58.1576173 C18.343476,56.9990771 19.276164,56.0619686 20.43162,56.0491231 C20.484864,55.9867308 20.52036,55.9543112 20.52036,55.9543112 C20.52036,55.9543112 19.903464,50.964147 17.731476,47.6047474 C14.92056,43.2580807 11.20572,35.9661283 11.34036,31.0120538 C11.547828,23.2790732 16.80858,17.3897252 21.033216,14.0027996 C25.311708,10.5761141 32.363172,6.89251903 32.363172,6.89251903 L32.363172,4.94184072 L30.250548,4.94184072 L30.250548,2.98382214 L32.363172,2.98382214 L32.363172,0.767670517 L34.73406,0.767670517 L34.73406,0.767670517 Z" id="Fill-3" fill="#1A1919" mask="url(#mask-2)"></path>
                </g>
                <path d="M44.618472,46.0565609 C45.598284,44.3083519 50.295996,36.8861096 50.295996,31.1117592 C50.295996,24.3054884 45.757404,19.9392477 43.714548,18.2723934 C40.402404,15.574842 35.779968,12.7096877 35.779968,12.7096877 L35.779968,55.9530878 L41.671692,55.9530878 C41.671692,55.9530878 42.30144,50.1805726 44.618472,46.0565609" id="Fill-5" fill="#DB372F"></path>
                <path d="M31.295844,12.7096877 C31.295844,12.7096877 26.599356,15.6684305 23.282928,18.3641468 C21.240684,20.0328362 16.785324,24.3054884 16.785324,31.1117592 C16.785324,36.8861096 21.480588,44.3083519 22.464072,46.0565609 C24.780492,50.1805726 25.40718,55.9530878 25.40718,55.9530878 L31.295844,55.9530878 L31.295844,12.7096877" id="Fill-6" fill="#DB372F"></path>
                <polyline id="Fill-7" fill="#F1AD2F" points="37.817928 31.2714102 37.817928 28.7090423 41.024808 28.7090423 41.024808 25.0915097 43.829604 25.0915097 43.829604 28.7090423 47.026692 28.7090423 47.026692 31.2714102 43.829604 31.2714102 43.829604 39.638713 41.024808 39.638713 41.024808 31.2714102 37.817928 31.2714102"></polyline>
                <polyline id="Fill-8" fill="#F1AD2F" points="29.275632 31.2714102 26.067528 31.2714102 26.067528 39.638713 23.269464 39.638713 23.269464 31.2714102 20.075436 31.2714102 20.075436 28.7090423 23.269464 28.7090423 23.269464 25.0915097 26.067528 25.0915097 26.067528 28.7090423 29.275632 28.7090423 29.275632 31.2714102"></polyline>
                <polygon id="Fill-9" fill="#DB372F" points="2.185452 78.2534576 64.758168 78.2534576 64.758168 68.7435185 2.185452 68.7435185"></polygon>
                <path d="M40.257972,75.7406365 C39.534588,75.7406365 39.496032,74.937488 39.496032,74.4469129 L39.496032,72.7898456 C39.496032,72.3261848 39.4281,71.2844773 40.257972,71.2844773 C40.781232,71.2844773 40.744512,72.0001542 40.7898,72.3812369 L41.832036,72.3812369 C41.84244,72.2307612 41.825916,72.081509 41.813064,71.9285866 C41.734116,70.9082882 41.205348,70.4036442 40.257972,70.3852936 C38.561508,70.3852936 38.453796,71.5175311 38.40606,73.0345214 L38.40606,73.8866051 C38.40606,75.4806684 38.519892,76.640432 40.257972,76.640432 C41.443416,76.640432 41.789196,75.8042522 41.84244,74.7154446 C41.847336,74.600447 41.858352,74.4848376 41.864472,74.3728984 L40.797756,74.3728984 C40.77756,74.7539811 40.842432,75.7406365 40.257972,75.7406365" id="Fill-10" fill="#F1AD2F"></path>
                <path d="M36.453168,74.3459841 C36.453168,74.9173022 36.440928,75.7406365 35.683272,75.7406365 C34.962336,75.7406365 34.924392,74.937488 34.924392,74.4469129 L34.924392,72.7898456 C34.924392,72.3261848 34.854624,71.2844773 35.683272,71.2844773 C36.474588,71.2844773 36.453168,72.3420888 36.453168,72.8222651 L36.453168,74.3459841 Z M35.683272,70.3852936 C33.992928,70.3852936 33.877872,71.5175311 33.829524,73.0345214 L33.829524,73.8866051 C33.829524,75.4806684 33.945804,76.640432 35.683272,76.640432 C37.4238,76.640432 37.538244,75.4806684 37.538244,73.8866051 L37.538244,73.0345214 C37.492956,71.5175311 37.378512,70.3852936 35.683272,70.3852936 L35.683272,70.3852936 Z" id="Fill-11" fill="#F1AD2F"></path>
                <path d="M45.253116,74.5961651 C45.253116,75.1662599 45.21456,75.7406365 44.524836,75.7406365 C43.806348,75.7406365 43.76718,75.1662599 43.76718,74.5961651 L43.76718,70.5296523 L42.707196,70.5296523 L42.707196,74.6915887 C42.707196,76.011615 43.122744,76.640432 44.518716,76.640432 C45.901836,76.640432 46.310652,76.011615 46.310652,74.6915887 L46.310652,70.5296523 L45.253116,70.5296523 L45.253116,74.5961651" id="Fill-12" fill="#F1AD2F"></path>
                <polyline id="Fill-13" fill="#F1AD2F" points="48.388392 70.5296523 47.331468 70.5296523 47.331468 76.500355 50.35842 76.500355 50.35842 75.6250271 48.388392 75.6250271 48.388392 70.5296523"></polyline>
                <path d="M53.677296,74.3459841 C53.677296,74.9173022 53.673624,75.7406365 52.91352,75.7406365 C52.189524,75.7406365 52.14852,74.937488 52.14852,74.4469129 L52.14852,72.7898456 C52.14852,72.3261848 52.083036,71.2844773 52.91352,71.2844773 C53.69994,71.2844773 53.677296,72.3420888 53.677296,72.8222651 L53.677296,74.3459841 Z M52.91352,70.3852936 C51.22134,70.3852936 51.108732,71.5175311 51.060996,73.0345214 L51.060996,73.8866051 C51.060996,75.4806684 51.173604,76.640432 52.91352,76.640432 C54.655272,76.640432 54.769716,75.4806684 54.769716,73.8866051 L54.769716,73.0345214 C54.72198,71.5175311 54.609984,70.3852936 52.91352,70.3852936 L52.91352,70.3852936 Z" id="Fill-14" fill="#F1AD2F"></path>
                <path d="M57.302784,72.6931986 C56.965572,72.471767 56.69568,72.2992705 56.69568,71.8466201 C56.69568,71.4367881 56.921508,71.2844773 57.276468,71.2844773 C57.859704,71.2844773 57.90438,71.8099188 57.897036,72.3420888 L58.917852,72.3420888 C58.911732,71.7536433 58.954572,70.3852936 57.269124,70.3852936 C56.14794,70.3852936 55.604484,70.9449896 55.604484,71.9628412 C55.604484,72.278473 55.702404,72.6081738 55.878048,72.8773172 C56.30706,73.4743263 57.000456,73.8015803 57.54942,74.2536189 C57.820536,74.4536414 57.973536,74.6915887 57.973536,75.043922 C57.973536,75.4910671 57.756888,75.7406365 57.311352,75.7406365 C56.792376,75.7406365 56.624076,75.319794 56.649168,74.7368538 L56.649168,74.3845205 L55.586124,74.3845205 L55.586124,74.8292189 C55.586124,75.8892771 56.04084,76.640432 57.311352,76.640432 C58.349916,76.640432 59.06106,76.055045 59.06106,74.9173022 C59.06106,74.4028712 58.945392,74.0431977 58.584312,73.670067 C58.291164,73.3703391 57.646116,72.9219706 57.302784,72.6931986" id="Fill-15" fill="#F1AD2F"></path>
                <polyline id="Fill-16" fill="#F1AD2F" points="9.104112 70.5296523 8.046576 70.5296523 8.046576 76.500355 11.069244 76.500355 11.069244 75.6250271 9.104112 75.6250271 9.104112 70.5296523"></polyline>
                <polyline id="Fill-17" fill="#F1AD2F" points="11.7963 76.500355 14.777352 76.500355 14.777352 75.6250271 12.85506 75.6250271 12.85506 73.7850647 14.624964 73.7850647 14.624964 72.9066783 12.85506 72.9066783 12.85506 71.4055919 14.777352 71.4055919 14.777352 70.5296523 11.7963 70.5296523 11.7963 76.500355"></polyline>
                <path d="M31.30686,72.7898456 C30.921912,72.7898456 30.614076,73.112206 30.614076,73.5122511 C30.614076,73.9129078 30.921912,74.2389384 31.30686,74.2389384 C31.688748,74.2389384 32.002704,73.9129078 32.002704,73.5122511 C32.002704,73.112206 31.688748,72.7898456 31.30686,72.7898456" id="Fill-18" fill="#F1AD2F"></path>
                <path d="M25.267644,74.3569945 C25.210728,74.6915887 25.170948,75.0274063 25.141572,75.373011 C25.1226,75.5314386 25.092,75.7008767 25.092,75.8666446 L25.076088,75.8666446 C25.076088,75.7008767 25.049772,75.5314386 25.0308,75.373011 C25.005096,75.0274063 24.965316,74.6915887 24.904116,74.3569945 L24.237036,70.5296523 L23.101776,70.5296523 L24.358824,76.500355 L25.771932,76.500355 L26.997156,70.5296523 L25.866792,70.5296523 L25.267644,74.3569945" id="Fill-19" fill="#F1AD2F"></path>
                <polygon id="Fill-20" fill="#F1AD2F" points="27.672804 76.500355 28.732176 76.500355 28.732176 70.5296523 27.672804 70.5296523"></polygon>
                <path d="M20.670912,74.1092602 L20.987928,72.4148798 C21.036276,72.1359493 21.06198,71.8680293 21.090132,71.5872637 C21.099924,71.4502452 21.114,71.3168969 21.128076,71.1890538 L21.147048,71.1890538 C21.158676,71.3168969 21.1752,71.4502452 21.186828,71.5872637 C21.212532,71.8680293 21.235788,72.1359493 21.289032,72.4148798 L21.576672,74.1092602 L20.670912,74.1092602 Z M21.872268,70.5296523 L20.440188,70.5296523 L19.08828,76.500355 L20.219868,76.500355 L20.499552,74.9845881 L21.744972,74.9845881 L22.021596,76.500355 L23.156856,76.500355 L21.872268,70.5296523 L21.872268,70.5296523 Z" id="Fill-21" fill="#F1AD2F"></path>
                <path d="M18.01116,70.5296523 L17.415072,74.3569945 C17.357544,74.6915887 17.318376,75.0274063 17.28594,75.373011 C17.270028,75.5314386 17.24004,75.7008767 17.24004,75.8666446 L17.22474,75.8666446 C17.22474,75.7008767 17.194752,75.5314386 17.180676,75.373011 C17.151912,75.0274063 17.115192,74.6915887 17.052768,74.3569945 L16.386912,70.5296523 L15.25104,70.5296523 L16.507476,76.500355 L17.918748,76.500355 L19.148256,70.5296523 L18.01116,70.5296523" id="Fill-22" fill="#F1AD2F"></path>
            </g>
        </g>
    </g>
</svg>